<?xml version="1.0" encoding="UTF-8"?><svg id="uuid-165928f9-6586-4a55-8c82-9e24c3159db2" xmlns="http://www.w3.org/2000/svg" viewBox="0 0 80 80"><rect x="42.76" y="36.69" width="18.7" height="18.7" transform="translate(-13.17 22.08) rotate(-21.31)" style="fill:#12526e;"/><polygon points="37.51 33.69 17.2 35.47 28.89 52.16 37.51 33.69" style="fill:#f5e6d9;"/><path d="m65.22,19.8h-15.49c0,.06,0,.11,0,.17,0,.62-.06,1.23-.15,1.83h15.62c.48,0,.88.39.88.88v37.18c0,.48-.39.88-.88.88H14.78c-.48,0-.88-.39-.88-.88V22.68c0-.48.39-.88.88-.88h9.7c-.09-.6-.15-1.21-.15-1.83,0-.06,0-.11,0-.17h-9.56c-1.59,0-2.88,1.29-2.88,2.88v37.18c0,1.59,1.29,2.88,2.88,2.88h50.44c1.59,0,2.88-1.29,2.88-2.88V22.68c0-1.59-1.29-2.88-2.88-2.88Z" style="fill:#f5e6d9;"/><circle cx="37.04" cy="19.97" r="10.71" style="fill:#12526e;"/></svg>