<?xml version="1.0" encoding="UTF-8"?><svg id="uuid-1f0a220f-5445-4845-a14e-d1a83e5ebfb8" xmlns="http://www.w3.org/2000/svg" viewBox="0 0 80 80"><rect x="27.14" y="26.01" width="44.2" height="44.2" rx="4.91" ry="4.91" style="fill:#fff;"/><g><path d="m23.63,9.05h7.93l16.4,42.59h-7.99l-4-11.27h-17l-4,11.27h-7.69L23.63,9.05Zm-2.62,25.65h13l-6.38-18.31h-.18l-6.44,18.31Z" style="fill:#12526e;"/><path d="m67.71,19.68h-29.91l.77,2h28.14v29.24h-12.39c-.91,0-1.65.74-1.65,1.65v12.39h-29.24v-22.59h-2v23.59c0,.55.45,1,1,1h29.86c.24,0,.47-.1.64-.26l15.51-15.51c.17-.17.26-.4.26-.64v-29.86c0-.55-.45-1-1-1Z" style="fill:#a7bfc1;"/></g></svg>