<?xml version="1.0" encoding="UTF-8"?><svg id="uuid-a1b0c540-e603-4a73-a3a7-bab9f8b6cb56" xmlns="http://www.w3.org/2000/svg" viewBox="0 0 80 80"><rect x="12.64" y="12.51" width="10.45" height="10.45" rx=".5" ry=".5" style="fill:#12526e;"/><rect x="57.2" y="12.51" width="10.45" height="10.45" rx=".5" ry=".5" style="fill:#12526e;"/><rect x="12.64" y="57.58" width="10.45" height="10.45" rx=".5" ry=".5" style="fill:#12526e;"/><path d="m37.3,25.27h5.63l11.65,30.25h-5.68l-2.84-8.01h-12.07l-2.84,8.01h-5.47l11.61-30.25Zm-1.86,18.22h9.24l-4.53-13.01h-.13l-4.58,13.01Z" style="fill:#f5e6d9;"/><path d="m49.66,61.8h-30.8V19.24h42.56v30.8h2v-31.8c0-.55-.45-1-1-1H17.86c-.55,0-1,.45-1,1v44.56c0,.55.45,1,1,1h31.8v-2Z" style="fill:#12526e;"/><g><g><path d="m62.42,60.04c-.55,0-1-.45-1-1v-6.86c0-.55.45-1,1-1s1,.45,1,1v6.86c0,.55-.45,1-1,1Z" style="fill:#f5e6d9;"/><path d="m62.42,74.43c-.55,0-1-.45-1-1v-6.86c0-.55.45-1,1-1s1,.45,1,1v6.86c0,.55-.45,1-1,1Z" style="fill:#f5e6d9;"/></g><g><path d="m73.05,63.8h-6.86c-.55,0-1-.45-1-1s.45-1,1-1h6.86c.55,0,1,.45,1,1s-.45,1-1,1Z" style="fill:#f5e6d9;"/><path d="m58.65,63.8h-6.86c-.55,0-1-.45-1-1s.45-1,1-1h6.86c.55,0,1,.45,1,1s-.45,1-1,1Z" style="fill:#f5e6d9;"/></g></g></svg>