<?xml version="1.0" encoding="UTF-8"?><svg id="uuid-b771598e-72d3-4b2d-afa0-1b0c6da18c3f" xmlns="http://www.w3.org/2000/svg" viewBox="0 0 80 80"><path d="m23.63,9.05h7.93l16.4,42.59h-7.99l-4-11.27h-17l-4,11.27h-7.69L23.63,9.05Zm-2.62,25.65h13l-6.38-18.31h-.18l-6.44,18.31Z" style="fill:#f5e6d9;"/><path d="m67.71,19.68h-29.91l.77,2h28.14v29.24h-12.39c-.91,0-1.65.74-1.65,1.65v12.39h-29.24v-22.59h-2v23.59c0,.55.45,1,1,1h29.86c.24,0,.47-.1.64-.26l15.51-15.51c.17-.17.26-.4.26-.64v-29.86c0-.55-.45-1-1-1Z" style="fill:#12526e;"/></svg>