<?xml version="1.0" encoding="UTF-8"?><svg id="uuid-34a76ca7-9f1e-41fd-bbbb-4bc5dc4a3c15" xmlns="http://www.w3.org/2000/svg" viewBox="0 0 80 80"><path d="m65.01,27.22s-2.46,10.93-12.62,10.93-14-10.93-24.15-10.93-13.25,8.2-13.25,8.2v18.48h50.02v-26.68Z" style="fill:#a7bfc1;"/><path d="m65.01,38.14s0,8.2-9.21,7.98-13.97-7.98-26.17-7.98-14.64,8.2-14.64,8.2v18.67h50.02v-26.86Z" style="fill:#12526e;"/><path d="m65.01,66.01H14.99c-.55,0-1-.45-1-1V14.99c0-.55.45-1,1-1h50.02c.55,0,1,.45,1,1v50.02c0,.55-.45,1-1,1Zm-49.02-2h48.02V15.99H15.99v48.02Z" style="fill:#a7bfc1;"/></svg>