<?xml version="1.0" encoding="UTF-8"?><svg id="uuid-e022f650-395d-420e-a723-f9f3af5f8c64" xmlns="http://www.w3.org/2000/svg" viewBox="0 0 80 80"><path d="m57.93,52.73l-16.72-18.08c-.36-.39-1.12-.12-1.14.42l-1.19,24.6c-.01.27.14.52.38.63.16.07.34.08.5.02.08-.03.16-.08.22-.14l6.32-5.9,3.1,8.53c.25.68,1,1.04,1.69.79s1.04-1.01.79-1.69l-3.1-8.53,8.63.46c.26.02.52-.13.63-.38s.07-.53-.11-.73Z" style="fill:#a7bfc1;"/><g><path d="m39.18,26.04c-.55,0-1-.45-1-1v-10.07c0-.55.45-1,1-1s1,.45,1,1v10.07c0,.55-.45,1-1,1Z" style="fill:#12526e;"/><path d="m54.77,31.56h-10.07c-.55,0-1-.45-1-1s.45-1,1-1h10.07c.55,0,1,.45,1,1s-.45,1-1,1Z" style="fill:#12526e;"/><path d="m33.65,31.56h-10.07c-.55,0-1-.45-1-1s.45-1,1-1h10.07c.55,0,1,.45,1,1s-.45,1-1,1Z" style="fill:#12526e;"/><path d="m43.08,27.65c-.26,0-.51-.1-.71-.29-.39-.39-.39-1.02,0-1.41l7.12-7.12c.39-.39,1.02-.39,1.41,0s.39,1.02,0,1.41l-7.12,7.12c-.2.2-.45.29-.71.29Z" style="fill:#12526e;"/><path d="m28.15,42.59c-.26,0-.51-.1-.71-.29-.39-.39-.39-1.02,0-1.41l7.12-7.12c.39-.39,1.02-.39,1.41,0s.39,1.02,0,1.41l-7.12,7.12c-.2.2-.45.29-.71.29Z" style="fill:#12526e;"/><path d="m35.27,27.65c-.26,0-.51-.1-.71-.29l-7.12-7.12c-.39-.39-.39-1.02,0-1.41.39-.39,1.02-.39,1.41,0l7.12,7.12c.39.39.39,1.02,0,1.41-.2.2-.45.29-.71.29Z" style="fill:#12526e;"/></g></svg>