<?xml version="1.0" encoding="UTF-8"?><svg id="uuid-0e8d4426-5bbc-4c6b-8ec1-d6960764b91c" xmlns="http://www.w3.org/2000/svg" viewBox="0 0 17.57 17.57"><g id="uuid-8d387b6e-6f89-4625-b9e3-626c688cee97"><path d="m8.99,9.58c-.26,0-.51-.1-.71-.29-.39-.39-.39-1.02,0-1.41L15.56.59c.39-.39,1.02-.39,1.41,0s.39,1.02,0,1.41l-7.29,7.29c-.2.2-.45.29-.71.29Z" style="fill:#12526e;"/><path d="m15.04,17.57H2.53c-1.39,0-2.53-1.13-2.53-2.53V2.53C0,1.13,1.13,0,2.53,0h6.26c.55,0,1,.45,1,1s-.45,1-1,1H2.53c-.29,0-.53.24-.53.53v12.51c0,.29.24.53.53.53h12.51c.29,0,.53-.24.53-.53v-6.26c0-.55.45-1,1-1s1,.45,1,1v6.26c0,1.39-1.13,2.53-2.53,2.53Z" style="fill:#12526e;"/><path d="m16.57,5.94c-.55,0-1-.45-1-1v-2.94h-2.94c-.55,0-1-.45-1-1s.45-1,1-1h3.16c.98,0,1.77.79,1.77,1.77v3.17c0,.55-.45,1-1,1Zm-.77-3.94h0,0Z" style="fill:#12526e;"/></g></svg>