<?xml version="1.0" encoding="UTF-8"?><svg id="uuid-5ae7c3fb-fd02-4cdd-a7b5-6d34d312c0b2" xmlns="http://www.w3.org/2000/svg" viewBox="0 0 65.21 64.64"><g id="uuid-836afe77-4a57-4aaf-86ec-9f385c77a573"><g><path d="m43.59,20.25l21.37,10.1c.15.07.25.23.25.4v33.45c0,.32-.34.54-.63.4l-21.37-10.1c-.15-.07-.25-.23-.25-.4V20.65c0-.32.34-.54.63-.4Z" style="fill:#f2f2f2;"/><path d="m.59.04l38.17,18.04c.14.07.24.21.24.37v26.1c0,.3-.32.5-.59.37L.24,26.88c-.14-.07-.24-.21-.24-.37V.41C0,.11.32-.09.59.04Z" style="fill:#f2f2f2;"/><polygon points="5.85 5.69 21.68 13.18 21.68 29.66 5.85 22.18 5.85 5.69" style="fill:#e0dddc;"/><polygon points="62.25 47.68 62.25 36.81 58.8 35.18 58.8 46.04 58.8 46.28 58.8 49.72 64.4 52.37 64.4 48.7 62.25 47.68" style="fill:#e0dddc;"/><g><line x1="30.29" y1="34.63" x2="35.95" y2="37.3" style="fill:none; stroke:#a39f9f; stroke-linecap:round; stroke-miterlimit:10; stroke-width:.5px;"/><line x1="30.29" y1="36.22" x2="35.95" y2="38.9" style="fill:none; stroke:#a39f9f; stroke-linecap:round; stroke-miterlimit:10; stroke-width:.5px;"/><line x1="30.29" y1="37.93" x2="35.95" y2="40.61" style="fill:none; stroke:#a39f9f; stroke-linecap:round; stroke-miterlimit:10; stroke-width:.5px;"/></g><g><line x1="44.61" y1="39.99" x2="49.23" y2="42.17" style="fill:none; stroke:#a39f9f; stroke-linecap:round; stroke-miterlimit:10; stroke-width:.5px;"/><line x1="44.61" y1="41.29" x2="49.23" y2="43.47" style="fill:none; stroke:#a39f9f; stroke-linecap:round; stroke-miterlimit:10; stroke-width:.5px;"/><line x1="44.61" y1="42.68" x2="49.23" y2="44.87" style="fill:none; stroke:#a39f9f; stroke-linecap:round; stroke-miterlimit:10; stroke-width:.5px;"/></g><g><line x1="2.03" y1="3.67" x2="7.7" y2="6.35" style="fill:none; stroke:#a39f9f; stroke-linecap:round; stroke-miterlimit:10; stroke-width:.5px;"/><line x1="2.03" y1="5.26" x2="7.7" y2="7.94" style="fill:none; stroke:#a39f9f; stroke-linecap:round; stroke-miterlimit:10; stroke-width:.5px;"/><line x1="2.03" y1="6.97" x2="7.7" y2="9.65" style="fill:none; stroke:#a39f9f; stroke-linecap:round; stroke-miterlimit:10; stroke-width:.5px;"/></g><polygon points="14.6 15.76 20.65 18.62 20.65 24.91 14.6 22.05 14.6 15.76" style="fill:#cbc8c8;"/><polygon points="45.78 28.94 51.82 31.8 51.82 38.09 45.78 35.23 45.78 28.94" style="fill:#cbc8c8;"/><g><polygon points="27.01 24.98 28.01 23.86 23.86 20.16 25.6 15.48 24.19 14.96 22.65 19.09 12.88 10.38 11.88 11.5 22.09 20.6 19.83 26.67 4.5 13.01 3.5 14.13 19.27 28.18 17.77 32.21 19.17 32.73 20.47 29.25 24.16 32.54 25.16 31.42 21.03 27.74 23.29 21.67 27.01 24.98" style="fill:#a39f9f;"/><rect x="22.91" y="24.81" width="14.75" height="1.5" transform="translate(-4.23 45.03) rotate(-69.58)" style="fill:#a39f9f;"/></g><g><polygon points="59.98 34.71 59.98 33.27 57.99 32.33 57.99 33.76 59.98 34.71" style="fill:#a39f9f;"/><polygon points="56.69 33.15 56.69 31.71 53.59 30.25 53.59 31.69 56.69 33.15" style="fill:#a39f9f;"/><polygon points="45.78 27.33 45.78 28 52.29 31.07 52.29 29.64 45.78 26.56 45.78 26.71 45.78 27.33" style="fill:#a39f9f;"/><polygon points="50.43 49.77 50.43 51.21 62.39 56.86 62.39 55.42 50.43 49.77" style="fill:#a39f9f;"/><polygon points="52.29 45.71 53.59 46.32 53.59 31.69 53.59 30.25 53.59 28.45 52.29 27.83 52.29 29.64 52.29 31.07 52.29 45.71" style="fill:#a39f9f;"/><polygon points="56.69 49.96 57.99 50.58 57.99 33.76 57.99 32.33 57.99 30.82 56.69 30.21 56.69 31.71 56.69 33.15 56.69 49.96" style="fill:#a39f9f;"/><polygon points="49.65 52.53 49.65 53.15 49.65 53.97 58.61 58.2 58.61 56.76 49.65 52.53" style="fill:#a39f9f;"/></g></g></g></svg>