<svg xmlns="http://www.w3.org/2000/svg" viewBox="0 0 212.09 270.89"><path d="M204.77,87.19h0a4.19,4.19,0,0,0-2.43-3.86L63.51,17.45a4.27,4.27,0,0,0-3.63,0L9.2,40.9c-3.29,1.52-3.31,6.19-3.28,7.16l0,9c0,2.1-.07,6.76,3.2,8.31L148,131.29a4.25,4.25,0,0,0,3.62,0l50.69-23.47a4.2,4.2,0,0,0,2.47-3.62h0Z" style="fill:#266e7f"/><polygon points="134.57 110.58 135.1 122.04 143.12 126.05 143.12 112.99 134.57 110.58" style="fill:#1b5966"/><path d="M132.16,121.37,9.24,63.94a2.31,2.31,0,0,1-1.32-2.09V50.51a2.31,2.31,0,0,1,3.31-2.09l117.87,55Z" style="fill:#1b5966"/><path d="M48.65,9.36C55.06,7.05,72.29,0,76,0S87.21,4.86,90.16,10.49,92,21.89,92.55,23.15s2.82,2.82,1.69,3.94S74.68,32,68.49,34.69s-19.85,8.46-23.36,7.74-7-1.55-8.86-11S34.58,15.56,37,13,42.89,11.45,48.65,9.36Z" style="fill:#f3f6f6"/><path d="M80.16,14.79l-8.77,11.9a1,1,0,0,0,.8,1.52s7.86-1.9,10.35-2.08l9.16-.7c.72-.06,1-.17.46-1.43s-10-8.51-10.85-9.31S80.41,14.45,80.16,14.79Z" style="fill:#e7ecec"/><path d="M29.73,24.82c-5.91,2.95-19.63,5.8-21,8.65s-.74,8.87,0,9.6S38.8,56,41.55,56s9.39-6.65,14-8.76,15.3-5.8,18.47-7.39,6-2.53,6.23-5,.31-3.37-2-5.91-1.37-.31-7-4.11-6-5.81-11.61-8.66-8.81-2.26-10.82-1.84S35.64,21.86,29.73,24.82Z" style="fill:#46a8be"/><path d="M54.92,38.19c-1.52.66-7.89,9.5-8.23,10S47,49.67,48,49.78s5.34-3.4,8.51-5.06A41.36,41.36,0,0,1,64,42a.25.25,0,0,0,0-.45C62.16,40.61,56.2,37.64,54.92,38.19Z" style="fill:#308496"/><path d="M15,40.68c-.74-.23-1.14,3.61-1.14,3.61L27,49.17a.41.41,0,0,0,.38-.72C23.67,45.87,17.08,41.35,15,40.68Z" style="fill:#308496"/><path d="M12.49,39.6l1.43.72s-.56,1.12-.8,1.73a6.64,6.64,0,0,0-.28,1.78l-1.37-.56a.5.5,0,0,1-.3-.6l.75-2.81A.4.4,0,0,1,12.49,39.6Z" style="fill:#308496"/><path d="M88.56,26C79.27,25,76,29.05,75.19,30.9s1.46,12.13.55,12.76-6-.32-8.23,1.69-.74,6.12-2.22,7.18-12.45,8.76-13.72,9-2.21,4.22-2.21,5.8,98.14,45.38,100,45.7,60.26-22,60.68-22.9,1.27-9.4,0-10.24-86.43-38.41-96-42.53S97.85,26.89,88.56,26Z" style="fill:#d4d7d2"/><path d="M107.59,67.23l-3.18-12.46a.29.29,0,0,0-.09-.15L77.07,31.27c-.37-.25-.67.09-.87,1.14a12.32,12.32,0,0,0,.12,3.13l1.6,13.69a.26.26,0,0,0,.14.21l29.12,18.1A.28.28,0,0,0,107.59,67.23Z" style="fill:#c3c7c1"/><path d="M67.54,50.31c-.6-.16-1.2.62-1.28,1.12a16.9,16.9,0,0,1-2.16,2.75.68.68,0,0,0,.37,1.12l17.35,3.8S68.14,50.47,67.54,50.31Z" style="fill:#c3c7c1"/><polygon points="108.81 59.1 112.11 61 113.73 69.02 112.25 69.64 108.81 59.1" style="fill:#c3c7c1"/><path d="M129.08,42.71s-9.79,10.84-9.93,11.4-1.41,17.73-1.41,17.73-7.6,12.52-7.6,13.08,3.71,27.07,4.58,28.18,1.25,3.62,4.76,1.55,10.36-6.23,11.63-6.37S151,115.37,151,115.37s28.84-10,31.09-10.32a15.45,15.45,0,0,1,9.15,1.82c3.09,1.83,7.74,7.18,8.3,6.76s4.93-11.82,6.33-15.62,1.55-23.08.85-23.64S151.37,48.9,146,47.92,133.85,43.7,129.08,42.71Z" style="fill:#9fcbd0"/><path d="M119.41,56.49l-1,15.14s41.06,17.7,41.85,17.92a5.62,5.62,0,0,0,2.88,0c.79-.26,1.25-.54,1-1.19S119.41,56.49,119.41,56.49Z" style="fill:#81b9bf"/><path d="M110.61,85.17s19.58,5,20.48,5.52,1.14.65,1,2c0,.42-2.28,2.64-4.23,5.67-4.2,6.49-9.66,15.82-10.23,16.11-.83.43-1.71.81-2.53-1.66s-2.37-14-3.21-18.77S110.61,85.17,110.61,85.17Z" style="fill:#81b9bf"/><path d="M133.54,125.79h-4.49V100.08A7,7,0,0,1,139,93.8l11.3,5.36-1.92,4.06-11.3-5.37a2.47,2.47,0,0,0-3.52,2.23Z" style="fill:#9db4b6"/><path d="M99.76,109.21H95.28V79.58a2.48,2.48,0,0,0-1.41-2.22L0,32.81l1.92-4.06L95.79,73.3a7,7,0,0,1,4,6.28Z" style="fill:#9db4b6"/><rect x="139.33" y="95.37" width="2.99" height="22.04" transform="translate(-15.66 188) rotate(-64.61)" style="fill:#9db4b6"/><rect x="47.91" y="9.94" width="2.99" height="106.11" transform="translate(-28.69 80.62) rotate(-64.61)" style="fill:#9db4b6"/><rect x="139.42" y="103.72" width="2.99" height="21.85" transform="translate(-23.08 192.79) rotate(-64.61)" style="fill:#9db4b6"/><rect x="47.87" y="18.18" width="2.99" height="106.02" transform="translate(-36.12 85.26) rotate(-64.61)" style="fill:#9db4b6"/><path d="M149.82,136.83a2.21,2.21,0,0,1-1-.22L1.47,66.66a2.24,2.24,0,1,1,1.93-4l147.38,70a2.24,2.24,0,0,1-1,4.27Z" style="fill:#b4c5c8"/><rect x="146.57" y="193.49" width="67.27" height="4.49" transform="translate(-66.51 96.15) rotate(-25.38)" style="fill:#b4c5c8"/><rect x="146.57" y="117.92" width="67.27" height="4.49" transform="translate(-34.11 88.86) rotate(-25.38)" style="fill:#b4c5c8"/><rect x="146.57" y="84.76" width="67.27" height="4.49" transform="translate(-19.9 85.66) rotate(-25.38)" style="fill:#9db4b6"/><rect x="146.57" y="94.74" width="67.27" height="2.99" transform="translate(-23.85 86.56) rotate(-25.39)" style="fill:#9db4b6"/><rect x="146.57" y="102.96" width="67.27" height="2.99" transform="translate(-27.38 87.35) rotate(-25.39)" style="fill:#9db4b6"/><path d="M149.82,265.24a1.5,1.5,0,0,1-1.49-1.5V95.32a1.5,1.5,0,0,1,3,0V263.74A1.5,1.5,0,0,1,149.82,265.24Z" style="fill:#9db4b6"/><path d="M210.6,237.1a1.5,1.5,0,0,1-1.5-1.5V67.18a1.5,1.5,0,0,1,3,0V235.6A1.5,1.5,0,0,1,210.6,237.1Z" style="fill:#9db4b6"/><rect x="90.31" y="226.15" width="2.99" height="28.82" transform="translate(-164.89 220.36) rotate(-64.61)" style="fill:#ccd9da"/><rect x="94.19" y="204" width="2.99" height="28.82" transform="translate(-142.65 211.2) rotate(-64.61)" style="fill:#ccd9da"/><rect x="98.2" y="181.09" width="2.99" height="28.82" transform="translate(-119.66 201.75) rotate(-64.61)" style="fill:#ccd9da"/><rect x="102.31" y="157.68" width="2.99" height="28.82" transform="translate(-96.17 192.08) rotate(-64.61)" style="fill:#ccd9da"/><rect x="106.45" y="134.03" width="2.99" height="28.82" transform="translate(-72.44 182.31) rotate(-64.61)" style="fill:#ccd9da"/><rect x="90.02" y="227.38" width="2.99" height="28.82" transform="translate(-166.16 220.8) rotate(-64.61)" style="fill:#9db4b6"/><rect x="93.9" y="205.22" width="2.99" height="28.82" transform="translate(-143.93 211.65) rotate(-64.61)" style="fill:#9db4b6"/><rect x="97.92" y="182.31" width="2.99" height="28.82" transform="translate(-120.94 202.19) rotate(-64.61)" style="fill:#9db4b6"/><rect x="102.02" y="158.91" width="2.99" height="28.82" transform="translate(-97.45 192.52) rotate(-64.61)" style="fill:#9db4b6"/><rect x="106.16" y="135.26" width="2.99" height="28.82" transform="translate(-73.72 182.75) rotate(-64.61)" style="fill:#9db4b6"/><path d="M100.86,270.89a1.09,1.09,0,0,1-.26,0,1.49,1.49,0,0,1-1.22-1.73l26-148.15a1.49,1.49,0,1,1,2.94.52L102.33,269.65A1.5,1.5,0,0,1,100.86,270.89Z" style="fill:#9db4b6"/><path d="M74.82,258.53l-.26,0a1.49,1.49,0,0,1-1.21-1.73l26-148.15a1.49,1.49,0,1,1,2.94.51L76.29,257.29A1.5,1.5,0,0,1,74.82,258.53Z" style="fill:#9db4b6"/></svg>