<svg xmlns="http://www.w3.org/2000/svg" viewBox="0 0 283.73 362.39"><defs><style>.cls-1{fill:#266e7f;}.cls-2{fill:#1b5966;}.cls-3{fill:#f3f6f6;}.cls-4{fill:#e7ecec;}.cls-5{fill:#46a8be;}.cls-6{fill:#308496;}.cls-7{fill:#d4d7d2;}.cls-8{fill:#c3c7c1;}.cls-9{fill:#9fcbd0;}.cls-10{fill:#81b9bf;}.cls-11,.cls-12,.cls-13,.cls-14,.cls-15,.cls-16,.cls-17{fill:none;}.cls-11,.cls-12,.cls-15,.cls-17{stroke:#9db4b6;}.cls-11,.cls-12,.cls-13,.cls-14,.cls-15{stroke-linejoin:round;}.cls-11,.cls-13,.cls-14{stroke-width:6px;}.cls-12,.cls-15,.cls-16,.cls-17{stroke-width:4px;}.cls-13,.cls-14{stroke:#b4c5c8;}.cls-13,.cls-15{stroke-linecap:round;}.cls-16{stroke:#ccd9da;}.cls-16,.cls-17{stroke-miterlimit:10;}</style></defs><g id="レイヤー_2" data-name="レイヤー 2"><g id="レイヤー_9" data-name="レイヤー 9"><path class="cls-1" d="M273.94,116.64h0a5.63,5.63,0,0,0-3.26-5.16L85,23.34a5.68,5.68,0,0,0-4.85,0L12.3,54.72c-4.39,2-4.42,8.27-4.38,9.58L8,76.38c-.06,2.8-.09,9,4.28,11.11L198,175.63a5.68,5.68,0,0,0,4.85,0l67.81-31.39a5.62,5.62,0,0,0,3.3-4.85h0Z"/><polygon class="cls-2" points="180.03 147.93 180.73 163.26 191.46 168.63 191.46 151.16 180.03 147.93"/><path class="cls-2" d="M176.8,162.36,12.36,85.54a3.1,3.1,0,0,1-1.77-2.79V67.57A3.1,3.1,0,0,1,15,64.78l157.69,73.6Z"/><path class="cls-3" d="M65.09,12.53C73.65,9.43,96.71,0,101.6,0s15.06,6.5,19,14,2.44,15.25,3.2,16.94,3.76,3.77,2.25,5.27S99.91,42.83,91.63,46.41,65.06,57.73,60.38,56.76,51,54.69,48.52,42.08s-2.26-21.27.94-24.66S57.38,15.31,65.09,12.53Z"/><path class="cls-4" d="M107.23,19.78,95.5,35.7a1.32,1.32,0,0,0,1.07,2S107.09,35.2,110.42,35L122.68,34c1-.09,1.3-.24.61-1.92s-13.4-11.38-14.51-12.46S107.56,19.33,107.23,19.78Z"/><path class="cls-5" d="M39.77,33.2C31.86,37.15,13.51,41,11.67,44.78s-1,11.85,0,12.84S51.91,74.85,55.58,74.85,68.15,66,74.36,63.13s20.47-7.77,24.7-9.88,8-3.39,8.33-6.64.43-4.52-2.68-7.9-1.84-.43-9.32-5.51-8-7.76-15.53-11.58-11.79-3-14.47-2.46S47.67,29.25,39.77,33.2Z"/><path class="cls-6" d="M73.47,51.09c-2,.88-10.55,12.71-11,13.38s.46,2,1.69,2.12S71.3,62,75.53,59.83a55.58,55.58,0,0,1,10-3.62.32.32,0,0,0,.06-.6C83.15,54.33,75.18,50.36,73.47,51.09Z"/><path class="cls-6" d="M20,54.42c-1-.31-1.52,4.83-1.52,4.83l17.57,6.53a.55.55,0,0,0,.51-1C31.67,61.36,22.86,55.32,20,54.42Z"/><path class="cls-6" d="M16.72,53l1.9,1s-.75,1.48-1.07,2.3a9,9,0,0,0-.37,2.38l-1.84-.75a.69.69,0,0,1-.4-.8l1-3.75A.55.55,0,0,1,16.72,53Z"/><path class="cls-7" d="M118.47,34.73c-12.42-1.24-16.76,4.14-17.89,6.61s2,16.22.74,17.07-8-.42-11,2.26-1,8.19-3,9.6S70.69,82,69,82.27,66,87.92,66,90s131.29,60.71,133.83,61.13S280.47,121.8,281,120.53s1.69-12.57,0-13.7S165.42,55.44,152.57,49.94,130.9,36,118.47,34.73Z"/><path class="cls-8" d="M143.94,89.94l-4.26-16.68a.39.39,0,0,0-.12-.19L103.11,41.83c-.51-.34-.9.13-1.18,1.53a17.08,17.08,0,0,0,.16,4.19l2.16,18.3a.34.34,0,0,0,.17.29l39,24.21A.37.37,0,0,0,143.94,89.94Z"/><path class="cls-8" d="M90.36,67.3c-.8-.21-1.62.83-1.72,1.5s-2.89,3.68-2.89,3.68a.92.92,0,0,0,.49,1.5l23.22,5.09S91.16,67.52,90.36,67.3Z"/><polygon class="cls-8" points="145.56 79.07 149.98 81.61 152.15 92.34 150.17 93.16 145.56 79.07"/><path class="cls-9" d="M172.69,57.14s-13.11,14.49-13.3,15.25-1.88,23.71-1.88,23.71-10.17,16.76-10.17,17.51,5,36.2,6.12,37.69,1.68,4.85,6.38,2.07,13.86-8.33,15.55-8.51,26.54,9.48,26.54,9.48,38.59-13.44,41.6-13.81A20.69,20.69,0,0,1,255.77,143c4.14,2.45,10.35,9.6,11.1,9s6.59-15.81,8.47-20.9,2.08-30.87,1.13-31.62-74-34.07-81.13-35.39S179.06,58.46,172.69,57.14Z"/><path class="cls-10" d="M159.75,75.57l-1.39,20.25s54.92,23.68,56,24a7.61,7.61,0,0,0,3.85,0c1.06-.36,1.68-.72,1.32-1.6S159.75,75.57,159.75,75.57Z"/><path class="cls-10" d="M148,113.94s26.2,6.75,27.4,7.39,1.53.87,1.41,2.63c0,.56-3.05,3.53-5.67,7.58-5.62,8.69-12.92,21.16-13.68,21.55-1.11.58-2.28,1.09-3.38-2.22s-3.18-18.68-4.31-25.11S148,113.94,148,113.94Z"/><path class="cls-11" d="M199.75,135.37l-15.11-7.17a6.29,6.29,0,0,0-9,5.68v34.39"/><path class="cls-11" d="M1.29,41.18l125.57,59.59a6.31,6.31,0,0,1,3.6,5.69V146.1"/><line class="cls-12" x1="175.08" y1="136" x2="201.72" y2="148.64"/><line class="cls-12" x1="1.97" y1="53.84" x2="130.21" y2="114.7"/><line class="cls-12" x1="175.31" y1="147.11" x2="201.72" y2="159.64"/><line class="cls-12" x1="1.97" y1="64.84" x2="130.1" y2="125.65"/><line class="cls-13" x1="3.26" y1="86.46" x2="200.43" y2="180.04"/><line class="cls-14" x1="281.73" y1="242.55" x2="200.43" y2="281.14"/><line class="cls-14" x1="281.73" y1="141.45" x2="200.43" y2="180.04"/><line class="cls-11" x1="281.73" y1="97.1" x2="200.43" y2="135.69"/><line class="cls-12" x1="281.73" y1="109.44" x2="200.43" y2="148.03"/><line class="cls-12" x1="281.73" y1="120.44" x2="200.43" y2="159.02"/><line class="cls-15" x1="200.43" y1="352.83" x2="200.43" y2="127.52"/><line class="cls-15" x1="281.73" y1="89.87" x2="281.73" y2="315.18"/><line class="cls-16" x1="105.4" y1="313.55" x2="140.23" y2="330.09"/><line class="cls-16" x1="110.59" y1="283.91" x2="145.42" y2="300.44"/><line class="cls-16" x1="115.96" y1="253.26" x2="150.79" y2="269.79"/><line class="cls-16" x1="121.45" y1="221.95" x2="156.28" y2="238.48"/><line class="cls-16" x1="126.99" y1="190.32" x2="161.82" y2="206.85"/><line class="cls-17" x1="105.02" y1="315.2" x2="139.85" y2="331.73"/><line class="cls-17" x1="110.21" y1="285.56" x2="145.04" y2="302.09"/><line class="cls-17" x1="115.58" y1="254.91" x2="150.41" y2="271.44"/><line class="cls-17" x1="121.06" y1="223.59" x2="155.9" y2="240.12"/><line class="cls-17" x1="126.6" y1="191.96" x2="161.44" y2="208.49"/><line class="cls-15" x1="134.92" y1="360.39" x2="169.64" y2="162.19"/><line class="cls-15" x1="100.09" y1="343.85" x2="134.81" y2="145.66"/></g></g></svg>