<?xml version="1.0" encoding="UTF-8"?><svg id="uuid-0c6f60a7-56b2-453e-88c5-a4caffb6b1af" xmlns="http://www.w3.org/2000/svg" viewBox="0 0 104.21 280.89"><g id="uuid-c5327287-f511-466c-aeca-b4bd676c5e32"><g><g><path d="m39.16,280.71l-24.21-11.49c-1.45-.69-1.44-2.75,0-3.43l50.18-23.72c.51-.24,1.11-.24,1.62,0l24.21,11.49c1.45.69,1.44,2.75,0,3.43l-50.18,23.72c-.51.24-1.11.24-1.62,0Z" style="fill:#76797a;"/><line x1="52.95" y1="196.26" x2="52.95" y2="261.39" style="fill:none; stroke:#4e585e; stroke-miterlimit:10; stroke-width:9px;"/><ellipse cx="52.95" cy="261.39" rx="4.48" ry="2.45" style="fill:#4e585e;"/><path d="m57.45,206.59h-9v21.21h.02s0,0,0,0c0,1.35,2.01,2.45,4.48,2.45s4.48-1.1,4.48-2.45c0,0,0,0,0,0h.02v-21.21Z" style="fill:#e2c0a2; stroke:#e2c0a2; stroke-miterlimit:10;"/></g><g><g><path d="m25.3,223.59l-24.21-11.49c-1.45-.69-1.44-2.75,0-3.43l50.18-23.72c.51-.24,1.11-.24,1.62,0l24.21,11.49c1.45.69,1.44,2.75,0,3.43l-50.18,23.72c-.51.24-1.11.24-1.62,0Z" style="fill:#76797a;"/><line x1="52.95" y1="151.67" x2="52.95" y2="196.26" style="fill:none; stroke:#4e585e; stroke-miterlimit:10; stroke-width:9px;"/><path d="m57.45,150.31h-9v21.21h.02s0,0,0,0c0,1.35,2.01,2.45,4.48,2.45s4.48-1.1,4.48-2.45c0,0,0,0,0,0h.02v-21.21Z" style="fill:#e2c0a2; stroke:#e2c0a2; stroke-miterlimit:10;"/></g><ellipse cx="52.95" cy="196.26" rx="4.48" ry="2.45" style="fill:#4e585e;"/></g><g><path d="m51.33,157.28l-24.21-11.49c-1.45-.69-1.44-2.75,0-3.43l50.18-23.72c.51-.24,1.11-.24,1.62,0l24.21,11.49c1.45.69,1.44,2.75,0,3.43l-50.18,23.72c-.51.24-1.11.24-1.62,0Z" style="fill:#76797a;"/><line x1="52.95" y1="73.05" x2="52.95" y2="142.49" style="fill:none; stroke:#4e585e; stroke-miterlimit:10; stroke-width:9px;"/><ellipse cx="52.95" cy="142.49" rx="4.48" ry="2.45" style="fill:#4e585e;"/><path d="m57.45,93.49h-9v21.21h.02s0,0,0,0c0,1.35,2.01,2.45,4.48,2.45s4.48-1.1,4.48-2.45c0,0,0,0,0,0h.02v-21.21Z" style="fill:#e2c0a2; stroke:#e2c0a2; stroke-miterlimit:10;"/></g><g><path d="m25.36,109.35L1.15,97.86c-1.45-.69-1.44-2.75,0-3.43l50.18-23.72c.51-.24,1.11-.24,1.62,0l24.21,11.49c1.45.69,1.44,2.75,0,3.43l-50.18,23.72c-.51.24-1.11.24-1.62,0Z" style="fill:#76797a;"/><line x1="52.95" y1="37.39" x2="52.95" y2="82.24" style="fill:none; stroke:#4e585e; stroke-miterlimit:10; stroke-width:9px;"/><ellipse cx="52.95" cy="82.24" rx="4.48" ry="2.45" style="fill:#4e585e;"/></g><g><path d="m51.09,52.24l-24.21-11.49c-1.45-.69-1.44-2.75,0-3.43l50.18-23.72c.51-.24,1.11-.24,1.62,0l24.21,11.49c1.45.69,1.44,2.75,0,3.43l-50.18,23.72c-.51.24-1.11.24-1.62,0Z" style="fill:#76797a;"/><ellipse cx="52.95" cy="37.52" rx="4.48" ry="2.45" style="fill:#4e585e;"/><line x1="52.95" y1="13.06" x2="52.95" y2="37.39" style="fill:none; stroke:#4e585e; stroke-miterlimit:10; stroke-width:9px;"/><path d="m64.74,6.44c0-3.55-5.28-6.44-11.79-6.44s-11.79,2.88-11.79,6.44v1.5c0,3.55,5.28,6.44,11.79,6.44s11.79-2.88,11.79-6.44v-1.5Z" style="fill:#41494e;"/></g></g></g></svg>