<?xml version="1.0" encoding="UTF-8"?><svg id="uuid-73a72e99-0554-4081-bc26-b93918c95ca9" xmlns="http://www.w3.org/2000/svg" viewBox="0 0 58.24 28.62"><g id="uuid-a78c099a-93e3-4b87-b58c-a1449e2fc052"><g><path d="m45.44,28.53L.54,7.24c-.73-.34-.73-1.38,0-1.72L11.98.09c.26-.12.56-.12.82,0l44.9,21.28c.73.34.73,1.38,0,1.72l-11.44,5.43c-.26.12-.56.12-.82,0Z" style="fill:#24272a;"/><path d="m46.05,17.75s-.04,0-.05-.01l-1.35-.64c-.06-.03-.09-.1-.06-.17.03-.06.1-.09.17-.06l1.35.64c.06.03.09.1.06.17-.02.04-.07.07-.11.07Zm-2.71-1.29s-.04,0-.05-.01l-1.36-.64c-.06-.03-.09-.1-.06-.17.03-.06.1-.09.17-.06l1.36.64c.06.03.09.1.06.17-.02.04-.07.07-.11.07Zm-2.71-1.29s-.04,0-.05-.01l-1.36-.64c-.06-.03-.09-.1-.06-.17.03-.06.1-.09.17-.06l1.36.64c.06.03.09.1.06.17-.02.04-.07.07-.11.07Zm-2.71-1.29s-.04,0-.05-.01l-1.36-.64c-.06-.03-.09-.1-.06-.17.03-.06.1-.09.17-.06l1.36.64c.06.03.09.1.06.17-.02.04-.07.07-.11.07Zm-2.71-1.29s-.04,0-.05-.01l-1.36-.64c-.06-.03-.09-.1-.06-.17.03-.06.1-.09.17-.06l1.36.64c.06.03.09.1.06.17-.02.04-.07.07-.11.07Zm-2.71-1.29s-.04,0-.05-.01l-1.36-.64c-.06-.03-.09-.1-.06-.17.03-.06.1-.09.17-.06l1.36.64c.06.03.09.1.06.17-.02.04-.07.07-.11.07Zm-2.71-1.29s-.04,0-.05-.01l-1.36-.64c-.06-.03-.09-.1-.06-.17.03-.06.1-.09.17-.06l1.36.64c.06.03.09.1.06.17-.02.04-.07.07-.11.07Zm-2.71-1.29s-.04,0-.05-.01l-1.35-.64c-.06-.03-.09-.1-.06-.17.03-.06.1-.09.17-.06l1.35.64c.06.03.09.1.06.17-.02.04-.07.07-.11.07Zm-2.71-1.29s-.04,0-.05-.01l-1.36-.64c-.06-.03-.09-.1-.06-.17.03-.06.1-.09.17-.06l1.36.64c.06.03.09.1.06.17-.02.04-.07.07-.11.07Zm-2.71-1.29s-.04,0-.05-.01l-1.36-.64c-.06-.03-.09-.1-.06-.17.03-.06.1-.09.17-.06l1.36.64c.06.03.09.1.06.17-.02.04-.07.07-.11.07Zm-2.71-1.29s-.04,0-.05-.01l-1.36-.64c-.06-.03-.09-.1-.06-.17.03-.06.1-.09.17-.06l1.36.64c.06.03.09.1.06.17-.02.04-.07.07-.11.07Zm-2.71-1.29s-.04,0-.05-.01l-1.36-.64c-.06-.03-.09-.1-.06-.17.03-.06.1-.09.17-.06l1.36.64c.06.03.09.1.06.17-.02.04-.07.07-.11.07Zm-2.71-1.29s-.04,0-.05-.01l-1.36-.64c-.06-.03-.09-.1-.06-.17.03-.06.1-.09.17-.06l1.36.64c.06.03.09.1.06.17-.02.04-.07.07-.11.07Z" style="fill:#aaa7a7;"/><path d="m45.88,19.45s-.04,0-.05-.01l-1.35-.64c-.06-.03-.09-.1-.06-.17.03-.06.1-.09.17-.06l1.35.64c.06.03.09.1.06.17-.02.04-.07.07-.11.07Zm-2.71-1.29s-.04,0-.05-.01l-1.36-.64c-.06-.03-.09-.1-.06-.17.03-.06.1-.09.17-.06l1.36.64c.06.03.09.1.06.17-.02.04-.07.07-.11.07Zm-2.71-1.29s-.04,0-.05-.01l-1.36-.64c-.06-.03-.09-.1-.06-.17.03-.06.1-.09.17-.06l1.36.64c.06.03.09.1.06.17-.02.04-.07.07-.11.07Zm-2.71-1.29s-.04,0-.05-.01l-1.36-.64c-.06-.03-.09-.1-.06-.17.03-.06.1-.09.17-.06l1.36.64c.06.03.09.1.06.17-.02.04-.07.07-.11.07Zm-2.71-1.29s-.04,0-.05-.01l-1.36-.64c-.06-.03-.09-.1-.06-.17.03-.06.1-.09.17-.06l1.36.64c.06.03.09.1.06.17-.02.04-.07.07-.11.07Zm-2.71-1.29s-.04,0-.05-.01l-1.36-.64c-.06-.03-.09-.1-.06-.17.03-.06.1-.09.17-.06l1.36.64c.06.03.09.1.06.17-.02.04-.07.07-.11.07Zm-2.71-1.29s-.04,0-.05-.01l-1.36-.64c-.06-.03-.09-.1-.06-.17.03-.06.1-.09.17-.06l1.36.64c.06.03.09.1.06.17-.02.04-.07.07-.11.07Zm-2.71-1.29s-.04,0-.05-.01l-1.35-.64c-.06-.03-.09-.1-.06-.17s.1-.09.17-.06l1.35.64c.06.03.09.1.06.17-.02.04-.07.07-.11.07Zm-2.71-1.29s-.04,0-.05-.01l-1.36-.64c-.06-.03-.09-.1-.06-.17.03-.06.1-.09.17-.06l1.36.64c.06.03.09.1.06.17-.02.04-.07.07-.11.07Zm-2.71-1.29s-.04,0-.05-.01l-1.36-.64c-.06-.03-.09-.1-.06-.17.03-.06.1-.09.17-.06l1.36.64c.06.03.09.1.06.17-.02.04-.07.07-.11.07Zm-2.71-1.29s-.04,0-.05-.01l-1.36-.64c-.06-.03-.09-.1-.06-.17.03-.06.1-.09.17-.06l1.36.64c.06.03.09.1.06.17-.02.04-.07.07-.11.07Zm-2.71-1.29s-.04,0-.05-.01l-1.36-.64c-.06-.03-.09-.1-.06-.17.03-.06.1-.09.17-.06l1.36.64c.06.03.09.1.06.17-.02.04-.07.07-.11.07Zm-2.71-1.29s-.04,0-.05-.01l-1.36-.64c-.06-.03-.09-.1-.06-.17.03-.06.1-.09.17-.06l1.36.64c.06.03.09.1.06.17-.02.04-.07.07-.11.07Z" style="fill:#aaa7a7;"/><path d="m40.56,18.94s-.04,0-.05-.01l-1.36-.64c-.06-.03-.09-.1-.06-.17.03-.06.1-.09.17-.06l1.36.64c.06.03.09.1.06.17-.02.04-.07.07-.11.07Zm-2.71-1.29s-.04,0-.05-.01l-1.36-.64c-.06-.03-.09-.1-.06-.17.03-.06.1-.09.17-.06l1.36.64c.06.03.09.1.06.17-.02.04-.07.07-.11.07Zm-2.71-1.29s-.04,0-.05-.01l-1.36-.64c-.06-.03-.09-.1-.06-.17.03-.06.1-.09.17-.06l1.36.64c.06.03.09.1.06.17-.02.04-.07.07-.11.07Zm-2.71-1.29s-.04,0-.05-.01l-1.35-.64c-.06-.03-.09-.1-.06-.17.03-.06.1-.09.17-.06l1.35.64c.06.03.09.1.06.17-.02.04-.07.07-.11.07Zm-2.71-1.29s-.04,0-.05-.01l-1.36-.64c-.06-.03-.09-.1-.06-.17.03-.06.1-.09.17-.06l1.36.64c.06.03.09.1.06.17-.02.04-.07.07-.11.07Zm-2.71-1.29s-.04,0-.05-.01l-1.36-.64c-.06-.03-.09-.1-.06-.17.03-.06.1-.09.17-.06l1.36.64c.06.03.09.1.06.17-.02.04-.07.07-.11.07Zm-2.71-1.28s-.04,0-.05-.01l-1.36-.64c-.06-.03-.09-.1-.06-.17.03-.06.1-.09.17-.06l1.36.64c.06.03.09.1.06.17-.02.04-.07.07-.11.07Zm-2.71-1.29s-.04,0-.05-.01l-1.35-.64c-.06-.03-.09-.1-.06-.17.03-.06.1-.09.17-.06l1.35.64c.06.03.09.1.06.17-.02.04-.07.07-.11.07Zm-2.71-1.29s-.04,0-.05-.01l-1.36-.64c-.06-.03-.09-.1-.06-.17.03-.06.1-.09.17-.06l1.36.64c.06.03.09.1.06.17-.02.04-.07.07-.11.07Zm-2.71-1.29s-.04,0-.05-.01l-1.36-.64c-.06-.03-.09-.1-.06-.17.03-.06.1-.09.17-.06l1.36.64c.06.03.09.1.06.17-.02.04-.07.07-.11.07Zm-2.71-1.29s-.04,0-.05-.01l-1.36-.64c-.06-.03-.09-.1-.06-.17.03-.06.1-.09.17-.06l1.36.64c.06.03.09.1.06.17-.02.04-.07.07-.11.07Z" style="fill:#aaa7a7;"/><path d="m37.73,19.68s-.04,0-.05-.01l-1.36-.64c-.06-.03-.09-.1-.06-.17.03-.06.1-.09.17-.06l1.36.64c.06.03.09.1.06.17-.02.04-.07.07-.11.07Z" style="fill:#aaa7a7;"/><path d="m35.02,18.4s-.04,0-.05-.01l-1.36-.64c-.06-.03-.09-.1-.06-.17.03-.06.1-.09.17-.06l1.36.64c.06.03.09.1.06.17-.02.04-.07.07-.11.07Z" style="fill:#aaa7a7;"/><path d="m32.31,17.11s-.04,0-.05-.01l-1.36-.64c-.06-.03-.09-.1-.06-.17.03-.06.1-.09.17-.06l1.36.64c.06.03.09.1.06.17-.02.04-.07.07-.11.07Z" style="fill:#aaa7a7;"/><path d="m33.16,19.64s-.04,0-.05-.01l-1.36-.64c-.06-.03-.09-.1-.06-.17.03-.06.1-.09.17-.06l1.36.64c.06.03.09.1.06.17-.02.04-.07.07-.11.07Z" style="fill:#aaa7a7;"/><path d="m30.45,18.35s-.04,0-.05-.01l-1.36-.64c-.06-.03-.09-.1-.06-.17.03-.06.1-.09.17-.06l1.36.64c.06.03.09.1.06.17-.02.04-.07.07-.11.07Z" style="fill:#aaa7a7;"/><path d="m27.74,17.07s-.04,0-.05-.01l-1.36-.64c-.06-.03-.09-.1-.06-.17.03-.06.1-.09.17-.06l1.36.64c.06.03.09.1.06.17-.02.04-.07.07-.11.07Z" style="fill:#aaa7a7;"/><path d="m46.05,26.4s-.04,0-.05-.01l-1.36-.64c-.06-.03-.09-.1-.06-.17.03-.06.1-.09.17-.06l1.36.64c.06.03.09.1.06.17-.02.04-.07.07-.11.07Z" style="fill:#aaa7a7;"/><path d="m44.84,23.29s-.04,0-.05-.01l-1.36-.64c-.06-.03-.09-.1-.06-.17.03-.06.1-.09.17-.06l1.36.64c.06.03.09.1.06.17-.02.04-.07.07-.11.07Z" style="fill:#aaa7a7;"/><path d="m43.34,25.12s-.04,0-.05-.01l-1.36-.64c-.06-.03-.09-.1-.06-.17.03-.06.1-.09.17-.06l1.36.64c.06.03.09.1.06.17-.02.04-.07.07-.11.07Z" style="fill:#aaa7a7;"/><path d="m40.62,23.83s-.04,0-.05-.01l-1.36-.64c-.06-.03-.09-.1-.06-.17.03-.06.1-.09.17-.06l1.36.64c.06.03.09.1.06.17-.02.04-.07.07-.11.07Z" style="fill:#aaa7a7;"/><path d="m51.96,22.1s-.04,0-.05-.01l-1.36-.64c-.06-.03-.09-.1-.06-.17.03-.06.1-.09.17-.06l1.36.64c.06.03.09.1.06.17-.02.04-.07.07-.11.07Z" style="fill:#aaa7a7;"/><path d="m49.25,20.82s-.04,0-.05-.01l-1.36-.64c-.06-.03-.09-.1-.06-.17.03-.06.1-.09.17-.06l1.36.64c.06.03.09.1.06.17-.02.04-.07.07-.11.07Z" style="fill:#aaa7a7;"/><path d="m29.6,15.83s-.04,0-.05-.01l-1.36-.64c-.06-.03-.09-.1-.06-.17.03-.06.1-.09.17-.06l1.36.64c.06.03.09.1.06.17-.02.04-.07.07-.11.07Z" style="fill:#aaa7a7;"/><path d="m26.89,14.54s-.04,0-.05-.01l-1.36-.64c-.06-.03-.09-.1-.06-.17.03-.06.1-.09.17-.06l1.36.64c.06.03.09.1.06.17-.02.04-.07.07-.11.07Z" style="fill:#aaa7a7;"/><path d="m24.18,13.26s-.04,0-.05-.01l-1.36-.64c-.06-.03-.09-.1-.06-.17.03-.06.1-.09.17-.06l1.36.64c.06.03.09.1.06.17-.02.04-.07.07-.11.07Z" style="fill:#aaa7a7;"/><path d="m21.47,11.97s-.04,0-.05-.01l-1.36-.64c-.06-.03-.09-.1-.06-.17.03-.06.1-.09.17-.06l1.36.64c.06.03.09.1.06.17-.02.04-.07.07-.11.07Z" style="fill:#aaa7a7;"/><path d="m18.75,10.69s-.04,0-.05-.01l-1.36-.64c-.06-.03-.09-.1-.06-.17.03-.06.1-.09.17-.06l1.36.64c.06.03.09.1.06.17-.02.04-.07.07-.11.07Z" style="fill:#aaa7a7;"/><path d="m16.04,9.4s-.04,0-.05-.01l-1.36-.64c-.06-.03-.09-.1-.06-.17.03-.06.1-.09.17-.06l1.36.64c.06.03.09.1.06.17-.02.04-.07.07-.11.07Z" style="fill:#aaa7a7;"/><path d="m13.33,8.12s-.04,0-.05-.01l-1.36-.64c-.06-.03-.09-.1-.06-.17.03-.06.1-.09.17-.06l1.36.64c.06.03.09.1.06.17-.02.04-.07.07-.11.07Z" style="fill:#aaa7a7;"/><path d="m7.43,7.39s-.04,0-.05-.01l-1.36-.64c-.06-.03-.09-.1-.06-.17.03-.06.1-.09.17-.06l1.36.64c.06.03.09.1.06.17-.02.04-.07.07-.11.07Z" style="fill:#aaa7a7;"/><path d="m4.72,6.1s-.04,0-.05-.01l-1.36-.64c-.06-.03-.09-.1-.06-.17.03-.06.1-.09.17-.06l1.36.64c.06.03.09.1.06.17-.02.04-.07.07-.11.07Z" style="fill:#aaa7a7;"/><path d="m8.22,5.63s-.04,0-.05-.01l-2.56-1.21c-.06-.03-.09-.1-.06-.17.03-.06.1-.09.17-.06l2.56,1.21c.06.03.09.1.06.17-.02.04-.07.07-.11.07Z" style="fill:#aaa7a7;"/><path d="m10.49,4.74s-.04,0-.05-.01l-2.56-1.21c-.06-.03-.09-.1-.06-.17.03-.06.1-.09.17-.06l2.56,1.21c.06.03.09.1.06.17-.02.04-.07.07-.11.07Z" style="fill:#aaa7a7;"/><path d="m41.64,21.55s-.04,0-.05-.01l-2.56-1.21c-.06-.03-.09-.1-.06-.17.03-.06.1-.09.17-.06l2.56,1.21c.06.03.09.1.06.17-.02.04-.07.07-.11.07Z" style="fill:#aaa7a7;"/><path d="m44.27,20.68s-.04,0-.05-.01l-2.56-1.21c-.06-.03-.09-.1-.06-.17.03-.06.1-.09.17-.06l2.56,1.21c.06.03.09.1.06.17-.02.04-.07.07-.11.07Z" style="fill:#aaa7a7;"/><path d="m24.7,15.63s-.04,0-.05-.01l-15.37-7.29c-.06-.03-.09-.1-.06-.17.03-.06.1-.09.17-.06l15.37,7.29c.06.03.09.1.06.17-.02.04-.07.07-.11.07Z" style="fill:#aaa7a7;"/></g></g></svg>