<?xml version="1.0" encoding="UTF-8"?><svg id="uuid-61b84d14-0914-4732-8e23-4eddbe1ef3fa" xmlns="http://www.w3.org/2000/svg" viewBox="0 0 38.99 44.96"><g id="uuid-323d7c64-b9cf-40de-b323-6b16d39cc8a9"><g><path d="m.59.04l38.17,18.04c.14.07.24.21.24.37v26.1c0,.3-.32.5-.59.37L.24,26.88c-.14-.07-.24-.21-.24-.37V.41C0,.11.32-.09.59.04Z" style="fill:#f2f2f2;"/><g><path d="m20.99,14.24s-2-1.6-6.28-.72-3.97,4.81-5.59,4.96-3.55,2.34-3.58,3.01" style="fill:none; stroke:#cbc8c8; stroke-linecap:round; stroke-miterlimit:10; stroke-width:.5px;"/><path d="m6.22,23.39s2.1,2.32,2.32,3.34,7.39,2.07,9.38,1.82,2.72-2.06,4.28-2.22,7.77,1.66,8.58-1.56.46-6.72-3.32-8.89-5.3-1.34-5.3-1.34" style="fill:none; stroke:#cbc8c8; stroke-linecap:round; stroke-miterlimit:10; stroke-width:.5px;"/><path d="m7,21.81c1.13.42,4,.35,5.07.35" style="fill:none; stroke:#cbc8c8; stroke-linecap:round; stroke-miterlimit:10; stroke-width:.5px;"/><path d="m13.55,22.17c.33.02,1.07-.22,1.35-.3" style="fill:none; stroke:#cbc8c8; stroke-linecap:round; stroke-miterlimit:10; stroke-width:.5px;"/><path d="m17.59,15.7c.3.7.87,3.2.17,4.3s1.4,2.6,5.1,2.13,4.67-.4,4.67-.4" style="fill:none; stroke:#cbc8c8; stroke-linecap:round; stroke-miterlimit:10; stroke-width:.5px;"/><path d="m18.18,22.55c0,.05-.17,1.29-1.13,1.55s-7.7.43-8.7,0" style="fill:none; stroke:#cbc8c8; stroke-linecap:round; stroke-miterlimit:10; stroke-width:.5px;"/><path d="m14,16.47s.26-.57,1.02-.77,1.43,1.43.83,2.53-1.77.97-2.03.37" style="fill:none; stroke:#cbc8c8; stroke-linecap:round; stroke-miterlimit:10; stroke-width:.5px;"/><path d="m7.62,22.72s.04.73.21,1.05" style="fill:none; stroke:#cbc8c8; stroke-linecap:round; stroke-miterlimit:10; stroke-width:.5px;"/><path d="m9.3,23.04s.06.5.08.53" style="fill:none; stroke:#cbc8c8; stroke-linecap:round; stroke-miterlimit:10; stroke-width:.5px;"/><path d="m15.53,22.78s.06.5.08.53" style="fill:none; stroke:#cbc8c8; stroke-linecap:round; stroke-miterlimit:10; stroke-width:.5px;"/></g><g><line x1="2.38" y1="11.17" x2="14.59" y2="16.94" style="fill:none; stroke:#a39f9f; stroke-linecap:round; stroke-miterlimit:10; stroke-width:.5px;"/><line x1="2.38" y1="14.79" x2="8.69" y2="17.78" style="fill:none; stroke:#a39f9f; stroke-linecap:round; stroke-miterlimit:10; stroke-width:.5px;"/><line x1="2.38" y1="21.23" x2="8.69" y2="24.21" style="fill:none; stroke:#a39f9f; stroke-linecap:round; stroke-miterlimit:10; stroke-width:.5px;"/><line x1="19.83" y1="25.32" x2="33.84" y2="31.94" style="fill:none; stroke:#a39f9f; stroke-linecap:round; stroke-miterlimit:10; stroke-width:.5px;"/><line x1="24.32" y1="23.24" x2="33.84" y2="27.74" style="fill:none; stroke:#a39f9f; stroke-linecap:round; stroke-miterlimit:10; stroke-width:.5px;"/><line x1="27.52" y1="19.5" x2="33.84" y2="22.48" style="fill:none; stroke:#a39f9f; stroke-linecap:round; stroke-miterlimit:10; stroke-width:.5px;"/></g><g><line x1="1.91" y1="2.97" x2="8.22" y2="5.96" style="fill:none; stroke:#a39f9f; stroke-linecap:round; stroke-miterlimit:10; stroke-width:.5px;"/><line x1="1.91" y1="4.09" x2="8.22" y2="7.07" style="fill:none; stroke:#a39f9f; stroke-linecap:round; stroke-miterlimit:10; stroke-width:.5px;"/><line x1="1.91" y1="5.58" x2="6.06" y2="7.54" style="fill:none; stroke:#a39f9f; stroke-linecap:round; stroke-miterlimit:10; stroke-width:.5px;"/></g></g></g></svg>