<?xml version="1.0" encoding="UTF-8"?><svg id="uuid-f1c25e4e-c37c-40e7-9644-5e7f473a2f07" xmlns="http://www.w3.org/2000/svg" viewBox="0 0 55.62 64.41"><g id="uuid-4e1ef73c-7ac4-4162-b8de-af43c94ce695"><g><g><polygon points="54.29 53.43 33.02 63.53 33.02 53.72 54.29 43.63 54.29 53.43" style="fill:none; stroke:#eeebea; stroke-linejoin:round; stroke-width:1.75px;"/><polygon points="22.95 38.8 1.68 48.89 1.68 39.09 22.95 28.99 22.95 38.8" style="fill:none; stroke:#eeebea; stroke-linejoin:round; stroke-width:1.75px;"/><path d="m32.98,54.39L.34,38.89c-.45-.21-.45-.86,0-1.07l21.79-10.34c.16-.08.35-.08.51,0l32.64,15.49c.45.21.45.86,0,1.07l-21.79,10.34c-.16.08-.35.08-.51,0Z" style="fill:#fdf9f8;"/></g><g><path d="m32.39,49.72L3.39,35.96c-.64-.3-.64-1.21,0-1.51l19.13-9.08c.23-.11.49-.11.72,0l29,13.76c.64.3.64,1.21,0,1.51l-19.13,9.08c-.23.11-.49.11-.72,0Z" style="fill:#2a2f32;"/><polygon points="35.2 45.11 10.71 33.48 23.29 27.51 47.78 39.13 35.2 45.11" style="fill:#24272a;"/><path d="m24.03.13l28.38,13.47c.45.21.73.66.73,1.16v23.38c0,.94-.98,1.56-1.83,1.16l-28.38-13.47c-.45-.21-.73-.66-.73-1.16V1.28c0-.94.98-1.56,1.83-1.16Z" style="fill:#34393d;"/><path d="m23.93,4.05l27.48,13.04c.21.1.34.31.34.54v19.12c0,.44-.46.73-.86.54l-27.48-13.04c-.21-.1-.34-.31-.34-.54V4.59c0-.44.46-.73.86-.54Z" style="fill:#66737a;"/><line x1="40.08" y1="10.19" x2="35.27" y2="7.9" style="fill:none; stroke:#24272a; stroke-linecap:round; stroke-miterlimit:10; stroke-width:2px;"/></g><path d="m53.07,43.5c1.1.89,1.78,1.74,1.99,5.13.21,3.39,0,5.32,0,5.32" style="fill:none; stroke:#66737a; stroke-miterlimit:10; stroke-width:.75px;"/><path d="m48.08,44.24c1.1.89,1.78,1.74,1.99,5.13s-.05,6.12-.05,6.12" style="fill:none; stroke:#66737a; stroke-miterlimit:10; stroke-width:.75px;"/><path d="m51.87,44l-4.13-1.96c-.22-.1-.22-.41,0-.51l1.8-.86c.08-.04.17-.04.24,0l4.13,1.96c.22.1.22.41,0,.51l-1.8.86c-.08.04-.17.04-.24,0Z" style="fill:#66737a; stroke:#66737a; stroke-miterlimit:10; stroke-width:.5px;"/><path d="m47.58,44.91l-3.13-1.49c-.16-.08-.16-.31,0-.39l1.36-.65c.06-.03.13-.03.18,0l3.13,1.49c.16.08.16.31,0,.39l-1.36.65c-.06.03-.13.03-.18,0Z" style="fill:#66737a;"/></g></g></svg>