<?xml version="1.0" encoding="UTF-8"?><svg id="uuid-2f0e1ce6-4aeb-4d0f-af1f-3ace637ac840" xmlns="http://www.w3.org/2000/svg" viewBox="0 0 50.77 54.53"><g id="uuid-ce78eb5b-18dd-4387-9cd3-b20c15bbe2f9"><g><line x1="39.38" y1="41.21" x2="47.11" y2="48.94" style="fill:none; stroke:#282c30; stroke-linecap:round; stroke-miterlimit:10; stroke-width:3px;"/><g><path d="m11.58.24l38.19,20.95c.8.44,1.19,1.37.93,2.25l-8.7,29.69c-.35,1.19-1.71,1.75-2.8,1.16L1.01,33.34c-.8-.44-1.19-1.37-.93-2.25L8.78,1.4c.35-1.19,1.71-1.75,2.8-1.16Z" style="fill:#34393d;"/><path d="m12.48,2.23l34.69,19.04c.83.46,1.24,1.43.97,2.35l-7.87,26.84c-.36,1.24-1.79,1.83-2.92,1.21L2.67,32.62c-.83-.46-1.24-1.43-.97-2.35L9.56,3.43c.36-1.24,1.79-1.83,2.92-1.21Z" style="fill:#1e2022;"/><polygon points="11.59 4.21 45.17 22.63 37.25 49.63 3.68 31.2 11.59 4.21" style="fill:#66737a;"/></g></g></g></svg>