<?xml version="1.0" encoding="UTF-8"?><svg id="uuid-88db4374-0d23-4ed6-bbb0-4fdcb95a8a22" xmlns="http://www.w3.org/2000/svg" viewBox="0 0 121.16 59.55"><g id="uuid-0b67d22b-b6e3-4e1a-b4ed-bd592a4bb7a0"><g><g><path d="m120.1,48.93c-4.81,0-22.2,3.95-25.75,4.77,4.16,1.77,8.76,3.77,13.52,5.86,4.44-4.72,16.98-10.63,12.23-10.63Z" style="fill:#276c7c;"/><path d="m52.51,40.79c.64-.71,1.03-1.14,1.03-1.14,6.37,1.32,15.51,5.65,22.66,6.96,1.49.27,5.84,1.94,11.8,4.4.05-.28.09-.57.06-.82-.13-1.2,5.36-4.09,1.84-3.67-2.53.3-5.63,1.4-7.19,2-5.23-3.84-11.72-11.39-18.34-18.98-.18-2.36-.41-7.4.54-10.55.61-2.02,3.5-4.17,6.36-5.87,1.09-.65.69-2.34-.57-2.44-8.31-.64-15.46,3.75-19.76,4.42-1.06-.99-2.1-1.92-3.11-2.75C35.39,2.2,19.58-.91,15.35.22S1.79-.35.95,5.02c-.52,3.27-1.76,7.16.47,12.51,11.35,1.92,19.89,9.73,32.01,14.92,2.66,1.14,9.66,4.2,19.09,8.34Z" style="fill:#276c7c;"/></g><path d="m47.36,38.53c-6.81-2.99-11.79-5.16-13.94-6.08C21.3,27.26,12.76,19.45,1.41,17.53Q.38,15.19.15,12s2.14,2.01,19.24,10.85c17.1,8.84,27.97,15.68,27.97,15.68Z" style="fill:#f2f2f2; stroke:#f2f2f2; stroke-miterlimit:10; stroke-width:.25px;"/><g><ellipse cx="13.61" cy="16.07" rx="1.12" ry="1.7" transform="translate(-5.93 23.92) rotate(-71.62)" style="fill:#34393d; opacity:.69;"/><path d="m13.21,14.88c-.58,0-1.07.24-1.2.66-.2.59.37,1.3,1.26,1.6.26.09.52.13.76.13.58,0,1.07-.24,1.2-.66.2-.59-.37-1.3-1.26-1.6-.26-.09-.52-.13-.76-.13h0Z" style="fill:#34393d;"/></g><path d="m22.99,16.6s-.56,2.88-3.25,5.68" style="fill:none; stroke:#1c5663; stroke-linecap:round; stroke-miterlimit:10; stroke-width:.75px;"/><path d="m25.03,18.54s-.5,2.57-2.9,5.07" style="fill:none; stroke:#1c5663; stroke-linecap:round; stroke-miterlimit:10; stroke-width:.75px;"/><path d="m26.74,20.93s-.38,1.97-2.22,3.88" style="fill:none; stroke:#1c5663; stroke-linecap:round; stroke-miterlimit:10; stroke-width:.75px;"/><path d="m26.74,24.81s-1.75,3.18-.52,8.51,5.29,8.19,6.08,8.35-.7-3.66.96-8.03,3.65-4.96,3.65-4.96l-10.18-3.87Z" style="fill:#276c7c;"/></g></g></svg>