<?xml version="1.0" encoding="UTF-8"?><svg id="uuid-48455985-f8ab-4502-a5df-dd38505b672e" xmlns="http://www.w3.org/2000/svg" viewBox="0 0 228.43 124.26"><g id="uuid-4cab7bb8-4c52-44be-b1ea-89c3f794be97"><g><g><path d="m168.98,122.75L.75,17.11c-1.07-.67-.98-2.26.16-2.8L30.73.15c.43-.21.94-.21,1.37,0l195.41,92.74c1.22.58,1.22,2.31,0,2.89l-57,27.05c-.49.23-1.07.2-1.54-.09Z" style="fill:#597477;"/><path d="m168.98,122.76L.75,17.12c-1.07-.67-.98-2.26.16-2.8L30.73.17c.43-.21.94-.21,1.37,0l195.41,92.74c1.22.58,1.22,2.31,0,2.89l-57,27.05c-.49.23-1.07.2-1.54-.09Z" style="fill:#597477;"/><path d="m168.98,122.77L.75,17.13c-1.07-.67-.98-2.26.16-2.8L30.73.18c.43-.21.94-.21,1.37,0l195.41,92.74c1.22.58,1.22,2.31,0,2.89l-57,27.05c-.49.23-1.07.2-1.54-.09Z" style="fill:#597477;"/><path d="m168.98,122.79L.75,17.14c-1.07-.67-.98-2.26.16-2.8L30.73.19c.43-.21.94-.21,1.37,0l195.41,92.74c1.22.58,1.22,2.31,0,2.89l-57,27.05c-.49.23-1.07.2-1.54-.09Z" style="fill:#597477;"/><path d="m168.98,122.8L.75,17.16c-1.07-.67-.98-2.26.16-2.8L30.73.2c.43-.21.94-.21,1.37,0l195.41,92.74c1.22.58,1.22,2.31,0,2.89l-57,27.05c-.49.23-1.07.2-1.54-.09Z" style="fill:#597477;"/><path d="m168.98,122.81L.75,17.17c-1.07-.67-.98-2.26.16-2.8L30.73.22c.43-.21.94-.21,1.37,0l195.41,92.74c1.22.58,1.22,2.31,0,2.89l-57,27.05c-.49.23-1.07.2-1.54-.09Z" style="fill:#597477;"/><path d="m168.98,122.82L.75,17.18c-1.07-.67-.98-2.26.16-2.8L30.73.23c.43-.21.94-.21,1.37,0l195.41,92.74c1.22.58,1.22,2.31,0,2.89l-57,27.05c-.49.23-1.07.2-1.54-.09Z" style="fill:#597477;"/><path d="m168.98,122.84L.75,17.19c-1.07-.67-.98-2.26.16-2.8L30.73.24c.43-.21.94-.21,1.37,0l195.41,92.74c1.22.58,1.22,2.31,0,2.89l-57,27.05c-.49.23-1.07.2-1.54-.09Z" style="fill:#597477;"/><path d="m168.98,122.85L.75,17.21c-1.07-.67-.98-2.26.16-2.8L30.73.25c.43-.21.94-.21,1.37,0l195.41,92.74c1.22.58,1.22,2.31,0,2.89l-57,27.05c-.49.23-1.07.2-1.54-.09Z" style="fill:#597477;"/><path d="m168.98,122.86L.75,17.22c-1.07-.67-.98-2.26.16-2.8L30.73.27c.43-.21.94-.21,1.37,0l195.41,92.74c1.22.58,1.22,2.31,0,2.89l-57,27.05c-.49.23-1.07.2-1.54-.09Z" style="fill:#597477;"/><path d="m168.98,122.87L.75,17.23c-1.07-.67-.98-2.26.16-2.8L30.73.28c.43-.21.94-.21,1.37,0l195.41,92.74c1.22.58,1.22,2.31,0,2.89l-57,27.05c-.49.23-1.07.2-1.54-.09Z" style="fill:#597477;"/><path d="m168.98,122.89L.75,17.24c-1.07-.67-.98-2.26.16-2.8L30.73.29c.43-.21.94-.21,1.37,0l195.41,92.74c1.22.58,1.22,2.31,0,2.89l-57,27.05c-.49.23-1.07.2-1.54-.09Z" style="fill:#597477;"/><path d="m168.98,122.9L.75,17.26c-1.07-.67-.98-2.26.16-2.8L30.73.3c.43-.21.94-.21,1.37,0l195.41,92.74c1.22.58,1.22,2.31,0,2.89l-57,27.05c-.49.23-1.07.2-1.54-.09Z" style="fill:#597477;"/><path d="m168.98,122.91L.75,17.27c-1.07-.67-.98-2.26.16-2.8L30.73.32c.43-.21.94-.21,1.37,0l195.41,92.74c1.22.58,1.22,2.31,0,2.89l-57,27.05c-.49.23-1.07.2-1.54-.09Z" style="fill:#597477;"/><path d="m168.98,122.92L.75,17.28c-1.07-.67-.98-2.26.16-2.8L30.73.33c.43-.21.94-.21,1.37,0l195.41,92.74c1.22.58,1.22,2.31,0,2.89l-57,27.05c-.49.23-1.07.2-1.54-.09Z" style="fill:#597477;"/><path d="m168.98,122.94L.75,17.29c-1.07-.67-.98-2.26.16-2.8L30.73.34c.43-.21.94-.21,1.37,0l195.41,92.74c1.22.58,1.22,2.31,0,2.89l-57,27.05c-.49.23-1.07.2-1.54-.09Z" style="fill:#597477;"/><path d="m168.98,122.95L.75,17.31c-1.07-.67-.98-2.26.16-2.8L30.73.35c.43-.21.94-.21,1.37,0l195.41,92.74c1.22.58,1.22,2.31,0,2.89l-57,27.05c-.49.23-1.07.2-1.54-.09Z" style="fill:#597477;"/><path d="m168.98,122.96L.75,17.32c-1.07-.67-.98-2.26.16-2.8L30.73.37c.43-.21.94-.21,1.37,0l195.41,92.74c1.22.58,1.22,2.31,0,2.89l-57,27.05c-.49.23-1.07.2-1.54-.09Z" style="fill:#597477;"/><path d="m168.98,122.97L.75,17.33c-1.07-.67-.98-2.26.16-2.8L30.73.38c.43-.21.94-.21,1.37,0l195.41,92.74c1.22.58,1.22,2.31,0,2.89l-57,27.05c-.49.23-1.07.2-1.54-.09Z" style="fill:#597477;"/><path d="m168.98,122.99L.75,17.34c-1.07-.67-.98-2.26.16-2.8L30.73.39c.43-.21.94-.21,1.37,0l195.41,92.74c1.22.58,1.22,2.31,0,2.89l-57,27.05c-.49.23-1.07.2-1.54-.09Z" style="fill:#597477;"/><path d="m168.98,123L.75,17.36c-1.07-.67-.98-2.26.16-2.8L30.73.4c.43-.21.94-.21,1.37,0l195.41,92.74c1.22.58,1.22,2.31,0,2.89l-57,27.05c-.49.23-1.07.2-1.54-.09Z" style="fill:#597477;"/><path d="m168.98,123.01L.75,17.37c-1.07-.67-.98-2.26.16-2.8L30.73.42c.43-.21.94-.21,1.37,0l195.41,92.74c1.22.58,1.22,2.31,0,2.89l-57,27.05c-.49.23-1.07.2-1.54-.09Z" style="fill:#597477;"/><path d="m168.98,123.02L.75,17.38c-1.07-.67-.98-2.26.16-2.8L30.73.43c.43-.21.94-.21,1.37,0l195.41,92.74c1.22.58,1.22,2.31,0,2.89l-57,27.05c-.49.23-1.07.2-1.54-.09Z" style="fill:#597477;"/><path d="m168.98,123.04L.75,17.39c-1.07-.67-.98-2.26.16-2.8L30.73.44c.43-.21.94-.21,1.37,0l195.41,92.74c1.22.58,1.22,2.31,0,2.89l-57,27.05c-.49.23-1.07.2-1.54-.09Z" style="fill:#597477;"/><path d="m168.98,123.05L.75,17.41c-1.07-.67-.98-2.26.16-2.8L30.73.45c.43-.21.94-.21,1.37,0l195.41,92.74c1.22.58,1.22,2.31,0,2.89l-57,27.05c-.49.23-1.07.2-1.54-.09Z" style="fill:#597477;"/><path d="m168.98,123.06L.75,17.42c-1.07-.67-.98-2.26.16-2.8L30.73.47c.43-.21.94-.21,1.37,0l195.41,92.74c1.22.58,1.22,2.31,0,2.89l-57,27.05c-.49.23-1.07.2-1.54-.09Z" style="fill:#597477;"/><path d="m168.98,123.07L.75,17.43c-1.07-.67-.98-2.26.16-2.8L30.73.48c.43-.21.94-.21,1.37,0l195.41,92.74c1.22.58,1.22,2.31,0,2.89l-57,27.05c-.49.23-1.07.2-1.54-.09Z" style="fill:#597477;"/><path d="m168.98,123.09L.75,17.44c-1.07-.67-.98-2.26.16-2.8L30.73.49c.43-.21.94-.21,1.37,0l195.41,92.74c1.22.58,1.22,2.31,0,2.89l-57,27.05c-.49.23-1.07.2-1.54-.09Z" style="fill:#597477;"/><path d="m168.98,123.1L.75,17.46c-1.07-.67-.98-2.26.16-2.8L30.73.51c.43-.21.94-.21,1.37,0l195.41,92.74c1.22.58,1.22,2.31,0,2.89l-57,27.05c-.49.23-1.07.2-1.54-.09Z" style="fill:#597477;"/><path d="m168.98,123.11L.75,17.47c-1.07-.67-.98-2.26.16-2.8L30.73.52c.43-.21.94-.21,1.37,0l195.41,92.74c1.22.58,1.22,2.31,0,2.89l-57,27.05c-.49.23-1.07.2-1.54-.09Z" style="fill:#597477;"/><path d="m168.98,123.13L.75,17.48c-1.07-.67-.98-2.26.16-2.8L30.73.53c.43-.21.94-.21,1.37,0l195.41,92.74c1.22.58,1.22,2.31,0,2.89l-57,27.05c-.49.23-1.07.2-1.54-.09Z" style="fill:#597477;"/><path d="m168.98,123.14L.75,17.49c-1.07-.67-.98-2.26.16-2.8L30.73.54c.43-.21.94-.21,1.37,0l195.41,92.74c1.22.58,1.22,2.31,0,2.89l-57,27.05c-.49.23-1.07.2-1.54-.09Z" style="fill:#597477;"/><path d="m168.98,123.15L.75,17.51c-1.07-.67-.98-2.26.16-2.8L30.73.56c.43-.21.94-.21,1.37,0l195.41,92.74c1.22.58,1.22,2.31,0,2.89l-57,27.05c-.49.23-1.07.2-1.54-.09Z" style="fill:#597477;"/><path d="m168.98,123.16L.75,17.52c-1.07-.67-.98-2.26.16-2.8L30.73.57c.43-.21.94-.21,1.37,0l195.41,92.74c1.22.58,1.22,2.31,0,2.89l-57,27.05c-.49.23-1.07.2-1.54-.09Z" style="fill:#597477;"/><path d="m168.98,123.18L.75,17.53c-1.07-.67-.98-2.26.16-2.8L30.73.58c.43-.21.94-.21,1.37,0l195.41,92.74c1.22.58,1.22,2.31,0,2.89l-57,27.05c-.49.23-1.07.2-1.54-.09Z" style="fill:#597477;"/><path d="m168.98,123.19L.75,17.54c-1.07-.67-.98-2.26.16-2.8L30.73.59c.43-.21.94-.21,1.37,0l195.41,92.74c1.22.58,1.22,2.31,0,2.89l-57,27.05c-.49.23-1.07.2-1.54-.09Z" style="fill:#597477;"/><path d="m168.98,123.2L.75,17.56c-1.07-.67-.98-2.26.16-2.8L30.73.61c.43-.21.94-.21,1.37,0l195.41,92.74c1.22.58,1.22,2.31,0,2.89l-57,27.05c-.49.23-1.07.2-1.54-.09Z" style="fill:#597477;"/><path d="m168.98,123.21L.75,17.57c-1.07-.67-.98-2.26.16-2.8L30.73.62c.43-.21.94-.21,1.37,0l195.41,92.74c1.22.58,1.22,2.31,0,2.89l-57,27.05c-.49.23-1.07.2-1.54-.09Z" style="fill:#597477;"/><path d="m168.98,123.23L.75,17.58c-1.07-.67-.98-2.26.16-2.8L30.73.63c.43-.21.94-.21,1.37,0l195.41,92.74c1.22.58,1.22,2.31,0,2.89l-57,27.05c-.49.23-1.07.2-1.54-.09Z" style="fill:#597477;"/><path d="m168.98,123.24L.75,17.59c-1.07-.67-.98-2.26.16-2.8L30.73.64c.43-.21.94-.21,1.37,0l195.41,92.74c1.22.58,1.22,2.31,0,2.89l-57,27.05c-.49.23-1.07.2-1.54-.09Z" style="fill:#597477;"/><path d="m168.98,123.25L.75,17.61c-1.07-.67-.98-2.26.16-2.8L30.73.66c.43-.21.94-.21,1.37,0l195.41,92.74c1.22.58,1.22,2.31,0,2.89l-57,27.05c-.49.23-1.07.2-1.54-.09Z" style="fill:#597477;"/><path d="m168.98,123.26L.75,17.62c-1.07-.67-.98-2.26.16-2.8L30.73.67c.43-.21.94-.21,1.37,0l195.41,92.74c1.22.58,1.22,2.31,0,2.89l-57,27.05c-.49.23-1.07.2-1.54-.09Z" style="fill:#597477;"/><path d="m168.98,123.28L.75,17.63c-1.07-.67-.98-2.26.16-2.8L30.73.68c.43-.21.94-.21,1.37,0l195.41,92.74c1.22.58,1.22,2.31,0,2.89l-57,27.05c-.49.23-1.07.2-1.54-.09Z" style="fill:#597477;"/><path d="m168.98,123.29L.75,17.64c-1.07-.67-.98-2.26.16-2.8L30.73.69c.43-.21.94-.21,1.37,0l195.41,92.74c1.22.58,1.22,2.31,0,2.89l-57,27.05c-.49.23-1.07.2-1.54-.09Z" style="fill:#597477;"/><path d="m168.98,123.3L.75,17.66c-1.07-.67-.98-2.26.16-2.8L30.73.71c.43-.21.94-.21,1.37,0l195.41,92.74c1.22.58,1.22,2.31,0,2.89l-57,27.05c-.49.23-1.07.2-1.54-.09Z" style="fill:#597477;"/><path d="m168.98,123.31L.75,17.67c-1.07-.67-.98-2.26.16-2.8L30.73.72c.43-.21.94-.21,1.37,0l195.41,92.74c1.22.58,1.22,2.31,0,2.89l-57,27.05c-.49.23-1.07.2-1.54-.09Z" style="fill:#597477;"/><path d="m168.98,123.33L.75,17.68c-1.07-.67-.98-2.26.16-2.8L30.73.73c.43-.21.94-.21,1.37,0l195.41,92.74c1.22.58,1.22,2.31,0,2.89l-57,27.05c-.49.23-1.07.2-1.54-.09Z" style="fill:#597477;"/><path d="m168.98,123.34L.75,17.69c-1.07-.67-.98-2.26.16-2.8L30.73.74c.43-.21.94-.21,1.37,0l195.41,92.74c1.22.58,1.22,2.31,0,2.89l-57,27.05c-.49.23-1.07.2-1.54-.09Z" style="fill:#597477;"/><path d="m168.98,123.35L.75,17.71c-1.07-.67-.98-2.26.16-2.8L30.73.76c.43-.21.94-.21,1.37,0l195.41,92.74c1.22.58,1.22,2.31,0,2.89l-57,27.05c-.49.23-1.07.2-1.54-.09Z" style="fill:#597477;"/><path d="m168.98,123.36L.75,17.72c-1.07-.67-.98-2.26.16-2.8L30.73.77c.43-.21.94-.21,1.37,0l195.41,92.74c1.22.58,1.22,2.31,0,2.89l-57,27.05c-.49.23-1.07.2-1.54-.09Z" style="fill:#597477;"/><path d="m168.98,123.38L.75,17.73c-1.07-.67-.98-2.26.16-2.8L30.73.78c.43-.21.94-.21,1.37,0l195.41,92.74c1.22.58,1.22,2.31,0,2.89l-57,27.05c-.49.23-1.07.2-1.54-.09Z" style="fill:#597477;"/><path d="m168.98,123.39L.75,17.74c-1.07-.67-.98-2.26.16-2.8L30.73.79c.43-.21.94-.21,1.37,0l195.41,92.74c1.22.58,1.22,2.31,0,2.89l-57,27.05c-.49.23-1.07.2-1.54-.09Z" style="fill:#597477;"/><path d="m168.98,123.4L.75,17.76c-1.07-.67-.98-2.26.16-2.8L30.73.81c.43-.21.94-.21,1.37,0l195.41,92.74c1.22.58,1.22,2.31,0,2.89l-57,27.05c-.49.23-1.07.2-1.54-.09Z" style="fill:#597477;"/><path d="m168.98,123.41L.75,17.77c-1.07-.67-.98-2.26.16-2.8L30.73.82c.43-.21.94-.21,1.37,0l195.41,92.74c1.22.58,1.22,2.31,0,2.89l-57,27.05c-.49.23-1.07.2-1.54-.09Z" style="fill:#597477;"/><path d="m168.98,123.43L.75,17.78c-1.07-.67-.98-2.26.16-2.8L30.73.83c.43-.21.94-.21,1.37,0l195.41,92.74c1.22.58,1.22,2.31,0,2.89l-57,27.05c-.49.23-1.07.2-1.54-.09Z" style="fill:#597477;"/><path d="m168.98,123.44L.75,17.8c-1.07-.67-.98-2.26.16-2.8L30.73.84c.43-.21.94-.21,1.37,0l195.41,92.74c1.22.58,1.22,2.31,0,2.89l-57,27.05c-.49.23-1.07.2-1.54-.09Z" style="fill:#597477;"/><path d="m168.98,123.45L.75,17.81c-1.07-.67-.98-2.26.16-2.8L30.73.86c.43-.21.94-.21,1.37,0l195.41,92.74c1.22.58,1.22,2.31,0,2.89l-57,27.05c-.49.23-1.07.2-1.54-.09Z" style="fill:#597477;"/><path d="m168.98,123.46L.75,17.82c-1.07-.67-.98-2.26.16-2.8L30.73.87c.43-.21.94-.21,1.37,0l195.41,92.74c1.22.58,1.22,2.31,0,2.89l-57,27.05c-.49.23-1.07.2-1.54-.09Z" style="fill:#597477;"/><path d="m168.98,123.48L.75,17.83c-1.07-.67-.98-2.26.16-2.8L30.73.88c.43-.21.94-.21,1.37,0l195.41,92.74c1.22.58,1.22,2.31,0,2.89l-57,27.05c-.49.23-1.07.2-1.54-.09Z" style="fill:#597477;"/><path d="m168.98,123.49L.75,17.85c-1.07-.67-.98-2.26.16-2.8L30.73.89c.43-.21.94-.21,1.37,0l195.41,92.74c1.22.58,1.22,2.31,0,2.89l-57,27.05c-.49.23-1.07.2-1.54-.09Z" style="fill:#597477;"/><path d="m168.98,123.5L.75,17.86c-1.07-.67-.98-2.26.16-2.8L30.73.91c.43-.21.94-.21,1.37,0l195.41,92.74c1.22.58,1.22,2.31,0,2.89l-57,27.05c-.49.23-1.07.2-1.54-.09Z" style="fill:#597477;"/><path d="m168.98,123.51L.75,17.87c-1.07-.67-.98-2.26.16-2.8L30.73.92c.43-.21.94-.21,1.37,0l195.41,92.74c1.22.58,1.22,2.31,0,2.89l-57,27.05c-.49.23-1.07.2-1.54-.09Z" style="fill:#597477;"/><path d="m168.98,123.53L.75,17.88c-1.07-.67-.98-2.26.16-2.8L30.73.93c.43-.21.94-.21,1.37,0l195.41,92.74c1.22.58,1.22,2.31,0,2.89l-57,27.05c-.49.23-1.07.2-1.54-.09Z" style="fill:#597477;"/><path d="m168.98,123.54L.75,17.9c-1.07-.67-.98-2.26.16-2.8L30.73.94c.43-.21.94-.21,1.37,0l195.41,92.74c1.22.58,1.22,2.31,0,2.89l-57,27.05c-.49.23-1.07.2-1.54-.09Z" style="fill:#597477;"/><path d="m168.98,123.55L.75,17.91c-1.07-.67-.98-2.26.16-2.8L30.73.96c.43-.21.94-.21,1.37,0l195.41,92.74c1.22.58,1.22,2.31,0,2.89l-57,27.05c-.49.23-1.07.2-1.54-.09Z" style="fill:#597477;"/><path d="m168.98,123.56L.75,17.92c-1.07-.67-.98-2.26.16-2.8L30.73.97c.43-.21.94-.21,1.37,0l195.41,92.74c1.22.58,1.22,2.31,0,2.89l-57,27.05c-.49.23-1.07.2-1.54-.09Z" style="fill:#597477;"/><path d="m168.98,123.58L.75,17.93c-1.07-.67-.98-2.26.16-2.8L30.73.98c.43-.21.94-.21,1.37,0l195.41,92.74c1.22.58,1.22,2.31,0,2.89l-57,27.05c-.49.23-1.07.2-1.54-.09Z" style="fill:#597477;"/><path d="m168.98,123.59L.75,17.95c-1.07-.67-.98-2.26.16-2.8L30.73.99c.43-.21.94-.21,1.37,0l195.41,92.74c1.22.58,1.22,2.31,0,2.89l-57,27.05c-.49.23-1.07.2-1.54-.09Z" style="fill:#597477;"/><path d="m168.98,123.6L.75,17.96c-1.07-.67-.98-2.26.16-2.8L30.73,1.01c.43-.21.94-.21,1.37,0l195.41,92.74c1.22.58,1.22,2.31,0,2.89l-57,27.05c-.49.23-1.07.2-1.54-.09Z" style="fill:#597477;"/><path d="m168.98,123.61L.75,17.97c-1.07-.67-.98-2.26.16-2.8L30.73,1.02c.43-.21.94-.21,1.37,0l195.41,92.74c1.22.58,1.22,2.31,0,2.89l-57,27.05c-.49.23-1.07.2-1.54-.09Z" style="fill:#597477;"/><path d="m168.98,123.63L.75,17.98c-1.07-.67-.98-2.26.16-2.8L30.73,1.03c.43-.21.94-.21,1.37,0l195.41,92.74c1.22.58,1.22,2.31,0,2.89l-57,27.05c-.49.23-1.07.2-1.54-.09Z" style="fill:#597477;"/><path d="m168.98,123.64L.75,18c-1.07-.67-.98-2.26.16-2.8L30.73,1.04c.43-.21.94-.21,1.37,0l195.41,92.74c1.22.58,1.22,2.31,0,2.89l-57,27.05c-.49.23-1.07.2-1.54-.09Z" style="fill:#597477;"/><path d="m168.98,123.65L.75,18.01c-1.07-.67-.98-2.26.16-2.8L30.73,1.06c.43-.21.94-.21,1.37,0l195.41,92.74c1.22.58,1.22,2.31,0,2.89l-57,27.05c-.49.23-1.07.2-1.54-.09Z" style="fill:#597477;"/><path d="m168.98,123.66L.75,18.02c-1.07-.67-.98-2.26.16-2.8L30.73,1.07c.43-.21.94-.21,1.37,0l195.41,92.74c1.22.58,1.22,2.31,0,2.89l-57,27.05c-.49.23-1.07.2-1.54-.09Z" style="fill:#597477;"/><path d="m168.98,123.68L.75,18.03c-1.07-.67-.98-2.26.16-2.8L30.73,1.08c.43-.21.94-.21,1.37,0l195.41,92.74c1.22.58,1.22,2.31,0,2.89l-57,27.05c-.49.23-1.07.2-1.54-.09Z" style="fill:#597477;"/><path d="m168.98,123.69L.75,18.05c-1.07-.67-.98-2.26.16-2.8L30.73,1.09c.43-.21.94-.21,1.37,0l195.41,92.74c1.22.58,1.22,2.31,0,2.89l-57,27.05c-.49.23-1.07.2-1.54-.09Z" style="fill:#597477;"/><path d="m168.98,123.7L.75,18.06c-1.07-.67-.98-2.26.16-2.8L30.73,1.11c.43-.21.94-.21,1.37,0l195.41,92.74c1.22.58,1.22,2.31,0,2.89l-57,27.05c-.49.23-1.07.2-1.54-.09Z" style="fill:#597477;"/><path d="m168.98,123.71L.75,18.07c-1.07-.67-.98-2.26.16-2.8L30.73,1.12c.43-.21.94-.21,1.37,0l195.41,92.74c1.22.58,1.22,2.31,0,2.89l-57,27.05c-.49.23-1.07.2-1.54-.09Z" style="fill:#597477;"/><path d="m168.98,123.73L.75,18.08c-1.07-.67-.98-2.26.16-2.8L30.73,1.13c.43-.21.94-.21,1.37,0l195.41,92.74c1.22.58,1.22,2.31,0,2.89l-57,27.05c-.49.23-1.07.2-1.54-.09Z" style="fill:#597477;"/><path d="m168.98,123.74L.75,18.1c-1.07-.67-.98-2.26.16-2.8L30.73,1.14c.43-.21.94-.21,1.37,0l195.41,92.74c1.22.58,1.22,2.31,0,2.89l-57,27.05c-.49.23-1.07.2-1.54-.09Z" style="fill:#597477;"/><path d="m168.98,123.75L.75,18.11c-1.07-.67-.98-2.26.16-2.8L30.73,1.16c.43-.21.94-.21,1.37,0l195.41,92.74c1.22.58,1.22,2.31,0,2.89l-57,27.05c-.49.23-1.07.2-1.54-.09Z" style="fill:#597477;"/><path d="m168.98,123.76L.75,18.12c-1.07-.67-.98-2.26.16-2.8L30.73,1.17c.43-.21.94-.21,1.37,0l195.41,92.74c1.22.58,1.22,2.31,0,2.89l-57,27.05c-.49.23-1.07.2-1.54-.09Z" style="fill:#597477;"/><path d="m168.98,123.78L.75,18.13c-1.07-.67-.98-2.26.16-2.8L30.73,1.18c.43-.21.94-.21,1.37,0l195.41,92.74c1.22.58,1.22,2.31,0,2.89l-57,27.05c-.49.23-1.07.2-1.54-.09Z" style="fill:#597477;"/><path d="m168.98,123.79L.75,18.15c-1.07-.67-.98-2.26.16-2.8L30.73,1.19c.43-.21.94-.21,1.37,0l195.41,92.74c1.22.58,1.22,2.31,0,2.89l-57,27.05c-.49.23-1.07.2-1.54-.09Z" style="fill:#597477;"/><path d="m168.98,123.8L.75,18.16c-1.07-.67-.98-2.26.16-2.8L30.73,1.21c.43-.21.94-.21,1.37,0l195.41,92.74c1.22.58,1.22,2.31,0,2.89l-57,27.05c-.49.23-1.07.2-1.54-.09Z" style="fill:#597477;"/><path d="m168.98,123.81L.75,18.17c-1.07-.67-.98-2.26.16-2.8L30.73,1.22c.43-.21.94-.21,1.37,0l195.41,92.74c1.22.58,1.22,2.31,0,2.89l-57,27.05c-.49.23-1.07.2-1.54-.09Z" style="fill:#597477;"/><path d="m168.98,123.83L.75,18.18c-1.07-.67-.98-2.26.16-2.8L30.73,1.23c.43-.21.94-.21,1.37,0l195.41,92.74c1.22.58,1.22,2.31,0,2.89l-57,27.05c-.49.23-1.07.2-1.54-.09Z" style="fill:#597477;"/><path d="m168.98,123.84L.75,18.2c-1.07-.67-.98-2.26.16-2.8L30.73,1.24c.43-.21.94-.21,1.37,0l195.41,92.74c1.22.58,1.22,2.31,0,2.89l-57,27.05c-.49.23-1.07.2-1.54-.09Z" style="fill:#597477;"/><path d="m168.98,123.85L.75,18.21c-1.07-.67-.98-2.26.16-2.8L30.73,1.26c.43-.21.94-.21,1.37,0l195.41,92.74c1.22.58,1.22,2.31,0,2.89l-57,27.05c-.49.23-1.07.2-1.54-.09Z" style="fill:#597477;"/><path d="m168.98,123.86L.75,18.22c-1.07-.67-.98-2.26.16-2.8L30.73,1.27c.43-.21.94-.21,1.37,0l195.41,92.74c1.22.58,1.22,2.31,0,2.89l-57,27.05c-.49.23-1.07.2-1.54-.09Z" style="fill:#597477;"/><path d="m168.98,123.88L.75,18.23c-1.07-.67-.98-2.26.16-2.8L30.73,1.28c.43-.21.94-.21,1.37,0l195.41,92.74c1.22.58,1.22,2.31,0,2.89l-57,27.05c-.49.23-1.07.2-1.54-.09Z" style="fill:#597477;"/><path d="m168.98,123.89L.75,18.25c-1.07-.67-.98-2.26.16-2.8L30.73,1.29c.43-.21.94-.21,1.37,0l195.41,92.74c1.22.58,1.22,2.31,0,2.89l-57,27.05c-.49.23-1.07.2-1.54-.09Z" style="fill:#597477;"/><path d="m168.98,123.9L.75,18.26c-1.07-.67-.98-2.26.16-2.8L30.73,1.31c.43-.21.94-.21,1.37,0l195.41,92.74c1.22.58,1.22,2.31,0,2.89l-57,27.05c-.49.23-1.07.2-1.54-.09Z" style="fill:#597477;"/><path d="m168.98,123.91L.75,18.27c-1.07-.67-.98-2.26.16-2.8L30.73,1.32c.43-.21.94-.21,1.37,0l195.41,92.74c1.22.58,1.22,2.31,0,2.89l-57,27.05c-.49.23-1.07.2-1.54-.09Z" style="fill:#597477;"/><path d="m168.98,123.93L.75,18.28c-1.07-.67-.98-2.26.16-2.8L30.73,1.33c.43-.21.94-.21,1.37,0l195.41,92.74c1.22.58,1.22,2.31,0,2.89l-57,27.05c-.49.23-1.07.2-1.54-.09Z" style="fill:#597477;"/><path d="m168.98,123.94L.75,18.3c-1.07-.67-.98-2.26.16-2.8L30.73,1.34c.43-.21.94-.21,1.37,0l195.41,92.74c1.22.58,1.22,2.31,0,2.89l-57,27.05c-.49.23-1.07.2-1.54-.09Z" style="fill:#597477;"/><path d="m168.98,123.95L.75,18.31c-1.07-.67-.98-2.26.16-2.8L30.73,1.36c.43-.21.94-.21,1.37,0l195.41,92.74c1.22.58,1.22,2.31,0,2.89l-57,27.05c-.49.23-1.07.2-1.54-.09Z" style="fill:#597477;"/><path d="m168.98,123.96L.75,18.32c-1.07-.67-.98-2.26.16-2.8L30.73,1.37c.43-.21.94-.21,1.37,0l195.41,92.74c1.22.58,1.22,2.31,0,2.89l-57,27.05c-.49.23-1.07.2-1.54-.09Z" style="fill:#597477;"/><path d="m168.98,123.98L.75,18.33c-1.07-.67-.98-2.26.16-2.8L30.73,1.38c.43-.21.94-.21,1.37,0l195.41,92.74c1.22.58,1.22,2.31,0,2.89l-57,27.05c-.49.23-1.07.2-1.54-.09Z" style="fill:#597477;"/><path d="m168.98,123.99L.75,18.35c-1.07-.67-.98-2.26.16-2.8L30.73,1.39c.43-.21.94-.21,1.37,0l195.41,92.74c1.22.58,1.22,2.31,0,2.89l-57,27.05c-.49.23-1.07.2-1.54-.09Z" style="fill:#597477;"/><path d="m168.98,124L.75,18.36c-1.07-.67-.98-2.26.16-2.8L30.73,1.41c.43-.21.94-.21,1.37,0l195.41,92.74c1.22.58,1.22,2.31,0,2.89l-57,27.05c-.49.23-1.07.2-1.54-.09Z" style="fill:#597477;"/><path d="m168.98,124.01L.75,18.37c-1.07-.67-.98-2.26.16-2.8L30.73,1.42c.43-.21.94-.21,1.37,0l195.41,92.74c1.22.58,1.22,2.31,0,2.89l-57,27.05c-.49.23-1.07.2-1.54-.09Z" style="fill:#597477;"/></g><line x1="2.01" y1="17.07" x2="169.16" y2="121.54" style="fill:none; stroke:#6b8a8d; stroke-linecap:round; stroke-miterlimit:10; stroke-width:2px;"/></g></g></svg>