<svg xmlns="http://www.w3.org/2000/svg" viewBox="0 0 169.78 117.31"><defs><style>.cls-1{fill:#59777a;}.cls-2{fill:#6a8e91;}.cls-3{fill:#eeefed;}.cls-4{fill:#fefcfb;}.cls-5{fill:#343c41;}.cls-6{fill:#354849;}.cls-7{fill:#414c51;}.cls-8{fill:#2b3235;}.cls-9{fill:#242a2d;}.cls-10{fill:#66767d;}.cls-11{fill:#a1acb1;}.cls-12{fill:#b0bdc2;}.cls-13{fill:#3a4449;}.cls-14{fill:#ababaa;}.cls-15{fill:#8da5b1;}.cls-16{fill:#282f33;}.cls-17{fill:#1e2326;}.cls-18{fill:#f7f7f6;}.cls-19{fill:#bdbcbb;}.cls-20{fill:#356d72;}.cls-21{fill:#3f8389;}.cls-22{fill:#4b5149;}.cls-23{fill:#60675d;}.cls-24{fill:#767f72;}.cls-25{fill:#387277;}.cls-26{fill:#478d94;}.cls-27{fill:#16434d;}.cls-28{fill:#184650;}.cls-29{fill:#1e535f;}.cls-30{fill:#677064;}.cls-31{fill:#d6d1cc;}.cls-32{fill:#f9f3ee;}.cls-33{fill:#575e55;}.cls-34{fill:#737b6f;}.cls-35{fill:#818b7d;}.cls-36{fill:#6b6b6b;}.cls-37{fill:#262d30;}.cls-38{fill:#30393d;}</style></defs><g id="レイヤー_2" data-name="レイヤー 2"><g id="レイヤー_8" data-name="レイヤー 8"><path class="cls-1" d="M125.69,116.12.75,37.66a1.6,1.6,0,0,1,.16-2.8L22.37,24.68a1.57,1.57,0,0,1,1.37,0L168.87,93.56a1.6,1.6,0,0,1,0,2.89l-41.64,19.76A1.59,1.59,0,0,1,125.69,116.12Z"/><path class="cls-1" d="M125.69,116.13.75,37.67a1.6,1.6,0,0,1,.16-2.8L22.37,24.69a1.57,1.57,0,0,1,1.37,0L168.87,93.57a1.6,1.6,0,0,1,0,2.89l-41.64,19.76A1.62,1.62,0,0,1,125.69,116.13Z"/><path class="cls-1" d="M125.69,116.14.75,37.68a1.6,1.6,0,0,1,.16-2.8L22.37,24.7a1.57,1.57,0,0,1,1.37,0L168.87,93.58a1.6,1.6,0,0,1,0,2.89l-41.64,19.76A1.62,1.62,0,0,1,125.69,116.14Z"/><path class="cls-1" d="M125.69,116.15.75,37.69a1.6,1.6,0,0,1,.16-2.8L22.37,24.71a1.57,1.57,0,0,1,1.37,0L168.87,93.59a1.6,1.6,0,0,1,0,2.89l-41.64,19.76A1.62,1.62,0,0,1,125.69,116.15Z"/><path class="cls-1" d="M125.69,116.16.75,37.7a1.6,1.6,0,0,1,.16-2.8L22.37,24.72a1.57,1.57,0,0,1,1.37,0L168.87,93.6a1.6,1.6,0,0,1,0,2.89l-41.64,19.76A1.62,1.62,0,0,1,125.69,116.16Z"/><path class="cls-1" d="M125.69,116.17.75,37.71a1.6,1.6,0,0,1,.16-2.8L22.37,24.73a1.57,1.57,0,0,1,1.37,0L168.87,93.61a1.59,1.59,0,0,1,0,2.88l-41.64,19.77A1.62,1.62,0,0,1,125.69,116.17Z"/><path class="cls-1" d="M125.69,116.18.75,37.72a1.6,1.6,0,0,1,.16-2.8L22.37,24.74a1.57,1.57,0,0,1,1.37,0L168.87,93.61a1.6,1.6,0,0,1,0,2.89l-41.64,19.77A1.62,1.62,0,0,1,125.69,116.18Z"/><path class="cls-1" d="M125.69,116.19.75,37.73a1.6,1.6,0,0,1,.16-2.8L22.37,24.74a1.64,1.64,0,0,1,1.37,0L168.87,93.62a1.6,1.6,0,0,1,0,2.89l-41.64,19.77A1.62,1.62,0,0,1,125.69,116.19Z"/><path class="cls-1" d="M125.69,116.2.75,37.73a1.59,1.59,0,0,1,.16-2.79L22.37,24.75a1.64,1.64,0,0,1,1.37,0L168.87,93.63a1.6,1.6,0,0,1,0,2.89l-41.64,19.77A1.62,1.62,0,0,1,125.69,116.2Z"/><path class="cls-1" d="M125.69,116.2.75,37.74A1.59,1.59,0,0,1,.91,35L22.37,24.76a1.64,1.64,0,0,1,1.37,0L168.87,93.64a1.6,1.6,0,0,1,0,2.89l-41.64,19.76A1.57,1.57,0,0,1,125.69,116.2Z"/><path class="cls-1" d="M125.69,116.21.75,37.75A1.6,1.6,0,0,1,.91,35L22.37,24.77a1.64,1.64,0,0,1,1.37,0L168.87,93.65a1.6,1.6,0,0,1,0,2.89L127.23,116.3A1.59,1.59,0,0,1,125.69,116.21Z"/><path class="cls-1" d="M125.69,116.22.75,37.76A1.6,1.6,0,0,1,.91,35L22.37,24.78a1.64,1.64,0,0,1,1.37,0L168.87,93.66a1.6,1.6,0,0,1,0,2.89l-41.64,19.76A1.59,1.59,0,0,1,125.69,116.22Z"/><path class="cls-1" d="M125.69,116.23.75,37.77A1.6,1.6,0,0,1,.91,35L22.37,24.79a1.64,1.64,0,0,1,1.37,0L168.87,93.67a1.6,1.6,0,0,1,0,2.89l-41.64,19.76A1.59,1.59,0,0,1,125.69,116.23Z"/><path class="cls-1" d="M125.69,116.24.75,37.78A1.6,1.6,0,0,1,.91,35L22.37,24.8a1.57,1.57,0,0,1,1.37,0L168.87,93.68a1.6,1.6,0,0,1,0,2.89l-41.64,19.76A1.59,1.59,0,0,1,125.69,116.24Z"/><path class="cls-1" d="M125.69,116.25.75,37.79A1.6,1.6,0,0,1,.91,35L22.37,24.81a1.57,1.57,0,0,1,1.37,0L168.87,93.69a1.6,1.6,0,0,1,0,2.89l-41.64,19.76A1.59,1.59,0,0,1,125.69,116.25Z"/><path class="cls-1" d="M125.69,116.26.75,37.8A1.6,1.6,0,0,1,.91,35L22.37,24.82a1.57,1.57,0,0,1,1.37,0L168.87,93.7a1.6,1.6,0,0,1,0,2.89l-41.64,19.76A1.59,1.59,0,0,1,125.69,116.26Z"/><path class="cls-1" d="M125.69,116.27.75,37.81A1.6,1.6,0,0,1,.91,35L22.37,24.83a1.57,1.57,0,0,1,1.37,0L168.87,93.71a1.6,1.6,0,0,1,0,2.89l-41.64,19.76A1.62,1.62,0,0,1,125.69,116.27Z"/><path class="cls-1" d="M125.69,116.28.75,37.82A1.6,1.6,0,0,1,.91,35L22.37,24.84a1.57,1.57,0,0,1,1.37,0L168.87,93.72a1.6,1.6,0,0,1,0,2.89l-41.64,19.76A1.62,1.62,0,0,1,125.69,116.28Z"/><path class="cls-1" d="M125.69,116.29.75,37.83A1.6,1.6,0,0,1,.91,35L22.37,24.85a1.57,1.57,0,0,1,1.37,0L168.87,93.73a1.6,1.6,0,0,1,0,2.89l-41.64,19.76A1.62,1.62,0,0,1,125.69,116.29Z"/><path class="cls-1" d="M125.69,116.3.75,37.84A1.6,1.6,0,0,1,.91,35L22.37,24.86a1.57,1.57,0,0,1,1.37,0L168.87,93.74a1.6,1.6,0,0,1,0,2.89l-41.64,19.76A1.62,1.62,0,0,1,125.69,116.3Z"/><path class="cls-1" d="M125.69,116.31.75,37.85a1.6,1.6,0,0,1,.16-2.8L22.37,24.87a1.57,1.57,0,0,1,1.37,0L168.87,93.75a1.6,1.6,0,0,1,0,2.89L127.23,116.4A1.62,1.62,0,0,1,125.69,116.31Z"/><path class="cls-1" d="M125.69,116.32.75,37.86a1.6,1.6,0,0,1,.16-2.8L22.37,24.88a1.57,1.57,0,0,1,1.37,0L168.87,93.76a1.59,1.59,0,0,1,0,2.88l-41.64,19.77A1.62,1.62,0,0,1,125.69,116.32Z"/><path class="cls-1" d="M125.69,116.33.75,37.87a1.6,1.6,0,0,1,.16-2.8L22.37,24.88a1.64,1.64,0,0,1,1.37,0L168.87,93.76a1.6,1.6,0,0,1,0,2.89l-41.64,19.77A1.62,1.62,0,0,1,125.69,116.33Z"/><path class="cls-1" d="M125.69,116.34.75,37.88a1.6,1.6,0,0,1,.16-2.8L22.37,24.89a1.64,1.64,0,0,1,1.37,0L168.87,93.77a1.6,1.6,0,0,1,0,2.89l-41.64,19.77A1.62,1.62,0,0,1,125.69,116.34Z"/><path class="cls-1" d="M125.69,116.34.75,37.88a1.59,1.59,0,0,1,.16-2.79L22.37,24.9a1.64,1.64,0,0,1,1.37,0L168.87,93.78a1.6,1.6,0,0,1,0,2.89l-41.64,19.77A1.6,1.6,0,0,1,125.69,116.34Z"/><path class="cls-1" d="M125.69,116.35.75,37.89a1.6,1.6,0,0,1,.16-2.8L22.37,24.91a1.64,1.64,0,0,1,1.37,0L168.87,93.79a1.6,1.6,0,0,1,0,2.89l-41.64,19.76A1.59,1.59,0,0,1,125.69,116.35Z"/><path class="cls-1" d="M125.69,116.36.75,37.9a1.6,1.6,0,0,1,.16-2.8L22.37,24.92a1.64,1.64,0,0,1,1.37,0L168.87,93.8a1.6,1.6,0,0,1,0,2.89l-41.64,19.76A1.59,1.59,0,0,1,125.69,116.36Z"/><path class="cls-1" d="M125.69,116.37.75,37.91a1.6,1.6,0,0,1,.16-2.8L22.37,24.93a1.64,1.64,0,0,1,1.37,0L168.87,93.81a1.6,1.6,0,0,1,0,2.89l-41.64,19.76A1.59,1.59,0,0,1,125.69,116.37Z"/><path class="cls-1" d="M125.69,116.38.75,37.92a1.6,1.6,0,0,1,.16-2.8L22.37,24.94a1.64,1.64,0,0,1,1.37,0L168.87,93.82a1.6,1.6,0,0,1,0,2.89l-41.64,19.76A1.59,1.59,0,0,1,125.69,116.38Z"/><path class="cls-1" d="M125.69,116.39.75,37.93a1.6,1.6,0,0,1,.16-2.8L22.37,25a1.57,1.57,0,0,1,1.37,0L168.87,93.83a1.6,1.6,0,0,1,0,2.89l-41.64,19.76A1.59,1.59,0,0,1,125.69,116.39Z"/><path class="cls-1" d="M125.69,116.4.75,37.94a1.6,1.6,0,0,1,.16-2.8L22.37,25a1.57,1.57,0,0,1,1.37,0L168.87,93.84a1.6,1.6,0,0,1,0,2.89l-41.64,19.76A1.59,1.59,0,0,1,125.69,116.4Z"/><path class="cls-1" d="M125.69,116.41.75,38a1.6,1.6,0,0,1,.16-2.8L22.37,25a1.57,1.57,0,0,1,1.37,0L168.87,93.85a1.6,1.6,0,0,1,0,2.89L127.23,116.5A1.59,1.59,0,0,1,125.69,116.41Z"/><path class="cls-1" d="M125.69,116.42.75,38a1.6,1.6,0,0,1,.16-2.8L22.37,25a1.57,1.57,0,0,1,1.37,0L168.87,93.86a1.6,1.6,0,0,1,0,2.89l-41.64,19.76A1.62,1.62,0,0,1,125.69,116.42Z"/><path class="cls-1" d="M125.69,116.43.75,38a1.6,1.6,0,0,1,.16-2.8L22.37,25a1.57,1.57,0,0,1,1.37,0L168.87,93.87a1.6,1.6,0,0,1,0,2.89l-41.64,19.76A1.62,1.62,0,0,1,125.69,116.43Z"/><path class="cls-1" d="M125.69,116.44.75,38a1.6,1.6,0,0,1,.16-2.8L22.37,25a1.57,1.57,0,0,1,1.37,0L168.87,93.88a1.6,1.6,0,0,1,0,2.89l-41.64,19.76A1.62,1.62,0,0,1,125.69,116.44Z"/><path class="cls-1" d="M125.69,116.45.75,38a1.6,1.6,0,0,1,.16-2.8L22.37,25a1.57,1.57,0,0,1,1.37,0L168.87,93.89a1.6,1.6,0,0,1,0,2.89l-41.64,19.76A1.62,1.62,0,0,1,125.69,116.45Z"/><path class="cls-1" d="M125.69,116.46.75,38a1.6,1.6,0,0,1,.16-2.8L22.37,25a1.57,1.57,0,0,1,1.37,0L168.87,93.9a1.6,1.6,0,0,1,0,2.89l-41.64,19.76A1.62,1.62,0,0,1,125.69,116.46Z"/><path class="cls-1" d="M125.69,116.47.75,38a1.6,1.6,0,0,1,.16-2.8L22.37,25a1.57,1.57,0,0,1,1.37,0L168.87,93.9a1.6,1.6,0,0,1,0,2.89l-41.64,19.77A1.62,1.62,0,0,1,125.69,116.47Z"/><path class="cls-1" d="M125.69,116.48.75,38a1.6,1.6,0,0,1,.16-2.8L22.37,25a1.64,1.64,0,0,1,1.37,0L168.87,93.91a1.6,1.6,0,0,1,0,2.89l-41.64,19.77A1.62,1.62,0,0,1,125.69,116.48Z"/><path class="cls-1" d="M125.69,116.49.75,38a1.59,1.59,0,0,1,.16-2.79L22.37,25a1.64,1.64,0,0,1,1.37,0L168.87,93.92a1.6,1.6,0,0,1,0,2.89l-41.64,19.77A1.62,1.62,0,0,1,125.69,116.49Z"/><path class="cls-1" d="M125.69,116.49.75,38a1.59,1.59,0,0,1,.16-2.79L22.37,25.05a1.64,1.64,0,0,1,1.37,0L168.87,93.93a1.6,1.6,0,0,1,0,2.89l-41.64,19.76A1.57,1.57,0,0,1,125.69,116.49Z"/><path class="cls-1" d="M125.69,116.5.75,38a1.6,1.6,0,0,1,.16-2.8L22.37,25.06a1.64,1.64,0,0,1,1.37,0L168.87,93.94a1.6,1.6,0,0,1,0,2.89l-41.64,19.76A1.59,1.59,0,0,1,125.69,116.5Z"/><path class="cls-1" d="M125.69,116.51.75,38.05a1.6,1.6,0,0,1,.16-2.8L22.37,25.07a1.64,1.64,0,0,1,1.37,0L168.87,94a1.6,1.6,0,0,1,0,2.89L127.23,116.6A1.59,1.59,0,0,1,125.69,116.51Z"/><path class="cls-1" d="M125.69,116.52.75,38.06a1.6,1.6,0,0,1,.16-2.8L22.37,25.08a1.64,1.64,0,0,1,1.37,0L168.87,94a1.6,1.6,0,0,1,0,2.89l-41.64,19.76A1.59,1.59,0,0,1,125.69,116.52Z"/><path class="cls-1" d="M125.69,116.53.75,38.07a1.6,1.6,0,0,1,.16-2.8L22.37,25.09a1.57,1.57,0,0,1,1.37,0L168.87,94a1.6,1.6,0,0,1,0,2.89l-41.64,19.76A1.59,1.59,0,0,1,125.69,116.53Z"/><path class="cls-1" d="M125.69,116.54.75,38.08a1.6,1.6,0,0,1,.16-2.8L22.37,25.1a1.57,1.57,0,0,1,1.37,0L168.87,94a1.6,1.6,0,0,1,0,2.89l-41.64,19.76A1.59,1.59,0,0,1,125.69,116.54Z"/><path class="cls-1" d="M125.69,116.55.75,38.09a1.6,1.6,0,0,1,.16-2.8L22.37,25.11a1.57,1.57,0,0,1,1.37,0L168.87,94a1.6,1.6,0,0,1,0,2.89l-41.64,19.76A1.59,1.59,0,0,1,125.69,116.55Z"/><path class="cls-1" d="M125.69,116.56.75,38.1a1.6,1.6,0,0,1,.16-2.8L22.37,25.12a1.57,1.57,0,0,1,1.37,0L168.87,94a1.6,1.6,0,0,1,0,2.89l-41.64,19.76A1.62,1.62,0,0,1,125.69,116.56Z"/><path class="cls-1" d="M125.69,116.57.75,38.11a1.6,1.6,0,0,1,.16-2.8L22.37,25.13a1.57,1.57,0,0,1,1.37,0L168.87,94a1.6,1.6,0,0,1,0,2.89l-41.64,19.76A1.62,1.62,0,0,1,125.69,116.57Z"/><path class="cls-1" d="M125.69,116.58.75,38.12a1.6,1.6,0,0,1,.16-2.8L22.37,25.14a1.57,1.57,0,0,1,1.37,0L168.87,94a1.6,1.6,0,0,1,0,2.89l-41.64,19.76A1.62,1.62,0,0,1,125.69,116.58Z"/><path class="cls-1" d="M125.69,116.59.75,38.13a1.6,1.6,0,0,1,.16-2.8L22.37,25.15a1.57,1.57,0,0,1,1.37,0L168.87,94a1.6,1.6,0,0,1,0,2.89l-41.64,19.76A1.62,1.62,0,0,1,125.69,116.59Z"/><path class="cls-1" d="M125.69,116.6.75,38.14a1.6,1.6,0,0,1,.16-2.8L22.37,25.16a1.57,1.57,0,0,1,1.37,0L168.87,94a1.6,1.6,0,0,1,0,2.89l-41.64,19.76A1.62,1.62,0,0,1,125.69,116.6Z"/><path class="cls-1" d="M125.69,116.61.75,38.15a1.6,1.6,0,0,1,.16-2.8L22.37,25.17a1.57,1.57,0,0,1,1.37,0L168.87,94.05a1.59,1.59,0,0,1,0,2.88L127.23,116.7A1.62,1.62,0,0,1,125.69,116.61Z"/><path class="cls-1" d="M125.69,116.62.75,38.16a1.6,1.6,0,0,1,.16-2.8L22.37,25.18a1.57,1.57,0,0,1,1.37,0L168.87,94.05a1.6,1.6,0,0,1,0,2.89l-41.64,19.77A1.62,1.62,0,0,1,125.69,116.62Z"/><path class="cls-1" d="M125.69,116.63.75,38.17a1.6,1.6,0,0,1,.16-2.8L22.37,25.18a1.64,1.64,0,0,1,1.37,0L168.87,94.06a1.6,1.6,0,0,1,0,2.89l-41.64,19.77A1.62,1.62,0,0,1,125.69,116.63Z"/><path class="cls-1" d="M125.69,116.63.75,38.17a1.59,1.59,0,0,1,.16-2.79L22.37,25.19a1.64,1.64,0,0,1,1.37,0L168.87,94.07a1.6,1.6,0,0,1,0,2.89l-41.64,19.77A1.6,1.6,0,0,1,125.69,116.63Z"/><path class="cls-1" d="M125.69,116.64.75,38.18a1.6,1.6,0,0,1,.16-2.8L22.37,25.2a1.64,1.64,0,0,1,1.37,0L168.87,94.08a1.6,1.6,0,0,1,0,2.89l-41.64,19.76A1.57,1.57,0,0,1,125.69,116.64Z"/><path class="cls-1" d="M125.69,116.65.75,38.19a1.6,1.6,0,0,1,.16-2.8L22.37,25.21a1.64,1.64,0,0,1,1.37,0L168.87,94.09a1.6,1.6,0,0,1,0,2.89l-41.64,19.76A1.59,1.59,0,0,1,125.69,116.65Z"/><path class="cls-1" d="M125.69,116.66.75,38.2a1.6,1.6,0,0,1,.16-2.8L22.37,25.22a1.64,1.64,0,0,1,1.37,0L168.87,94.1a1.6,1.6,0,0,1,0,2.89l-41.64,19.76A1.59,1.59,0,0,1,125.69,116.66Z"/><path class="cls-1" d="M125.69,116.67.75,38.21a1.6,1.6,0,0,1,.16-2.8L22.37,25.23a1.64,1.64,0,0,1,1.37,0L168.87,94.11a1.6,1.6,0,0,1,0,2.89l-41.64,19.76A1.59,1.59,0,0,1,125.69,116.67Z"/><path class="cls-1" d="M125.69,116.68.75,38.22a1.6,1.6,0,0,1,.16-2.8L22.37,25.24a1.57,1.57,0,0,1,1.37,0L168.87,94.12a1.6,1.6,0,0,1,0,2.89l-41.64,19.76A1.59,1.59,0,0,1,125.69,116.68Z"/><path class="cls-1" d="M125.69,116.69.75,38.23a1.6,1.6,0,0,1,.16-2.8L22.37,25.25a1.57,1.57,0,0,1,1.37,0L168.87,94.13a1.6,1.6,0,0,1,0,2.89l-41.64,19.76A1.59,1.59,0,0,1,125.69,116.69Z"/><path class="cls-1" d="M125.69,116.7.75,38.24a1.6,1.6,0,0,1,.16-2.8L22.37,25.26a1.57,1.57,0,0,1,1.37,0L168.87,94.14a1.6,1.6,0,0,1,0,2.89l-41.64,19.76A1.59,1.59,0,0,1,125.69,116.7Z"/><path class="cls-1" d="M125.69,116.71.75,38.25a1.6,1.6,0,0,1,.16-2.8L22.37,25.27a1.57,1.57,0,0,1,1.37,0L168.87,94.15a1.6,1.6,0,0,1,0,2.89L127.23,116.8A1.62,1.62,0,0,1,125.69,116.71Z"/><path class="cls-1" d="M125.69,116.72.75,38.26a1.6,1.6,0,0,1,.16-2.8L22.37,25.28a1.57,1.57,0,0,1,1.37,0L168.87,94.16a1.6,1.6,0,0,1,0,2.89l-41.64,19.76A1.62,1.62,0,0,1,125.69,116.72Z"/><path class="cls-1" d="M125.69,116.73.75,38.27a1.6,1.6,0,0,1,.16-2.8L22.37,25.29a1.57,1.57,0,0,1,1.37,0L168.87,94.17a1.6,1.6,0,0,1,0,2.89l-41.64,19.76A1.62,1.62,0,0,1,125.69,116.73Z"/><path class="cls-1" d="M125.69,116.74.75,38.28a1.6,1.6,0,0,1,.16-2.8L22.37,25.3a1.57,1.57,0,0,1,1.37,0L168.87,94.18a1.6,1.6,0,0,1,0,2.89l-41.64,19.76A1.62,1.62,0,0,1,125.69,116.74Z"/><path class="cls-1" d="M125.69,116.75.75,38.29a1.6,1.6,0,0,1,.16-2.8L22.37,25.31a1.57,1.57,0,0,1,1.37,0L168.87,94.19a1.6,1.6,0,0,1,0,2.89l-41.64,19.76A1.62,1.62,0,0,1,125.69,116.75Z"/><path class="cls-1" d="M125.69,116.76.75,38.3a1.6,1.6,0,0,1,.16-2.8L22.37,25.32a1.57,1.57,0,0,1,1.37,0L168.87,94.2a1.59,1.59,0,0,1,0,2.88l-41.64,19.77A1.62,1.62,0,0,1,125.69,116.76Z"/><path class="cls-1" d="M125.69,116.77.75,38.31a1.6,1.6,0,0,1,.16-2.8L22.37,25.32a1.64,1.64,0,0,1,1.37,0L168.87,94.2a1.6,1.6,0,0,1,0,2.89l-41.64,19.77A1.62,1.62,0,0,1,125.69,116.77Z"/><path class="cls-1" d="M125.69,116.78.75,38.32a1.6,1.6,0,0,1,.16-2.8L22.37,25.33a1.64,1.64,0,0,1,1.37,0L168.87,94.21a1.6,1.6,0,0,1,0,2.89l-41.64,19.77A1.62,1.62,0,0,1,125.69,116.78Z"/><path class="cls-1" d="M125.69,116.78.75,38.32a1.59,1.59,0,0,1,.16-2.79L22.37,25.34a1.64,1.64,0,0,1,1.37,0L168.87,94.22a1.6,1.6,0,0,1,0,2.89l-41.64,19.77A1.6,1.6,0,0,1,125.69,116.78Z"/><path class="cls-1" d="M125.69,116.79.75,38.33a1.6,1.6,0,0,1,.16-2.8L22.37,25.35a1.64,1.64,0,0,1,1.37,0L168.87,94.23a1.6,1.6,0,0,1,0,2.89l-41.64,19.76A1.59,1.59,0,0,1,125.69,116.79Z"/><path class="cls-1" d="M125.69,116.8.75,38.34a1.6,1.6,0,0,1,.16-2.8L22.37,25.36a1.64,1.64,0,0,1,1.37,0L168.87,94.24a1.6,1.6,0,0,1,0,2.89l-41.64,19.76A1.59,1.59,0,0,1,125.69,116.8Z"/><path class="cls-1" d="M125.69,116.81.75,38.35a1.6,1.6,0,0,1,.16-2.8L22.37,25.37a1.64,1.64,0,0,1,1.37,0L168.87,94.25a1.6,1.6,0,0,1,0,2.89L127.23,116.9A1.59,1.59,0,0,1,125.69,116.81Z"/><path class="cls-1" d="M125.69,116.82.75,38.36a1.6,1.6,0,0,1,.16-2.8L22.37,25.38a1.64,1.64,0,0,1,1.37,0L168.87,94.26a1.6,1.6,0,0,1,0,2.89l-41.64,19.76A1.59,1.59,0,0,1,125.69,116.82Z"/><path class="cls-1" d="M125.69,116.83.75,38.37a1.6,1.6,0,0,1,.16-2.8L22.37,25.39a1.57,1.57,0,0,1,1.37,0L168.87,94.27a1.6,1.6,0,0,1,0,2.89l-41.64,19.76A1.59,1.59,0,0,1,125.69,116.83Z"/><path class="cls-1" d="M125.69,116.84.75,38.38a1.6,1.6,0,0,1,.16-2.8L22.37,25.4a1.57,1.57,0,0,1,1.37,0L168.87,94.28a1.6,1.6,0,0,1,0,2.89l-41.64,19.76A1.59,1.59,0,0,1,125.69,116.84Z"/><path class="cls-1" d="M125.69,116.85.75,38.39a1.6,1.6,0,0,1,.16-2.8L22.37,25.41a1.57,1.57,0,0,1,1.37,0L168.87,94.29a1.6,1.6,0,0,1,0,2.89l-41.64,19.76A1.59,1.59,0,0,1,125.69,116.85Z"/><path class="cls-1" d="M125.69,116.86.75,38.4a1.6,1.6,0,0,1,.16-2.8L22.37,25.42a1.57,1.57,0,0,1,1.37,0L168.87,94.3a1.6,1.6,0,0,1,0,2.89L127.23,117A1.62,1.62,0,0,1,125.69,116.86Z"/><path class="cls-1" d="M125.69,116.87.75,38.41a1.6,1.6,0,0,1,.16-2.8L22.37,25.43a1.57,1.57,0,0,1,1.37,0L168.87,94.31a1.6,1.6,0,0,1,0,2.89L127.23,117A1.62,1.62,0,0,1,125.69,116.87Z"/><path class="cls-1" d="M125.69,116.88.75,38.42a1.6,1.6,0,0,1,.16-2.8L22.37,25.44a1.57,1.57,0,0,1,1.37,0L168.87,94.32a1.6,1.6,0,0,1,0,2.89L127.23,117A1.62,1.62,0,0,1,125.69,116.88Z"/><path class="cls-1" d="M125.69,116.89.75,38.43a1.6,1.6,0,0,1,.16-2.8L22.37,25.45a1.57,1.57,0,0,1,1.37,0L168.87,94.33a1.6,1.6,0,0,1,0,2.89L127.23,117A1.62,1.62,0,0,1,125.69,116.89Z"/><path class="cls-1" d="M125.69,116.9.75,38.44a1.6,1.6,0,0,1,.16-2.8L22.37,25.46a1.57,1.57,0,0,1,1.37,0L168.87,94.34a1.59,1.59,0,0,1,0,2.88L127.23,117A1.62,1.62,0,0,1,125.69,116.9Z"/><path class="cls-1" d="M125.69,116.91.75,38.45a1.6,1.6,0,0,1,.16-2.8L22.37,25.47a1.57,1.57,0,0,1,1.37,0L168.87,94.34a1.6,1.6,0,0,1,0,2.89L127.23,117A1.62,1.62,0,0,1,125.69,116.91Z"/><path class="cls-1" d="M125.69,116.92.75,38.46a1.6,1.6,0,0,1,.16-2.8L22.37,25.47a1.64,1.64,0,0,1,1.37,0L168.87,94.35a1.6,1.6,0,0,1,0,2.89L127.23,117A1.62,1.62,0,0,1,125.69,116.92Z"/><path class="cls-1" d="M125.69,116.93.75,38.46a1.59,1.59,0,0,1,.16-2.79L22.37,25.48a1.64,1.64,0,0,1,1.37,0L168.87,94.36a1.6,1.6,0,0,1,0,2.89L127.23,117A1.62,1.62,0,0,1,125.69,116.93Z"/><path class="cls-1" d="M125.69,116.93.75,38.47a1.59,1.59,0,0,1,.16-2.79L22.37,25.49a1.64,1.64,0,0,1,1.37,0L168.87,94.37a1.6,1.6,0,0,1,0,2.89L127.23,117A1.57,1.57,0,0,1,125.69,116.93Z"/><path class="cls-1" d="M125.69,116.94.75,38.48a1.6,1.6,0,0,1,.16-2.8L22.37,25.5a1.64,1.64,0,0,1,1.37,0L168.87,94.38a1.6,1.6,0,0,1,0,2.89L127.23,117A1.59,1.59,0,0,1,125.69,116.94Z"/><path class="cls-1" d="M125.69,117,.75,38.49a1.6,1.6,0,0,1,.16-2.8L22.37,25.51a1.64,1.64,0,0,1,1.37,0L168.87,94.39a1.6,1.6,0,0,1,0,2.89L127.23,117A1.59,1.59,0,0,1,125.69,117Z"/><path class="cls-1" d="M125.69,117,.75,38.5a1.6,1.6,0,0,1,.16-2.8L22.37,25.52a1.64,1.64,0,0,1,1.37,0L168.87,94.4a1.6,1.6,0,0,1,0,2.89l-41.64,19.76A1.59,1.59,0,0,1,125.69,117Z"/><path class="cls-1" d="M125.69,117,.75,38.51a1.6,1.6,0,0,1,.16-2.8L22.37,25.53a1.57,1.57,0,0,1,1.37,0L168.87,94.41a1.6,1.6,0,0,1,0,2.89l-41.64,19.76A1.59,1.59,0,0,1,125.69,117Z"/><path class="cls-1" d="M125.69,117,.75,38.52a1.6,1.6,0,0,1,.16-2.8L22.37,25.54a1.57,1.57,0,0,1,1.37,0L168.87,94.42a1.6,1.6,0,0,1,0,2.89l-41.64,19.76A1.59,1.59,0,0,1,125.69,117Z"/><path class="cls-1" d="M125.69,117,.75,38.53a1.6,1.6,0,0,1,.16-2.8L22.37,25.55a1.57,1.57,0,0,1,1.37,0L168.87,94.43a1.6,1.6,0,0,1,0,2.89l-41.64,19.76A1.59,1.59,0,0,1,125.69,117Z"/><path class="cls-1" d="M125.69,117,.75,38.54a1.6,1.6,0,0,1,.16-2.8L22.37,25.56a1.57,1.57,0,0,1,1.37,0L168.87,94.44a1.6,1.6,0,0,1,0,2.89l-41.64,19.76A1.62,1.62,0,0,1,125.69,117Z"/><path class="cls-1" d="M125.69,117,.75,38.55a1.6,1.6,0,0,1,.16-2.8L22.37,25.57a1.57,1.57,0,0,1,1.37,0L168.87,94.45a1.6,1.6,0,0,1,0,2.89L127.23,117.1A1.62,1.62,0,0,1,125.69,117Z"/><path class="cls-1" d="M125.69,117,.75,38.56a1.6,1.6,0,0,1,.16-2.8L22.37,25.58a1.57,1.57,0,0,1,1.37,0L168.87,94.46a1.6,1.6,0,0,1,0,2.89l-41.64,19.76A1.62,1.62,0,0,1,125.69,117Z"/><path class="cls-1" d="M125.69,117,.75,38.57a1.6,1.6,0,0,1,.16-2.8L22.37,25.59a1.57,1.57,0,0,1,1.37,0L168.87,94.47a1.6,1.6,0,0,1,0,2.89l-41.64,19.76A1.62,1.62,0,0,1,125.69,117Z"/><path class="cls-1" d="M125.69,117,.75,38.58a1.6,1.6,0,0,1,.16-2.8L22.37,25.6a1.57,1.57,0,0,1,1.37,0L168.87,94.48a1.6,1.6,0,0,1,0,2.89l-41.64,19.76A1.62,1.62,0,0,1,125.69,117Z"/><path class="cls-1" d="M125.69,117.05.75,38.59a1.6,1.6,0,0,1,.16-2.8L22.37,25.61a1.57,1.57,0,0,1,1.37,0L168.87,94.49a1.59,1.59,0,0,1,0,2.88l-41.64,19.77A1.62,1.62,0,0,1,125.69,117.05Z"/><path class="cls-1" d="M125.69,117.06.75,38.6a1.6,1.6,0,0,1,.16-2.8L22.37,25.61a1.64,1.64,0,0,1,1.37,0L168.87,94.49a1.6,1.6,0,0,1,0,2.89l-41.64,19.77A1.62,1.62,0,0,1,125.69,117.06Z"/><path class="cls-1" d="M125.69,117.07.75,38.61a1.6,1.6,0,0,1,.16-2.8L22.37,25.62a1.64,1.64,0,0,1,1.37,0L168.87,94.5a1.6,1.6,0,0,1,0,2.89l-41.64,19.77A1.62,1.62,0,0,1,125.69,117.07Z"/><path class="cls-2" d="M126,116.08a.7.7,0,0,1-.39-.11L.67,37.88a.75.75,0,1,1,.79-1.27l125,78.09a.75.75,0,0,1-.4,1.38Z"/><path class="cls-3" d="M35.52,48.14a.64.64,0,0,1-.35-.1.67.67,0,0,1-.3-.55V40.16a.65.65,0,0,1,.37-.59L51.14,32a.64.64,0,0,1,.63,0,.66.66,0,0,1,.31.55v7.33a.65.65,0,0,1-.37.59L35.8,48.08A.64.64,0,0,1,35.52,48.14Zm.66-7.57v5.88l14.59-6.92V33.64Z"/><path class="cls-3" d="M12.1,37.2a.6.6,0,0,1-.35-.1.66.66,0,0,1-.31-.55V29.22a.64.64,0,0,1,.38-.59l15.9-7.55a.65.65,0,0,1,.93.59V29a.63.63,0,0,1-.37.59l-15.9,7.55A.71.71,0,0,1,12.1,37.2Zm.65-7.57v5.88l14.59-6.92V22.7Z"/><path class="cls-4" d="M35.5,40.66,11.1,29.07a.44.44,0,0,1,0-.8l16.28-7.73a.5.5,0,0,1,.38,0l24.4,11.59a.44.44,0,0,1,0,.8L35.88,40.66A.5.5,0,0,1,35.5,40.66Z"/><path class="cls-5" d="M73.83,62a1.16,1.16,0,0,1-.6-.17,1.12,1.12,0,0,1-.52-1V57.05a1.12,1.12,0,0,1,.64-1l11.78-5.6a1.13,1.13,0,0,1,1.61,1v3.78a1.13,1.13,0,0,1-.64,1L74.31,61.84A1.16,1.16,0,0,1,73.83,62ZM75,57.76v1.29l9.54-4.53V53.23Z"/><path class="cls-5" d="M45.58,48.51a1.08,1.08,0,0,1-.6-.18,1.1,1.1,0,0,1-.53-.94V43.61a1.13,1.13,0,0,1,.64-1L56.88,37a1.12,1.12,0,0,1,1.6,1v3.78a1.12,1.12,0,0,1-.64,1L46.06,48.4A1.2,1.2,0,0,1,45.58,48.51Zm1.12-4.19v1.29l9.54-4.53V39.79Z"/><path class="cls-6" d="M86.75,49.91,58,36.29a1,1,0,0,0-.4-.09h0a.9.9,0,0,0-.4.09L43.7,42.72a.91.91,0,0,0-.54.84.93.93,0,0,0,.54.84L72.42,58a.9.9,0,0,0,.4.09.93.93,0,0,0,.4-.09l13.53-6.42a.91.91,0,0,0,.53-.84A.92.92,0,0,0,86.75,49.91ZM57.82,36.72a.43.43,0,0,0-.19,0h0A.43.43,0,0,1,57.82,36.72Zm15,20.91a.45.45,0,0,1-.2,0,.47.47,0,0,0,.4,0A.48.48,0,0,1,72.82,57.63Z"/><path class="cls-3" d="M117,87.7a.65.65,0,0,1-.65-.65V75.54a.67.67,0,0,1,.37-.59l17.86-8.48a.67.67,0,0,1,.63,0,.66.66,0,0,1,.31.55V78.57a.66.66,0,0,1-.38.59l-17.86,8.48A.64.64,0,0,1,117,87.7ZM117.61,76V86l16.55-7.85V68.1Z"/><path class="cls-7" d="M141.69,97.51a.56.56,0,0,1-.24-1.07L156,89.75a.57.57,0,0,1,.75.27.56.56,0,0,1-.28.74l-14.52,6.7A.59.59,0,0,1,141.69,97.51Z"/><path class="cls-7" d="M141.61,97.48a.59.59,0,0,1-.23,0l-21.06-10a.56.56,0,0,1-.27-.74.57.57,0,0,1,.75-.27l21.06,10a.56.56,0,0,1,.26.75A.55.55,0,0,1,141.61,97.48Z"/><path class="cls-5" d="M142,97.06,119.54,86.41a.3.3,0,0,1,0-.53l15.07-7.16a.39.39,0,0,1,.26,0L156.51,89a.73.73,0,0,1,0,1.31l-14.26,6.76A.28.28,0,0,1,142,97.06Z"/><path class="cls-7" d="M142.36,95.45a.52.52,0,0,1-.24,0l-21.05-10a.56.56,0,0,1,.48-1l21,10a.56.56,0,0,1,.27.74A.57.57,0,0,1,142.36,95.45Z"/><path class="cls-5" d="M142.75,95,120.29,84.38a.3.3,0,0,1,0-.53l15.07-7.16a.36.36,0,0,1,.25,0L157.25,87a.72.72,0,0,1,0,1.3L143,95A.36.36,0,0,1,142.75,95Z"/><path class="cls-7" d="M143.11,93.42a.52.52,0,0,1-.24,0l-21.06-10a.56.56,0,0,1,.48-1l21.06,10a.56.56,0,0,1-.24,1.06Z"/><path class="cls-5" d="M143.49,93,121,82.35a.29.29,0,0,1,0-.53l15.07-7.15a.28.28,0,0,1,.25,0L158,84.94a.72.72,0,0,1,0,1.3L143.74,93A.28.28,0,0,1,143.49,93Z"/><path class="cls-3" d="M143.27,100a.68.68,0,0,1-.35-.1.66.66,0,0,1-.31-.56V87.83a.64.64,0,0,1,.38-.59l17.86-8.48a.65.65,0,0,1,.93.59V90.86a.67.67,0,0,1-.37.59l-17.86,8.47A.58.58,0,0,1,143.27,100Zm.65-11.75V98.3l16.55-7.86V80.38Z"/><path class="cls-4" d="M143.24,88.39l-27.41-13a.5.5,0,0,1,0-.9l18.29-8.68a.47.47,0,0,1,.43,0l27.41,13a.5.5,0,0,1,0,.89l-18.3,8.69A.51.51,0,0,1,143.24,88.39Z"/><path class="cls-8" d="M35.05,37.17,13.38,26.88a.62.62,0,0,1,0-1.13L27.67,19a.64.64,0,0,1,.54,0L49.88,29.26a.62.62,0,0,1,0,1.12L35.59,37.17A.64.64,0,0,1,35.05,37.17Z"/><polygon class="cls-9" points="37.15 33.72 18.85 25.03 28.25 20.56 46.56 29.25 37.15 33.72"/><path class="cls-5" d="M28.81.09,50,10.16a1,1,0,0,1,.55.87V28.51a1,1,0,0,1-1.37.86L28,19.3a.94.94,0,0,1-.55-.86V1A1,1,0,0,1,28.81.09Z"/><path class="cls-10" d="M28.73,3l20.54,9.74a.46.46,0,0,1,.26.41V27.47a.45.45,0,0,1-.64.4L28.35,18.12a.44.44,0,0,1-.26-.4V3.43A.45.45,0,0,1,28.73,3Z"/><path class="cls-9" d="M40.8,8.36a.71.71,0,0,1-.32-.07L36.89,6.58a.75.75,0,1,1,.64-1.35l3.59,1.71a.74.74,0,0,1-.32,1.42Z"/><path class="cls-9" d="M74.43,50.24a2.22,2.22,0,0,1-.92-.18l-13.9-6.49c-1-.45-.89-1.57.14-2.5a3.67,3.67,0,0,1,3.58-.9l13.9,6.5c1,.44.89,1.56-.14,2.5A4.19,4.19,0,0,1,74.43,50.24Z"/><rect class="cls-9" x="66.98" y="33.89" width="3.74" height="11.77"/><path class="cls-5" d="M53.11,6.72,88.23,23.31a1.15,1.15,0,0,1,.65,1V47.72a1.14,1.14,0,0,1-1.63,1L52.14,32.15a1.14,1.14,0,0,1-.65-1V7.74A1.13,1.13,0,0,1,53.11,6.72Z"/><path class="cls-10" d="M53.65,8.64,85.89,23.88a.34.34,0,0,1,.2.31v22a.35.35,0,0,1-.5.32L53.35,31.31a.36.36,0,0,1-.2-.32V9A.35.35,0,0,1,53.65,8.64Z"/><path class="cls-9" d="M148,79.35a2.59,2.59,0,0,1-1-.2l-15.59-7.28c-1.07-.5-1-1.76.15-2.81a4.12,4.12,0,0,1,4-1l15.59,7.28c1.07.5,1,1.76-.15,2.81A4.66,4.66,0,0,1,148,79.35Z"/><rect class="cls-9" x="139.9" y="61.02" width="3.74" height="13.2"/><path class="cls-5" d="M124.12,30.54,163.5,49.15a1.27,1.27,0,0,1,.73,1.16V76.53a1.27,1.27,0,0,1-1.82,1.15L123,59.07a1.3,1.3,0,0,1-.73-1.16V31.69A1.28,1.28,0,0,1,124.12,30.54Z"/><path class="cls-10" d="M124.73,32.69l36.15,17.09a.4.4,0,0,1,.22.36V74.86a.39.39,0,0,1-.55.35L124.39,58.12a.38.38,0,0,1-.22-.35V33.05A.4.4,0,0,1,124.73,32.69Z"/><path class="cls-9" d="M99.38,76.62,85.64,70.09a1.16,1.16,0,0,1,0-2.08l7.86-3.73a1.15,1.15,0,0,1,1,0l13.74,6.52a1.15,1.15,0,0,1,0,2.08l-7.86,3.74A1.22,1.22,0,0,1,99.38,76.62Z"/><path class="cls-9" d="M95.13,25.89l26.06,12.37a1.17,1.17,0,0,1,.67,1.06V60.79a1.18,1.18,0,0,1-1.68,1.06L94.12,49.48a1.17,1.17,0,0,1-.67-1.06V27A1.18,1.18,0,0,1,95.13,25.89Z"/><path class="cls-10" d="M94.72,27l25.67,12.19a.31.31,0,0,1,.19.29v21L94.25,47.89V27.25A.33.33,0,0,1,94.72,27Z"/><path class="cls-11" d="M102,71.65,75.37,59a.76.76,0,0,1,0-1.38l17.56-8.34a.76.76,0,0,1,.66,0l26.63,12.64a.76.76,0,0,1,0,1.38l-17.56,8.34A.76.76,0,0,1,102,71.65Z"/><polygon class="cls-9" points="103.91 66 83.39 56.26 93.93 51.25 114.46 60.99 103.91 66"/><path class="cls-12" d="M92,65.88,83.85,62a.56.56,0,0,1,0-1l3.55-1.68a.57.57,0,0,1,.48,0L96,63.19a.56.56,0,0,1,0,1l-3.54,1.68A.51.51,0,0,1,92,65.88Z"/><path class="cls-13" d="M81.38,62.24a.42.42,0,0,1-.16,0L78.73,61a.37.37,0,0,1-.18-.5.38.38,0,0,1,.5-.18l2.49,1.18a.38.38,0,0,1,.17.5A.36.36,0,0,1,81.38,62.24Z"/><path class="cls-13" d="M95.82,69.09a.45.45,0,0,1-.16,0l-2.49-1.18a.38.38,0,0,1-.17-.5.36.36,0,0,1,.49-.18L96,68.38a.37.37,0,0,1,.18.5A.38.38,0,0,1,95.82,69.09Z"/><path class="cls-9" d="M71.6,72.12,38,56.21a.72.72,0,0,1,0-1.29l8.55-4.06a.72.72,0,0,1,.61,0L80.77,66.78a.71.71,0,0,1,0,1.28l-8.56,4.06A.72.72,0,0,1,71.6,72.12Z"/><path class="cls-14" d="M72.06,64.07h0l-1-.48a.11.11,0,0,1,0-.13.08.08,0,0,1,.12,0l1,.48a.1.1,0,0,1,0,.12A.09.09,0,0,1,72.06,64.07Zm-2-1h0l-1-.48a.1.1,0,0,1,0-.13.09.09,0,0,1,.13,0l1,.48a.09.09,0,0,1,0,.17Zm-2-1h0l-1-.48a.09.09,0,0,1,.08-.16L68,62a.09.09,0,0,1,0,.12A.11.11,0,0,1,68,62.14Zm-2-1h0l-1-.48a.09.09,0,0,1,0-.12.08.08,0,0,1,.12,0L66,61a.09.09,0,0,1,0,.12A.09.09,0,0,1,66,61.18Zm-2-1h0l-1-.48a.09.09,0,0,1,0-.12.1.1,0,0,1,.13,0L64,60a.1.1,0,0,1,.05.13A.11.11,0,0,1,64,60.22Zm-2-1h0l-1-.48a.08.08,0,0,1,0-.12.09.09,0,0,1,.12,0l1,.48a.1.1,0,0,1,0,.13A.11.11,0,0,1,61.92,59.26Zm-2-1h0l-1-.48a.1.1,0,0,1,0-.12.09.09,0,0,1,.12,0l1,.48a.11.11,0,0,1,0,.13A.09.09,0,0,1,59.9,58.3Zm-2-1h0l-1-.48a.09.09,0,0,1,0-.12.1.1,0,0,1,.13,0l1,.48a.1.1,0,0,1,.05.13A.11.11,0,0,1,57.87,57.34Zm-2-1h0l-1-.48a.1.1,0,0,1,0-.12.09.09,0,0,1,.12-.05l1,.48a.11.11,0,0,1,0,.13A.1.1,0,0,1,55.85,56.38Zm-2-1h0l-1-.48a.09.09,0,0,1-.05-.12.1.1,0,0,1,.13-.05l1,.48a.1.1,0,0,1,0,.18Zm-2-1h0l-1-.48a.09.09,0,0,1,0-.13.09.09,0,0,1,.12,0l1,.48a.1.1,0,0,1,.05.13A.11.11,0,0,1,51.79,54.46Zm-2-1h0l-1-.48a.11.11,0,0,1,0-.13.1.1,0,0,1,.12,0l1,.48a.1.1,0,0,1,0,.12A.08.08,0,0,1,49.77,53.5Zm-2-1h0l-1-.48a.1.1,0,0,1,0-.13.11.11,0,0,1,.13,0l1,.48a.08.08,0,0,1,0,.12A.08.08,0,0,1,47.74,52.54Z"/><path class="cls-14" d="M71.93,65.33h0l-1-.48a.09.09,0,0,1,.08-.16l1,.48a.09.09,0,0,1,0,.12A.11.11,0,0,1,71.93,65.33Zm-2-1h0l-1-.48a.09.09,0,0,1,0-.12.09.09,0,0,1,.12,0l1,.49a.09.09,0,0,1,0,.12A.09.09,0,0,1,69.91,64.37Zm-2-1h0l-1-.48a.09.09,0,0,1,0-.12.1.1,0,0,1,.13,0l1,.48a.1.1,0,0,1,0,.13A.11.11,0,0,1,67.88,63.41Zm-2-1h0l-1-.48a.1.1,0,0,1,0-.12.09.09,0,0,1,.12-.05l1,.48a.1.1,0,0,1,0,.13A.11.11,0,0,1,65.85,62.45Zm-2-1h0l-1-.48a.09.09,0,0,1-.05-.12.1.1,0,0,1,.13-.05l1,.48a.09.09,0,0,1,0,.13A.09.09,0,0,1,63.83,61.49Zm-2-1h0l-1-.48a.09.09,0,0,1,0-.12.1.1,0,0,1,.13-.05l1,.48a.1.1,0,0,1,0,.13A.11.11,0,0,1,61.8,60.53Zm-2-1h0l-1-.48a.1.1,0,0,1,0-.12.09.09,0,0,1,.12-.05l1,.48a.11.11,0,0,1,0,.13A.1.1,0,0,1,59.78,59.57Zm-2-1h0l-1-.48a.09.09,0,0,1-.05-.12.1.1,0,0,1,.13,0l1,.48a.1.1,0,0,1,0,.18Zm-2-1h0l-1-.48a.09.09,0,0,1,0-.13.09.09,0,0,1,.12,0l1,.48a.1.1,0,0,1,.05.13A.11.11,0,0,1,55.72,57.65Zm-2-1h0l-1-.48a.11.11,0,0,1,0-.13.1.1,0,0,1,.12,0l1,.48a.1.1,0,0,1,0,.12A.08.08,0,0,1,53.7,56.69Zm-2-1h0l-1-.48a.1.1,0,0,1,0-.13.11.11,0,0,1,.13,0l1,.48a.08.08,0,0,1,0,.12A.08.08,0,0,1,51.67,55.73Zm-2-1h0l-1-.48a.09.09,0,0,1,0-.13.09.09,0,0,1,.12,0l1,.48a.09.09,0,0,1,0,.12A.1.1,0,0,1,49.64,54.77Zm-2-1h0l-1-.48a.11.11,0,0,1,0-.13.1.1,0,0,1,.12,0l1,.48a.1.1,0,0,1,0,.12A.08.08,0,0,1,47.62,53.81Z"/><path class="cls-14" d="M68,65h0l-1-.48A.09.09,0,1,1,67,64.3l1,.48a.09.09,0,0,1,.05.12A.11.11,0,0,1,68,65Zm-2-1h0l-1-.48a.09.09,0,0,1,0-.12.08.08,0,0,1,.12,0l1,.48a.09.09,0,0,1,0,.12A.09.09,0,0,1,65.93,64Zm-2-1h0l-1-.48a.09.09,0,0,1-.05-.12.1.1,0,0,1,.13-.05l1,.49a.09.09,0,0,1,0,.17Zm-2-1h0l-1-.48a.08.08,0,0,1,0-.12.09.09,0,0,1,.12-.05l1,.48A.1.1,0,0,1,62,62,.11.11,0,0,1,61.87,62.07Zm-2-1h0l-1-.48a.1.1,0,0,1,0-.12.09.09,0,0,1,.12,0l1,.48a.11.11,0,0,1,0,.13A.09.09,0,0,1,59.85,61.11Zm-2-1h0l-1-.48a.09.09,0,0,1-.05-.12.1.1,0,0,1,.13,0l1,.48a.1.1,0,0,1,0,.13A.11.11,0,0,1,57.82,60.15Zm-2-1h0l-1-.48a.1.1,0,0,1,0-.12.09.09,0,0,1,.12,0l1,.48a.1.1,0,0,1-.05.18Zm-2-1h0l-1-.48a.09.09,0,0,1,0-.12.1.1,0,0,1,.13,0l1,.48a.1.1,0,0,1,0,.13A.09.09,0,0,1,53.77,58.23Zm-2-1h0l-1-.48a.09.09,0,0,1,0-.12.1.1,0,0,1,.13,0l1,.48a.1.1,0,0,1,0,.13A.11.11,0,0,1,51.74,57.27Zm-2-1h0l-1-.48a.11.11,0,0,1,0-.13.1.1,0,0,1,.12,0l1,.48a.11.11,0,0,1,0,.13A.1.1,0,0,1,49.72,56.31Zm-2-1h0l-1-.48a.1.1,0,0,1,0-.13.11.11,0,0,1,.13,0l1,.48a.08.08,0,0,1,0,.12A.08.08,0,0,1,47.69,55.35Z"/><path class="cls-14" d="M65.84,65.51h0l-1-.48a.1.1,0,0,1-.05-.13.11.11,0,0,1,.13,0l1,.48a.1.1,0,0,1,0,.18Z"/><path class="cls-14" d="M63.81,64.55h0l-1-.48a.09.09,0,0,1,0-.13.09.09,0,0,1,.12,0l1,.48a.09.09,0,0,1,0,.12A.1.1,0,0,1,63.81,64.55Z"/><path class="cls-14" d="M61.79,63.59h0l-1-.48a.11.11,0,0,1,0-.13.1.1,0,0,1,.12,0l1,.48a.1.1,0,0,1,0,.12A.08.08,0,0,1,61.79,63.59Z"/><path class="cls-14" d="M62.42,65.48h0l-1-.48a.09.09,0,0,1,0-.13.08.08,0,0,1,.12,0l1,.48a.09.09,0,0,1,0,.12A.1.1,0,0,1,62.42,65.48Z"/><path class="cls-14" d="M60.4,64.51h0l-1-.48a.11.11,0,0,1,0-.13.08.08,0,0,1,.12,0l1,.48a.09.09,0,0,1,0,.12A.07.07,0,0,1,60.4,64.51Z"/><path class="cls-14" d="M58.37,63.55h0l-1-.48a.09.09,0,0,1,0-.12.09.09,0,0,1,.13,0l1,.48a.09.09,0,0,1,.05.12A.11.11,0,0,1,58.37,63.55Z"/><path class="cls-14" d="M72.06,70.53h0L71,70a.09.09,0,0,1,0-.12.09.09,0,0,1,.12,0l1,.48a.11.11,0,0,1,0,.13A.1.1,0,0,1,72.06,70.53Z"/><path class="cls-14" d="M71.15,68.21h0l-1-.48a.1.1,0,0,1,0-.13.11.11,0,0,1,.13,0l1,.48a.09.09,0,0,1,0,.12A.1.1,0,0,1,71.15,68.21Z"/><path class="cls-14" d="M70,69.57h0l-1-.48a.09.09,0,0,1,0-.12.1.1,0,0,1,.13,0l1,.48a.09.09,0,0,1,0,.13A.09.09,0,0,1,70,69.57Z"/><path class="cls-14" d="M68,68.61h0l-1-.48a.08.08,0,0,1,0-.12A.09.09,0,0,1,67,68l1,.48a.1.1,0,0,1,0,.13A.11.11,0,0,1,68,68.61Z"/><path class="cls-14" d="M76.48,67.32h0l-1-.48a.1.1,0,0,1-.05-.13.11.11,0,0,1,.13,0l1,.48a.08.08,0,0,1,0,.12A.08.08,0,0,1,76.48,67.32Z"/><path class="cls-14" d="M74.45,66.36h0l-1-.48a.1.1,0,0,1-.05-.13.11.11,0,0,1,.13,0l1,.48a.09.09,0,0,1,.05.12A.1.1,0,0,1,74.45,66.36Z"/><path class="cls-14" d="M59.76,62.63h0l-1-.48a.1.1,0,0,1-.05-.13.11.11,0,0,1,.13,0l1,.48a.09.09,0,0,1,.05.12A.1.1,0,0,1,59.76,62.63Z"/><path class="cls-14" d="M57.73,61.67h0l-1-.48a.09.09,0,0,1,0-.13.09.09,0,0,1,.12,0l1,.48a.09.09,0,0,1,0,.12A.1.1,0,0,1,57.73,61.67Z"/><path class="cls-14" d="M55.71,60.71h0l-1-.48a.11.11,0,0,1,0-.13.09.09,0,0,1,.12,0l1,.48a.1.1,0,0,1,0,.12A.08.08,0,0,1,55.71,60.71Z"/><path class="cls-14" d="M53.68,59.74h0l-1-.48a.1.1,0,0,1-.05-.13.09.09,0,0,1,.13,0l1,.48a.09.09,0,0,1,0,.17Z"/><path class="cls-14" d="M51.66,58.78h0l-1-.48a.11.11,0,0,1,0-.13.08.08,0,0,1,.12,0l1,.48a.09.09,0,0,1,0,.12A.1.1,0,0,1,51.66,58.78Z"/><path class="cls-14" d="M49.63,57.82h0l-1-.48a.09.09,0,1,1,.08-.16l1,.48a.08.08,0,0,1,0,.12A.09.09,0,0,1,49.63,57.82Z"/><path class="cls-14" d="M47.6,56.86h0l-1-.48a.09.09,0,0,1,0-.12.09.09,0,0,1,.13,0l1,.48a.09.09,0,0,1,0,.12A.11.11,0,0,1,47.6,56.86Z"/><path class="cls-14" d="M43.19,56.32h0l-1-.48a.1.1,0,0,1,0-.12.09.09,0,0,1,.12-.05l1,.48a.11.11,0,0,1,0,.13A.09.09,0,0,1,43.19,56.32Z"/><path class="cls-14" d="M41.16,55.36h0l-1-.48a.1.1,0,0,1,0-.13.11.11,0,0,1,.13,0l1,.48a.09.09,0,0,1,0,.12A.1.1,0,0,1,41.16,55.36Z"/><path class="cls-14" d="M43.78,55h0l-1.91-.91a.1.1,0,0,1,0-.13.11.11,0,0,1,.13,0l1.91.91a.09.09,0,0,1,0,.12A.1.1,0,0,1,43.78,55Z"/><path class="cls-14" d="M45.48,54.34h0l-1.92-.91a.1.1,0,0,1,0-.12.09.09,0,0,1,.12,0l1.92.91a.1.1,0,0,1,0,.18Z"/><path class="cls-14" d="M68.76,66.9h0L66.81,66a.1.1,0,0,1,0-.13.11.11,0,0,1,.13,0l1.91.91a.09.09,0,0,1,0,.12A.11.11,0,0,1,68.76,66.9Z"/><path class="cls-14" d="M70.73,66.26h0l-1.92-.91a.09.09,0,0,1,0-.13.09.09,0,0,1,.12,0l1.92.91a.1.1,0,0,1,0,.12A.09.09,0,0,1,70.73,66.26Z"/><path class="cls-14" d="M56.1,62.48h0L44.58,57a.09.09,0,0,1,0-.12.1.1,0,0,1,.13,0L56.14,62.3a.09.09,0,0,1,0,.12A.1.1,0,0,1,56.1,62.48Z"/><path class="cls-9" d="M76.32,75.56l-.39-.22c-1-.52-.29-1.53.23-2.12a13,13,0,0,1,2.53-1.55,2.85,2.85,0,0,1,2.59.08l.63.35a1.29,1.29,0,0,1-.06,2.3l-2.63,1.24A3.19,3.19,0,0,1,76.32,75.56Z"/><path class="cls-15" d="M79.67,72.14h.69a.23.23,0,0,1,.23.23v0a.11.11,0,0,1-.11.11h-.92a.11.11,0,0,1-.11-.11v0a.23.23,0,0,1,.23-.23Z" transform="translate(-23.28 41.29) rotate(-25.39)"/><path class="cls-16" d="M128.66,103.19a1.11,1.11,0,0,1-.79-.33l-5.78-5.78a1.12,1.12,0,1,1,1.58-1.58l5.78,5.77a1.12,1.12,0,0,1,0,1.59A1.11,1.11,0,0,1,128.66,103.19Z"/><path class="cls-5" d="M102.1,65.66l28.55,15.67a1.46,1.46,0,0,1,.69,1.68l-6.5,22.19a1.46,1.46,0,0,1-2.09.87L94.2,90.4a1.43,1.43,0,0,1-.69-1.68L100,66.53A1.46,1.46,0,0,1,102.1,65.66Z"/><path class="cls-17" d="M102.78,67.15l25.93,14.23a1.5,1.5,0,0,1,.73,1.75l-5.88,20.06a1.53,1.53,0,0,1-2.19.91L95.44,89.87a1.53,1.53,0,0,1-.72-1.76l5.88-20.06A1.51,1.51,0,0,1,102.78,67.15Z"/><polygon class="cls-10" points="102.11 68.63 127.21 82.4 121.3 102.58 96.19 88.81 102.11 68.63"/><path class="cls-18" d="M73.62,48c-1.61,0-2.93.72-2.93,1.6l.5,4.16c0,.73,1.09,1.33,2.43,1.33s2.44-.6,2.44-1.33l.49-4.16C76.55,48.72,75.24,48,73.62,48Z"/><ellipse class="cls-19" cx="73.62" cy="49.62" rx="2.42" ry="1.32"/><path class="cls-20" d="M73.14,50.87h0a.22.22,0,0,1-.18-.25,2.41,2.41,0,0,0-.11-1,6.94,6.94,0,0,0-.53-1.3.24.24,0,0,1,.09-.3.22.22,0,0,1,.3.09,8.32,8.32,0,0,1,.56,1.4,2.73,2.73,0,0,1,.12,1.15A.21.21,0,0,1,73.14,50.87Z"/><path class="cls-20" d="M74.24,51.1a.21.21,0,0,1-.21-.18,2.38,2.38,0,0,1,.12-1.07,6.6,6.6,0,0,1,.57-1.28.21.21,0,0,1,.29-.08.22.22,0,0,1,.08.3A7.91,7.91,0,0,0,74.57,50a2,2,0,0,0-.11.87.22.22,0,0,1-.18.25Z"/><path class="cls-20" d="M73.64,51a.22.22,0,0,1-.22-.2,5.28,5.28,0,0,1,.11-1.51A13.72,13.72,0,0,1,74,47.36a.22.22,0,0,1,.28-.14.22.22,0,0,1,.13.28A15.52,15.52,0,0,0,74,49.32a4.79,4.79,0,0,0-.1,1.39.22.22,0,0,1-.2.24Z"/><path class="cls-20" d="M74,49.12c0,.63.73,1,1.52,1.14a2.57,2.57,0,0,0,1.84-.7c.36-.29-1-1.58-1.84-1.58S74,48.49,74,49.12Z"/><path class="cls-20" d="M73.34,48c0,.47-.73.78-1.52.86s-1.16-.65-1.52-.86.68-.86,1.52-.86S73.34,47.53,73.34,48Z"/><path class="cls-20" d="M73.05,46.92c-.07.53.71,1,1.59,1.18s1.39-.55,1.83-.74-.64-1.06-1.59-1.18S73.11,46.39,73.05,46.92Z"/><path class="cls-21" d="M73.26,49.35c.21.59-.33,1.22-1,1.59s-1.38-.4-1.82-.54.25-1.31,1-1.6A1.38,1.38,0,0,1,73.26,49.35Z"/><path class="cls-21" d="M72.88,48.24c.23.47.91.51,1.53.31a2.12,2.12,0,0,0,1.12-1.16c.16-.34-1.3-.82-1.92-.52A1.12,1.12,0,0,0,72.88,48.24Z"/><path class="cls-21" d="M74.33,49.46a1.37,1.37,0,0,1,1.49.86c.2.52-.92.91-1.23,1.2s-1.42-.29-1.49-.85S73.58,49.56,74.33,49.46Z"/><path class="cls-18" d="M88,73.15c-1.62,0-2.93.71-2.93,1.6l.49,4.15c0,.73,1.09,1.33,2.44,1.33s2.43-.6,2.43-1.33l.49-4.15C90.94,73.86,89.63,73.15,88,73.15Z"/><ellipse class="cls-19" cx="88.02" cy="74.76" rx="2.42" ry="1.32"/><path class="cls-22" d="M88.26,66l0,2.49c-.17,2.5.42,5-.08,7.46-1-3-.29-6.77,0-10,0,0,.06,0,.06,0Z"/><path class="cls-22" d="M88,72.51H88c-1-.2-1.76-2.09-1.9-2.47a.33.33,0,1,1,.61-.23c.31.79,1,2,1.42,2a.33.33,0,0,1-.06.65Z"/><path class="cls-22" d="M88.09,73.55a.33.33,0,0,1-.32-.27.34.34,0,0,1,.26-.39c.47-.09,1.11-1.25,1.42-2a.33.33,0,0,1,.42-.19.32.32,0,0,1,.19.42c-.14.38-.91,2.28-1.9,2.47Z"/><path class="cls-22" d="M87.82,69.69a.26.26,0,0,1-.17,0,3,3,0,0,1-1-2,.32.32,0,0,1,.28-.37.33.33,0,0,1,.37.27c0,.31.26,1.23.7,1.49a.33.33,0,0,1-.17.61Z"/><path class="cls-22" d="M88.4,71.21a.33.33,0,0,1-.28-.16.33.33,0,0,1,.12-.45c.43-.26.65-1.18.69-1.48a.34.34,0,0,1,.38-.28.31.31,0,0,1,.27.37,3,3,0,0,1-1,2A.33.33,0,0,1,88.4,71.21Z"/><path class="cls-23" d="M88.09,75.13a.33.33,0,0,1-.1-.64c.92-.29,1.93-2.36,2.24-3.13a.33.33,0,0,1,.61.25c-.12.31-1.27,3.07-2.65,3.51Z"/><path class="cls-23" d="M88.12,75.6l-.1,0c-1.37-.44-2.52-3.19-2.65-3.51a.34.34,0,0,1,.18-.43.34.34,0,0,1,.43.19c.31.77,1.32,2.83,2.24,3.12a.34.34,0,0,1,.22.42A.34.34,0,0,1,88.12,75.6Z"/><path class="cls-23" d="M85.89,72.62a.15.15,0,0,1-.09,0c-.45-.23-.52-.94-.53-1a.2.2,0,1,1,.39,0c0,.15.1.6.32.71a.19.19,0,0,1-.09.37Z"/><path class="cls-23" d="M86.17,73.07a1.81,1.81,0,0,1-.83-.28.2.2,0,0,1,0-.28.19.19,0,0,1,.27-.05c.13.08.53.29.75.19a.2.2,0,0,1,.17.36A.81.81,0,0,1,86.17,73.07Z"/><path class="cls-23" d="M86.49,73.63a1.76,1.76,0,0,1-.83-.28.19.19,0,0,1,0-.27.19.19,0,0,1,.27-.06c.12.08.52.29.75.19a.2.2,0,0,1,.26.1.19.19,0,0,1-.1.26A.62.62,0,0,1,86.49,73.63Z"/><path class="cls-23" d="M86.85,74.4a1.63,1.63,0,0,1-.83-.29.2.2,0,0,1-.06-.27.21.21,0,0,1,.28-.06c.12.09.52.3.75.2a.19.19,0,0,1,.26.09.2.2,0,0,1-.1.26A.66.66,0,0,1,86.85,74.4Z"/><path class="cls-23" d="M87.08,75.05a1.65,1.65,0,0,1-.82-.28.2.2,0,0,1-.06-.27.21.21,0,0,1,.28-.06c.12.08.52.29.75.19a.2.2,0,0,1,.26.1.2.2,0,0,1-.1.26A.66.66,0,0,1,87.08,75.05Z"/><path class="cls-23" d="M87.66,75.63a1.58,1.58,0,0,1-.82-.29.19.19,0,0,1-.06-.27.2.2,0,0,1,.27-.06c.13.09.53.3.76.2a.19.19,0,0,1,.26.09.2.2,0,0,1-.1.26A.67.67,0,0,1,87.66,75.63Z"/><path class="cls-23" d="M90.7,71.8h-.08c-.46-.22-.56-.93-.57-1a.2.2,0,0,1,.17-.22.21.21,0,0,1,.22.17c0,.15.12.6.35.7a.19.19,0,0,1,.09.26A.19.19,0,0,1,90.7,71.8Z"/><path class="cls-23" d="M90.41,72.38l-.08,0c-.46-.22-.56-.93-.57-1a.2.2,0,0,1,.17-.22.21.21,0,0,1,.22.18c0,.14.12.59.34.69a.19.19,0,0,1,.1.26A.2.2,0,0,1,90.41,72.38Z"/><path class="cls-23" d="M90.08,73,90,73c-.46-.21-.56-.92-.57-1a.19.19,0,0,1,.17-.22.2.2,0,0,1,.22.17c0,.15.12.59.35.69a.19.19,0,0,1,.09.26A.18.18,0,0,1,90.08,73Z"/><path class="cls-23" d="M89.65,73.63a.15.15,0,0,1-.09,0c-.46-.21-.56-.92-.57-1a.2.2,0,1,1,.39,0c0,.15.12.59.35.7a.2.2,0,0,1,.1.26A.21.21,0,0,1,89.65,73.63Z"/><path class="cls-23" d="M89.27,74.19h-.08c-.47-.22-.57-.93-.58-1a.21.21,0,0,1,.18-.22.21.21,0,0,1,.22.17c0,.15.12.6.34.7a.19.19,0,0,1-.08.37Z"/><path class="cls-23" d="M88.81,74.68l-.08,0c-.47-.21-.57-.92-.58-1a.2.2,0,0,1,.18-.22.2.2,0,0,1,.22.17c0,.15.12.59.34.69a.21.21,0,0,1,.1.26A.19.19,0,0,1,88.81,74.68Z"/><path class="cls-23" d="M90.52,72a.2.2,0,0,1,0-.39c.24,0,.44-.46.49-.6a.2.2,0,0,1,.25-.12.19.19,0,0,1,.12.25c0,.08-.28.75-.78.85Z"/><path class="cls-23" d="M90.26,72.55a.81.81,0,0,1-.31-.06.21.21,0,0,1-.1-.26.19.19,0,0,1,.26-.1c.23.1.63-.11.76-.19a.19.19,0,0,1,.27,0,.19.19,0,0,1-.06.27A1.58,1.58,0,0,1,90.26,72.55Z"/><path class="cls-23" d="M89.94,73.11a.85.85,0,0,1-.31-.06.2.2,0,0,1-.09-.26.19.19,0,0,1,.26-.1c.22.1.62-.11.75-.19a.19.19,0,0,1,.27,0,.2.2,0,0,1,0,.28A1.81,1.81,0,0,1,89.94,73.11Z"/><path class="cls-23" d="M89.58,73.87a.62.62,0,0,1-.3-.06.19.19,0,0,1-.1-.26.2.2,0,0,1,.26-.1c.23.1.63-.11.75-.19a.2.2,0,0,1,.27.06.18.18,0,0,1,0,.27A1.65,1.65,0,0,1,89.58,73.87Z"/><path class="cls-23" d="M89.34,74.53a.8.8,0,0,1-.3-.06.2.2,0,0,1-.1-.26.19.19,0,0,1,.26-.1c.23.1.63-.11.75-.19a.2.2,0,0,1,.28,0,.21.21,0,0,1-.06.28A1.76,1.76,0,0,1,89.34,74.53Z"/><path class="cls-23" d="M88.77,75.1a.66.66,0,0,1-.31-.06.2.2,0,0,1-.1-.26.2.2,0,0,1,.26-.1c.23.1.63-.11.75-.19a.2.2,0,0,1,.28.06.2.2,0,0,1-.06.27A1.76,1.76,0,0,1,88.77,75.1Z"/><path class="cls-22" d="M89.92,71.06l-.08,0c-.38-.17-.46-.74-.47-.81a.19.19,0,0,1,.17-.22.21.21,0,0,1,.22.17c0,.14.1.44.24.5a.21.21,0,0,1,.1.27A.21.21,0,0,1,89.92,71.06Z"/><path class="cls-22" d="M89.69,71.5a.12.12,0,0,1-.08,0c-.38-.17-.46-.74-.47-.81a.2.2,0,1,1,.39,0c0,.14.1.44.24.51a.19.19,0,0,1-.08.37Z"/><path class="cls-22" d="M89.43,72l-.08,0c-.38-.18-.46-.75-.47-.81a.2.2,0,1,1,.39,0c0,.13.1.43.24.5a.19.19,0,0,1,.1.26A.2.2,0,0,1,89.43,72Z"/><path class="cls-22" d="M89.1,72.47H89c-.38-.18-.46-.75-.47-.82a.2.2,0,1,1,.39,0c0,.13.1.43.24.5a.19.19,0,0,1-.08.37Z"/><path class="cls-22" d="M88.81,72.91l-.08,0a1.06,1.06,0,0,1-.47-.81.19.19,0,0,1,.17-.22.2.2,0,0,1,.22.17c0,.14.1.44.24.5a.21.21,0,0,1,.1.27A.21.21,0,0,1,88.81,72.91Z"/><path class="cls-22" d="M88.45,73.29l-.08,0c-.38-.18-.46-.75-.47-.81a.2.2,0,1,1,.39,0c0,.13.1.43.24.5a.19.19,0,0,1,.1.26A.2.2,0,0,1,88.45,73.29Z"/><path class="cls-23" d="M89.78,71.18a.2.2,0,0,1-.2-.16.2.2,0,0,1,.16-.23c.15,0,.3-.31.34-.44a.2.2,0,0,1,.26-.11.18.18,0,0,1,.11.25c0,.06-.22.6-.63.69Z"/><path class="cls-23" d="M89.57,71.64a.57.57,0,0,1-.25-.06.19.19,0,0,1-.1-.26.2.2,0,0,1,.26-.1c.14.07.43-.06.54-.14a.19.19,0,0,1,.27,0,.2.2,0,0,1-.05.28A1.33,1.33,0,0,1,89.57,71.64Z"/><path class="cls-23" d="M89.33,72.07a.58.58,0,0,1-.26,0,.2.2,0,0,1-.1-.26.19.19,0,0,1,.26-.1c.15.06.43-.07.54-.14a.19.19,0,1,1,.22.32A1.32,1.32,0,0,1,89.33,72.07Z"/><path class="cls-23" d="M89.05,72.66a.53.53,0,0,1-.25,0,.19.19,0,0,1-.1-.26.19.19,0,0,1,.26-.1c.14.07.43-.07.54-.14a.19.19,0,1,1,.22.32A1.41,1.41,0,0,1,89.05,72.66Z"/><path class="cls-23" d="M88.87,73.17a.58.58,0,0,1-.26,0,.2.2,0,0,1-.1-.26.2.2,0,0,1,.26-.1.75.75,0,0,0,.54-.15.21.21,0,0,1,.28.06.2.2,0,0,1-.06.27A1.32,1.32,0,0,1,88.87,73.17Z"/><path class="cls-23" d="M88.42,73.61a.58.58,0,0,1-.26,0,.19.19,0,0,1-.09-.26.2.2,0,0,1,.26-.1c.14.07.42-.07.53-.14a.2.2,0,0,1,.28,0,.21.21,0,0,1-.06.28A1.46,1.46,0,0,1,88.42,73.61Z"/><path class="cls-22" d="M86.1,70.13a.21.21,0,0,1-.18-.11.21.21,0,0,1,.1-.27c.14-.06.22-.36.24-.5a.2.2,0,0,1,.22-.17.19.19,0,0,1,.17.22c0,.07-.09.64-.47.81Z"/><path class="cls-22" d="M86.33,70.57a.19.19,0,0,1-.08-.37c.14-.07.22-.37.24-.51a.2.2,0,0,1,.39,0c0,.07-.09.64-.47.81A.12.12,0,0,1,86.33,70.57Z"/><path class="cls-22" d="M86.59,71.09a.2.2,0,0,1-.09-.38c.15-.07.23-.37.25-.5A.19.19,0,0,1,87,70a.19.19,0,0,1,.17.22c0,.06-.09.63-.47.81Z"/><path class="cls-22" d="M86.92,71.54a.19.19,0,0,1-.08-.37c.14-.07.22-.37.24-.5a.2.2,0,0,1,.22-.17.19.19,0,0,1,.17.22c0,.06-.09.63-.47.81Z"/><path class="cls-22" d="M87.21,72a.21.21,0,0,1-.18-.11.21.21,0,0,1,.1-.27c.14-.06.23-.37.24-.5a.2.2,0,0,1,.39.05,1.06,1.06,0,0,1-.47.81Z"/><path class="cls-22" d="M87.57,72.36a.2.2,0,0,1-.18-.12.19.19,0,0,1,.1-.26c.14-.07.22-.37.24-.5a.2.2,0,0,1,.22-.17.19.19,0,0,1,.17.22c0,.06-.09.63-.47.81Z"/><path class="cls-22" d="M86.24,70.25h0c-.41-.09-.61-.63-.64-.69a.2.2,0,0,1,.12-.25.2.2,0,0,1,.26.11c0,.13.19.41.34.44a.2.2,0,0,1,.16.23A.2.2,0,0,1,86.24,70.25Z"/><path class="cls-22" d="M86.45,70.71a1.33,1.33,0,0,1-.67-.23.19.19,0,0,1,0-.27.19.19,0,0,1,.27-.06c.11.07.39.21.54.15a.19.19,0,0,1,.26.09.19.19,0,0,1-.1.26A.57.57,0,0,1,86.45,70.71Z"/><path class="cls-22" d="M86.69,71.14a1.32,1.32,0,0,1-.66-.23.2.2,0,0,1-.06-.27.2.2,0,0,1,.28,0c.11.07.39.2.53.14a.21.21,0,0,1,.27.1.2.2,0,0,1-.1.26A.58.58,0,0,1,86.69,71.14Z"/><path class="cls-22" d="M87,71.73a1.41,1.41,0,0,1-.67-.23.19.19,0,0,1,.22-.32c.12.07.4.2.54.14a.2.2,0,0,1,.26.1.19.19,0,0,1-.1.26A.53.53,0,0,1,87,71.73Z"/><path class="cls-22" d="M87.15,72.24a1.32,1.32,0,0,1-.66-.23.2.2,0,0,1-.06-.27.2.2,0,0,1,.28,0c.11.07.39.21.53.14a.2.2,0,0,1,.27.1.2.2,0,0,1-.1.26A.58.58,0,0,1,87.15,72.24Z"/><path class="cls-22" d="M87.6,72.68a1.46,1.46,0,0,1-.66-.22.21.21,0,0,1-.06-.28.2.2,0,0,1,.28-.05c.11.07.39.21.53.14a.2.2,0,0,1,.26.1.19.19,0,0,1-.09.26A.58.58,0,0,1,87.6,72.68Z"/><path class="cls-23" d="M89.44,68.54h0c-.34-.08-.5-.58-.52-.68A.2.2,0,0,1,89,67.6a.19.19,0,0,1,.24.14.85.85,0,0,0,.24.41.2.2,0,0,1,.15.24A.21.21,0,0,1,89.44,68.54Z"/><path class="cls-23" d="M89.36,69h0c-.33-.09-.49-.58-.52-.68a.2.2,0,0,1,.13-.25.2.2,0,0,1,.25.14.78.78,0,0,0,.23.41.2.2,0,0,1,.15.24A.21.21,0,0,1,89.36,69Z"/><path class="cls-23" d="M89.26,69.57h-.05c-.33-.08-.49-.58-.52-.68a.19.19,0,0,1,.13-.24.19.19,0,0,1,.25.13.78.78,0,0,0,.23.41.2.2,0,0,1,.15.24A.21.21,0,0,1,89.26,69.57Z"/><path class="cls-23" d="M89.09,70.09h0c-.33-.08-.49-.58-.52-.68a.2.2,0,0,1,.14-.25.19.19,0,0,1,.24.14.85.85,0,0,0,.24.41.19.19,0,0,1,.14.24A.19.19,0,0,1,89.09,70.09Z"/><path class="cls-23" d="M89,70.57h0c-.33-.09-.49-.59-.52-.69a.2.2,0,0,1,.13-.24.2.2,0,0,1,.25.13c0,.19.17.4.23.41a.21.21,0,0,1,.15.24A.21.21,0,0,1,89,70.57Z"/><path class="cls-23" d="M88.76,71h-.05c-.33-.09-.49-.59-.52-.68a.2.2,0,0,1,.14-.25.19.19,0,0,1,.24.14c.06.19.17.39.24.41a.2.2,0,0,1,0,.39Z"/><path class="cls-23" d="M89.36,68.69a.22.22,0,0,1-.17-.1.2.2,0,0,1,.07-.27.88.88,0,0,0,.17-.5.18.18,0,0,1,.21-.18.19.19,0,0,1,.18.21c0,.1-.07.63-.35.81A.23.23,0,0,1,89.36,68.69Z"/><path class="cls-23" d="M89.21,69.19l-.1,0a.2.2,0,0,1,.09-.38c.06,0,.2-.1.31-.25a.2.2,0,0,1,.32.23C89.77,68.85,89.52,69.19,89.21,69.19Z"/><path class="cls-23" d="M89.11,69.66H89a.21.21,0,0,1-.15-.24.19.19,0,0,1,.24-.14c.05,0,.2-.11.3-.25a.2.2,0,0,1,.28,0,.2.2,0,0,1,0,.28C89.67,69.32,89.42,69.66,89.11,69.66Z"/><path class="cls-23" d="M89,70.29h-.1A.2.2,0,1,1,89,69.9a.7.7,0,0,0,.3-.25.2.2,0,0,1,.33.23C89.57,70,89.32,70.29,89,70.29Z"/><path class="cls-23" d="M89,70.82h-.1a.2.2,0,1,1,.1-.38s.21-.12.3-.25a.19.19,0,0,1,.27-.05.21.21,0,0,1,0,.28C89.53,70.48,89.27,70.82,89,70.82Z"/><path class="cls-23" d="M88.71,71.35h-.1a.2.2,0,0,1,.1-.38s.2-.11.3-.25a.19.19,0,0,1,.27,0,.21.21,0,0,1,0,.28C89.28,71,89,71.35,88.71,71.35Z"/><path class="cls-22" d="M86.82,67.48a.2.2,0,0,1,0-.39c.07,0,.19-.23.24-.41a.2.2,0,0,1,.25-.14.2.2,0,0,1,.13.25c0,.1-.19.6-.52.68Z"/><path class="cls-22" d="M86.91,68a.19.19,0,0,1-.19-.15.19.19,0,0,1,.14-.23c.07,0,.18-.23.24-.42a.2.2,0,0,1,.38.11c0,.1-.19.6-.52.69Z"/><path class="cls-22" d="M87,68.51a.19.19,0,0,1-.19-.15.2.2,0,0,1,.14-.24.82.82,0,0,0,.24-.41.19.19,0,0,1,.24-.14.2.2,0,0,1,.14.25c0,.1-.19.6-.52.68Z"/><path class="cls-22" d="M87.17,69a.18.18,0,0,1-.19-.14.19.19,0,0,1,.14-.24.72.72,0,0,0,.24-.42.2.2,0,0,1,.25-.13.2.2,0,0,1,.13.24c0,.1-.19.6-.52.69Z"/><path class="cls-22" d="M87.31,69.51a.19.19,0,0,1-.19-.15.2.2,0,0,1,.14-.24c.07,0,.18-.22.24-.41a.19.19,0,0,1,.24-.13.19.19,0,0,1,.14.24c0,.1-.19.6-.52.68Z"/><path class="cls-22" d="M87.51,70a.21.21,0,0,1-.2-.15.21.21,0,0,1,.15-.24c.06,0,.18-.22.23-.41a.2.2,0,0,1,.25-.13.2.2,0,0,1,.13.24c0,.1-.18.6-.52.69Z"/><path class="cls-22" d="M86.9,67.62a.19.19,0,0,1-.1,0,1.11,1.11,0,0,1-.35-.8.2.2,0,0,1,.39,0,.91.91,0,0,0,.17.5.2.2,0,0,1-.11.36Z"/><path class="cls-22" d="M87.06,68.12c-.31,0-.57-.34-.62-.41a.19.19,0,0,1,0-.27.18.18,0,0,1,.27,0c.1.15.26.26.3.25a.2.2,0,1,1,.1.38Z"/><path class="cls-22" d="M87.16,68.6a.9.9,0,0,1-.62-.42.19.19,0,0,1,.32-.22c.11.14.27.26.3.24a.2.2,0,0,1,.24.15.2.2,0,0,1-.14.24Z"/><path class="cls-22" d="M87.26,69.23c-.31,0-.57-.34-.62-.41a.2.2,0,0,1,0-.28.19.19,0,0,1,.27,0c.11.14.26.26.3.24a.2.2,0,0,1,.1.39Z"/><path class="cls-22" d="M87.3,69.76c-.31,0-.56-.34-.62-.41a.2.2,0,1,1,.33-.23c.1.14.26.26.3.25a.19.19,0,0,1,.24.14.2.2,0,0,1-.15.24Z"/><path class="cls-22" d="M87.55,70.29c-.31,0-.56-.34-.61-.41a.19.19,0,0,1,0-.28.2.2,0,0,1,.28.05c.1.14.26.26.3.24a.2.2,0,0,1,.09.39Z"/><path class="cls-22" d="M88.77,66.84s0,0,0,0c-.22,0-.33-.39-.35-.46a.09.09,0,0,1,.07-.13.11.11,0,0,1,.14.07c0,.13.13.3.19.31a.11.11,0,0,1,.08.13A.12.12,0,0,1,88.77,66.84Z"/><path class="cls-22" d="M88.71,67.17h0c-.22,0-.33-.39-.35-.46a.11.11,0,0,1,.07-.14.12.12,0,0,1,.14.08c0,.13.12.29.19.31a.11.11,0,0,1,.08.13A.11.11,0,0,1,88.71,67.17Z"/><path class="cls-22" d="M88.64,67.57h0c-.22,0-.33-.39-.35-.46a.09.09,0,0,1,.07-.13.11.11,0,0,1,.14.07c0,.13.13.3.19.31a.11.11,0,0,1,.08.13A.12.12,0,0,1,88.64,67.57Z"/><path class="cls-22" d="M88.53,67.93h0c-.22-.05-.33-.39-.35-.46a.12.12,0,0,1,.08-.14.11.11,0,0,1,.13.08c0,.13.13.29.2.31a.11.11,0,0,1,.08.13A.12.12,0,0,1,88.53,67.93Z"/><path class="cls-22" d="M88.43,68.28h0c-.22,0-.33-.39-.35-.46a.1.1,0,0,1,.07-.13.11.11,0,0,1,.14.07c0,.14.13.3.19.31a.11.11,0,0,1,.08.14A.11.11,0,0,1,88.43,68.28Z"/><path class="cls-22" d="M88.3,68.59h0c-.22,0-.33-.39-.35-.46A.12.12,0,0,1,88,68a.11.11,0,0,1,.13.08c0,.13.13.29.19.31a.1.1,0,0,1,.08.13A.1.1,0,0,1,88.3,68.59Z"/><path class="cls-22" d="M88.71,66.94a.12.12,0,0,1-.09,0,.1.1,0,0,1,0-.15.66.66,0,0,0,.13-.38.1.1,0,0,1,.12-.1.11.11,0,0,1,.1.12c0,.07-.05.42-.24.54A.07.07,0,0,1,88.71,66.94Z"/><path class="cls-22" d="M88.61,67.3h-.06a.11.11,0,0,1-.08-.13.11.11,0,0,1,.13-.09c.06,0,.18-.09.24-.18a.11.11,0,0,1,.15,0A.1.1,0,0,1,89,67S88.81,67.3,88.61,67.3Z"/><path class="cls-22" d="M88.54,67.63h-.06a.11.11,0,0,1-.09-.13.12.12,0,0,1,.14-.08s.17-.09.24-.19a.1.1,0,0,1,.15,0,.11.11,0,0,1,0,.15C88.91,67.4,88.74,67.63,88.54,67.63Z"/><path class="cls-22" d="M88.47,68.08h-.06a.1.1,0,0,1-.08-.13.11.11,0,0,1,.13-.08c.06,0,.18-.1.24-.19a.12.12,0,0,1,.16,0,.11.11,0,0,1,0,.16S88.67,68.08,88.47,68.08Z"/><path class="cls-22" d="M88.44,68.46h-.06a.11.11,0,0,1-.08-.13.11.11,0,0,1,.13-.09c.06,0,.17-.08.24-.18a.12.12,0,0,1,.16,0,.1.1,0,0,1,0,.15S88.64,68.46,88.44,68.46Z"/><path class="cls-22" d="M88.27,68.83H88.2a.11.11,0,0,1-.08-.13.12.12,0,0,1,.13-.08c.06,0,.18-.09.25-.19a.1.1,0,0,1,.15,0,.11.11,0,0,1,0,.15S88.47,68.83,88.27,68.83Z"/><path class="cls-22" d="M87.8,66.27a.11.11,0,0,1-.11-.1.11.11,0,0,1,.1-.12c.06,0,.17-.15.23-.28a.11.11,0,0,1,.15,0,.1.1,0,0,1,0,.14c0,.06-.19.38-.41.41Z"/><path class="cls-22" d="M87.81,66.61a.12.12,0,0,1-.11-.1.12.12,0,0,1,.1-.12c.07,0,.18-.15.23-.28a.11.11,0,0,1,.15,0,.1.1,0,0,1,0,.14c0,.07-.18.39-.41.41Z"/><path class="cls-22" d="M87.82,67a.12.12,0,0,1-.11-.1.12.12,0,0,1,.1-.12c.07,0,.18-.15.24-.28a.1.1,0,0,1,.14-.05.11.11,0,0,1,.06.14c0,.07-.19.39-.42.41Z"/><path class="cls-22" d="M87.88,67.39a.12.12,0,0,1-.11-.1.12.12,0,0,1,.1-.12c.07,0,.18-.15.24-.28a.1.1,0,0,1,.14,0,.11.11,0,0,1,.06.14c0,.06-.19.38-.42.41Z"/><path class="cls-22" d="M87.93,67.74a.11.11,0,0,1-.11-.1.11.11,0,0,1,.1-.12c.07,0,.18-.17.23-.28a.11.11,0,0,1,.15,0,.11.11,0,0,1,0,.15c0,.06-.19.38-.41.4Z"/><path class="cls-22" d="M88,68.07a.11.11,0,0,1-.11-.1.11.11,0,0,1,.1-.12c.07,0,.18-.17.23-.28a.11.11,0,0,1,.2.1c0,.06-.18.38-.41.4Z"/><path class="cls-22" d="M87.9,66a.11.11,0,0,1-.07,0,.77.77,0,0,1-.15-.57c0-.06.06-.12.11-.11a.11.11,0,0,1,.1.12c0,.13,0,.34.08.39A.11.11,0,0,1,88,66,.12.12,0,0,1,87.9,66Z"/><path class="cls-22" d="M88,66.39c-.23,0-.38-.28-.41-.34a.1.1,0,0,1,.05-.14.11.11,0,0,1,.15,0c0,.09.14.22.21.22s.11,0,.12.09a.11.11,0,0,1-.1.12Z"/><path class="cls-22" d="M88,66.74c-.22,0-.38-.28-.41-.34a.12.12,0,0,1,0-.15.11.11,0,0,1,.15,0c0,.09.14.22.21.22a.1.1,0,0,1,.12.1.1.1,0,0,1-.09.12Z"/><path class="cls-22" d="M88,67.19c-.22,0-.37-.28-.4-.34a.11.11,0,0,1,.05-.15.11.11,0,0,1,.14,0c0,.09.14.23.22.22a.11.11,0,0,1,.12.1.12.12,0,0,1-.1.12Z"/><path class="cls-22" d="M88,67.57c-.22,0-.38-.29-.41-.34a.12.12,0,0,1,.05-.15.11.11,0,0,1,.15,0c0,.09.14.21.21.22a.1.1,0,0,1,.12.1.11.11,0,0,1-.1.12Z"/><path class="cls-22" d="M88.1,68c-.22,0-.38-.28-.41-.34a.11.11,0,0,1,.2-.1c0,.1.15.23.21.22a.1.1,0,0,1,.12.1.11.11,0,0,1-.1.12Z"/><path class="cls-23" d="M85.72,72.33a.2.2,0,0,1-.08-.38c.23-.1.33-.55.35-.69a.2.2,0,0,1,.22-.17.19.19,0,0,1,.17.22c0,.08-.11.79-.57,1Z"/><path class="cls-23" d="M86,72.9a.18.18,0,0,1-.18-.12.2.2,0,0,1,.09-.26c.23-.1.33-.54.35-.69a.2.2,0,0,1,.39,0c0,.08-.11.79-.57,1Z"/><path class="cls-23" d="M86.35,73.56a.21.21,0,0,1-.18-.11.2.2,0,0,1,.1-.26c.22-.11.33-.55.35-.7a.21.21,0,0,1,.22-.17.2.2,0,0,1,.17.22c0,.08-.11.79-.58,1A.11.11,0,0,1,86.35,73.56Z"/><path class="cls-23" d="M86.78,74.15A.21.21,0,0,1,86.6,74a.2.2,0,0,1,.1-.26c.22-.1.33-.55.35-.7a.2.2,0,0,1,.22-.17.21.21,0,0,1,.17.22c0,.08-.11.79-.58,1Z"/><path class="cls-23" d="M87.16,74.72A.2.2,0,0,1,87,74.6a.19.19,0,0,1,.1-.26c.22-.1.32-.55.34-.69a.19.19,0,0,1,.22-.17.19.19,0,0,1,.17.22c0,.08-.11.79-.57,1Z"/><path class="cls-23" d="M87.62,75.2a.19.19,0,0,1-.08-.37c.21-.1.32-.51.34-.7A.2.2,0,0,1,88.1,74a.19.19,0,0,1,.17.22c0,.08-.11.79-.57,1A.12.12,0,0,1,87.62,75.2Z"/><path class="cls-22" d="M88.07,73.23a.3.3,0,0,1-.23-.1,3.46,3.46,0,0,1-.7-2.15.33.33,0,0,1,.33-.33h0a.33.33,0,0,1,.33.33,2.87,2.87,0,0,0,.5,1.69.32.32,0,0,1,0,.46A.3.3,0,0,1,88.07,73.23Z"/><path class="cls-23" d="M87.43,70.34h-.05a.19.19,0,0,1-.17-.22.19.19,0,0,1,.21-.17s.19-.14.26-.28a.2.2,0,0,1,.27-.09.21.21,0,0,1,.08.27C88,69.93,87.76,70.34,87.43,70.34Z"/><path class="cls-23" d="M87.45,70.82h0a.19.19,0,0,1-.17-.22.19.19,0,0,1,.21-.17c.07,0,.19-.14.26-.28a.2.2,0,0,1,.27-.09.21.21,0,0,1,.08.27C88,70.41,87.78,70.82,87.45,70.82Z"/><path class="cls-23" d="M87.47,71.38h0a.19.19,0,0,1-.17-.22.2.2,0,0,1,.21-.18.66.66,0,0,0,.26-.27.2.2,0,0,1,.27-.09.21.21,0,0,1,.08.27C88,71,87.8,71.38,87.47,71.38Z"/><path class="cls-23" d="M87.55,71.92h0a.2.2,0,0,1-.18-.22.21.21,0,0,1,.22-.17.59.59,0,0,0,.26-.28.2.2,0,0,1,.35.18C88.12,71.52,87.89,71.92,87.55,71.92Z"/><path class="cls-23" d="M87.62,72.43h0a.21.21,0,0,1-.18-.22.2.2,0,0,1,.22-.18s.18-.13.26-.27a.19.19,0,0,1,.26-.09.2.2,0,0,1,.09.27C88.18,72,88,72.43,87.62,72.43Z"/><path class="cls-23" d="M87.75,72.92h0a.2.2,0,0,1-.18-.21.2.2,0,0,1,.22-.18c.07,0,.18-.14.26-.28a.19.19,0,0,1,.26-.08.19.19,0,0,1,.09.26C88.31,72.51,88.09,72.92,87.75,72.92Z"/><path class="cls-23" d="M87.46,70.51a.2.2,0,0,1-.14-.06,1.34,1.34,0,0,1-.22-.86.2.2,0,0,1,.21-.18.18.18,0,0,1,.18.2.9.9,0,0,0,.12.56.2.2,0,0,1,0,.28A.2.2,0,0,1,87.46,70.51Z"/><path class="cls-23" d="M87.6,71h0c-.33,0-.57-.5-.61-.59a.19.19,0,0,1,.09-.26.2.2,0,0,1,.27.09c.08.18.23.36.3.37a.2.2,0,0,1,0,.39Z"/><path class="cls-23" d="M87.63,71.53h0c-.34,0-.57-.51-.62-.6a.2.2,0,0,1,.1-.26.19.19,0,0,1,.26.09c.09.18.23.37.3.37a.21.21,0,0,1,.18.22A.21.21,0,0,1,87.63,71.53Z"/><path class="cls-23" d="M87.64,72.16h0c-.33,0-.57-.51-.61-.6a.19.19,0,0,1,.09-.26.2.2,0,0,1,.27.09c.08.18.23.37.3.37a.2.2,0,0,1,.17.22A.19.19,0,0,1,87.64,72.16Z"/><path class="cls-23" d="M87.61,72.67h0c-.34,0-.57-.5-.61-.59a.2.2,0,0,1,.09-.27.21.21,0,0,1,.27.1c.08.18.23.36.3.37a.2.2,0,0,1,0,.39Z"/><path class="cls-23" d="M87.78,73.26h0c-.34,0-.58-.5-.62-.6a.19.19,0,0,1,.1-.26.21.21,0,0,1,.26.1c.08.18.23.36.3.37a.18.18,0,0,1,.17.21A.19.19,0,0,1,87.78,73.26Z"/><path class="cls-24" d="M87.61,73.65a.19.19,0,0,1-.18-.13.19.19,0,0,1,.12-.25c.24-.09.24-.52.24-.52a.19.19,0,0,1,.2-.2.2.2,0,0,1,.2.2s0,.7-.51.89Z"/><path class="cls-24" d="M87.62,74.12a.2.2,0,1,1,0-.39c.21,0,.41-.33.46-.44a.2.2,0,0,1,.27-.09.2.2,0,0,1,.09.26c0,.07-.32.65-.81.66Z"/><path class="cls-24" d="M88,74.59a.18.18,0,0,1-.18-.12.2.2,0,0,1,.1-.26c.19-.07.26-.4.28-.51a.18.18,0,0,1,.22-.17.2.2,0,0,1,.17.21c0,.07-.09.66-.51.84Z"/><path class="cls-24" d="M88.07,75.11a.19.19,0,0,1-.18-.12.19.19,0,0,1,.1-.25c.18-.08.26-.38.27-.47a.21.21,0,0,1,.23-.17.2.2,0,0,1,.16.22,1.06,1.06,0,0,1-.5.78Z"/><path class="cls-24" d="M88.28,75.57a.2.2,0,0,1-.19-.17.2.2,0,0,1,.16-.23c.23,0,.36-.36.36-.36a.2.2,0,0,1,.26-.11A.19.19,0,0,1,89,75a1,1,0,0,1-.66.61Z"/><path class="cls-24" d="M88.29,76a.19.19,0,0,1-.19-.19.19.19,0,0,1,.19-.2c.17,0,.34-.21.39-.28a.19.19,0,0,1,.27,0,.2.2,0,0,1,.06.27,1,1,0,0,1-.71.45Z"/><path class="cls-24" d="M87.66,73.92a.21.21,0,0,1-.16-.08,1.62,1.62,0,0,1-.12-1.18.2.2,0,1,1,.38.09,1.21,1.21,0,0,0,.06.85.22.22,0,0,1,0,.28A.19.19,0,0,1,87.66,73.92Z"/><path class="cls-24" d="M87.91,74.35a1.66,1.66,0,0,1-1-.54.2.2,0,0,1,0-.28.19.19,0,0,1,.28,0,1.21,1.21,0,0,0,.65.41h0a.2.2,0,0,1,.2.19.21.21,0,0,1-.19.21Z"/><path class="cls-24" d="M88.05,74.85a1.52,1.52,0,0,1-.9-.49.2.2,0,1,1,.29-.27,1.15,1.15,0,0,0,.61.37h0a.2.2,0,1,1,0,.39Z"/><path class="cls-24" d="M88.14,75.27a1.44,1.44,0,0,1-.85-.44.2.2,0,0,1,.28-.28,1,1,0,0,0,.56.32h0a.2.2,0,0,1,0,.4Z"/><path class="cls-24" d="M88.23,75.71a1.42,1.42,0,0,1-.81-.4.19.19,0,0,1,0-.28.2.2,0,0,1,.28,0,.93.93,0,0,0,.53.29h0a.2.2,0,0,1,.2.2.2.2,0,0,1-.19.2Z"/><path class="cls-24" d="M88.25,76.05a1.28,1.28,0,0,1-.76-.37.2.2,0,1,1,.27-.29.92.92,0,0,0,.49.26h0a.2.2,0,0,1,.19.2.19.19,0,0,1-.19.2Z"/><path class="cls-18" d="M92.05,78.27c-1.62,0-2.93.71-2.93,1.59l.5,4.16c0,.73,1.09,1.33,2.43,1.33s2.44-.6,2.44-1.33L95,79.86C95,79,93.67,78.27,92.05,78.27Z"/><ellipse class="cls-19" cx="92.05" cy="79.88" rx="2.42" ry="1.32"/><path class="cls-25" d="M91.4,78.09c0,.26.25.57,0,.91s-1.26.2-1.74-.07-.94-1.45-1.24-1.64,1.52-.81,2-.74a1.62,1.62,0,0,1,1.24.75C91.85,77.69,91.41,77.84,91.4,78.09Z"/><path class="cls-25" d="M93.27,78.61c-.25,0-.53.2-.9.07s-.36-.76-.16-1.08,1.3-.7,1.46-.9,1,.87,1,1.2a.9.9,0,0,1-.58.83C93.74,78.86,93.52,78.59,93.27,78.61Z"/><path class="cls-25" d="M92.38,76.65c-.18.09-.33.31-.65.32s-.49-.47-.43-.76.77-.91.83-1.1,1,.36,1.1.61a.72.72,0,0,1-.19.79C92.8,76.7,92.57,76.57,92.38,76.65Z"/><path class="cls-25" d="M92,80.7h0a.12.12,0,0,1-.06-.15,10.9,10.9,0,0,0,.16-3.84.11.11,0,0,1,.21-.06,10.86,10.86,0,0,1-.17,4A.12.12,0,0,1,92,80.7Z"/><path class="cls-25" d="M92.38,80.36a.12.12,0,0,1-.11-.1,3.18,3.18,0,0,1,1-1.93.11.11,0,0,1,.15,0,.11.11,0,0,1,0,.15c-.18.11-1,1.2-.9,1.71a.1.1,0,0,1-.09.12Z"/><path class="cls-25" d="M92.2,79.86h0a.11.11,0,0,1-.09-.13A3.11,3.11,0,0,0,91.2,78a.11.11,0,0,1,0-.15.13.13,0,0,1,.16,0,3.12,3.12,0,0,1,1,1.93A.11.11,0,0,1,92.2,79.86Z"/><path class="cls-25" d="M89.46,84.13a.08.08,0,0,1-.07,0,.1.1,0,0,1,0-.15,1.83,1.83,0,0,0,0-1,2.1,2.1,0,0,1,0-.88,1.36,1.36,0,0,1,1.4-1,1.14,1.14,0,0,0,1.22-.88.11.11,0,0,1,.21.07,1.35,1.35,0,0,1-1.41,1,1.14,1.14,0,0,0-1.21.86,2,2,0,0,0,0,.78,1.89,1.89,0,0,1-.09,1.14A.12.12,0,0,1,89.46,84.13Z"/><path class="cls-25" d="M90.9,82.38a.13.13,0,0,1-.1-.06c-.23-.5.33-1.29.68-1.6a2.22,2.22,0,0,0,.62-1,.1.1,0,0,1,.12-.09.11.11,0,0,1,.09.13,2.46,2.46,0,0,1-.69,1.12c-.31.27-.79,1-.62,1.33a.11.11,0,0,1,0,.15Z"/><path class="cls-25" d="M90,82.09a2,2,0,0,1-1.18-.57l0,0a.11.11,0,1,1,.14-.17l0,0c.41.33.93.75,1.49.4a1.27,1.27,0,0,0,.49-.68,1.82,1.82,0,0,1,1-1.09A.1.1,0,0,1,92,80a.11.11,0,0,1-.05.15,1.62,1.62,0,0,0-.86,1,1.56,1.56,0,0,1-.57.78A1,1,0,0,1,90,82.09Z"/><path class="cls-21" d="M89.19,83.63c.28.2.73,0,1.09.52s-.53,1.53-1,1.74-1.56-.15-1.78-.06-.42-1.64-.25-2.13.62-1.11,1.16-1S88.9,83.44,89.19,83.63Z"/><path class="cls-21" d="M88.71,80.91a4.69,4.69,0,0,1,1.26.32c.69.37-.28,1.13-1,1.24a11.45,11.45,0,0,1-2.2-.42c-.25,0,.09-1,.31-1.19a1.45,1.45,0,0,1,1-.33C88.47,80.55,88.45,80.81,88.71,80.91Z"/><path class="cls-21" d="M90.73,82.24c-.13.19-.43.34-.63.74s.66.58,1.15.34,1-1.13,1.17-1.21-.49-.58-.71-.6a1.08,1.08,0,0,0-.74.21C90.73,81.91,90.86,82.06,90.73,82.24Z"/><path class="cls-21" d="M93.26,79.47c-.28.09-.7-.11-1,.3s.11,1.25.46,1.53,1.32.22,1.47.35.71-1.25.69-1.69-.27-1-.72-1.12S93.54,79.37,93.26,79.47Z"/><path class="cls-21" d="M90.88,79.4c.24.08.57,0,.86.28s0,.84-.27,1-1.47.14-1.7.27-.59-1.19-.46-1.5a.91.91,0,0,1,.85-.54C90.55,79,90.64,79.31,90.88,79.4Z"/><path class="cls-26" d="M92.08,77.84c.21-.07.4-.29.73-.26s.48.55.38.85-.92.88-1,1.08-1-.49-1.1-.77a.76.76,0,0,1,.29-.81C91.64,77.74,91.88,77.91,92.08,77.84Z"/><path class="cls-27" d="M143.27,75.15c-2.36,0-4.27,1-4.27,2.32l.72,6.06c0,1.07,1.59,1.93,3.55,1.93s3.55-.86,3.55-1.93l.71-6.06C147.53,76.19,145.62,75.15,143.27,75.15Z"/><ellipse class="cls-19" cx="143.27" cy="77.5" rx="3.52" ry="1.92"/><path class="cls-18" d="M26.83,40c-1.61,0-2.92.72-2.92,1.6l.49,4.15c0,.74,1.09,1.33,2.43,1.33s2.44-.59,2.44-1.33l.49-4.15C29.76,40.71,28.45,40,26.83,40Z"/><ellipse class="cls-19" cx="26.83" cy="41.61" rx="2.42" ry="1.32"/><path class="cls-28" d="M27.36,34.9s-.25,6,.59,6.9-1.43.23-1.43.23S26.37,37.26,27.36,34.9Z"/><path class="cls-28" d="M32.26,36.79s-4.23,4.46-3.9,5.26-1.55-.3-1.55-.3S29.52,38.18,32.26,36.79Z"/><path class="cls-29" d="M28.23,41.93c-.54-.8,1-6.41,1-6.41a18.61,18.61,0,0,0-2.41,6.38,19.46,19.46,0,0,0-2.49-6.63,45.79,45.79,0,0,1,1,4.7,16.74,16.74,0,0,0-2.95-4.29s1.24,2.32,2,4.12c.66,1.6.7,2.48,1,2.6a2.22,2.22,0,0,0,1.3.24,4,4,0,0,0,1.67-.25C28.62,42.27,28.32,42,28.23,41.93Z"/><path class="cls-18" d="M19.32,36.87c-1.62,0-2.93.71-2.93,1.6l.49,4.15c0,.73,1.09,1.33,2.44,1.33s2.44-.6,2.44-1.33l.49-4.15C22.25,37.58,20.94,36.87,19.32,36.87Z"/><ellipse class="cls-19" cx="19.32" cy="38.48" rx="2.42" ry="1.32"/><path class="cls-30" d="M19.68,35s-1.39.73-1.35,1.53c.06,1.13.7,1.91,1.62,1.14C20.66,37.06,19.78,35.61,19.68,35Z"/><path class="cls-24" d="M15,37.19s2-.67,2.86.05,1.22,1.49.45,1.84S16.1,37.85,15,37.19Z"/><path class="cls-24" d="M23.19,37.31s-2-.49-2.84.32-1.09,1.59-.29,1.86S22.18,38.07,23.19,37.31Z"/><path class="cls-24" d="M19.16,39.76l-.08,0a.21.21,0,0,1-.12-.28,10.21,10.21,0,0,0-.29-3.12.22.22,0,0,1,.17-.26.23.23,0,0,1,.26.18c.06.27.54,2.69.26,3.36A.2.2,0,0,1,19.16,39.76Z"/><path class="cls-24" d="M19,36.84h0c-.46-.06-1.14-1.33-1.15-1.34a.18.18,0,0,1,.08-.24.17.17,0,0,1,.23.08A3.68,3.68,0,0,0,19,36.49a.18.18,0,0,1,.15.2A.18.18,0,0,1,19,36.84Z"/><path class="cls-24" d="M19.31,39.39a.18.18,0,0,1-.13-.3s1-1,1.48-1a.17.17,0,0,1,.15.2.19.19,0,0,1-.2.15h0a3.69,3.69,0,0,0-1.16.85A.18.18,0,0,1,19.31,39.39Z"/><path class="cls-24" d="M19.16,39.3a.15.15,0,0,1-.13,0c-.3-.32-1-.89-1.17-.86a.17.17,0,0,1-.2-.15.17.17,0,0,1,.14-.19c.48-.07,1.47,1,1.48,1a.18.18,0,0,1,0,.25A.19.19,0,0,1,19.16,39.3Z"/><path class="cls-24" d="M19.29,36.11a.16.16,0,0,1-.13-.06.17.17,0,0,1,0-.25,3.46,3.46,0,0,0,.46-1.4.17.17,0,0,1,.19-.16.19.19,0,0,1,.16.19,3.6,3.6,0,0,1-.59,1.64A.15.15,0,0,1,19.29,36.11Z"/><path class="cls-24" d="M19.48,37.67a.18.18,0,0,1-.15-.1.17.17,0,0,1,.08-.24l.16-.06a2.35,2.35,0,0,0,1.61-1.76.19.19,0,0,1,.22-.12.18.18,0,0,1,.12.22,2.7,2.7,0,0,1-1.83,2l-.13,0Z"/><path class="cls-24" d="M19.48,38.18a4,4,0,0,1-2.37-1.4.19.19,0,0,1,0-.25.18.18,0,0,1,.25,0c.4.46,1.39,1.33,2.16,1.27a.19.19,0,0,1,.19.17.17.17,0,0,1-.17.18Z"/><path class="cls-31" d="M17.88,34.06c-.07-.07,0-.18.13-.2a.15.15,0,0,1,.18.17s-.15.11-.14.15S18,34.13,17.88,34.06Z"/><path class="cls-31" d="M18.17,34.1c0-.11.14-.12.23,0a.15.15,0,0,1,0,.25c-.05,0-.17-.08-.2-.05S18.14,34.19,18.17,34.1Z"/><path class="cls-31" d="M18.12,34.36c0-.1-.09-.16-.22-.08a.15.15,0,0,0,0,.24s.22,0,.24.07S18.11,34.45,18.12,34.36Z"/><path class="cls-32" d="M18.23,34.33c0-.1.15-.12.24,0a.15.15,0,0,1,0,.25c-.05,0-.17-.08-.2,0S18.21,34.42,18.23,34.33Z"/><path class="cls-32" d="M17.85,34.22c0-.11-.09-.16-.22-.08a.15.15,0,0,0,0,.25c.05,0,.19,0,.21,0S17.85,34.31,17.85,34.22Z"/><path class="cls-32" d="M18.19,34.57c.08-.07.18,0,.2.13s-.13.21-.17.18-.17-.13-.16-.17S18.12,34.64,18.19,34.57Z"/><path class="cls-32" d="M17.92,34.53c-.05-.08-.17-.06-.22.09a.15.15,0,0,0,.13.21c.05,0,.18-.09.19-.13S18,34.61,17.92,34.53Z"/><path class="cls-31" d="M17.08,34.94c0-.09-.16-.09-.23.05a.15.15,0,0,0,.09.23s.15-.1.19-.07S17.12,35,17.08,34.94Z"/><path class="cls-31" d="M17,35.22c-.1,0-.16.09-.08.22a.15.15,0,0,0,.25,0s0-.18,0-.2S17.1,35.23,17,35.22Z"/><path class="cls-31" d="M17.27,35.27c-.1,0-.12-.14,0-.23a.15.15,0,0,1,.24,0c0,.05-.05.21,0,.25S17.36,35.3,17.27,35.27Z"/><path class="cls-32" d="M17.2,35.37c-.1,0-.16.09-.08.22a.15.15,0,0,0,.25,0s0-.18,0-.21S17.3,35.38,17.2,35.37Z"/><path class="cls-32" d="M17.24,35c-.1,0-.12-.14,0-.24a.15.15,0,0,1,.24.06c0,.05-.07.17,0,.2S17.33,35,17.24,35Z"/><path class="cls-32" d="M17.45,35.41c-.1.05-.09.17.05.24a.16.16,0,0,0,.23-.1s-.07-.2-.11-.21A.5.5,0,0,0,17.45,35.41Z"/><path class="cls-32" d="M17.51,35.15c-.06-.09,0-.19.15-.18s.19.16.16.2-.16.14-.2.13A.56.56,0,0,1,17.51,35.15Z"/><path class="cls-31" d="M18.5,34.87c0-.09,0-.16-.18-.13s-.16.16-.13.19.18,0,.19.09S18.46,34.94,18.5,34.87Z"/><path class="cls-31" d="M18.24,35c0-.07-.18,0-.23.09a.13.13,0,0,0,.13.2c.05,0,.14-.13.19-.11S18.3,35.05,18.24,35Z"/><path class="cls-31" d="M18.37,35.2c-.05-.09,0-.18.18-.15s.16.15.12.19-.19.1-.19.15S18.41,35.27,18.37,35.2Z"/><path class="cls-32" d="M18.25,35.21c-.06-.08-.19-.05-.24.09s.07.22.13.21.15-.14.2-.12S18.3,35.28,18.25,35.21Z"/><path class="cls-32" d="M18.58,35c0-.08,0-.16.17-.13s.14.15.11.19-.16.05-.17.09S18.61,35.06,18.58,35Z"/><path class="cls-32" d="M18.37,35.41c-.1,0-.19.05-.15.2a.14.14,0,0,0,.23.09s.12-.19.09-.22S18.46,35.44,18.37,35.41Z"/><path class="cls-32" d="M18.61,35.27c0-.09.14-.11.23,0a.14.14,0,0,1,0,.23c-.05,0-.2,0-.22,0A.5.5,0,0,1,18.61,35.27Z"/><path class="cls-31" d="M19.79,33.84c-.07-.08,0-.19.13-.2a.14.14,0,0,1,.18.16c0,.05-.15.11-.14.16S19.86,33.9,19.79,33.84Z"/><path class="cls-31" d="M20.08,33.87c0-.1.14-.12.23,0a.14.14,0,0,1,0,.24c-.05,0-.17-.07-.2,0S20.05,34,20.08,33.87Z"/><path class="cls-31" d="M20,34.13c0-.1-.09-.16-.22-.08a.15.15,0,0,0,0,.24s.22,0,.24.08S20,34.23,20,34.13Z"/><path class="cls-31" d="M20.15,34.1c0-.1.14-.11.23,0s0,.24-.05.24-.17-.07-.2,0S20.12,34.19,20.15,34.1Z"/><path class="cls-31" d="M19.76,34c0-.1-.09-.16-.22-.07a.15.15,0,0,0,0,.24c.05,0,.19,0,.21,0S19.76,34.09,19.76,34Z"/><path class="cls-31" d="M20.1,34.35c.08-.07.18,0,.2.13a.16.16,0,0,1-.17.18c-.05,0-.17-.13-.16-.18S20,34.41,20.1,34.35Z"/><path class="cls-31" d="M19.83,34.31c0-.09-.17-.07-.22.08s.08.23.13.21.18-.09.19-.13S19.89,34.39,19.83,34.31Z"/><path class="cls-31" d="M19.21,34.37c0-.09-.16-.09-.23.05a.15.15,0,0,0,.08.23c.05,0,.16-.1.2-.08S19.25,34.46,19.21,34.37Z"/><path class="cls-31" d="M19.14,34.65c-.11,0-.16.09-.08.22a.14.14,0,0,0,.24,0s0-.18,0-.21S19.23,34.66,19.14,34.65Z"/><path class="cls-31" d="M19.4,34.7c-.1,0-.12-.14,0-.24a.16.16,0,0,1,.25,0c0,.05-.06.21,0,.25S19.49,34.72,19.4,34.7Z"/><path class="cls-32" d="M19.33,34.8c-.1,0-.16.09-.08.22a.15.15,0,0,0,.25,0c0-.05,0-.18,0-.21S19.42,34.81,19.33,34.8Z"/><path class="cls-32" d="M19.37,34.4c-.11,0-.12-.14,0-.24a.15.15,0,0,1,.24.06c0,.05-.08.17-.05.2S19.46,34.43,19.37,34.4Z"/><path class="cls-32" d="M19.57,34.84c-.09,0-.08.17.06.23s.23,0,.22-.09-.06-.2-.1-.21A.62.62,0,0,0,19.57,34.84Z"/><path class="cls-32" d="M19.63,34.58c-.06-.09,0-.19.16-.18a.16.16,0,0,1,.16.2s-.16.14-.2.12S19.69,34.66,19.63,34.58Z"/><path class="cls-31" d="M20.57,34.89c.08,0,.06-.14-.08-.2s-.22.05-.21.1.13.13.11.17S20.5,34.94,20.57,34.89Z"/><path class="cls-31" d="M20.29,34.86c0-.1-.12-.14-.24,0a.13.13,0,0,0,0,.23c.06,0,.19,0,.22,0S20.3,35,20.29,34.86Z"/><path class="cls-31" d="M20.29,35.11c0-.1.12-.13.23,0a.13.13,0,0,1,0,.22s-.21,0-.24,0S20.28,35.19,20.29,35.11Z"/><path class="cls-32" d="M20.18,35.05c0-.1-.13-.14-.26,0a.13.13,0,0,0,0,.24c.05,0,.2,0,.23,0S20.19,35.14,20.18,35.05Z"/><path class="cls-32" d="M20.57,35c0-.1.12-.12.22,0a.13.13,0,0,1,0,.21c-.05,0-.17,0-.2,0S20.57,35.12,20.57,35Z"/><path class="cls-32" d="M20.18,35.29c-.07-.08-.19-.06-.24.09a.14.14,0,0,0,.15.2c.05,0,.2-.1.19-.14S20.24,35.36,20.18,35.29Z"/><path class="cls-32" d="M20.46,35.3c.07-.07.17,0,.19.12a.14.14,0,0,1-.15.17c-.05,0-.17-.12-.17-.15S20.39,35.36,20.46,35.3Z"/><path class="cls-31" d="M17.6,35.81c-.08-.08,0-.21.15-.23a.18.18,0,0,1,.21.19s-.17.12-.16.18S17.68,35.89,17.6,35.81Z"/><path class="cls-31" d="M17.92,35.85c0-.12.17-.14.27,0a.16.16,0,0,1-.05.27c-.06,0-.2-.08-.24-.05S17.9,36,17.92,35.85Z"/><path class="cls-31" d="M17.88,36.15c0-.12-.11-.19-.26-.1a.17.17,0,0,0-.05.28c.05,0,.25,0,.27.08S17.86,36.25,17.88,36.15Z"/><path class="cls-32" d="M18,36.11c0-.11.17-.13.27,0a.16.16,0,0,1-.05.27c-.06,0-.2-.08-.24,0S18,36.21,18,36.11Z"/><path class="cls-32" d="M17.57,36c0-.12-.11-.19-.25-.09a.17.17,0,0,0-.05.28c.06,0,.21,0,.24,0S17.56,36.09,17.57,36Z"/><path class="cls-32" d="M18,36.39c.09-.08.21,0,.23.15s-.15.23-.2.2-.18-.15-.17-.2S17.87,36.46,18,36.39Z"/><path class="cls-32" d="M17.65,36.34c-.07-.1-.2-.07-.25.1a.16.16,0,0,0,.14.24c.06,0,.21-.1.21-.15S17.71,36.43,17.65,36.34Z"/><path class="cls-31" d="M18.86,36.33c-.09-.08,0-.21.14-.23a.18.18,0,0,1,.21.19c0,.05-.17.12-.16.18S18.93,36.41,18.86,36.33Z"/><path class="cls-31" d="M19.18,36.37c0-.12.16-.14.27,0a.17.17,0,0,1-.06.27c-.06,0-.19-.08-.23,0S19.15,36.47,19.18,36.37Z"/><path class="cls-31" d="M19.13,36.67c0-.12-.1-.19-.25-.1a.17.17,0,0,0-.06.28c.06,0,.25,0,.27.08S19.11,36.77,19.13,36.67Z"/><path class="cls-32" d="M19.26,36.63c0-.11.16-.13.27,0a.17.17,0,0,1-.06.27c-.06,0-.19-.08-.24,0S19.23,36.73,19.26,36.63Z"/><path class="cls-32" d="M18.82,36.51c0-.12-.1-.19-.25-.09a.17.17,0,0,0-.05.28c.06,0,.21,0,.24,0S18.81,36.61,18.82,36.51Z"/><path class="cls-32" d="M19.2,36.91c.09-.08.21,0,.23.15s-.14.23-.2.2-.18-.15-.17-.2S19.13,37,19.2,36.91Z"/><path class="cls-32" d="M18.9,36.86c-.06-.1-.2-.07-.25.1a.17.17,0,0,0,.14.24c.06,0,.22-.1.22-.15S19,37,18.9,36.86Z"/><path class="cls-31" d="M19.62,35.45c.06-.1,0-.22-.19-.2a.17.17,0,0,0-.17.23c0,.05.2.09.2.14S19.56,35.54,19.62,35.45Z"/><path class="cls-31" d="M19.31,35.55c0-.1-.19-.09-.26.07a.16.16,0,0,0,.12.25s.17-.12.21-.09S19.36,35.65,19.31,35.55Z"/><path class="cls-31" d="M19.42,35.83c0-.11.06-.2.23-.14a.16.16,0,0,1,.11.25s-.23.09-.25.14S19.46,35.93,19.42,35.83Z"/><path class="cls-32" d="M19.29,35.83c-.05-.11-.19-.1-.26.06a.17.17,0,0,0,.12.26c.05,0,.17-.13.21-.1S19.34,35.92,19.29,35.83Z"/><path class="cls-32" d="M19.69,35.61c0-.11.06-.2.23-.14s.15.23.1.26-.21,0-.22.09S19.72,35.71,19.69,35.61Z"/><path class="cls-32" d="M19.4,36.08c-.1-.06-.21,0-.18.2a.17.17,0,0,0,.23.16s.15-.19.13-.23S19.49,36.14,19.4,36.08Z"/><path class="cls-32" d="M19.69,36c0-.12.17-.12.26,0s0,.27-.08.27a.47.47,0,0,1-.25-.1S19.65,36.07,19.69,36Z"/><path class="cls-31" d="M18.9,33.65c0-.06,0-.14-.12-.12a.11.11,0,0,0-.11.15s.12,0,.12.09S18.86,33.71,18.9,33.65Z"/><path class="cls-31" d="M18.7,33.72c0-.07-.12-.06-.17,0s0,.18.08.17.11-.08.14-.06S18.73,33.78,18.7,33.72Z"/><path class="cls-31" d="M18.77,33.9c0-.07,0-.13.15-.09A.11.11,0,0,1,19,34s-.15.05-.16.09S18.8,34,18.77,33.9Z"/><path class="cls-31" d="M18.69,33.9c0-.07-.13-.06-.17,0s0,.17.07.17.11-.08.14-.06S18.72,34,18.69,33.9Z"/><path class="cls-31" d="M18.94,33.76c0-.07,0-.13.15-.09a.11.11,0,0,1,.07.17s-.13,0-.14.06S19,33.83,18.94,33.76Z"/><path class="cls-31" d="M18.76,34.07c-.07,0-.14,0-.12.12a.11.11,0,0,0,.15.11s.09-.13.08-.15S18.82,34.1,18.76,34.07Z"/><path class="cls-31" d="M18.94,34c0-.08.12-.08.18,0a.12.12,0,0,1-.06.18s-.15,0-.16-.07A.58.58,0,0,1,18.94,34Z"/><path class="cls-32" d="M16.6,36.54c0-.11-.18-.11-.26.05a.17.17,0,0,0,.1.26c.06,0,.18-.11.22-.08S16.65,36.63,16.6,36.54Z"/><path class="cls-32" d="M16.52,36.85c-.11,0-.18.1-.09.25a.17.17,0,0,0,.28,0s0-.21,0-.24S16.63,36.86,16.52,36.85Z"/><path class="cls-32" d="M16.82,36.91c-.11,0-.14-.16,0-.27a.18.18,0,0,1,.28,0c0,.06-.06.24,0,.28S16.92,36.94,16.82,36.91Z"/><path class="cls-32" d="M16.74,37c-.12,0-.18.1-.09.25a.17.17,0,0,0,.28,0s0-.21,0-.24S16.85,37,16.74,37Z"/><path class="cls-32" d="M16.78,36.57c-.11,0-.13-.17,0-.27a.18.18,0,0,1,.28.06c0,.06-.09.19-.05.23S16.88,36.6,16.78,36.57Z"/><path class="cls-32" d="M17,37.07c-.11,0-.1.19.06.26a.17.17,0,0,0,.26-.11s-.08-.22-.13-.23S17.11,37,17,37.07Z"/><path class="cls-32" d="M17.08,36.77c-.06-.1,0-.21.19-.2a.17.17,0,0,1,.17.22c0,.05-.18.16-.22.15S17.15,36.86,17.08,36.77Z"/><path class="cls-31" d="M18.25,37c0-.1,0-.18-.21-.15s-.18.18-.14.22.2,0,.21.1S18.2,37.11,18.25,37Z"/><path class="cls-31" d="M18,37.16c-.07-.09-.21-.06-.27.1a.15.15,0,0,0,.14.22c.06,0,.17-.14.22-.12S18,37.24,18,37.16Z"/><path class="cls-31" d="M18.1,37.4c-.06-.1,0-.19.21-.17s.17.18.13.22-.21.12-.22.17S18.15,37.49,18.1,37.4Z"/><path class="cls-31" d="M18,37.41c-.07-.09-.21,0-.27.11a.16.16,0,0,0,.15.24c.06,0,.17-.16.22-.14S18,37.5,18,37.41Z"/><path class="cls-31" d="M18.33,37.16c0-.09,0-.18.2-.15a.15.15,0,0,1,.13.21s-.19.06-.2.11S18.38,37.25,18.33,37.16Z"/><path class="cls-31" d="M18.1,37.64c-.11,0-.22.06-.17.23a.16.16,0,0,0,.26.11s.13-.22.11-.26A.88.88,0,0,0,18.1,37.64Z"/><path class="cls-31" d="M18.38,37.49c0-.11.15-.13.26,0a.16.16,0,0,1-.05.26c-.06,0-.23,0-.25-.05S18.35,37.59,18.38,37.49Z"/><path class="cls-31" d="M17.6,36.49c0-.1,0-.18-.2-.15s-.19.18-.15.22.21,0,.21.1S17.55,36.57,17.6,36.49Z"/><path class="cls-31" d="M17.31,36.62c-.07-.09-.21-.06-.27.1a.15.15,0,0,0,.15.22c.06,0,.16-.14.22-.13S17.37,36.7,17.31,36.62Z"/><path class="cls-31" d="M17.45,36.86c-.05-.1,0-.19.21-.17s.18.17.14.22-.22.12-.23.17S17.5,37,17.45,36.86Z"/><path class="cls-32" d="M17.32,36.87c-.07-.09-.21,0-.28.11s.09.25.15.23.17-.15.22-.13S17.38,37,17.32,36.87Z"/><path class="cls-32" d="M17.69,36.62c-.05-.09,0-.18.19-.15s.17.17.13.21-.19.06-.19.11S17.73,36.7,17.69,36.62Z"/><path class="cls-32" d="M17.46,37.1c-.12,0-.22.06-.18.23a.17.17,0,0,0,.27.11s.13-.22.1-.26S17.56,37.14,17.46,37.1Z"/><path class="cls-32" d="M17.73,37c0-.11.16-.13.26,0a.17.17,0,0,1,0,.26c-.06,0-.24,0-.25-.05S17.71,37.05,17.73,37Z"/><path class="cls-31" d="M21.15,35c-.09-.08,0-.21.14-.23a.17.17,0,0,1,.21.19c0,.05-.17.13-.16.18S21.22,35.09,21.15,35Z"/><path class="cls-31" d="M21.47,35.05c0-.11.16-.13.27,0a.17.17,0,0,1-.06.27c-.06,0-.19-.08-.23,0S21.44,35.15,21.47,35.05Z"/><path class="cls-31" d="M21.42,35.35c0-.12-.1-.19-.25-.09s-.11.24-.05.27.24,0,.27.08S21.41,35.46,21.42,35.35Z"/><path class="cls-31" d="M21.55,35.31c0-.11.16-.13.27,0a.18.18,0,0,1-.06.28c-.06,0-.19-.09-.23-.05S21.52,35.42,21.55,35.31Z"/><path class="cls-31" d="M21.12,35.19c0-.12-.11-.18-.26-.09a.17.17,0,0,0,0,.28c.05,0,.21,0,.23,0S21.11,35.3,21.12,35.19Z"/><path class="cls-31" d="M21.5,35.59c.08-.08.21,0,.22.15s-.14.23-.19.2-.19-.15-.18-.19S21.42,35.66,21.5,35.59Z"/><path class="cls-31" d="M21.19,35.55c-.06-.1-.19-.08-.25.09s.09.26.15.24.21-.1.21-.15S21.25,35.63,21.19,35.55Z"/><path class="cls-31" d="M20.08,36.13c0-.11-.19-.11-.27,0s0,.27.1.26.18-.11.22-.08S20.12,36.23,20.08,36.13Z"/><path class="cls-31" d="M20,36.44c-.12,0-.19.11-.09.26a.16.16,0,0,0,.27,0c0-.05,0-.21,0-.23S20.1,36.45,20,36.44Z"/><path class="cls-31" d="M20.29,36.51c-.11,0-.13-.17,0-.28a.17.17,0,0,1,.27.06c0,.05-.06.24,0,.28S20.4,36.53,20.29,36.51Z"/><path class="cls-32" d="M20.21,36.61c-.12,0-.18.11-.09.26a.17.17,0,0,0,.28,0s0-.21,0-.23S20.32,36.62,20.21,36.61Z"/><path class="cls-32" d="M20.25,36.16c-.11,0-.13-.16,0-.27a.17.17,0,0,1,.27.06c0,.06-.09.2-.05.24S20.36,36.19,20.25,36.16Z"/><path class="cls-32" d="M20.49,36.66c-.11.05-.1.19.06.27a.17.17,0,0,0,.26-.11c0-.06-.08-.23-.12-.24S20.59,36.62,20.49,36.66Z"/><path class="cls-32" d="M20.56,36.36c-.07-.09,0-.21.18-.2a.17.17,0,0,1,.17.22s-.17.17-.22.15S20.62,36.45,20.56,36.36Z"/><path class="cls-32" d="M21.61,36c.09,0,.06-.17-.1-.23s-.25.06-.23.11.14.15.12.2S21.53,36,21.61,36Z"/><path class="cls-32" d="M21.29,35.94c0-.11-.14-.16-.28-.06a.15.15,0,0,0,0,.27c.06,0,.22,0,.25,0S21.3,36,21.29,35.94Z"/><path class="cls-32" d="M21.29,36.22c0-.11.13-.14.26,0s.06.24,0,.25-.24,0-.28,0S21.28,36.32,21.29,36.22Z"/><path class="cls-32" d="M21.16,36.16c0-.11-.14-.16-.29,0a.15.15,0,0,0,0,.27c.06,0,.22,0,.26,0S21.17,36.26,21.16,36.16Z"/><path class="cls-32" d="M21.61,36.14c0-.1.13-.13.25,0a.15.15,0,0,1,0,.25c-.05,0-.18,0-.22,0S21.6,36.24,21.61,36.14Z"/><path class="cls-32" d="M21.16,36.43c-.07-.1-.22-.07-.27.1a.17.17,0,0,0,.17.23c.06,0,.22-.11.22-.16S21.23,36.51,21.16,36.43Z"/><path class="cls-32" d="M21.48,36.44c.08-.07.2,0,.22.13a.16.16,0,0,1-.18.2c-.05,0-.19-.13-.18-.18S21.4,36.51,21.48,36.44Z"/><path class="cls-32" d="M20.26,37c.06-.13-.06-.24-.29-.18s-.23.26-.18.3.28.06.29.13S20.2,37.16,20.26,37Z"/><path class="cls-32" d="M19.87,37.24c-.09-.12-.28-.07-.35.15a.21.21,0,0,0,.21.3c.08,0,.22-.21.29-.19S20,37.34,19.87,37.24Z"/><path class="cls-32" d="M20.08,37.56c-.08-.13,0-.27.27-.25s.25.23.2.29-.28.17-.29.24S20.15,37.67,20.08,37.56Z"/><path class="cls-32" d="M19.9,37.58c-.1-.11-.29-.06-.36.17s.13.33.21.3.22-.22.3-.2S20,37.69,19.9,37.58Z"/><path class="cls-32" d="M20.38,37.22c-.07-.13,0-.25.26-.22a.21.21,0,0,1,.19.28s-.25.09-.26.16S20.45,37.33,20.38,37.22Z"/><path class="cls-32" d="M20.11,37.88c-.16,0-.3.1-.23.33a.23.23,0,0,0,.37.12c.06-.07.16-.3.12-.35S20.25,37.92,20.11,37.88Z"/><path class="cls-32" d="M20.47,37.66c0-.15.2-.19.35,0a.22.22,0,0,1-.05.36c-.07,0-.31,0-.34,0A.61.61,0,0,1,20.47,37.66Z"/><path class="cls-32" d="M19.15,37.52c.12-.08.07-.24-.16-.3s-.33.11-.3.18.21.18.19.25S19.05,37.6,19.15,37.52Z"/><path class="cls-32" d="M18.72,37.5c0-.14-.21-.19-.38,0a.2.2,0,0,0,0,.36c.08,0,.29-.07.34,0S18.75,37.64,18.72,37.5Z"/><path class="cls-32" d="M18.75,37.88c0-.15.16-.21.35-.07s.11.31,0,.34-.34,0-.38.07S18.75,38,18.75,37.88Z"/><path class="cls-32" d="M18.57,37.82c0-.15-.21-.2-.4,0a.22.22,0,0,0,0,.38c.08,0,.3-.09.35,0S18.6,38,18.57,37.82Z"/><path class="cls-32" d="M19.18,37.74c0-.15.15-.2.33-.06a.19.19,0,0,1,0,.33c-.07,0-.26,0-.3,0S19.18,37.86,19.18,37.74Z"/><path class="cls-32" d="M18.78,38c-.11-.12-.3-.07-.35.16a.23.23,0,0,0,.25.3c.08,0,.29-.18.28-.24S18.88,38.13,18.78,38Z"/><path class="cls-32" d="M19,38.16c.1-.11.27-.07.32.14a.22.22,0,0,1-.21.29c-.08,0-.28-.15-.27-.21S18.94,38.26,19,38.16Z"/><path class="cls-18" d="M12.65,32.29c-1.62,0-2.93.71-2.93,1.6L10.21,38c0,.73,1.09,1.33,2.44,1.33s2.43-.6,2.43-1.33l.49-4.15C15.57,33,14.26,32.29,12.65,32.29Z"/><ellipse class="cls-19" cx="12.65" cy="33.9" rx="2.42" ry="1.32"/><path class="cls-4" d="M66.79,45.11c-1.62,0-2.93.71-2.93,1.6l.5,4.15c0,.73,1.09,1.33,2.43,1.33s2.44-.6,2.44-1.33l.49-4.15C69.72,45.82,68.41,45.11,66.79,45.11Z"/><ellipse class="cls-19" cx="66.79" cy="46.72" rx="2.42" ry="1.32"/><path class="cls-33" d="M63.74,45.66c.25-.19,1.64,1.2,2.37,1.07s0,.88-.51.88A2.35,2.35,0,0,1,63.74,45.66Z"/><path class="cls-33" d="M64.59,44.36S65.34,46,66,46.24s-.36.69-.78.46A2,2,0,0,1,64.59,44.36Z"/><path class="cls-33" d="M69.26,44.55S68,45.87,67.35,45.88s.12.77.6.69A2,2,0,0,0,69.26,44.55Z"/><path class="cls-33" d="M70,45.88a3.49,3.49,0,0,1-2.47.8c-.71-.22-.13.86.4.93S70,47,70,45.88Z"/><path class="cls-33" d="M66.74,44.1s.11.48.35.54-.08.5-.28.31A.77.77,0,0,1,66.74,44.1Z"/><path class="cls-33" d="M67.83,44.29s-.28.41-.53.38-.1.5.16.4A.78.78,0,0,0,67.83,44.29Z"/><path class="cls-33" d="M67.4,44s-.47.4-.42.61.36.35.38.25S67.61,44.34,67.4,44Z"/><path class="cls-33" d="M68.18,44.48s-.5.74-1.1.76,0,.83.55.59A1,1,0,0,0,68.18,44.48Z"/><path class="cls-33" d="M65.47,44.48s.49.74,1.09.76,0,.83-.55.59A1,1,0,0,1,65.47,44.48Z"/><path class="cls-33" d="M66.29,44.28s1,.77.75,1.09-1,.47-1,.3S65.64,44.75,66.29,44.28Z"/><path class="cls-33" d="M66.92,47h-.21A7.94,7.94,0,0,1,67,44.75l.19.1A7.7,7.7,0,0,0,66.92,47Z"/><path class="cls-34" d="M66,45.22s-.54.32-.49.56a.69.69,0,0,0,.56.49A1.27,1.27,0,0,0,66.8,46C66.87,45.84,66.09,45.43,66,45.22Z"/><path class="cls-34" d="M67.57,45.09s.54.32.5.56a.69.69,0,0,1-.56.48,1.15,1.15,0,0,1-.71-.31C66.73,45.71,67.51,45.3,67.57,45.09Z"/><path class="cls-34" d="M65.26,45.63s-.74.65-.59,1a1.07,1.07,0,0,0,1,.52,2,2,0,0,0,1-.71C66.8,46.25,65.44,45.91,65.26,45.63Z"/><path class="cls-34" d="M68.34,45.72s.81.52.7.82a1.06,1.06,0,0,1-1,.52A2.12,2.12,0,0,1,67,46.49C66.88,46.34,68.2,46,68.34,45.72Z"/><path class="cls-35" d="M66.82,46.18s-1.41.81-1.46,1.08.5.65,1.06.67,1.69,0,1.8-.24S67.63,46.42,66.82,46.18Z"/><path class="cls-36" d="M111.69,61h0l-.72-.34a.07.07,0,0,1,0-.09s0-.05.09,0l.71.34s.05.05,0,.09A.09.09,0,0,1,111.69,61Zm-1.44-.68h0L109.5,60a.06.06,0,0,1,0-.09s0,0,.09,0l.72.34a.08.08,0,0,1,0,.09A.06.06,0,0,1,110.25,60.35Zm-1.44-.68h0l-.72-.34a.06.06,0,0,1,0-.09s0,0,.09,0l.72.34a.08.08,0,0,1,0,.09A.08.08,0,0,1,108.81,59.67ZM107.37,59h0l-.72-.34a.07.07,0,0,1,0-.09.07.07,0,0,1,.09,0l.72.34a.08.08,0,0,1,0,.09A.08.08,0,0,1,107.37,59Zm-1.44-.69h0l-.72-.34a.08.08,0,0,1,0-.09.07.07,0,0,1,.09,0l.72.34a.06.06,0,0,1,0,.09A.06.06,0,0,1,105.93,58.3Zm-1.44-.68h0l-.72-.35a.06.06,0,0,1,0-.08.07.07,0,0,1,.09,0l.72.35a.06.06,0,0,1,0,.12Zm-1.44-.68h0l-.72-.34s0-.05,0-.09a.08.08,0,0,1,.09,0l.72.34a.07.07,0,0,1,0,.09A.05.05,0,0,1,103.05,56.94Zm-1.44-.68h0l-.72-.34a.07.07,0,0,1,0-.09.07.07,0,0,1,.09,0l.72.34a.06.06,0,0,1,0,.09A.07.07,0,0,1,101.61,56.26Zm-1.43-.68h0l-.72-.34a.06.06,0,0,1,0-.09.06.06,0,0,1,.08,0l.72.34a.06.06,0,0,1,0,.09A.07.07,0,0,1,100.18,55.58Zm-1.44-.69h0L98,54.55a.07.07,0,0,1,0-.09s.05-.05.09,0l.71.34s0,0,0,.09A.09.09,0,0,1,98.74,54.89Zm-1.44-.68h0l-.72-.35a.06.06,0,0,1,0-.08s0-.05.09,0l.72.35a.06.06,0,0,1,0,.08A.06.06,0,0,1,97.3,54.21Zm-1.44-.68h0l-.72-.34a.06.06,0,0,1,0-.09s0,0,.09,0l.72.34a.08.08,0,0,1,0,.09A.06.06,0,0,1,95.86,53.53Zm-1.44-.68h0l-.72-.34a.07.07,0,0,1,.06-.12l.72.34a.07.07,0,0,1,0,.09A.08.08,0,0,1,94.42,52.85Z"/><path class="cls-36" d="M110.1,61.93h0l-.72-.34a.07.07,0,0,1,0-.09.06.06,0,0,1,.09,0l.72.34s.05,0,0,.09A.06.06,0,0,1,110.1,61.93Zm-1.43-.68h0l-.72-.35a.05.05,0,0,1,0-.08.06.06,0,0,1,.08,0l.72.35a.06.06,0,0,1,0,.08A.07.07,0,0,1,108.67,61.25Zm-1.44-.68h0l-.72-.34a.06.06,0,0,1,0-.09s0,0,.09,0l.71.34a.07.07,0,0,1,0,.09A.06.06,0,0,1,107.23,60.57Zm-1.44-.68h0l-.72-.34a.07.07,0,0,1,0-.09.06.06,0,0,1,.09,0l.72.34a.08.08,0,0,1,0,.09A.08.08,0,0,1,105.79,59.89Zm-1.44-.68h0l-.72-.34a.07.07,0,0,1,0-.09.06.06,0,0,1,.09,0l.72.34s0,.05,0,.09A.08.08,0,0,1,104.35,59.21Zm-1.44-.69h0l-.72-.34a.07.07,0,0,1,0-.09.06.06,0,0,1,.09,0l.72.34a.06.06,0,0,1,0,.09A.07.07,0,0,1,102.91,58.52Zm-1.44-.68h0l-.72-.34s0-.05,0-.09a.08.08,0,0,1,.09,0l.72.34a.07.07,0,0,1,0,.09A.05.05,0,0,1,101.47,57.84ZM100,57.16h0l-.72-.34s0-.05,0-.09a.08.08,0,0,1,.09,0l.72.34a.07.07,0,0,1,0,.09A.07.07,0,0,1,100,57.16Zm-1.44-.68h0l-.71-.34a.07.07,0,0,1,0-.09.07.07,0,0,1,.09,0l.72.34a.07.07,0,0,1,0,.09A.07.07,0,0,1,98.59,56.48Zm-1.44-.69h0l-.72-.34a.07.07,0,0,1,0-.09.07.07,0,0,1,.09,0l.72.34s0,0,0,.09A.06.06,0,0,1,97.15,55.79Zm-1.43-.68h0L95,54.76a.05.05,0,0,1,0-.08.06.06,0,0,1,.08,0l.72.35a.06.06,0,0,1,0,.08A.07.07,0,0,1,95.72,55.11Zm-1.44-.68h0l-.72-.34a.06.06,0,0,1,0-.09s0,0,.09,0l.72.34a.08.08,0,0,1,0,.09A.06.06,0,0,1,94.28,54.43Zm-1.44-.68h0l-.72-.34a.07.07,0,0,1,0-.09.06.06,0,0,1,.09,0l.72.34a.08.08,0,0,1,0,.09A.08.08,0,0,1,92.84,53.75Z"/><path class="cls-36" d="M105.84,61.73h0l-.72-.34a.06.06,0,0,1,0-.09s0,0,.09,0l.72.34a.08.08,0,0,1,0,.09A.06.06,0,0,1,105.84,61.73Zm-1.44-.68h0l-.72-.34a.07.07,0,0,1,0-.09.07.07,0,0,1,.09,0l.72.34a.07.07,0,0,1,0,.09A.08.08,0,0,1,104.4,61.05ZM103,60.37h0l-.72-.34a.08.08,0,0,1,0-.09.07.07,0,0,1,.09,0l.72.34a.06.06,0,0,1,0,.09A.07.07,0,0,1,103,60.37Zm-1.44-.69h0l-.72-.34a.08.08,0,0,1,0-.09.06.06,0,0,1,.09,0l.72.34a.06.06,0,0,1,0,.09A.06.06,0,0,1,101.52,59.68ZM100.08,59h0l-.71-.34a.06.06,0,0,1,0-.08.07.07,0,0,1,.09,0l.72.34a.07.07,0,0,1,0,.09A.05.05,0,0,1,100.08,59Zm-1.44-.68h0L97.9,58s-.05,0,0-.09a.08.08,0,0,1,.09,0l.72.34a.06.06,0,0,1,0,.09A.05.05,0,0,1,98.64,58.32Zm-1.43-.68h0l-.72-.34a.06.06,0,0,1,0-.09.06.06,0,0,1,.08,0l.72.34a.07.07,0,0,1,0,.09S97.23,57.64,97.21,57.64ZM95.77,57h0L95,56.61a.07.07,0,0,1,0-.09.06.06,0,0,1,.09,0l.72.34s0,.05,0,.09A.07.07,0,0,1,95.77,57Zm-1.44-.68h0l-.72-.34a.07.07,0,0,1,0-.09s0-.05.09,0l.72.34a.06.06,0,0,1,0,.08A.06.06,0,0,1,94.33,56.27Zm-1.44-.68h0l-.72-.34a.06.06,0,0,1,0-.09s0,0,.09,0l.72.34a.08.08,0,0,1,0,.09A.06.06,0,0,1,92.89,55.59Z"/><path class="cls-36" d="M104.51,63h0l-.72-.34a.07.07,0,0,1,.06-.12l.72.34a.08.08,0,0,1,0,.09A.08.08,0,0,1,104.51,63Z"/><path class="cls-36" d="M103.07,62.28h0l-.72-.34a.07.07,0,0,1,0-.09.07.07,0,0,1,.09,0l.72.34a.08.08,0,0,1,0,.09A.08.08,0,0,1,103.07,62.28Z"/><path class="cls-36" d="M101.63,61.59h0l-.72-.34a.08.08,0,0,1,0-.09.06.06,0,0,1,.09,0l.72.34a.06.06,0,0,1,0,.09A.06.06,0,0,1,101.63,61.59Z"/><path class="cls-36" d="M103.35,64.28h0l-.72-.34a.08.08,0,0,1,0-.09.07.07,0,0,1,.09,0l.72.34a.07.07,0,0,1,0,.09A.07.07,0,0,1,103.35,64.28Z"/><path class="cls-36" d="M101.91,63.59h0l-.72-.34a.08.08,0,0,1,0-.09.07.07,0,0,1,.09,0l.72.34a.06.06,0,0,1,0,.09A.06.06,0,0,1,101.91,63.59Z"/><path class="cls-36" d="M100.47,62.91h0l-.72-.35a.06.06,0,0,1,0-.08.06.06,0,0,1,.09,0l.72.34a.05.05,0,0,1,0,.08A.05.05,0,0,1,100.47,62.91Z"/><path class="cls-36" d="M100.19,60.91h0l-.72-.35a.06.06,0,0,1,0-.08.07.07,0,0,1,.09,0l.72.35a.06.06,0,0,1,0,.12Z"/><path class="cls-36" d="M98.75,60.23h0L98,59.88s0-.05,0-.09a.08.08,0,0,1,.09,0l.72.34a.07.07,0,0,1,0,.09A.05.05,0,0,1,98.75,60.23Z"/><path class="cls-36" d="M97.31,59.55h0l-.72-.34a.07.07,0,0,1,0-.09.07.07,0,0,1,.09,0l.72.34a.07.07,0,0,1,0,.09A.07.07,0,0,1,97.31,59.55Z"/><path class="cls-36" d="M95.87,58.87h0l-.72-.34a.06.06,0,0,1,0-.09.06.06,0,0,1,.08,0l.72.34s0,0,0,.09A.07.07,0,0,1,95.87,58.87Z"/><path class="cls-36" d="M94.44,58.18h0l-.72-.34a.07.07,0,0,1,0-.09.05.05,0,0,1,.08,0l.72.34s.05,0,0,.09A.09.09,0,0,1,94.44,58.18Z"/><path class="cls-36" d="M93,57.5h0l-.72-.34a.06.06,0,0,1,0-.08s0,0,.09,0l.72.35a.06.06,0,0,1,0,.08A.06.06,0,0,1,93,57.5Z"/><path class="cls-36" d="M91.56,56.82h0l-.72-.34a.06.06,0,0,1,0-.09s0,0,.09,0l.72.34a.08.08,0,0,1,0,.09A.06.06,0,0,1,91.56,56.82Z"/><path class="cls-36" d="M89.69,57.78h0l-.72-.34a.08.08,0,0,1,0-.09.07.07,0,0,1,.09,0l.72.34a.06.06,0,0,1,0,.09A.07.07,0,0,1,89.69,57.78Z"/><path class="cls-36" d="M88.25,57.09h0l-.71-.34a.07.07,0,0,1,0-.09.06.06,0,0,1,.09,0l.72.34a.06.06,0,0,1,0,.09A.06.06,0,0,1,88.25,57.09Z"/><path class="cls-36" d="M90.12,56.1h0l-1.36-.65a.05.05,0,0,1,0-.08.06.06,0,0,1,.08,0l1.36.65s0,.05,0,.09S90.14,56.1,90.12,56.1Z"/><path class="cls-36" d="M91.32,54.87h0l-1.36-.65a.06.06,0,0,1,0-.09.08.08,0,0,1,.09,0l1.36.65s0,0,0,.09A.07.07,0,0,1,91.32,54.87Z"/><path class="cls-36" d="M106.58,64h0l-1.36-.64a.08.08,0,0,1,0-.09.07.07,0,0,1,.09,0l1.36.64a.07.07,0,0,1,0,.09A.07.07,0,0,1,106.58,64Z"/><path class="cls-36" d="M108.17,62.9h0l-1.36-.64a.07.07,0,0,1,0-.09s0,0,.09,0l1.36.64a.08.08,0,0,1,0,.09A.08.08,0,0,1,108.17,62.9Z"/><path class="cls-36" d="M98.86,62.15h0l-8.15-3.87s-.05-.05,0-.09a.06.06,0,0,1,.08,0L98.89,62a.07.07,0,0,1,0,.09A.07.07,0,0,1,98.86,62.15Z"/><path class="cls-5" d="M132.94,100.79c-1.2,0-2.17.53-2.17,1.18l.37,3.08c0,.54.8,1,1.8,1s1.81-.45,1.81-1l.36-3.08C135.11,101.32,134.14,100.79,132.94,100.79Z"/><ellipse class="cls-37" cx="132.94" cy="101.9" rx="1.18" ry="0.64"/><path class="cls-17" d="M132.89,102.45c-.32,0-.58-.11-.58-.43V91.19a.59.59,0,0,1,1.17,0V102C133.48,102.34,133.22,102.45,132.89,102.45Z"/><path class="cls-38" d="M132.72,100.88a.14.14,0,0,1-.15-.14V99.09a.15.15,0,0,1,.15-.15.15.15,0,0,1,.14.15v1.65A.14.14,0,0,1,132.72,100.88Z"/><path class="cls-38" d="M132.89,91.14c-.19,0-.35,0-.35-.22v-.27a.36.36,0,1,1,.71,0v.27C133.25,91.11,133.09,91.14,132.89,91.14Z"/></g></g></svg>