<?xml version="1.0" encoding="UTF-8"?><svg id="uuid-ab994495-e77a-4ec7-b2d7-91b603c496ac" xmlns="http://www.w3.org/2000/svg" viewBox="0 0 299.81 419.6"><g id="uuid-1be620d7-15bb-4dce-9b99-5861ea21a1fa"><g><rect x="12.78" y="363.19" width="121.42" height="9" transform="translate(-150.51 66.99) rotate(-25.38)" style="fill:#fdf9f8;"/><path d="m62.33,374.48c-.56,0-1.1-.32-1.36-.86-.35-.75-.04-1.64.71-2l23.91-11.34c.75-.36,1.64-.04,2,.71.35.75.04,1.64-.71,2l-23.91,11.34c-.21.1-.43.14-.64.14Z" style="fill:#f0ecea;"/><g><polygon points="120.13 341.17 19.28 389.03 19.28 335.77 120.13 287.91 120.13 341.17" style="fill:rgba(65,73,78,.14);"/><path d="m115.13,295.81v42.19l-90.85,43.12v-42.19l90.85-43.12m5-7.91l-100.85,47.86v53.26l100.85-47.86v-53.26h0Z" style="fill:#41494e;"/></g><path d="m119.13,103.66l-.4,237.58-107.02,50.79v-237.39l107.43-50.98m9.02-14.25l-12.88,6.11L7.85,146.52l-5.14,2.44v257.31l12.86-6.1,107.02-50.79,5.13-2.44v-5.68s.41-237.58.41-237.58l.02-14.26h0Z" style="fill:#f0eceb;"/><path d="m278.04,28.23v237.39l-137.28,65.16.4-237.58L278.04,28.23m9-14.23l-12.86,6.1-136.88,64.96-5.13,2.44v5.68s-.41,237.58-.41,237.58l-.02,14.26,12.88-6.11,137.28-65.16,5.14-2.44V14h0Z" style="fill:#f0eceb;"/><path d="m283.72,18.29v253.13l-139.89,66.39.43-253.34L283.72,18.29m9-14.23l-157.45,74.72-.46,273.28,157.91-74.94V4.05h0Z" style="fill:#fdf9f8;"/><rect x="12.78" y="294.37" width="121.42" height="9" transform="translate(-121.01 60.35) rotate(-25.38)" style="fill:#f0eceb;"/><rect x="12.78" y="300.25" width="121.42" height="9" transform="translate(-123.53 60.91) rotate(-25.38)" style="fill:#fdf9f8;"/><path d="m126.25,93.02l-.43,253.34-105.11,49.89v-253.13l105.54-50.09m9.02-14.25L11.71,137.42v273.06l123.1-58.42.46-273.28h0Z" style="fill:#fdf9f8;"/><path d="m139.83,340.59l.44-259.6c0-.53-.56-.89-1.04-.66l-7.82,3.71c-.25.12-.41.38-.42.66l-.46,269.4c0,.53.56.89,1.04.66l7.83-3.72c.25-.12.42-.38.42-.66v-9.79Z" style="fill:#f0ecea;"/><path d="m7.91,408.71v8.4c0,.77.8,1.28,1.5.95l287.26-136.34c.37-.17.6-.54.6-.95v-8.4c0-.77-.8-1.28-1.5-.95L8.51,407.76c-.37.17-.6.54-.6.95Z" style="fill:#f0ecea;"/><path d="m7.91,413.58v5.4c0,.45.47.75.88.56l290.67-137.96c.21-.1.35-.32.35-.56v-5.4c0-.45-.47-.75-.88-.56L8.26,413.02c-.21.1-.35.32-.35.56Z" style="fill:#fdf9f8;"/><g><rect x="248.11" y="32.4" width="14" height="282.76" style="fill:#f2e6dc;"/><rect x="254.66" y="29.62" width="14" height="282.76" style="fill:#f2e6dc;"/><rect x="261.21" y="26.85" width="14" height="282.76" style="fill:#f2e6dc;"/><rect x="267.76" y="24.07" width="14" height="282.76" style="fill:#f2e6dc;"/><rect x="274.31" y="21.3" width="14" height="282.76" style="fill:#f2e6dc;"/><rect x="280.86" y="18.52" width="14" height="282.76" style="fill:#f2e6dc;"/><rect x="260.16" y="32.4" width="3" height="282.76" style="fill:#f0ecea;"/><rect x="266.91" y="29.62" width="3" height="282.76" style="fill:#f0ecea;"/><rect x="273.66" y="26.85" width="3" height="282.76" style="fill:#f0ecea;"/><rect x="280.42" y="24.07" width="3" height="282.76" style="fill:#f0ecea;"/><rect x="287.17" y="21.3" width="3" height="282.76" style="fill:#f0ecea;"/><rect x="293.92" y="18.52" width="3" height="282.76" style="fill:#f0ecea;"/></g><path d="m0,141.31v11.98c0,3.19,3.33,5.29,6.21,3.93L294.79,20.26c1.52-.72,2.48-2.25,2.48-3.93V4.35c0-3.19-3.33-5.29-6.21-3.93L2.48,137.39c-1.52.72-2.48,2.25-2.48,3.93Z" style="fill:#fffbf9;"/></g></g></svg>