<?xml version="1.0" encoding="UTF-8"?><svg id="uuid-22dc6139-4958-46e6-8f37-3251e803e6d3" xmlns="http://www.w3.org/2000/svg" viewBox="0 0 619.35 345"><g id="uuid-2d48f3b1-1611-494c-a7c2-fcb82825c504"><path d="M385.8,278.53l-12.78-20.49-6.63,4.14,12.78,20.49h0c1.8,2.88,5.6,3.76,8.48,1.96l1.41-.88,24.85-15.51-3.26-5.22-24.85,15.51Z" style="fill:#224b63; stroke:#224b63; stroke-miterlimit:10;"/><path d="M349.29,237.15h0c12.9,0,23.37,10.47,23.37,23.37v82.07h-46.73v-82.07c0-12.9,10.47-23.37,23.37-23.37Z" style="fill:#224b63;"/><line x1="351.04" y1="285.35" x2="351" y2="333" style="fill:none; stroke:#fff; stroke-linecap:round; stroke-miterlimit:10; stroke-width:2px;"/><line x1="372" y1="256" x2="351" y2="285" style="fill:none; stroke:#fff; stroke-linecap:round; stroke-miterlimit:10; stroke-width:2px;"/><line x1="346.96" y1="285.35" x2="347" y2="333" style="fill:none; stroke:#fff; stroke-linecap:round; stroke-miterlimit:10; stroke-width:2px;"/><line x1="326" y1="256" x2="347" y2="285" style="fill:none; stroke:#fff; stroke-linecap:round; stroke-miterlimit:10; stroke-width:2px;"/><circle cx="348.72" cy="213.22" r="23.94" style="fill:#ffe2bf;"/><path d="M411.68,236.58h0c12.9,0,23.37,10.47,23.37,23.37v82.07h-46.73v-82.07c0-12.9,10.47-23.37,23.37-23.37Z" style="fill:#e8465a;"/><circle cx="411.11" cy="212.65" r="23.94" style="fill:#ffe2bf;"/><path d="M426.73,258.36c-1.7-1.7-4.45-1.7-6.15,0l-1.27,1.27-1.27-1.27c-1.7-1.7-4.45-1.7-6.15,0-1.7,1.7-1.7,4.45,0,6.15l7.42,7.42,7.42-7.42c1.7-1.7,1.7-4.45,0-6.15Z" style="fill:#fff;"/><path d="M101.17,30.32h0c8.13,0,14.74,6.6,14.74,14.74v85.42h-29.48V45.05c0-8.13,6.6-14.74,14.74-14.74Z" style="fill:#d8f0d3;"/><circle cx="100.81" cy="15.22" r="15.1" style="fill:#d8f0d3;"/><path d="M199.7,30.32h0c8.13,0,14.74,6.6,14.74,14.74v85.42h-29.48V45.05c0-8.13,6.6-14.74,14.74-14.74Z" style="fill:#d8f0d3;"/><circle cx="199.34" cy="15.22" r="15.1" style="fill:#d8f0d3;"/><path d="M67.88,31.22h0c8.41,0,15.24,6.83,15.24,15.24v83.8h-30.48V46.46c0-8.41,6.83-15.24,15.24-15.24Z" style="fill:#fac03d;"/><circle cx="67.51" cy="15.61" r="15.61" style="fill:#ffe2bf;"/><line x1="5.23" y1="147.62" x2="84.51" y2="147.62" style="fill:none; stroke:#d3d3d4; stroke-linecap:round; stroke-miterlimit:10; stroke-width:4px;"/><line x1="91.72" y1="135.24" x2="37.15" y2="135" style="fill:none; stroke:#d3d3d4; stroke-linecap:round; stroke-miterlimit:10; stroke-width:4px;"/><line x1="142.18" y1="135.6" x2="103.05" y2="135.48" style="fill:none; stroke:#d3d3d4; stroke-linecap:round; stroke-miterlimit:10; stroke-width:4px;"/><line x1="189.54" y1="135.6" x2="150.41" y2="135.48" style="fill:none; stroke:#d3d3d4; stroke-linecap:round; stroke-miterlimit:10; stroke-width:4px;"/><line x1="13.47" y1="140.89" x2="120.55" y2="140.89" style="fill:none; stroke:#d3d3d4; stroke-linecap:round; stroke-miterlimit:10; stroke-width:4px;"/><line x1="100.99" y1="147.62" x2="197.78" y2="147.62" style="fill:none; stroke:#d3d3d4; stroke-linecap:round; stroke-miterlimit:10; stroke-width:4px;"/><line x1="133.94" y1="140.89" x2="179.25" y2="140.89" style="fill:none; stroke:#d3d3d4; stroke-linecap:round; stroke-miterlimit:10; stroke-width:4px;"/><path d="M45.94,89.85v-32.56c0-6.72-5.45-12.16-12.16-12.16h0c-6.72,0-12.16,5.45-12.16,12.16v48.5h30.76v36.52h13.28v-48.47h0c0-2.2-1.78-3.98-3.98-3.98h-15.73Z" style="fill:#54c3f1;"/><path d="M167.03,89.85v-32.56c0-6.72,5.45-12.16,12.16-12.16h0c6.72,0,12.16,5.45,12.16,12.16v48.5h-5.53s-18.8,0-18.8,0h-6.43s0,36.52,0,36.52h-13.28v-36.52s0-11.95,0-11.95h0c0-2.2,1.78-3.98,3.98-3.98h15.73Z" style="fill:#e8465a;"/><line x1="143.33" y1="102.47" x2="110.14" y2="102.47" style="fill:none; stroke:#949495; stroke-linecap:round; stroke-miterlimit:10; stroke-width:7px;"/><line x1="139.02" y1="104.79" x2="114.45" y2="104.79" style="fill:none; stroke:#949495; stroke-linecap:round; stroke-miterlimit:10; stroke-width:7px;"/><line x1="125.41" y1="104.46" x2="125.41" y2="135" style="fill:none; stroke:#949495; stroke-linecap:round; stroke-miterlimit:10; stroke-width:4px;"/><line x1="117.44" y1="135.34" x2="133.04" y2="135.34" style="fill:none; stroke:#949495; stroke-linecap:round; stroke-miterlimit:10; stroke-width:4px;"/><circle cx="126.98" cy="18.29" r="15.89" style="fill:#bfdfb8;"/><path d="M127.35,34.18h0c8.56,0,15.51,6.95,15.51,15.51v50.78h-31.03v-50.78c0-8.56,6.95-15.51,15.51-15.51Z" style="fill:#bfdfb8;"/><circle cx="33.43" cy="28.91" r="15.89" style="fill:#ffe2bf;"/><line x1="20.56" y1="20.21" x2="45.92" y2="20.21" style="fill:none; stroke:#54c3f1; stroke-linecap:round; stroke-miterlimit:10; stroke-width:2px;"/><polygon points="35.26 46.32 45.2 67.51 38.39 64.86 40.28 59.63 35.74 61.08 35.26 46.32" style="fill:none; stroke:#fff; stroke-miterlimit:10;"/><line x1="15.85" y1="109.77" x2="49.05" y2="109.77" style="fill:none; stroke:#949495; stroke-linecap:round; stroke-miterlimit:10; stroke-width:7px;"/><line x1="20.17" y1="112.1" x2="44.73" y2="112.1" style="fill:none; stroke:#949495; stroke-linecap:round; stroke-miterlimit:10; stroke-width:7px;"/><line x1="29" y1="111.65" x2="29" y2="143" style="fill:none; stroke:#949495; stroke-linecap:round; stroke-miterlimit:10; stroke-width:4px;"/><line x1="41.75" y1="142.64" x2="26.14" y2="142.64" style="fill:none; stroke:#949495; stroke-linecap:round; stroke-miterlimit:10; stroke-width:4px;"/><rect x="112.79" y="93.84" width="11.95" height="44.49" style="fill:#bfdfb8;"/><rect x="130.05" y="93.84" width="11.95" height="44.49" style="fill:#bfdfb8;"/><circle cx="179.54" cy="28.91" r="15.89" style="fill:#ffe2bf;"/><line x1="197.12" y1="109.77" x2="163.92" y2="109.77" style="fill:none; stroke:#949495; stroke-linecap:round; stroke-miterlimit:10; stroke-width:7px;"/><line x1="192.8" y1="112.1" x2="168.23" y2="112.1" style="fill:none; stroke:#949495; stroke-linecap:round; stroke-miterlimit:10; stroke-width:7px;"/><line x1="179.19" y1="111.77" x2="179.19" y2="142.31" style="fill:none; stroke:#949495; stroke-linecap:round; stroke-miterlimit:10; stroke-width:4px;"/><line x1="171.22" y1="142.64" x2="186.82" y2="142.64" style="fill:none; stroke:#949495; stroke-linecap:round; stroke-miterlimit:10; stroke-width:4px;"/><ellipse cx="47.01" cy="19.91" rx="2.16" ry="5.01" style="fill:#ffe2bf; stroke:#54c3f1; stroke-miterlimit:10; stroke-width:6px;"/><path d="M177.98,58.51c-.84-.84-2.21-.84-3.05,0l-.63.63-.63-.63c-.84-.84-2.21-.84-3.05,0-.84.84-.84,2.21,0,3.05l3.68,3.68,3.68-3.68c.84-.84.84-2.21,0-3.05Z" style="fill:#fff;"/><g id="uuid-7db514cc-21a5-413b-baad-e01a8ad1c34c"><path d="M594.53,274.26c-3.26-14.87-24.03-24.6-24.03-24.6l-11.81-.14v-.05s-1.9.02-1.9.02l-1.9-.02v.05s-11.81.14-11.81.14c0,0-20.77,9.73-24.03,24.6-3.26,14.87-4.34,30.37-4.89,36.56h4.89s3.26-23.55,5.97-30.37c2.71-6.82,20.63-10.53,20.63-10.53,0,0,4.94,3.07,8.69,3.63v.09s0,0,1.08,0h3.8v-.09c3.75-.56,8.69-3.63,8.69-3.63,0,0,17.92,3.72,20.63,10.53,2.71,6.82,5.97,30.37,5.97,30.37h4.89c-.54-6.2-1.63-21.69-4.89-36.56Z" style="fill:#ededed;"/><path d="M515.15,307.43h3.87c2.14,0,3.88,1.74,3.88,3.88v11.62h-11.62v-11.62c0-2.14,1.74-3.88,3.88-3.88Z" style="fill:#ededed;"/><path d="M517.08,328.95c-1.99,0-3.6-1.61-3.6-3.6v-13.08c0-1.99,1.61-3.6,3.6-3.6s3.6,1.61,3.6,3.6v13.08c0,1.99-1.61,3.6-3.6,3.6Z" style="fill:#636363;"/><path d="M594.58,305.98h3.87c2.14,0,3.88,1.74,3.88,3.88v11.62h-11.62v-11.62c0-2.14,1.74-3.88,3.88-3.88Z" style="fill:#ededed;"/><path d="M596.51,327.5c-1.99,0-3.6-1.61-3.6-3.6v-13.08c0-1.99,1.61-3.6,3.6-3.6s3.6,1.61,3.6,3.6v13.08c0,1.99-1.61,3.6-3.6,3.6Z" style="fill:#636363;"/><path d="M508,291.29h96.95s0-24.89-10.48-28.17-46.51-15.07-52.4-11.14c-5.9,3.93-31.44,9.17-32.1,15.72s-1.97,23.58-1.97,23.58Z" style="fill:#5f82b3;"/><rect x="539.56" y="66.19" width="30.46" height="194.31" style="fill:#dedede;"/><path d="M568.19,154.04h-3.45v-3.93h3.45v3.93ZM562.11,154.04h-6.55v-3.93h6.55v3.93ZM552.94,154.04h-6.55v-3.93h6.55v3.93ZM543.77,154.04h-6.55v-3.93h6.55v3.93ZM534.6,154.04h-6.55v-3.93h6.55v3.93ZM525.43,154.04h-6.55v-3.93h6.55v3.93ZM516.26,154.04h-6.55v-3.93h6.55v3.93Z" style="fill:#3d3d3d;"/><path d="M601.69,154.04h-6.02v-3.93h6.02v3.93ZM593.04,154.04h-6.55v-3.93h6.55v3.93ZM583.87,154.04h-6.55v-3.93h6.55v3.93Z" style="fill:#3d3d3d;"/><rect x="504.23" y="5.28" width="100.51" height="74.31" rx="10.51" ry="10.51" style="fill:#8fccc5;"/><path d="M597.85,82.86h-86.73c-5.6,0-10.16-4.56-10.16-10.16V12.16c0-5.6,4.56-10.16,10.16-10.16h86.73c5.6,0,10.16,4.56,10.16,10.16v60.54c0,5.6-4.56,10.16-10.16,10.16ZM511.12,8.55c-1.99,0-3.61,1.62-3.61,3.61v60.54c0,1.99,1.62,3.61,3.61,3.61h86.73c1.99,0,3.61-1.62,3.61-3.61V12.16c0-1.99-1.62-3.61-3.61-3.61h-86.73Z" style="fill:#1a1a1a;"/><path d="M605.88,125.27h-102.08c-5.82,0-10.54-3.93-10.54-8.78l4.39-3.4h116.95l2.92,2.48c0,5.36-5.21,9.7-11.64,9.7Z" style="fill:#5f82b3;"/><path d="M501.18,125.27h109.03v12.61c0,4.81-3.9,8.71-8.71,8.71h-91.62c-4.81,0-8.71-3.9-8.71-8.71v-12.61h0Z" style="fill:#ededed;"/><rect x="529.2" y="158.17" width="50.56" height="18.27" style="fill:#ededed;"/><path d="M604.73,111.58c0-3.54-4.36-6.41-9.75-6.41s-9.75,2.87-9.75,6.41c0,.52.1,1.03.28,1.51h18.93c.18-.49.28-.99.28-1.51Z" style="fill:#ededed;"/><path d="M605.14,114.07h-20.3l-.24-.64c-.23-.62-.34-1.24-.34-1.85,0-4.14,4.71-7.39,10.73-7.39s10.73,3.25,10.73,7.39c0,.61-.12,1.23-.34,1.85l-.24.64ZM586.27,112.11h17.43c.03-.18.05-.35.05-.53,0-2.94-4.01-5.43-8.76-5.43s-8.76,2.48-8.76,5.43c0,.17.02.35.05.53Z" style="fill:#5f82b3;"/><path d="M603.82,155.89h-95.63c-1.27,0-2.29-1.03-2.29-2.29s1.03-2.29,2.29-2.29h95.63c1.27,0,2.29,1.03,2.29,2.29s-1.03,2.29-2.29,2.29Z" style="fill:#1a1a1a;"/><path d="M607.14,158.17h-107.09c-6.1,0-11.05-.98-11.05-2.2l4.6-.85h122.69l3.07.62c0,1.34-5.47,2.43-12.21,2.43Z" style="fill:#5f82b3;"/><rect x="508.19" y="173.7" width="93.81" height="32.28" style="fill:#5f82b3;"/><path d="M604.29,208.28h-98.39v-36.87h98.39v36.87ZM510.48,203.69h89.22v-27.7h-89.22v27.7Z" style="fill:#ededed;"/><rect x="542.39" y="183.86" width="25.55" height="4.59" style="fill:#3d3d3d;"/><path d="M606.85,270.66c-4.41-20.12-32.5-33.28-32.5-33.28l-15.97-.19v-.06s-2.57.03-2.57.03l-2.57-.03v.06s-15.97.19-15.97.19c0,0-28.09,13.16-32.5,33.28-4.41,20.12-5.87,41.07-6.61,49.45h6.61s4.41-31.85,8.08-41.07c3.67-9.22,27.9-14.25,27.9-14.25,0,0,6.68,4.16,11.75,4.91v.12s0,0,1.47,0h5.14v-.12c5.07-.76,11.75-4.91,11.75-4.91,0,0,24.23,5.03,27.9,14.25,3.67,9.22,8.08,41.07,8.08,41.07h6.61c-.73-8.38-2.2-29.34-6.61-49.45Z" style="fill:#ededed;"/><path d="M498.51,315.52h7.17c2.36,0,4.27,1.92,4.27,4.27v16.69h-15.72v-16.69c0-2.36,1.92-4.27,4.27-4.27Z" style="fill:#ededed;"/><path d="M502.1,345c-2.89,0-5.24-2.35-5.24-5.24v-17.69c0-2.89,2.35-5.24,5.24-5.24s5.24,2.35,5.24,5.24v17.69c0,2.89-2.35,5.24-5.24,5.24Z"/><path d="M605.94,313.56h7.17c2.36,0,4.27,1.92,4.27,4.27v16.69h-15.72v-16.69c0-2.36,1.92-4.27,4.27-4.27Z" style="fill:#ededed;"/><path d="M609.53,343.03c-2.89,0-5.24-2.35-5.24-5.24v-17.69c0-2.89,2.35-5.24,5.24-5.24s5.24,2.35,5.24,5.24v17.69c0,2.89-2.35,5.24-5.24,5.24Z"/></g><path d="M551.91,37h5.74c3.18,0,5.76,2.58,5.76,5.76v33.2h-17.27v-33.2c0-3.18,2.58-5.76,5.76-5.76Z" style="fill:#fac03d;"/><circle cx="554.58" cy="28.15" r="8.85" style="fill:#ffe2bf;"/><path d="M18.52,223.65H7.51c-3.04,0-5.51,2.47-5.51,5.51v105.48c0,3.04,2.47,5.51,5.51,5.51h30.85c3.04,0,5.51-2.47,5.51-5.51v-10.61" style="fill:none; stroke:#3d3d3d; stroke-linejoin:round; stroke-width:4px;"/><rect x="14.52" y="204" width="163.27" height="126.22" rx="6.82" ry="6.82" style="fill:#3d3d3d;"/><rect x="24.09" y="209.04" width="36.35" height="121.82" rx="2.96" ry="2.96" style="fill:#262626; stroke:#b0b0b0; stroke-miterlimit:10;"/><rect x="113.65" y="255.73" width="49.03" height="11.98" style="fill:#666;"/><rect x="114.74" y="276.43" width="15.25" height="2.91" style="fill:#b0b0b0;"/><rect x="118" y="270.76" width="11.98" height="1.02" style="fill:#b0b0b0;"/><rect x="132.17" y="270.76" width="11.98" height="1.02" style="fill:#b0b0b0;"/><rect x="146.33" y="270.76" width="11.98" height="1.02" style="fill:#b0b0b0;"/><rect x="114.74" y="285.24" width="15.25" height="2.91" style="fill:#b0b0b0;"/><rect x="114.74" y="294.04" width="15.25" height="2.91" style="fill:#b0b0b0;"/><rect x="114.74" y="302.85" width="15.25" height="2.91" style="fill:#b0b0b0;"/><rect x="111.47" y="215.42" width="15.25" height="3.66" rx=".32" ry=".32" style="fill:#b0b0b0;"/><rect x="111.47" y="225.42" width="15.25" height="3.66" rx=".32" ry=".32" style="fill:#b0b0b0;"/><rect x="111.47" y="235.43" width="15.25" height="3.66" rx=".32" ry=".32" style="fill:#b0b0b0;"/><rect x="70.65" y="262.22" width="6.38" height="3.66" rx=".32" ry=".32" style="fill:#b0b0b0;"/><rect x="73.2" y="300.48" width="6.38" height="3.66" rx=".32" ry=".32" style="fill:#b0b0b0;"/><rect x="73.2" y="292.41" width="6.38" height="3.66" rx=".32" ry=".32" style="fill:#b0b0b0;"/><rect x="73.2" y="284.33" width="6.38" height="3.66" rx=".32" ry=".32" style="fill:#b0b0b0;"/><rect x="73.2" y="276.25" width="6.38" height="3.66" rx=".32" ry=".32" style="fill:#b0b0b0;"/><rect x="84.68" y="300.48" width="6.38" height="3.66" rx=".32" ry=".32" style="fill:#b0b0b0;"/><rect x="84.68" y="292.41" width="6.38" height="3.66" rx=".32" ry=".32" style="fill:#b0b0b0;"/><rect x="84.68" y="284.33" width="6.38" height="3.66" rx=".32" ry=".32" style="fill:#b0b0b0;"/><rect x="84.68" y="276.25" width="6.38" height="3.66" rx=".32" ry=".32" style="fill:#b0b0b0;"/><rect x="96.16" y="300.48" width="6.38" height="3.66" rx=".32" ry=".32" style="fill:#b0b0b0;"/><rect x="96.16" y="292.41" width="6.38" height="3.66" rx=".32" ry=".32" style="fill:#b0b0b0;"/><rect x="96.16" y="284.33" width="6.38" height="3.66" rx=".32" ry=".32" style="fill:#b0b0b0;"/><rect x="96.16" y="276.25" width="6.38" height="3.66" rx=".32" ry=".32" style="fill:#b0b0b0;"/><rect x="91.06" y="262.22" width="15.25" height="3.66" rx=".32" ry=".32" style="fill:#b0b0b0;"/><rect x="73.2" y="310.69" width="29.34" height="3.66" rx=".32" ry=".32" style="fill:#b0b0b0;"/><rect x="111.47" y="245.44" width="15.25" height="3.66" rx=".32" ry=".32" style="fill:#b0b0b0;"/><rect x="129.99" y="215.42" width="15.25" height="3.66" rx=".32" ry=".32" style="fill:#b0b0b0;"/><rect x="129.99" y="225.42" width="15.25" height="3.66" rx=".32" ry=".32" style="fill:#b0b0b0;"/><rect x="129.99" y="235.43" width="15.25" height="3.66" rx=".32" ry=".32" style="fill:#b0b0b0;"/><rect x="129.99" y="245.44" width="15.25" height="3.66" rx=".32" ry=".32" style="fill:#b0b0b0;"/><rect x="148.51" y="215.42" width="15.25" height="3.66" rx=".32" ry=".32" style="fill:#b0b0b0;"/><rect x="148.51" y="225.42" width="15.25" height="3.66" rx=".32" ry=".32" style="fill:#b0b0b0;"/><rect x="148.51" y="235.43" width="15.25" height="3.66" rx=".32" ry=".32" style="fill:#b0b0b0;"/><rect x="148.51" y="245.44" width="15.25" height="3.66" rx=".32" ry=".32" style="fill:#b0b0b0;"/><rect x="114.74" y="311.66" width="15.25" height="2.91" style="fill:#b0b0b0;"/><rect x="147.42" y="276.43" width="15.25" height="2.91" style="fill:#b0b0b0;"/><rect x="147.42" y="285.24" width="15.25" height="2.91" style="fill:#b0b0b0;"/><rect x="147.42" y="294.04" width="15.25" height="2.91" style="fill:#b0b0b0;"/><rect x="147.42" y="302.85" width="15.25" height="2.91" style="fill:#b0b0b0;"/><rect x="147.42" y="311.66" width="15.25" height="2.91" style="fill:#b0b0b0;"/><rect x="132.17" y="279.7" width="11.98" height="34.87" style="fill:#666;"/><rect x="227" y="268" width="40" height="13" rx="3.97" ry="3.97" style="fill:#242424;"/><rect x="223" y="276" width="49" height="69" rx="5.45" ry="5.45" style="fill:#3d3d3d;"/><ellipse cx="248.24" cy="291.03" rx="9.71" ry="6.03" style="fill:#a1a1a1;"/><rect x="230.87" y="331.24" width="10.03" height="5.76" rx=".32" ry=".32" style="fill:#b0b0b0;"/><rect x="230.87" y="321.21" width="10.03" height="5.76" rx=".32" ry=".32" style="fill:#b0b0b0;"/><rect x="230.87" y="311.17" width="10.03" height="5.76" rx=".32" ry=".32" style="fill:#b0b0b0;"/><rect x="230.87" y="301.13" width="10.03" height="5.76" rx=".32" ry=".32" style="fill:#b0b0b0;"/><rect x="243.42" y="331.24" width="10.03" height="5.76" rx=".32" ry=".32" style="fill:#b0b0b0;"/><rect x="243.42" y="321.21" width="10.03" height="5.76" rx=".32" ry=".32" style="fill:#b0b0b0;"/><rect x="243.42" y="311.17" width="10.03" height="5.76" rx=".32" ry=".32" style="fill:#b0b0b0;"/><rect x="243.42" y="301.13" width="10.03" height="5.76" rx=".32" ry=".32" style="fill:#b0b0b0;"/><rect x="255.97" y="331.24" width="10.03" height="5.76" rx=".32" ry=".32" style="fill:#b0b0b0;"/><rect x="255.97" y="321.21" width="10.03" height="5.76" rx=".32" ry=".32" style="fill:#b0b0b0;"/><rect x="255.97" y="311.17" width="10.03" height="5.76" rx=".32" ry=".32" style="fill:#b0b0b0;"/><rect x="255.97" y="301.13" width="10.03" height="5.76" rx=".32" ry=".32" style="fill:#b0b0b0;"/><rect x="258.61" y="289" width="7.39" height="4.89" rx=".32" ry=".32" style="fill:#b0b0b0;"/><rect x="229.97" y="289" width="7.39" height="4.89" rx=".32" ry=".32" style="fill:#b0b0b0;"/><rect x="223" y="193" width="49" height="81" rx="5.45" ry="5.45" style="fill:#3d3d3d;"/><rect x="231" y="202" width="34" height="56" style="fill:#b1c6de;"/><line x1="237.65" y1="296.53" x2="258.83" y2="285.52" style="fill:none; stroke:#3d3d3d; stroke-miterlimit:10; stroke-width:2px;"/><line x1="259.18" y1="297.36" x2="237.76" y2="285.21" style="fill:none; stroke:#3d3d3d; stroke-miterlimit:10; stroke-width:2px;"/><ellipse cx="248.24" cy="291.03" rx="2.99" ry="3.44" style="fill:#b0b0b0; stroke:#3d3d3d; stroke-miterlimit:10; stroke-width:2px;"/><rect x="267.97" y="102.21" width="97.95" height="46.75" rx="7.73" ry="7.73" style="fill:#707070;"/><rect x="265" y="88.85" width="103.89" height="55.65" style="fill:#787878;"/><ellipse cx="299.88" cy="118.54" rx="25.23" ry="14.1" style="fill:#474747;"/><rect x="282.07" y="5.74" width="35.19" height="119.47" rx="7.36" ry="7.36" style="fill:#969696;"/><rect x="285.23" y="49.22" width="8.21" height="4.71" rx=".32" ry=".32" style="fill:#5c5c5c;"/><rect x="295.5" y="49.22" width="8.21" height="4.71" rx=".32" ry=".32" style="fill:#5c5c5c;"/><rect x="305.77" y="49.22" width="8.21" height="4.71" rx=".32" ry=".32" style="fill:#5c5c5c;"/><rect x="285.23" y="77.86" width="8.21" height="4.71" rx="1.06" ry="1.06" style="fill:#545454;"/><rect x="285.23" y="57.4" width="8.21" height="4.71" rx="1.06" ry="1.06" style="fill:#545454;"/><rect x="285.23" y="70.5" width="8.21" height="4.71" rx="1.06" ry="1.06" style="fill:#545454;"/><rect x="305.69" y="70.5" width="8.21" height="4.71" rx="1.06" ry="1.06" style="fill:#545454;"/><rect x="305.69" y="56.59" width="8.21" height="4.71" rx="1.06" ry="1.06" style="fill:#545454;"/><rect x="295.5" y="77.86" width="8.21" height="4.71" rx="1.06" ry="1.06" style="fill:#545454;"/><rect x="305.77" y="77.86" width="8.21" height="4.71" rx="1.06" ry="1.06" style="fill:#545454;"/><rect x="285.23" y="85.23" width="8.21" height="4.71" rx="1.06" ry="1.06" style="fill:#545454;"/><rect x="295.5" y="85.23" width="8.21" height="4.71" rx="1.06" ry="1.06" style="fill:#545454;"/><rect x="305.77" y="85.23" width="8.21" height="4.71" rx="1.06" ry="1.06" style="fill:#545454;"/><rect x="285.23" y="92.59" width="8.21" height="4.71" rx="1.06" ry="1.06" style="fill:#545454;"/><rect x="295.5" y="92.59" width="8.21" height="4.71" rx="1.06" ry="1.06" style="fill:#545454;"/><rect x="305.77" y="92.59" width="8.21" height="4.71" rx="1.06" ry="1.06" style="fill:#545454;"/><rect x="285.23" y="99.96" width="8.21" height="4.71" rx="1.06" ry="1.06" style="fill:#545454;"/><rect x="295.5" y="99.96" width="8.21" height="4.71" rx="1.06" ry="1.06" style="fill:#545454;"/><rect x="305.77" y="99.96" width="8.21" height="4.71" rx="1.06" ry="1.06" style="fill:#545454;"/><rect x="326.55" y="95.09" width="9.54" height="5.8" rx="2.71" ry="2.71" style="fill:#545454;"/><rect x="326.55" y="103.32" width="9.54" height="5.8" rx="2.71" ry="2.71" style="fill:#545454;"/><rect x="340.35" y="95.09" width="9.54" height="5.8" rx="2.71" ry="2.71" style="fill:#545454;"/><rect x="354.15" y="95.09" width="9.54" height="5.8" rx="2.71" ry="2.71" style="fill:#545454;"/><rect x="326.55" y="129.22" width="9.54" height="5.8" rx="2.9" ry="2.9" style="fill:#545454;"/><rect x="340.35" y="129.22" width="9.54" height="5.8" rx="2.9" ry="2.9" style="fill:#545454;"/><rect x="354.15" y="129.22" width="9.54" height="5.8" rx="2.9" ry="2.9" style="fill:#545454;"/><rect x="354.15" y="103.32" width="9.54" height="5.8" rx="2.71" ry="2.71" style="fill:#545454;"/><ellipse cx="300.07" cy="17.2" rx="10.64" ry="6.55" style="fill:#8f8f8f;"/><rect x="286.98" y="25.24" width="26.19" height="18.97" rx="3.96" ry="3.96" style="fill:#b1c6de;"/><circle cx="299.66" cy="66.71" r="9.41" style="fill:#5c5c5c; stroke:#969696; stroke-miterlimit:10; stroke-width:4px;"/><ellipse cx="344.99" cy="112.97" rx="7.18" ry="5.57" style="fill:#5c5c5c;"/><rect x="287.8" y="112.94" width="23.73" height="5.73" style="fill:#787878;"/><rect x="382.8" y="101.47" width="67.17" height="46.75" rx="7.73" ry="7.73" style="fill:#707070;"/><rect x="380.76" y="88.11" width="71.24" height="55.65" style="fill:#787878;"/><ellipse cx="415.64" cy="117.79" rx="25.23" ry="14.1" style="fill:#474747;"/><rect x="397.83" y="5" width="35.19" height="119.47" rx="7.36" ry="7.36" style="fill:#969696;"/><rect x="400.99" y="48.48" width="8.21" height="4.71" rx=".32" ry=".32" style="fill:#5c5c5c;"/><rect x="411.27" y="48.48" width="8.21" height="4.71" rx=".32" ry=".32" style="fill:#5c5c5c;"/><rect x="421.54" y="48.48" width="8.21" height="4.71" rx=".32" ry=".32" style="fill:#5c5c5c;"/><rect x="400.99" y="77.12" width="8.21" height="4.71" rx="1.06" ry="1.06" style="fill:#545454;"/><rect x="400.99" y="56.66" width="8.21" height="4.71" rx="1.06" ry="1.06" style="fill:#545454;"/><rect x="400.99" y="69.76" width="8.21" height="4.71" rx="1.06" ry="1.06" style="fill:#545454;"/><rect x="421.45" y="69.76" width="8.21" height="4.71" rx="1.06" ry="1.06" style="fill:#545454;"/><rect x="421.45" y="55.84" width="8.21" height="4.71" rx="1.06" ry="1.06" style="fill:#545454;"/><rect x="411.27" y="77.12" width="8.21" height="4.71" rx="1.06" ry="1.06" style="fill:#545454;"/><rect x="421.54" y="77.12" width="8.21" height="4.71" rx="1.06" ry="1.06" style="fill:#545454;"/><rect x="400.99" y="84.48" width="8.21" height="4.71" rx="1.06" ry="1.06" style="fill:#545454;"/><rect x="411.27" y="84.48" width="8.21" height="4.71" rx="1.06" ry="1.06" style="fill:#545454;"/><rect x="421.54" y="84.48" width="8.21" height="4.71" rx="1.06" ry="1.06" style="fill:#545454;"/><rect x="400.99" y="91.85" width="8.21" height="4.71" rx="1.06" ry="1.06" style="fill:#545454;"/><rect x="411.27" y="91.85" width="8.21" height="4.71" rx="1.06" ry="1.06" style="fill:#545454;"/><rect x="421.54" y="91.85" width="8.21" height="4.71" rx="1.06" ry="1.06" style="fill:#545454;"/><rect x="400.99" y="99.21" width="8.21" height="4.71" rx="1.06" ry="1.06" style="fill:#545454;"/><rect x="411.27" y="99.21" width="8.21" height="4.71" rx="1.06" ry="1.06" style="fill:#545454;"/><rect x="421.54" y="99.21" width="8.21" height="4.71" rx="1.06" ry="1.06" style="fill:#545454;"/><ellipse cx="415.83" cy="16.46" rx="10.64" ry="6.55" style="fill:#8f8f8f;"/><rect x="402.74" y="24.49" width="26.19" height="18.97" rx="3.96" ry="3.96" style="fill:#b1c6de;"/><circle cx="415.42" cy="65.96" r="9.41" style="fill:#5c5c5c; stroke:#969696; stroke-miterlimit:10; stroke-width:4px;"/><rect x="403.56" y="112.2" width="23.73" height="5.73" style="fill:#787878;"/></g></svg>