<?xml version="1.0" encoding="UTF-8"?><svg id="uuid-6580db6c-e113-4f86-a863-881c530f7e6e" xmlns="http://www.w3.org/2000/svg" xmlns:xlink="http://www.w3.org/1999/xlink" viewBox="0 0 69.44 115.64"><defs><clipPath id="uuid-07b3c97f-15aa-4089-b0c5-c347fa1fc76c"><path d="m28.13,28.79l-13.02,6.15c-.11.05-.19.17-.19.29v9.7c0,.24.25.39.46.29l13.02-6.15c.11-.05.19-.17.19-.29v-9.7c0-.24-.25-.39-.46-.29Z" style="fill:none;"/></clipPath><clipPath id="uuid-010face2-68e4-4bb5-8c4b-46c828851cd5"><path d="m29.29,50.39l-13.02,6.15c-.11.05-.19.17-.19.29v9.7c0,.24.25.39.46.29l13.02-6.15c.11-.05.19-.17.19-.29v-9.7c0-.24-.25-.39-.46-.29Z" style="fill:none;"/></clipPath><clipPath id="uuid-ca9e2a5e-97d4-4047-90d0-c5f5b9cc36d2"><path d="m49.51,33.66l-15.26,7.21c-.13.06-.22.2-.22.34v11.37c0,.28.29.46.54.34l15.26-7.21c.13-.06.22-.2.22-.34v-11.37c0-.28-.29-.46-.54-.34Z" style="fill:none;"/></clipPath><clipPath id="uuid-013823c5-e275-4953-a4a0-aee61070b566"><path d="m40.83,59.16l-7.62,3.6c-.07.03-.11.1-.11.17v5.68c0,.14.14.23.27.17l7.62-3.6c.07-.03.11-.1.11-.17v-5.68c0-.14-.14-.23-.27-.17Z" style="fill:none;"/></clipPath><clipPath id="uuid-34bda2bb-be6b-47cf-bf27-388dcf5aed39"><path d="m16.51,79.27l-7.62,3.6c-.07.03-.11.1-.11.17v5.68c0,.14.14.23.27.17l7.62-3.6c.07-.03.11-.1.11-.17v-5.68c0-.14-.14-.23-.27-.17Z" style="fill:none;"/></clipPath></defs><g id="uuid-b86e0a4d-34b6-4a69-910a-a9c6bcf6eae5"><g><path d="m61.42,1.07c-2-1.26-4.46-1.41-6.59-.41L3.92,24.73c-2.38,1.13-3.92,3.56-3.92,6.19v77.87c0,2.36,1.19,4.52,3.18,5.79,1.12.71,2.39,1.07,3.66,1.07,1,0,2-.22,2.93-.66l50.91-24.06c2.38-1.13,3.92-3.56,3.92-6.19V6.85c0-2.36-1.19-4.52-3.18-5.79Zm-9.01,89.34l-1.72-2.03,1.6-4.29,2.96,3.5-.67,1.8-2.17,1.03Zm-22.43,10.6l-2.21-2.61,1.6-4.29,2.96,3.5-1.04,2.79-1.31.62ZM5.28,28.54l1.11,1.32-1.6,4.29-.8-.94v-2.29c0-.96.49-1.86,1.28-2.38Zm5.59-2.67l2.36,2.8-1.6,4.29-2.96-3.5,1.16-3.1,1.04-.49ZM50.31,7.22l2.01,2.37-1.6,4.29-2.96-3.5.89-2.38,1.66-.79Zm10.29,31.64l-1.36,3.65-2.96-3.5,1.6-4.29,2.72,3.21v.92Zm0,33.4l-2.72-3.21,1.68-4.5,1.04,1.23v6.48Zm-36.72,30.83l-2.96-3.5,1.6-4.29,2.96,3.5-1.6,4.29Zm-16.39,8.46l-2.65-3.13,1.6-4.29,2.96,3.5-1.4,3.76c-.17.07-.34.13-.51.17Zm-3.49-69.54l1.48-3.97,2.96,3.5-1.6,4.29-2.84-3.35v-.47Zm13.12-18.04l2.96,3.5-1.6,4.29-2.96-3.5,1.6-4.29Zm23-10.23l2.96,3.5-1.6,4.29-2.96-3.5,1.6-4.29Zm14.24,7.55l-1.6,4.29-2.96-3.5,1.6-4.29,2.96,3.5Zm-2.16-5.65l1.6-4.29,2.96,3.5-1.6,4.29-2.96-3.5ZM4,77.97l1.33,3.2-1.33-1.57v-1.63Zm45.56-43.8l-1.6,4.29-2.96-3.5,1.6-4.29,2.96,3.5Zm-2.16-5.65l1.6-4.29,2.96,3.5-1.6,4.29-2.96-3.5Zm-11.96,26.38l-1.6,4.29-2.96-3.5,1.6-4.29,2.96,3.5Zm-2.16-5.65l1.6-4.29,2.96,3.5-1.6,4.29-2.96-3.5Zm-3.88,4.69l-2.96-3.5,1.6-4.29,2.96,3.5-1.6,4.29Zm-.8,2.15l-1.6,4.29-2.96-3.5,1.6-4.29,2.96,3.5Zm-6.04-.96l-2.96-3.5,1.6-4.29,2.96,3.5-1.6,4.29Zm-.8,2.15l-1.6,4.29-2.96-3.5,1.6-4.29,2.96,3.5Zm-2.4,6.44l-1.6,4.29-2.96-3.5,1.6-4.29,2.96,3.5Zm-2.4,6.44l-1.6,4.29-2.96-3.5,1.6-4.29,2.96,3.5Zm1.48,1.75l2.96,3.5-1.6,4.29-2.96-3.5,1.6-4.29Zm.8-2.15l1.6-4.29,2.96,3.5-1.6,4.29-2.96-3.5Zm2.4-6.44l1.6-4.29,2.96,3.5-1.6,4.29-2.96-3.5Zm6.04.96l2.96,3.5-1.6,4.29-2.96-3.5,1.6-4.29Zm.8-2.15l1.6-4.29,2.96,3.5-1.6,4.29-2.96-3.5Zm6.04.96l2.96,3.5-1.6,4.29-2.96-3.5,1.6-4.29Zm.8-2.15l1.6-4.29,2.96,3.5-1.6,4.29-2.96-3.5Zm2.4-6.44l1.6-4.29,2.96,3.5-1.6,4.29-2.96-3.5Zm7.04-7.45l-1.68,4.5-2.96-3.5,1.68-4.5,2.96,3.5Zm-2.16-5.65l1.6-4.29,2.96,3.5-1.6,4.29-2.96-3.5Zm1.16,14.05l2.96,3.5-1.6,4.29-2.96-3.5,1.6-4.29Zm.8-2.15l1.68-4.5,2.96,3.5-1.68,4.5-2.96-3.5Zm2.48-6.65l1.6-4.29,2.96,3.5-1.6,4.29-2.96-3.5Zm-3.52-13.44l-2.96-3.5,1.6-4.29,2.96,3.5-1.6,4.29Zm-.8,2.15l-1.6,4.29-2.96-3.5,1.6-4.29,2.96,3.5Zm-2.4,6.44l-1.68,4.5-2.96-3.5,1.68-4.5,2.96,3.5Zm-6.12-.75l-2.96-3.5,1.68-4.5,2.96,3.5-1.68,4.5Zm-.8,2.15l-1.6,4.29-2.96-3.5,1.6-4.29,2.96,3.5Zm-6.04-.96l-2.96-3.5,1.6-4.29,2.96,3.5-1.6,4.29Zm-.8,2.15l-1.6,4.29-2.96-3.5,1.6-4.29,2.96,3.5Zm-6.04-.96l-2.96-3.5,1.6-4.29,2.96,3.5-1.6,4.29Zm-.8,2.15l-1.6,4.29-2.96-3.5,1.6-4.29,2.96,3.5Zm-2.4,6.44l-1.6,4.29-2.96-3.5,1.6-4.29,2.96,3.5Zm-6.04-.96l-2.96-3.5,1.6-4.29,2.96,3.5-1.6,4.29Zm.68,3.9l2.96,3.5-1.6,4.29-2.96-3.5,1.6-4.29Zm.56,9.94l-1.6,4.29-2.96-3.5,1.6-4.29,2.96,3.5Zm-2.4,6.44l-1.6,4.29-2.96-3.5,1.6-4.29,2.96,3.5Zm-2.4,6.44l-.77,2.06-2.25-5.41.05-.14,2.96,3.5Zm-.92,8.19l1.05,1.24,1.45,3.49-1.14,3.06-2.96-3.5,1.6-4.29Zm1.28-3.43l1.12-3.01,2.96,3.5-1.6,4.29-.98-1.16-1.5-3.62Zm1.92-5.16l1.6-4.29,2.96,3.5-1.6,4.29-2.96-3.5Zm6.04.96l2.96,3.5-1.6,4.29-2.96-3.5,1.6-4.29Zm4.44,5.25l2.96,3.5-1.6,4.29-2.96-3.5,1.6-4.29Zm.8-2.15l1.6-4.29,2.96,3.5-1.6,4.29-2.96-3.5Zm2.4-6.44l1.6-4.29,2.96,3.5-1.6,4.29-2.96-3.5Zm6.04.96l2.96,3.5-1.6,4.29-2.96-3.5,1.6-4.29Zm.8-2.15l1.6-4.29,2.96,3.5-1.6,4.29-2.96-3.5Zm6.04.96l2.96,3.5-1.6,4.29-2.96-3.5,1.6-4.29Zm.8-2.15l1.6-4.29,2.96,3.5-1.6,4.29-2.96-3.5Zm2.4-6.44l1.6-4.29,2.96,3.5-1.6,4.29-2.96-3.5Zm6.04.96l2.96,3.5-1.6,4.29-2.96-3.5,1.6-4.29Zm.8-2.15l1.6-4.29,2.96,3.5-1.6,4.29-2.96-3.5Zm2.4-6.44l1.68-4.5,2.96,3.5-1.68,4.5-2.96-3.5Zm2.48-6.65l1.6-4.29,2.96,3.5-1.6,4.29-2.96-3.5Zm.92-8.19l-2.96-3.5,1.6-4.29,2.96,3.5-1.6,4.29Zm-.56-9.94l1.6-4.29,2.96,3.5-1.6,4.29-2.96-3.5Zm-3.52-13.44l-2.96-3.5,1.6-4.29,2.96,3.5-1.6,4.29Zm-.8,2.15l-1.6,4.29-2.96-3.5,1.6-4.29,2.96,3.5Zm-6.84,1.19l-1.6,4.29-2.96-3.5,1.6-4.29,2.96,3.5Zm-2.4,6.44l-1.6,4.29-2.96-3.5,1.6-4.29,2.96,3.5Zm-6.04-.96l-2.96-3.5,1.6-4.29,2.96,3.5-1.6,4.29Zm-.8,2.15l-1.68,4.5-2.96-3.5,1.68-4.5,2.96,3.5Zm-6.12-.75l-2.96-3.5,1.68-4.5,2.96,3.5-1.68,4.5Zm-.8,2.15l-1.6,4.29-2.96-3.5,1.6-4.29,2.96,3.5Zm-6.84,1.19l-1.6,4.29-2.96-3.5,1.6-4.29,2.96,3.5Zm-2.4,6.44l-1.6,4.29-2.96-3.5,1.6-4.29,2.96,3.5Zm-6.04-.96l-2.96-3.5,1.6-4.29,2.96,3.5-1.6,4.29Zm-1.72,10.34l2.96,3.5-1.6,4.29-2.96-3.5,1.6-4.29Zm.56,9.94l-1.6,4.29-2.48-2.93v-1.86l1.12-3,2.96,3.5Zm-2.4,6.44l-1.6,4.29-.08-.09v-6.18l1.68,1.98Zm-.36,18.13l-1.32,3.54v-5.09l1.32,1.56Zm-.92,8.19l2.96,3.5-1.6,4.29-1.76-2.08v-4.64l.4-1.07Zm2.84,9.54l1.6-4.29,2.96,3.5-1.6,4.29-2.96-3.5Zm2.4-6.44l.78-2.1,2.25,5.41-.07.19-2.96-3.5Zm2.46-3.27l2.1,2.48-.5,1.35-1.59-3.83Zm-.06-3.17l1.6-4.29,2.96,3.5-1.6,4.29-2.96-3.5Zm3.64,7.4l2.96,3.5-1.57,4.22-2.25-5.41.86-2.31Zm.8-2.15l1.6-4.29,2.96,3.5-1.6,4.29-2.96-3.5Zm6.84-1.19l1.6-4.29,2.96,3.5-1.6,4.29-2.96-3.5Zm2.4-6.44l1.6-4.29,2.96,3.5-1.6,4.29-2.96-3.5Zm6.04.96l2.96,3.5-1.6,4.29-2.96-3.5,1.6-4.29Zm.8-2.15l1.6-4.29,2.96,3.5-1.6,4.29-2.96-3.5Zm6.04.96l2.96,3.5-1.6,4.29-2.96-3.5,1.6-4.29Zm.8-2.15l1.6-4.29,2.96,3.5-1.6,4.29-2.96-3.5Zm2.4-6.44l1.6-4.29,2.96,3.5-1.6,4.29-2.96-3.5Zm6.04.96l2.96,3.5-1.6,4.29-2.96-3.5,1.6-4.29Zm.8-2.15l1.6-4.29,2.96,3.5-1.6,4.29-2.96-3.5Zm2.4-6.44l1.6-4.29,2.96,3.5-1.6,4.29-2.96-3.5Zm2.4-6.44l1.68-4.5,2.96,3.5-1.68,4.5-2.96-3.5Zm5.44-3.15l-2.96-3.5,1.6-4.29,2.96,3.5-1.6,4.29Zm-2.04-11.69l-2.96-3.5,1.6-4.29,2.96,3.5-1.6,4.29Zm.36-18.13l-2.96-3.5,1.6-4.29,2.96,3.5-1.6,4.29Zm-.56-9.94l1.6-4.29,2.36,2.79v2.31l-1,2.69-2.96-3.5Zm2.4-6.44l1.56-4.19v6.03l-1.56-1.84Zm-1.48-1.75l-2.96-3.5,1.6-4.29,2.96,3.5-1.6,4.29Zm-4.44-5.25l-.94-1.11,1.64-.77-.7,1.88Zm-7.64,3.34l-1.6,4.29-2.91-3.44,3.74-1.77.78.92Zm-8.44,5.49l-1.68-1.99,2.94-1.39-1.26,3.37Zm-3.55-1.1l2.75,3.25-1.6,4.29-2.96-3.5,1.44-3.87.36-.17Zm-3.29,2.3l-.45-.53.78-.37-.33.9Zm-.8,2.15l-1.6,4.29-2.96-3.5.52-1.4,2.52-1.19,1.52,1.79Zm-6.84,1.19l-1.68,4.5-2.53-2.99,3.92-1.85.29.34Zm-8.52,5.7l-1.29-1.53,2.26-1.07-.97,2.6Zm-6.84,1.19l-.06-.07.11-.05-.05.12Zm-3.2,17.88l2.04,2.41-1.6,4.29-.44-.52v-6.18Zm0,55.67l.96,1.13-.96,2.57v-3.71Zm6.88,8.13l.4.47-.69.33.3-.79Zm.8-2.15l1.6-4.29,2.14,2.53.62,1.5-.28.76-2.61,1.23-1.47-1.73Zm6.84-1.19l1.6-4.29,2.37,2.8-3.74,1.77-.23-.28Zm8.44-5.49l1.14,1.34-1.99.94.85-2.28Zm7.64-3.34l1.6-4.29,2.96,3.5-.12.31-3.47,1.64-.98-1.15Zm8.44-5.49l1.88,2.22-3.29,1.55,1.41-3.78Zm3.75,1.34l-2.95-3.49,1.6-4.29,2.96,3.5-1.59,4.28h-.01Zm3.09-2.53l.65.77-1.13.54.48-1.3Zm3.2-8.59l1.6-4.29,2.96,3.5-1.6,4.29-2.96-3.5Zm2.4-6.44l1.6-4.29,2.96,3.5-1.6,4.29-2.96-3.5Zm5.12,3.43v2.61l-.68-.8.68-1.81Zm-.24-16.53l.24-.64v.92l-.24-.28Zm.24-9l-2.28-2.69,1.6-4.29.68.8v6.18Zm0-18.56l-1.92-2.27,1.6-4.29.32.38v6.18Zm-1.32-30.4c.42.26.75.62.97,1.02l-.29.78-1.87-2.2c.41.05.81.17,1.18.4Zm-.31,82.85l-.96.45-.49-.57,1.6-4.29,1.48,1.74v.09c0,1.1-.64,2.11-1.63,2.58Z" style="fill:#f2f2f2;"/><g><polygon points="63.41 96.36 45.48 104.86 45.48 81.18 63.41 72.67 63.41 96.36" style="fill:#afcee2; stroke:#afcee2; stroke-linejoin:round;"/><polygon points="63.76 96.86 47.2 104.71 47.2 82.83 63.76 74.97 63.76 96.86" style="fill:#fffcfc; stroke:#fffcfc; stroke-linejoin:round; stroke-width:2px;"/><polygon points="66.2 97.94 48.28 106.44 48.28 82.76 66.2 74.25 66.2 97.94" style="fill:#afcee2; stroke:#afcee2; stroke-linejoin:round;"/></g><g><polygon points="66.66 98.7 52.02 105.65 52.02 86.31 66.66 79.36 66.66 98.7" style="fill:#e2c0a2; stroke:#e2c0a2; stroke-linejoin:round;"/><polygon points="66.95 99.11 53.42 105.53 53.42 87.66 66.95 81.24 66.95 99.11" style="fill:#fffcfc; stroke:#fffcfc; stroke-linejoin:round; stroke-width:2px;"/><polygon points="68.94 99.99 54.3 106.94 54.3 87.6 68.94 80.65 68.94 99.99" style="fill:#e2c0a2; stroke:#e2c0a2; stroke-linejoin:round;"/></g><g><g><path d="m28.13,28.79l-13.02,6.15c-.11.05-.19.17-.19.29v9.7c0,.24.25.39.46.29l13.02-6.15c.11-.05.19-.17.19-.29v-9.7c0-.24-.25-.39-.46-.29Z" style="fill:#bfccce;"/><g style="clip-path:url(#uuid-07b3c97f-15aa-4089-b0c5-c347fa1fc76c);"><path d="m24.16,27.04l-10.84,4.54c-.18.07-.29.23-.29.4v12.69c0,.33.39.54.72.4l10.84-4.54c.18-.07.29-.23.29-.4v-12.69c0-.33-.39-.54-.72-.4Z" style="fill:#d7e4ef;"/><path d="m13.92,41.84s5.55-2.31,7.95-4.92,7.71-.39,7.71-.39l-.17,4.61-15.93,6.48.44-5.77Z" style="fill:#dcdbd8;"/><path d="m24.71,34.86s-.45.36-.51,1.02.63.78.63.78c0,0-.8,4.05-.63,4.67s3.94-1.86,3.94-1.86l-.83-3.21s.33-.4.33-.85-.44-.59-.77-.49-.61,1.08-.34,1.27-.78.6-.78.6c0,0-.47-.26-.27-.53s.3-.57.2-.89-.44-.64-.97-.51Z" style="fill:#ccd6d7;"/><path d="m24.72,37.52s-.78,4.06-.5,4.05,1.61-.86,1.61-.86c0,0-.73-2.85-1.11-3.19Z" style="fill:#c5cece;"/><path d="m26.38,37.54s-.16,2.62.06,2.67,1.17-.56,1.17-.56c0,0-.94-1.92-1.23-2.11Z" style="fill:#c5cece;"/><path d="m20.99,36.14s-.53.42-.6,1.19.73.91.73.91c0,0-.93,4.71-.73,5.44s4.58-2.16,4.58-2.16l-.96-3.73s.38-.47.38-.99-.52-.68-.9-.57-.71,1.25-.39,1.48-.91.69-.91.69c0,0-.54-.3-.31-.62s.35-.67.23-1.04-.52-.74-1.13-.59Z" style="fill:#ccd6d7;"/><path d="m20.99,39.24s-.91,4.73-.59,4.71,1.87-1,1.87-1c0,0-.85-3.31-1.29-3.71Z" style="fill:#c5cece;"/><path d="m22.93,39.26s-.18,3.05.07,3.11,1.36-.65,1.36-.65c0,0-1.09-2.24-1.43-2.45Z" style="fill:#c5cece;"/><path d="m15.95,36.27s-3.61,4.48-3.73,6.19,7.75.74,7.75.74l.48-3.17s-1.32-3.21-4.49-3.76Z" style="fill:#cdccca;"/></g></g><path d="m22.34,33.98c.29,0,.52-.36.52-.81s-.23-.81-.52-.81h-.16c-.29,0-.52.36-.52.81s.23.81.52.81h.16Z" style="fill:#9ec8cc;"/></g><g><g><path d="m29.29,50.39l-13.02,6.15c-.11.05-.19.17-.19.29v9.7c0,.24.25.39.46.29l13.02-6.15c.11-.05.19-.17.19-.29v-9.7c0-.24-.25-.39-.46-.29Z" style="fill:#eeebea;"/><g style="clip-path:url(#uuid-010face2-68e4-4bb5-8c4b-46c828851cd5);"><path d="m25.31,48.64l-10.84,4.54c-.18.07-.29.23-.29.4v12.69c0,.33.39.54.72.4l10.84-4.54c.18-.07.29-.23.29-.4v-12.69c0-.33-.39-.54-.72-.4Z" style="fill:#dcdbd8;"/><path d="m15.08,63.45s5.55-2.31,7.95-4.92,7.71-.39,7.71-.39l-.17,4.61-15.93,6.48.44-5.77Z" style="fill:#8fbfc4;"/><path d="m20.26,56.93s-.65.52-.73,1.45.9,1.11.9,1.11c0,0-1.14,5.78-.9,6.67s5.61-2.65,5.61-2.65l-1.18-4.57s.47-.57.47-1.21-.63-.84-1.1-.69-.87,1.53-.48,1.81-1.11.85-1.11.85c0,0-.66-.37-.38-.76s.43-.82.28-1.27-.63-.91-1.38-.73Z" style="fill:#ccd6d7;"/><path d="m20.27,60.72s-1.12,5.8-.72,5.77,2.3-1.23,2.3-1.23c0,0-1.04-4.06-1.58-4.54Z" style="fill:#c5cece;"/><path d="m22.65,60.75s-.22,3.73.08,3.81,1.67-.8,1.67-.8c0,0-1.33-2.74-1.75-3.01Z" style="fill:#c5cece;"/><path d="m26.29,57.62s-.92,3.87-.47,4.97,5.11-1.87,5.11-1.87l-.66-2.11s-1.81-1.6-3.97-.99Z" style="fill:#85afb3;"/><polygon points="23.67 51.65 23.67 54.79 30.44 55.59 30.05 47.95 23.67 51.65" style="fill:#cdccca;"/></g></g><path d="m23.67,54.79c.29,0,.52-.36.52-.81s-.23-.81-.52-.81h-.16c-.29,0-.52.36-.52.81s.23.81.52.81h.16Z" style="fill:#9ec8cc;"/></g><g><g><path d="m58.77,10l-17.84,8.43c-.15.07-.25.23-.25.4v13.29c0,.32.34.54.63.4l17.84-8.43c.15-.07.25-.23.25-.4v-13.29c0-.32-.34-.54-.63-.4Z" style="fill:#eeebea;"/><path d="m57.74,11.32l-15.74,7.44c-.14.06-.22.2-.22.35v11.73c0,.29.3.48.56.35l15.74-7.44c.14-.06.22-.2.22-.35v-11.73c0-.29-.3-.48-.56-.35Z" style="fill:none; stroke:#d7d5d4; stroke-linecap:round; stroke-miterlimit:10; stroke-width:.25px;"/><g><line x1="50.6" y1="16.82" x2="50.6" y2="19.73" style="fill:none; stroke:#8b8887; stroke-linecap:round; stroke-miterlimit:10; stroke-width:.75px;"/><line x1="51.91" y1="17.62" x2="49.3" y2="18.93" style="fill:none; stroke:#8b8887; stroke-linecap:round; stroke-miterlimit:10; stroke-width:.75px;"/><line x1="50.6" y1="22.21" x2="45.51" y2="24.75" style="fill:none; stroke:#d7d5d4; stroke-linecap:round; stroke-miterlimit:10; stroke-width:.5px;"/><line x1="49.39" y1="24.32" x2="45.62" y2="26.2" style="fill:none; stroke:#d7d5d4; stroke-linecap:round; stroke-miterlimit:10; stroke-width:.5px;"/><line x1="53.32" y1="23.92" x2="49.55" y2="25.8" style="fill:none; stroke:#d7d5d4; stroke-linecap:round; stroke-miterlimit:10; stroke-width:.25px;"/><line x1="52.64" y1="24.98" x2="50.23" y2="26.18" style="fill:none; stroke:#d7d5d4; stroke-linecap:round; stroke-miterlimit:10; stroke-width:.25px;"/><line x1="56.53" y1="20.75" x2="50.19" y2="23.92" style="fill:none; stroke:#d7d5d4; stroke-linecap:round; stroke-miterlimit:10; stroke-width:.5px;"/><line x1="56.43" y1="19.3" x2="51.34" y2="21.84" style="fill:none; stroke:#d7d5d4; stroke-linecap:round; stroke-miterlimit:10; stroke-width:.5px;"/></g></g><path d="m49.83,15.7c.29,0,.52-.36.52-.81s-.23-.81-.52-.81h-.16c-.29,0-.52.36-.52.81s.23.81.52.81h.16Z" style="fill:#9ec8cc;"/></g><g><g><path d="m49.51,33.66l-15.26,7.21c-.13.06-.22.2-.22.34v11.37c0,.28.29.46.54.34l15.26-7.21c.13-.06.22-.2.22-.34v-11.37c0-.28-.29-.46-.54-.34Z" style="fill:#eeebea;"/><g style="clip-path:url(#uuid-ca9e2a5e-97d4-4047-90d0-c5f5b9cc36d2);"><path d="m49.17,35.01l-5.74,2.71s-.08.07-.08.13v4.28c0,.1.11.17.2.13l5.74-2.71s.08-.07.08-.13v-4.28c0-.1-.11-.17-.2-.13Z" style="fill:#d7e4ef;"/><path d="m49.17,40.3l-5.74,2.71s-.08.07-.08.13v4.28c0,.1.11.17.2.13l5.74-2.71s.08-.07.08-.13v-4.28c0-.1-.11-.17-.2-.13Z" style="fill:#d7e4ef;"/><path d="m42.29,38.03l-7.11,3.38c-.12.05-.19.17-.19.3v9.45c0,.24.25.4.47.3l7.11-3.38c.12-.05.19-.17.19-.3v-9.45c0-.24-.25-.4-.47-.3Z" style="fill:#dcdbd8;"/></g></g><path d="m42.2,39.56c.29,0,.52-.36.52-.81s-.23-.81-.52-.81h-.16c-.29,0-.52.36-.52.81s.23.81.52.81h.16Z" style="fill:#9ec8cc;"/></g><g><g><path d="m40.83,59.16l-7.62,3.6c-.07.03-.11.1-.11.17v5.68c0,.14.14.23.27.17l7.62-3.6c.07-.03.11-.1.11-.17v-5.68c0-.14-.14-.23-.27-.17Z" style="fill:#eeebea;"/><g style="clip-path:url(#uuid-013823c5-e275-4953-a4a0-aee61070b566);"><path d="m40.04,57.72l-8.37,4c-.14.06-.21.14-.2.2l1.19,4.14c.03.11.36.09.62-.04l8.37-4c.14-.06.21-.14.2-.2l-1.19-4.14c-.03-.11-.36-.09-.62.04Z" style="fill:#e2c0a2;"/><polygon points="35.71 63.96 34.6 69.23 40.34 66.93 38.09 62.94 35.71 63.96" style="fill:#a0a9ae;"/><g><path d="m34.45,62.8c-1.22.14-1.93,1.29-1.61,1.79.05.08.11.15.16.22l-.8.74-1.22,1.96s2.8-.19,3.07-.51c.16-.19.23-.9.25-1.44.05,0,.1,0,.15,0,.38-.03,1.19-.49,1.39-1.13.19-.64-.17-1.75-1.39-1.61Z" style="fill:#cacac6;"/><path d="m41.09,62.35c.06-.12.11-.25.15-.42.11-.45-.68-1.11-1.59-.92s-.91,1.08-.62,1.5c.28.4.91.54,1.22.49-.17.58-.19,1.31-.13,1.51.11.34,2.07-.54,2.07-.54,0,0-.47-1.29-1.1-1.62Z" style="fill:#cacac6;"/></g><path d="m32.44,68.29c-.46-.52.14-1.95,1.5-2.32s1.96.82,1.86,1.58-.94,1.43-1.37,1.53-1.11.2-1.99-.79Z" style="fill:#d4d3cf;"/><polygon points="37.19 68.11 37.01 64.63 38.09 62.94 40.09 67.22 37.19 68.11" style="fill:#8d9499;"/><path d="m41.34,65.34c.35-.4-.11-1.49-1.15-1.77s-1.5.63-1.42,1.21.72,1.09,1.05,1.17.85.15,1.52-.6Z" style="fill:#d4d3cf;"/></g></g><path d="m36.96,62.63c.29,0,.52-.36.52-.81s-.23-.81-.52-.81h-.16c-.29,0-.52.36-.52.81s.23.81.52.81h.16Z" style="fill:#9ec8cc;"/></g><g><polygon points="32.48 64.04 20.42 69.74 20.42 74.11 32.48 68.41 32.48 64.04" style="fill:#d7e4ef;"/><g><polygon points="30.55 66.71 18.48 72.41 18.48 76.78 30.55 71.08 30.55 66.71" style="fill:#bcb8b7;"/><line x1="28.07" y1="68.71" x2="28.07" y2="71.39" style="fill:none; stroke:#fffcfc; stroke-linecap:round; stroke-miterlimit:10; stroke-width:.25px;"/><line x1="21.54" y1="71.9" x2="19.16" y2="73.08" style="fill:none; stroke:#fffcfc; stroke-linecap:round; stroke-miterlimit:10; stroke-width:.25px;"/><line x1="21.54" y1="72.66" x2="19.16" y2="73.84" style="fill:none; stroke:#fffcfc; stroke-linecap:round; stroke-miterlimit:10; stroke-width:.25px;"/><line x1="21.54" y1="73.6" x2="19.16" y2="74.78" style="fill:none; stroke:#fffcfc; stroke-linecap:round; stroke-miterlimit:10; stroke-width:.25px;"/><path d="m27.22,69.36l-2.67,1.26s-.04.03-.04.06v1.99s.05.08.09.06l2.67-1.26s.04-.03.04-.06v-1.99s-.05-.08-.09-.06Z" style="fill:#d7e4ef;"/></g><path d="m22.67,71.5c.29,0,.52-.36.52-.81s-.23-.81-.52-.81h-.16c-.29,0-.52.36-.52.81s.23.81.52.81h.16Z" style="fill:#9ec8cc;"/></g><path d="m52.92,57.09l-6.86,3.24c-.06.03-.1.09-.1.15v5.11c0,.12.13.21.24.15l6.86-3.24c.06-.03.1-.09.1-.15v-5.11c0-.12-.13-.21-.24-.15Z" style="fill:#b3c2c4;"/><path d="m56.33,60.11l-6.86,3.24c-.06.03-.1.09-.1.15v5.11c0,.12.13.21.24.15l6.86-3.24c.06-.03.1-.09.1-.15v-5.11c0-.12-.13-.21-.24-.15Z" style="fill:#e2c0a2; stroke:#e2c0a2; stroke-linejoin:round;"/><g><g><path d="m16.51,79.27l-7.62,3.6c-.07.03-.11.1-.11.17v5.68c0,.14.14.23.27.17l7.62-3.6c.07-.03.11-.1.11-.17v-5.68c0-.14-.14-.23-.27-.17Z" style="fill:#eeebea;"/><g style="clip-path:url(#uuid-34bda2bb-be6b-47cf-bf27-388dcf5aed39);"><path d="m15.73,77.84l-8.37,4c-.14.06-.21.14-.2.2l1.19,4.14c.03.11.36.09.62-.04l8.37-4c.14-.06.21-.14.2-.2l-1.19-4.14c-.03-.11-.36-.09-.62.04Z" style="fill:#e2c0a2;"/><polygon points="11.39 84.08 10.29 89.34 16.03 87.05 13.78 83.06 11.39 84.08" style="fill:#a0a9ae;"/><g><path d="m10.14,82.92c-1.22.14-1.93,1.29-1.61,1.79.05.08.11.15.16.22l-.8.74-1.22,1.96s2.8-.19,3.07-.51c.16-.19.23-.9.25-1.44.05,0,.1,0,.15,0,.38-.03,1.19-.49,1.39-1.13.19-.64-.17-1.75-1.39-1.61Z" style="fill:#cacac6;"/><path d="m16.78,82.46c.06-.12.11-.25.15-.42.11-.45-.68-1.11-1.59-.92s-.91,1.08-.62,1.5c.28.4.91.54,1.22.49-.17.58-.19,1.31-.13,1.51.11.34,2.07-.54,2.07-.54,0,0-.47-1.29-1.1-1.62Z" style="fill:#cacac6;"/></g><path d="m8.13,88.4c-.46-.52.14-1.95,1.5-2.32s1.96.82,1.86,1.58-.94,1.43-1.37,1.53-1.11.2-1.99-.79Z" style="fill:#d4d3cf;"/><polygon points="12.88 88.23 12.69 84.75 13.78 83.06 15.77 87.33 12.88 88.23" style="fill:#8d9499;"/><path d="m17.03,85.46c.35-.4-.11-1.49-1.15-1.77s-1.5.63-1.42,1.21.72,1.09,1.05,1.17.85.15,1.52-.6Z" style="fill:#d4d3cf;"/></g></g><path d="m12.65,82.75c.29,0,.52-.36.52-.81s-.23-.81-.52-.81h-.16c-.29,0-.52.36-.52.81s.23.81.52.81h.16Z" style="fill:#9ec8cc;"/></g></g></g></svg>