<?xml version="1.0" encoding="UTF-8"?><svg id="uuid-a968beb6-1c85-4c22-8aa1-eea1a36e190f" xmlns="http://www.w3.org/2000/svg" viewBox="0 0 87.01 145.83"><g id="uuid-44d3ac2a-9b1b-4a18-b52d-519a0f1d3d65"><g><g><g><path d="m7.97,130.04c-.62,0-1.12-.5-1.12-1.12s.5-1.12,1.12-1.12,1.12.5,1.12,1.12-.5,1.12-1.12,1.12Z" style="fill:#363a3d; opacity:.69;"/><path d="m7.97,125.29c-2,0-3.62,1.62-3.62,3.62s1.62,3.62,3.62,3.62,3.62-1.62,3.62-3.62-1.62-3.62-3.62-3.62h0Z" style="fill:#363a3d;"/></g><g><circle cx="37.46" cy="142.21" r="1.12" style="fill:#363a3d; opacity:.69;"/><path d="m37.46,138.58c-2,0-3.62,1.62-3.62,3.62s1.62,3.62,3.62,3.62,3.62-1.62,3.62-3.62-1.62-3.62-3.62-3.62h0Z" style="fill:#363a3d;"/></g><g><path d="m83.38,121.32c-.62,0-1.12-.5-1.12-1.12s.5-1.12,1.12-1.12,1.12.5,1.12,1.12-.5,1.12-1.12,1.12Z" style="fill:#363a3d; opacity:.69;"/><path d="m83.38,116.57c-2,0-3.62,1.62-3.62,3.62s1.62,3.62,3.62,3.62,3.62-1.62,3.62-3.62-1.62-3.62-3.62-3.62h0Z" style="fill:#363a3d;"/></g></g><path d="m73.23,9.51l3.28,1.55c.45.21.74.67.74,1.17v93.69c0,.95-.99,1.58-1.85,1.17l-3.28-1.55c-.45-.21-.74-.67-.74-1.17V10.69c0-.95.99-1.58,1.85-1.17Z" style="fill:#36646f;"/><path d="m36.18,137.22l-27.58-13.09c-.2-.1-.2-.38,0-.48l43.12-20.47c1.24-.59,2.69-.59,3.93,0l27.58,13.09c.2.1.2.38,0,.48l-43.12,20.47c-1.24.59-2.69.59-3.93,0Z" style="fill:none; stroke:#36646f; stroke-linecap:round; stroke-miterlimit:10; stroke-width:5px;"/><g><circle cx="37.46" cy="130.4" r="3.42" style="fill:#3c707c;"/><path d="m35.47,111.32l-29.59-14.04c-.22-.1-.22-.41,0-.51l46.26-21.95c1.33-.63,2.88-.63,4.22,0l29.59,14.04c.22.1.22.41,0,.51l-46.26,21.95c-1.33.63-2.88.63-4.22,0Z" style="fill:#295760;"/><polygon points="47.92 89.62 60.88 95.74 60.88 111.84 47.92 105.72 47.92 89.62" style="fill:#dbe6ea;"/><polygon points="80.65 102.46 60.88 111.84 60.88 95.74 80.65 86.36 80.65 102.46" style="fill:#b8d0d9;"/><g><polygon points="23.57 100.82 36.53 106.95 36.53 123.05 23.57 116.92 23.57 100.82" style="fill:#dbe6ea;"/><polygon points="56.3 113.67 36.53 123.05 36.53 106.95 56.3 97.57 56.3 113.67" style="fill:#b8d0d9;"/><g><path d="m36.53,107.31c-.05,0-.16-.02-.21-.05l-12.76-6.06c-.17-.08-.28-.25-.28-.45,0-.19.11-.36.28-.44l19.5-9.25c.05-.02.16-.05.21-.05s.16.02.21.05l12.76,6.06c.17.08.28.25.28.44,0,.19-.11.36-.28.44l-19.5,9.25c-.05.02-.16.05-.21.05Z" style="fill:#e1eaee;"/><path d="m43.27,91.4s.03,0,.05.01l12.76,6.06c.09.04.09.17,0,.21l-19.5,9.25s-.03.01-.05.01-.03,0-.05-.01l-12.76-6.06c-.09-.04-.09-.17,0-.21l19.5-9.25s.03-.01.05-.01m0-.75c-.13,0-.26.03-.37.08l-19.5,9.25c-.3.14-.49.45-.49.78,0,.33.19.64.49.78l12.76,6.06c.12.05.24.08.37.08s.25-.03.37-.08l19.5-9.25c.3-.14.49-.45.49-.78,0-.33-.19-.64-.49-.78l-12.76-6.06c-.11-.05-.24-.08-.37-.08h0Z" style="fill:#e1eaee;"/></g></g><path d="m5.65,96.28l30.95,14.63c.53.25.86.78.86,1.36v19.56c0,1.1-1.15,1.83-2.15,1.36l-25.55-12.08c-2.51-1.19-4.11-3.71-4.11-6.49v-18.34Z" style="fill:#3c707c;"/><path d="m82.08,113.02l-42.48,20.16c-1,.47-2.15-.25-2.15-1.36v-19.55c0-.58.33-1.11.86-1.36l47.67-22.62v18.56c0,2.64-1.52,5.04-3.9,6.17Z" style="fill:#2e5963;"/><path d="m35.47,111.32l-29.59-14.04c-.22-.1-.22-.41,0-.51l46.26-21.95c1.33-.63,2.88-.63,4.22,0l29.59,14.04c.22.1.22.41,0,.51l-46.26,21.95c-1.33.63-2.88.63-4.22,0Z" style="fill:none; stroke:#36646f; stroke-miterlimit:10;"/><g><path d="m60.88,96.11c-.05,0-.16-.02-.21-.05l-12.76-6.06c-.17-.08-.28-.25-.28-.44,0-.19.11-.36.28-.44l19.5-9.25c.05-.02.16-.05.21-.05s.16.02.21.05l12.76,6.06c.17.08.28.25.28.44s-.11.36-.28.44l-19.5,9.26c-.05.02-.16.05-.21.05Z" style="fill:#e1eaee;"/><path d="m67.62,80.19s.03,0,.05.01l12.76,6.06c.09.04.09.17,0,.21l-19.5,9.25s-.03.01-.05.01-.03,0-.05-.01l-12.76-6.06c-.09-.04-.09-.17,0-.21l19.5-9.25s.03-.01.05-.01m0-.75c-.13,0-.26.03-.37.08l-19.5,9.25c-.3.14-.49.45-.49.78,0,.33.19.64.49.78l12.76,6.06c.12.05.24.08.37.08s.25-.03.37-.08l19.5-9.25c.3-.14.49-.45.49-.78,0-.33-.19-.64-.49-.78l-12.76-6.06c-.11-.05-.24-.08-.37-.08h0Z" style="fill:#e1eaee;"/></g></g><g><circle cx="37.46" cy="93.55" r="3.42" style="fill:#3c707c;"/><path d="m35.47,74.47l-29.59-14.04c-.22-.1-.22-.41,0-.51l46.26-21.95c1.33-.63,2.88-.63,4.22,0l29.59,14.04c.22.1.22.41,0,.51l-46.26,21.95c-1.33.63-2.88.63-4.22,0Z" style="fill:#295760; stroke:#36646f; stroke-miterlimit:10;"/><g><polygon points="10.57 53.23 23.53 59.35 23.53 75.45 10.57 69.33 10.57 53.23" style="fill:#dbe6ea;"/><polygon points="43.29 66.07 23.53 75.45 23.53 59.35 43.29 49.97 43.29 66.07" style="fill:#b8d0d9;"/><g><path d="m23.53,59.72c-.05,0-.16-.02-.21-.05l-12.76-6.06c-.17-.08-.28-.25-.28-.44,0-.19.11-.36.28-.44l19.5-9.25c.05-.02.16-.05.21-.05s.16.02.21.05l12.76,6.06c.17.08.28.25.28.44,0,.19-.11.36-.28.44l-19.5,9.25c-.05.02-.16.05-.21.05Z" style="fill:#e1eaee;"/><path d="m30.27,43.8s.03,0,.05.01l12.76,6.06c.09.04.09.17,0,.21l-19.5,9.25s-.03.01-.05.01-.03,0-.05-.01l-12.76-6.06c-.09-.04-.09-.17,0-.21l19.5-9.25s.03-.01.05-.01m0-.75c-.13,0-.26.03-.37.08l-19.5,9.25c-.3.14-.49.45-.49.78s.19.64.49.78l12.76,6.06c.12.05.24.08.37.08s.26-.03.37-.08l19.5-9.25c.3-.14.49-.45.49-.78s-.19-.64-.49-.78l-12.76-6.06c-.11-.05-.24-.08-.37-.08h0Z" style="fill:#e1eaee;"/></g></g><path d="m83.56,41.89c-5.9-5.97-26.52-3.61-31.9-1.53-5.39,2.08-18.9,9.57-20.36,23.9-1.45,14.33,24.09,19.53,24.09,19.53,16.41-1.25,24.93-11.01,27.28-13.92,2.35-2.91-5.21-5.13-5.41-11.57-.21-6.44,12.2-10.45,6.3-16.42Zm-9.67,10.43c-2.12.78-4.36-.03-5.01-1.8s.54-3.83,2.66-4.61c2.12-.78,4.36.03,5.01,1.8s-.54,3.83-2.66,4.61Z" style="fill:#f0e2d6;"/><path d="m63.83,51.86l-24.83,11.78c-1.51.72-2.47,2.24-2.47,3.91v17.69c0,3.18,3.31,5.27,6.18,3.91l24.83-11.78c1.51-.72,2.47-2.24,2.47-3.91v-17.69c0-3.18-3.31-5.27-6.18-3.91Zm1.58,11.72c-1.43,0-2.6-1.96-2.6-4.38s1.16-4.38,2.6-4.38,2.6,1.96,2.6,4.38-1.16,4.38-2.6,4.38Z" style="fill:#eaf2f6;"/><path d="m48.72,70.21l-7.61,3.61c-.88.42-1.9-.22-1.9-1.2v-5.42c0-.51.29-.98.76-1.2l7.61-3.61c.88-.42,1.9.22,1.9,1.2v5.42c0,.51-.29.98-.76,1.2Z" style="fill:#dae1e5;"/><path d="m60.52,64.82l-7.61,3.61c-.88.42-1.9-.22-1.9-1.2v-5.42c0-.51.29-.98.76-1.2l7.61-3.61c.88-.42,1.9.22,1.9,1.2v5.42c0,.51-.29.98-.76,1.2Z" style="fill:#dae1e5;"/><g><path d="m5.65,59.43l30.95,14.63c.53.25.86.78.86,1.36v19.56c0,1.1-1.15,1.83-2.15,1.36l-25.55-12.08c-2.51-1.19-4.11-3.71-4.11-6.49v-18.34Z" style="fill:#3c707c;"/><path d="m82.08,76.17l-42.48,20.16c-1,.47-2.15-.25-2.15-1.36v-19.55c0-.58.33-1.11.86-1.36l47.67-22.62v18.56c0,2.64-1.52,5.04-3.9,6.17Z" style="fill:#2e5963;"/><path d="m85.95,52c.22.1.22.41,0,.51l-46.26,21.95c-1.33.63-2.88.63-4.22,0l-29.59-14.04c-.22-.1-.22-.41,0-.51" style="fill:none; stroke:#36646f; stroke-miterlimit:10;"/></g></g><g><path d="m35.47,37.62L5.89,23.58c-.22-.1-.22-.41,0-.51L52.15,1.11c1.33-.63,2.88-.63,4.22,0l29.59,14.04c.22.1.22.41,0,.51l-46.26,21.95c-1.33.63-2.88.63-4.22,0Z" style="fill:#295760; stroke:#36646f; stroke-miterlimit:10;"/><g><polygon points="38.98 10.28 51.94 16.41 51.94 32.51 38.98 26.38 38.98 10.28" style="fill:#dbe6ea;"/><polygon points="71.7 23.12 51.94 32.51 51.94 16.41 71.7 7.03 71.7 23.12" style="fill:#b8d0d9;"/><g><path d="m51.94,16.77c-.05,0-.16-.02-.21-.05l-12.76-6.06c-.17-.08-.28-.25-.28-.44,0-.19.11-.36.28-.44L58.47.53c.05-.02.16-.05.21-.05s.16.02.21.05l12.76,6.06c.17.08.28.25.28.45s-.11.36-.28.44l-19.5,9.25c-.05.02-.16.05-.21.05Z" style="fill:#e1eaee;"/><path d="m58.68.85s.03,0,.05.01l12.76,6.06c.09.04.09.17,0,.21l-19.5,9.25s-.03.01-.05.01-.03,0-.05-.01l-12.76-6.06c-.09-.04-.09-.17,0-.21L58.63.87s.03-.01.05-.01m0-.75c-.13,0-.26.03-.37.08l-19.5,9.25c-.3.14-.49.45-.49.78s.19.64.49.78l12.76,6.06c.12.05.24.08.37.08s.26-.03.37-.08l19.5-9.25c.3-.14.49-.45.49-.78,0-.33-.19-.64-.49-.78L59.05.19c-.11-.05-.24-.08-.37-.08h0Z" style="fill:#e1eaee;"/></g></g><circle cx="37.46" cy="56.7" r="3.42" style="fill:#3c707c;"/><ellipse cx="36.53" cy="18.43" rx="9.09" ry="4.96" style="fill:#494848;"/><g><line x1="29.77" y1="6.29" x2="32.33" y2="25.48" style="fill:none; stroke:#919090; stroke-miterlimit:10;"/><path d="m32.1,3.37l-5.06,1.93c-.28.11-.43.47-.29.73l2.97,3.65,1.04-.36,1.88-5.4c.1-.37-.2-.68-.53-.55Z" style="fill:#e2c9b2;"/></g><g><line x1="33.96" y1="7.66" x2="32.4" y2="26.96" style="fill:none; stroke:#919090; stroke-miterlimit:10;"/><path d="m34.98,5.6l-2.21.2c-.12.01-.22.14-.19.26l.57,2.8,1.34-.07.65-2.91c.08-.14,0-.29-.15-.28Z" style="fill:#e2c9b2;"/></g><g><line x1="36.53" y1="6.15" x2="36.53" y2="25.51" style="fill:none; stroke:#919090; stroke-miterlimit:10;"/><path d="m37.25,5.32l-1.44.25c-.08.01-.14.1-.11.18l.13,1.86,1.5-.21.03-1.91c.05-.09-.02-.19-.11-.17Z" style="fill:#e2c9b2;"/></g><g><line x1="41.06" y1="5.97" x2="35.69" y2="24.57" style="fill:none; stroke:#919090; stroke-miterlimit:10;"/><path d="m43.56,3.74l-3.61-.4c-.2-.02-.4.15-.4.35l-.97,4.52,3.73.54,1.4-4.53c.18-.19.09-.47-.15-.49Z" style="fill:#e2c9b2;"/></g><g><path d="m43.47,16.38s-1.8,1.26-2.64,2.54c-.67,1.02-3.42,13.19-4.5,18-.05.22.27.32.36.11l6.02-16.81,2.36-2.64-1.61-1.19Z" style="fill:#bab9b9;"/><path d="m41.33,16.06s.85,2.03.88,3.55c.02,1.22-4.13,12.99-5.79,17.63-.08.22-.4.13-.36-.1l3.5-17.39-.23-3.53,1.99-.16Z" style="fill:#c9c8c8;"/><path d="m44.6,18.27c-.09-.05-.19-.1-.27-.16-.7-.49-1.08-1.36-1.06-2.38.02-.93.38-1.93.99-2.8,1.36-1.92,3.48-2.66,4.91-1.66.7.49,1.08,1.36,1.06,2.38-.02.93-.38,1.92-.99,2.8h0c-.62.87-1.44,1.54-2.31,1.87-.83.32-1.66.3-2.33-.04Zm3.65-5.92c-.74-.38-1.97.14-2.73,1.17-.42.57-.65,1.24-.64,1.84,0,.3.08.83.5,1.13.44.3.97.18,1.26.09.58-.19,1.16-.63,1.57-1.2h0c.42-.57.65-1.24.64-1.84,0-.3-.08-.83-.5-1.13-.03-.02-.07-.04-.11-.06Z" style="fill:#7e7d7d;"/><path d="m42.61,4.27c-2.12-.42-4.39,2.08-5.08,5.57s.47,6.67,2.59,7.08c1.19.23,1.49-1.99,2.47-3.26.76-.99,2.4-1.38,2.71-2.91.69-3.49-.57-6.07-2.69-6.49Zm-1.7,8.59c-1.39-.27-2.22-2.07-1.84-4s1.82-3.28,3.21-3.01,2.22,2.07,1.84,4-1.82,3.28-3.21,3.01Z" style="fill:#7e7d7d;"/></g><path d="m36.53,23.4c-5.02,0-9.09-2.22-9.09-4.96v26.07h17.77l.41-26.07c0,2.74-4.07,4.96-9.09,4.96Z" style="fill:#575656;"/><ellipse cx="20.34" cy="24.33" rx="9.09" ry="4.96" style="fill:#565555;"/><g><g><line x1="14.96" y1="19.26" x2="15.67" y2="33.37" style="fill:none; stroke:#686666; stroke-linecap:round; stroke-miterlimit:10; stroke-width:2px;"/><line x1="14.91" y1="18.39" x2="15.16" y2="23.2" style="fill:none; stroke:#1c1a1a; stroke-linecap:round; stroke-miterlimit:10; stroke-width:2.3px;"/></g><g><line x1="17.86" y1="16.89" x2="18.57" y2="31.01" style="fill:none; stroke:#686666; stroke-linecap:round; stroke-miterlimit:10; stroke-width:2px;"/><line x1="17.81" y1="16.03" x2="18.05" y2="20.84" style="fill:none; stroke:#b97f6e; stroke-linecap:round; stroke-miterlimit:10; stroke-width:2.3px;"/></g><g><line x1="22.07" y1="16.28" x2="22.07" y2="30.41" style="fill:none; stroke:#686666; stroke-linecap:round; stroke-miterlimit:10; stroke-width:2px;"/><line x1="22.07" y1="15.41" x2="22.07" y2="20.23" style="fill:none; stroke:#6c92a5; stroke-linecap:round; stroke-miterlimit:10; stroke-width:2.3px;"/></g><g><line x1="20.74" y1="19.75" x2="18.75" y2="33.74" style="fill:none; stroke:#686666; stroke-linecap:round; stroke-miterlimit:10; stroke-width:2px;"/><line x1="20.86" y1="18.89" x2="20.18" y2="23.66" style="fill:none; stroke:#1c1a1a; stroke-linecap:round; stroke-miterlimit:10; stroke-width:2.3px;"/></g><polygon points="24.46 47.03 29.55 0 25.02 1.57 20.18 46.27 24.46 47.03" style="fill:#dae1e5; opacity:.92;"/></g><path d="m29.21,38.45l.22-14.12c0,2.74-4.07,4.96-9.09,4.96s-9.09-2.22-9.09-4.96v8.23l17.96,5.89Z" style="fill:#6a6969;"/><g><path d="m38.24,15.22l-10.88,5.16c-.86.41-1.41,1.28-1.41,2.24v21.7c0,1.82,1.89,3.01,3.53,2.24l10.88-5.16c.86-.41,1.41-1.28,1.41-2.24v-21.7c0-1.82-1.89-3.01-3.53-2.24Z" style="fill:#444a4e;"/><path d="m36.76,17.12l-8.38,3.98c-.86.41-1.41,1.28-1.41,2.24v21.13" style="fill:none; stroke:#768086; stroke-miterlimit:10; stroke-width:.5px;"/><path d="m36.83,16.93h.79c.07,0,.12.05.12.12v1.47c0,.18-.15.33-.33.33h-.36c-.18,0-.33-.15-.33-.33v-1.47c0-.07.05-.12.12-.12Z" transform="translate(-3.96 21.01) rotate(-30)" style="fill:#919090;"/></g><path d="m66.09,29.74l-31.45,14.93c-.74.35-1.59-.19-1.59-1.01v-14.48c0-.43.25-.82.64-1.01l32.97-15.65c1.08-.51,2.32.27,2.32,1.47v11.17c0,1.95-1.12,3.73-2.89,4.57Z" style="fill:#919090;"/><path d="m78.83,26.75l-32.96,15.64c-1.18.56-2.55-.3-2.55-1.61v-14.43c0-.69.4-1.31,1.02-1.61l34.6-16.42c1.55-.74,3.34.4,3.34,2.11v10.84c0,2.34-1.35,4.47-3.46,5.48Z" style="fill:#dae1e5;"/><path d="m70.6,27.38l-23.97,11.38v-11.96l25.35-12.03v10.42c0,.93-.54,1.79-1.38,2.19Z" style="fill:#e8e6e6;"/><g><path d="m5.65,22.58l30.95,14.63c.53.25.86.78.86,1.36v19.56c0,1.1-1.15,1.83-2.15,1.36l-25.55-12.08c-2.51-1.19-4.11-3.71-4.11-6.49v-18.34Z" style="fill:#3c707c;"/><path d="m82.08,39.32l-42.48,20.16c-1,.47-2.15-.25-2.15-1.36v-19.55c0-.58.33-1.11.86-1.36l47.67-22.62v18.56c0,2.64-1.52,5.04-3.9,6.17Z" style="fill:#2e5963;"/><path d="m85.95,15.15c.22.1.22.41,0,.51l-46.26,21.95c-1.33.63-2.88.63-4.22,0L5.89,23.58c-.22-.1-.22-.41,0-.51" style="fill:none; stroke:#36646f; stroke-miterlimit:10;"/></g></g><path d="m19.59,32.69l3.28,1.55c.45.21.74.67.74,1.17v93.69c0,.95-.99,1.58-1.85,1.17l-3.28-1.55c-.45-.21-.74-.67-.74-1.17V33.86c0-.95.99-1.58,1.85-1.17Z" style="fill:#36646f;"/><line x1="9.85" y1="24.89" x2="9.85" y2="30.41" style="fill:none; stroke:#444a4e; stroke-linecap:round; stroke-miterlimit:10; stroke-width:2px;"/><path d="m8.52,87.37s-1.01-16.71-.62-31.78c.36-14.05,1.17-24.68,1.37-25.17,2.17-5.25,4.97,72.09,4.01,83.2" style="fill:none; stroke:#d0cece; stroke-miterlimit:10; stroke-width:2px;"/><line x1="19.09" y1="49.41" x2="20.34" y2="48.5" style="fill:none; stroke:#768086; stroke-linecap:round; stroke-miterlimit:10; stroke-width:2px;"/><path d="m1.7,42.59s5.89-12.54,8.46-12.56,10.94,16.69,10.51,18.31" style="fill:none; stroke:#768086; stroke-miterlimit:10;"/><g><path d="m19.02,47.5l-6.9-2.59-2.41-.91-6.92-1.77c-.59.02-1.12.45-1.09,1.78.04,1.96.98,4.31,1.96,4.78,1.65.79,4.34,1.77,5.39,2.02.47.11,0,.29.6-1.04.48,1.73,2.16,2.01,2.63,2.25,1.04.53,3.73,1.57,5.39,2.02,1.66.45,2.78-5.41,1.36-6.54Z" style="fill:none; stroke:#94a6ae; stroke-linecap:round; stroke-linejoin:round; stroke-width:2px;"/><path d="m17.69,48.69l-6.9-2.59-2.41-.91-6.9-2.59c-.59,0-.79.97-.72,2.19.11,1.79.82,4.1,1.81,4.56,1.65.78,4.34,1.76,5.39,2.03.47.12,1.08-.92,1.62-2.11.53,1.59,1.14,3.09,1.61,3.33,1.04.52,3.73,1.56,5.39,2.03,1.66.47,2.56-4.84,1.12-5.92Z" style="fill:rgba(184,208,217,.58); stroke:#94a6ae; stroke-linecap:round; stroke-linejoin:round; stroke-width:1.5px;"/></g><line x1="8.83" y1="28.83" x2="8.83" y2="31.23" style="fill:none; stroke:#444a4e; stroke-linecap:round; stroke-miterlimit:10; stroke-width:2px;"/></g></g></svg>