<?xml version="1.0" encoding="UTF-8"?><svg id="uuid-3ddbba37-055f-44ed-b360-b73d9d255b01" xmlns="http://www.w3.org/2000/svg" viewBox="0 0 89.08 49.32"><g id="uuid-f5b90d03-08e1-48ac-8537-57876e7863ae"><g><path d="m88.87,23.48c1.99,11.29-9.64,26.92-42.81,25.79C12.89,48.14-2.44,35.35.32,23.48S2.68,8.94,10.1,4.09C18.18-1.18,34.65.46,44.59.65s27.98-2.93,36.1,3.07c6.35,4.69,6.18,8.47,8.17,19.76Z" style="fill:#f0ddcd;"/><path d="m21.87,18.91c-.66-.98.59-2.83,3.79-2.64s4.07,6.49,6.51,7.81c1.55.84-2.12-.41-5.04-2.74s-4.61-1.44-5.27-2.43Z" style="fill:#e2c0a2;"/><path d="m30.29,16.3c6.55-3.58,4.14,6.99,3.72,8.75,0,0-3.5-6.97-3.72-8.75Z" style="fill:#e2c0a2;"/><path d="m59.7,16.26s2.28.11,3.01,2.1-5.47,6.78-5.47,6.78c0,0,1.54-7.4,2.46-8.88Z" style="fill:#e2c0a2;"/><path d="m31.56,23.58c-1.13,1.54,6.08,3.42,14.93,3.45s17.05-3.11,17.08-4.44-13.55,2.17-16.48,2-14.4-2.55-15.53-1.01Z" style="fill:#e2c0a2;"/></g></g></svg>