<?xml version="1.0" encoding="UTF-8"?><svg id="uuid-0cca14a0-a8d0-49dc-848a-fd099ac1d2a9" xmlns="http://www.w3.org/2000/svg" viewBox="0 0 91.98 193.58"><g id="uuid-1ceb09d7-dc16-4dd8-8d2d-7d786902e6e9"><g><g><g><g><circle cx="16.07" cy="171.5" r="4.25" style="fill:#6c7a81;"/><path d="m16.07,168.25c1.79,0,3.25,1.46,3.25,3.25s-1.46,3.25-3.25,3.25-3.25-1.46-3.25-3.25,1.46-3.25,3.25-3.25m0-2c-2.9,0-5.25,2.35-5.25,5.25s2.35,5.25,5.25,5.25,5.25-2.35,5.25-5.25-2.35-5.25-5.25-5.25h0Z" style="fill:#34393d;"/></g><g><circle cx="47.81" cy="188.34" r="4.25" style="fill:#6c7a81;"/><path d="m47.81,185.08c1.79,0,3.25,1.46,3.25,3.25s-1.46,3.25-3.25,3.25-3.25-1.46-3.25-3.25,1.46-3.25,3.25-3.25m0-2c-2.9,0-5.25,2.35-5.25,5.25s2.35,5.25,5.25,5.25,5.25-2.35,5.25-5.25-2.35-5.25-5.25-5.25h0Z" style="fill:#34393d;"/></g><g><circle cx="79.14" cy="171.5" r="4.25" style="fill:#6c7a81;"/><path d="m79.14,168.25c1.79,0,3.25,1.46,3.25,3.25s-1.46,3.25-3.25,3.25-3.25-1.46-3.25-3.25,1.46-3.25,3.25-3.25m0-2c-2.9,0-5.25,2.35-5.25,5.25s2.35,5.25,5.25,5.25,5.25-2.35,5.25-5.25-2.35-5.25-5.25-5.25h0Z" style="fill:#34393d;"/></g><g><circle cx="70.01" cy="143" r="4.25" style="fill:#6c7a81;"/><path d="m70.01,139.75c1.79,0,3.25,1.46,3.25,3.25s-1.46,3.25-3.25,3.25-3.25-1.46-3.25-3.25,1.46-3.25,3.25-3.25m0-2c-2.9,0-5.25,2.35-5.25,5.25s2.35,5.25,5.25,5.25,5.25-2.35,5.25-5.25-2.35-5.25-5.25-5.25h0Z" style="fill:#34393d;"/></g><g><circle cx="25.61" cy="143" r="4.25" style="fill:#6c7a81;"/><path d="m25.61,139.75c1.79,0,3.25,1.46,3.25,3.25s-1.46,3.25-3.25,3.25-3.25-1.46-3.25-3.25,1.46-3.25,3.25-3.25m0-2c-2.9,0-5.25,2.35-5.25,5.25s2.35,5.25,5.25,5.25,5.25-2.35,5.25-5.25-2.35-5.25-5.25-5.25h0Z" style="fill:#34393d;"/></g></g><g><line x1="47.81" y1="151.68" x2="47.81" y2="185.91" style="fill:none; stroke:#2e3337; stroke-linecap:round; stroke-linejoin:bevel; stroke-width:4px;"/><line x1="47.81" y1="151.68" x2="27.54" y2="138.52" style="fill:none; stroke:#2e3337; stroke-linecap:round; stroke-linejoin:bevel; stroke-width:4px;"/><line x1="47.81" y1="151.68" x2="68.08" y2="138.52" style="fill:none; stroke:#2e3337; stroke-linecap:round; stroke-linejoin:bevel; stroke-width:4px;"/><line x1="47.81" y1="151.68" x2="13.92" y2="167.97" style="fill:none; stroke:#2e3337; stroke-linecap:round; stroke-linejoin:bevel; stroke-width:4px;"/><line x1="47.81" y1="151.68" x2="81.7" y2="167.97" style="fill:none; stroke:#2e3337; stroke-linecap:round; stroke-linejoin:bevel; stroke-width:4px;"/></g><line x1="47.81" y1="118.44" x2="47.81" y2="150.44" style="fill:none; stroke:#34393d; stroke-linecap:round; stroke-linejoin:bevel; stroke-width:6px;"/></g><g><g><line x1="62.07" y1="75.92" x2="71.08" y2="106.81" style="fill:none; stroke:#2e3337; stroke-linecap:round; stroke-linejoin:bevel; stroke-width:5px;"/><g><polygon points="58.77 76.02 62 74.48 89.28 87.43 86.05 88.97 58.77 76.02" style="fill:#34393d; opacity:.69;"/><path d="m62,71.97c-.34,0-.69.08-1.01.23l-3.59,1.7c-1.79.85-1.79,3.39,0,4.24l27.63,13.12c.32.15.66.23,1.01.23s.69-.08,1.01-.23l3.59-1.7c1.79-.85,1.79-3.39,0-4.24l-27.63-13.12c-.32-.15-.66-.23-1.01-.23h0Z" style="fill:#282c30;"/></g></g><path d="m27.79,119.58c1.94-16.18,1.73-29.28,1.15-38.33-.66-10.43-1.84-16.29-3.89-35.95-1.17-11.26-1.95-20.49-2.42-26.56" style="fill:rgba(52,57,61,.69); stroke:#626568; stroke-linejoin:round; stroke-width:5px;"/><path d="m41.17,88.73l-23.21,11.02c-1.37.65-2.95-.35-2.95-1.87v-9.87c0-.8.46-1.53,1.18-1.87l23.21-11.02c1.37-.65,2.95.35,2.95,1.87v9.87c0,.8-.46,1.53-1.18,1.87Z" style="fill:#41494e;"/><g><path d="m8.02,126.2c1.15-11.59,1.38-23.13.68-34.31-.38-6.01-.94-10.58-1.71-16.91-.58-4.77-1.31-10.7-2.19-19.15-.86-8.27-1.63-16.61-2.28-24.78L42.37,12.14c.62,7.64,1.35,15.38,2.14,23,.89,8.49,1.61,14.44,2.2,19.23.76,6.24,1.32,10.75,1.69,16.62.75,11.88.42,24.16-.98,36.51l-39.4,18.7Z" style="fill:#34393d; opacity:.69;"/><path d="m40.18,15.95c.55,6.45,1.17,12.97,1.85,19.45.89,8.51,1.62,14.48,2.21,19.27.79,6.43,1.31,10.68,1.67,16.47.71,11.29.44,22.95-.82,34.69l-34.18,16.22c.82-10.25.92-20.43.29-30.33-.38-6.09-.95-10.69-1.73-17.06-.58-4.76-1.31-10.68-2.18-19.1-.8-7.67-1.52-15.4-2.14-23L40.18,15.95m2.36-6.41c-.33,0-.67.07-.99.23L1.32,28.86c-.87.41-1.39,1.31-1.31,2.26.48,6.04,1.22,14.66,2.3,24.98,2.05,19.66,3.24,25.52,3.89,35.95.52,8.28.74,19.93-.7,34.23-.14,1.43,1,2.55,2.29,2.55.33,0,.66-.07.99-.23l39.8-18.89c.72-.34,1.22-1.04,1.31-1.83,1.78-15.59,1.56-28.23,1-37.05-.66-10.43-1.84-16.29-3.89-35.95-.98-9.36-1.68-17.32-2.16-23.23-.1-1.25-1.15-2.12-2.3-2.12h0Z" style="fill:#34393d;"/></g><path d="m42.36,20.68L7.58,37.19c-2.06.98-4.43-.52-4.43-2.8v-14.78c0-1.2.69-2.29,1.77-2.8L39.71.3c2.06-.98,4.43.52,4.43,2.8v14.78c0,1.2-.69,2.29-1.77,2.8Z" style="fill:#41494e;"/><path d="m46.03,143.24l-32.4-15.38c-8.04-3.82-8.04-15.26,0-19.08l31.91-15.15c1.28-.61,2.76-.61,4.04,0l32.4,15.38c8.04,3.82,8.04,15.26,0,19.08l-31.91,15.15c-1.28.61-2.76.61-4.04,0Z" style="fill:#41494e;"/><g><line x1="7.43" y1="101.85" x2="16.43" y2="132.74" style="fill:none; stroke:#2e3337; stroke-linecap:round; stroke-linejoin:bevel; stroke-width:5px;"/><g><polygon points="4.13 101.95 7.36 100.42 34.64 113.37 31.41 114.9 4.13 101.95" style="fill:#34393d; opacity:.69;"/><path d="m7.36,97.9c-.34,0-.69.08-1.01.23l-3.59,1.7c-1.79.85-1.79,3.39,0,4.24l27.63,13.12c.32.15.66.23,1.01.23s.69-.08,1.01-.23l3.59-1.7c1.79-.85,1.79-3.39,0-4.24l-27.63-13.12c-.32-.15-.66-.23-1.01-.23h0Z" style="fill:#282c30;"/></g></g></g></g></g></svg>