<?xml version="1.0" encoding="UTF-8"?><svg id="uuid-830b4db3-96d5-4dbe-92bf-a179a2161838" xmlns="http://www.w3.org/2000/svg" viewBox="0 0 284.02 167.46"><g id="uuid-7bc5fa78-0f75-4381-98cc-2a17689608cf"><g><path d="m151.83,75.78l-31.54,14.97c-.58.28-.95.86-.95,1.51v11.78c0,.64-.37,1.23-.95,1.51l-9.38,4.45c-.58.28-.95.86-.95,1.51v8.23c0,.64-.37,1.23-.95,1.51l-18.96,9c-.58.28-.95.86-.95,1.51v21.22c0,1.22,1.28,2.03,2.38,1.51l16.1-7.64c1.11-.52,2.38.28,2.38,1.51v.85c0,1.22,1.28,2.03,2.38,1.51l39.23-18.62c.58-.28.95-.86.95-1.51v-4.36c0-.64.37-1.23.95-1.51l26.43-12.54c.58-.28.95-.86.95-1.51v-30.2c0-1.22-1.28-2.03-2.38-1.51l-19.97,9.48c-1.11.52-2.38-.28-2.38-1.51v-9.62c0-1.22-1.28-2.03-2.38-1.51Z" style="fill:#e3f2f4;"/><path d="m281.63,6.34l-19.08,9.06c-1.11.52-2.38-.28-2.38-1.51V1.67c0-1.22-1.28-2.03-2.38-1.51l-31.54,14.97c-.58.28-.95.86-.95,1.51v20.68c0,.64-.37,1.23-.95,1.51l-23.09,10.96c-.58.28-.95.86-.95,1.51v7.5c0,.64-.37,1.23-.95,1.51l-18.43,8.75c-.58.28-.95.86-.95,1.51v21.22c0,1.22,1.28,2.03,2.38,1.51l15.58-7.39c1.11-.52,2.38.28,2.38,1.51v6.5c0,1.22,1.28,2.03,2.38,1.51l44.3-21.02c.58-.28.95-.86.95-1.51v-3.12c0-.64.37-1.23.95-1.51l34.18-16.22c.58-.28.95-.86.95-1.51V7.85c0-1.22-1.28-2.03-2.38-1.51Z" style="fill:#e3f2f4;"/><path d="m91.72,129.11v-41.93c0-1.22-1.28-2.03-2.38-1.51l-24.67,11.71c-1.11.52-2.38-.28-2.38-1.51v-14.85c0-1.22-1.28-2.03-2.38-1.51l-31.54,14.97c-.58.28-.95.86-.95,1.51v11.78c0,.64-.37,1.23-.95,1.51l-9.38,4.45c-.58.28-.95.86-.95,1.51v11.74c0,.64-.37,1.23-.95,1.51l-14.22,6.75c-.58.28-.95.86-.95,1.51v29.04c0,1.22,1.28,2.03,2.38,1.51l40.01-18.99c1.11-.52,2.38.28,2.38,1.51h0c0,1.22,1.28,2.03,2.38,1.51l43.61-20.7c.58-.28.95-.86.95-1.51Z" style="fill:#e3f2f4;"/></g></g></svg>