<?xml version="1.0" encoding="UTF-8"?><svg id="uuid-7d11423e-23cd-47b8-8feb-42b4955e459c" xmlns="http://www.w3.org/2000/svg" viewBox="0 0 36.17 25.99"><g id="uuid-419de2fb-d2ca-4b30-add5-a38763d623ee"><g><path d="m16.44,13.04c0-2.48-3.68-4.49-8.22-4.49S0,10.56,0,13.04v1.05c0,2.48,3.68,4.49,8.22,4.49s8.22-2.01,8.22-4.49v-1.05Z" style="fill:#34393d;"/><g><path d="m14.13,4.91c-.07,0-.13.02-.19.02l.19-1.62c0-1.83-2.71-3.31-6.06-3.31S2.02,1.48,2.02,3.31l1.02,8.59c0,1.52,2.26,2.75,5.04,2.75s5.04-1.23,5.04-2.75l.18-1.54c.26.1.54.17.84.17,1.41,0,2.56-1.26,2.56-2.81s-1.14-2.81-2.56-2.81Zm0,4.37c-.25,0-.48-.09-.68-.23l.34-2.83c.11-.04.22-.06.34-.06.72,0,1.31.7,1.31,1.56s-.59,1.56-1.31,1.56Z" style="fill:#276c7c;"/><ellipse cx="8.08" cy="3.34" rx="5" ry="2.73" style="fill:#544b44;"/></g><ellipse cx="1.82" cy="12.42" rx=".67" ry=".36" style="fill:#597477;"/><line x1="14.22" y1="15.26" x2="35.96" y2="25.54" style="fill:#34393d; stroke:#34393d; stroke-miterlimit:10;"/></g></g></svg>