<?xml version="1.0" encoding="UTF-8"?><svg id="uuid-bc95d48a-ba82-493b-8df8-fe441aeaae77" xmlns="http://www.w3.org/2000/svg" viewBox="0 0 76.39 38.18"><g id="uuid-7d3c3e12-8614-4b1b-aeda-25288b1096f6"><g><path d="m40.91,14.2L67.1,1.77c2.02-1.07,3.99-1.88,6.11-.65s2.68,8.27,2.68,8.27" style="fill:none; stroke:#fffcfc; stroke-miterlimit:10;"/><g><g><path d="m39.94,21.16L4.76,37.85c-2.21,1.05-4.76-.56-4.76-3.01v-4.73c0-1.29.74-2.46,1.9-3.01L37.08,10.4c2.21-1.05,4.76.56,4.76,3.01v4.73c0,1.29-.74,2.46-1.9,3.01Z" style="fill:#fdf9f8;"/><line x1="4.58" y1="30.47" x2="6.74" y2="29.44" style="fill:#a0a9ae; stroke:#a0a9ae; stroke-linecap:round; stroke-linejoin:bevel; stroke-width:.75px;"/><line x1="4.58" y1="34.37" x2="6.74" y2="33.34" style="fill:#a0a9ae; stroke:#a0a9ae; stroke-linecap:round; stroke-linejoin:bevel; stroke-width:.75px;"/><g><line x1="13.52" y1="27.2" x2="14.28" y2="26.84" style="fill:#a0a9ae; stroke:#a0a9ae; stroke-linecap:round; stroke-linejoin:bevel; stroke-width:.75px;"/><line x1="13.52" y1="29.63" x2="14.28" y2="29.27" style="fill:#a0a9ae; stroke:#a0a9ae; stroke-linecap:round; stroke-linejoin:bevel; stroke-width:.75px;"/><polygon points="11.93 29.28 11.93 28.47 12.56 28.58 11.93 29.28" style="fill:#a0a9ae; stroke:#a0a9ae; stroke-linejoin:round; stroke-width:.25px;"/></g><g><line x1="18.64" y1="24.77" x2="19.41" y2="24.4" style="fill:#a0a9ae; stroke:#a0a9ae; stroke-linecap:round; stroke-linejoin:bevel; stroke-width:.75px;"/><line x1="18.64" y1="27.2" x2="19.41" y2="26.84" style="fill:#a0a9ae; stroke:#a0a9ae; stroke-linecap:round; stroke-linejoin:bevel; stroke-width:.75px;"/><polygon points="17.06 26.85 17.06 26.03 17.68 26.14 17.06 26.85" style="fill:#a0a9ae; stroke:#a0a9ae; stroke-linejoin:round; stroke-width:.25px;"/></g><g><line x1="23.7" y1="22.37" x2="24.47" y2="22" style="fill:#a0a9ae; stroke:#a0a9ae; stroke-linecap:round; stroke-linejoin:bevel; stroke-width:.75px;"/><line x1="23.7" y1="24.8" x2="24.47" y2="24.44" style="fill:#a0a9ae; stroke:#a0a9ae; stroke-linecap:round; stroke-linejoin:bevel; stroke-width:.75px;"/><polygon points="22.12 24.45 22.12 23.63 22.74 23.74 22.12 24.45" style="fill:#a0a9ae; stroke:#a0a9ae; stroke-linejoin:round; stroke-width:.25px;"/></g><g><line x1="28.73" y1="19.98" x2="29.5" y2="19.62" style="fill:#a0a9ae; stroke:#a0a9ae; stroke-linecap:round; stroke-linejoin:bevel; stroke-width:.75px;"/><line x1="28.73" y1="22.41" x2="29.5" y2="22.05" style="fill:#a0a9ae; stroke:#a0a9ae; stroke-linecap:round; stroke-linejoin:bevel; stroke-width:.75px;"/><polygon points="27.15 22.06 27.15 21.24 27.77 21.36 27.15 22.06" style="fill:#a0a9ae; stroke:#a0a9ae; stroke-linejoin:round; stroke-width:.25px;"/></g><g><line x1="33.96" y1="17.5" x2="34.73" y2="17.13" style="fill:#a0a9ae; stroke:#a0a9ae; stroke-linecap:round; stroke-linejoin:bevel; stroke-width:.75px;"/><line x1="33.96" y1="19.93" x2="34.73" y2="19.57" style="fill:#a0a9ae; stroke:#a0a9ae; stroke-linecap:round; stroke-linejoin:bevel; stroke-width:.75px;"/><polygon points="32.38 19.58 32.38 18.76 33 18.87 32.38 19.58" style="fill:#a0a9ae; stroke:#a0a9ae; stroke-linejoin:round; stroke-width:.25px;"/></g></g><path d="m17.82,28.96c-.36-.41-.84-.64-1.3-.78v-1.41c0-.12-.04-.34-.16-.44-.15-.13-.38-.14-.38-.14,0-.6-.63-1-1.17-.74l-1.4.66c-.29.14-.47.42-.47.74v3.4c0,.6.63,1,1.17.74l1.4-.66c.11-.05.2-.13.28-.23l.51-.24c.14-.06.22-.2.22-.35v-.27c.21.09.4.22.55.38.26.29.36.68.29,1.2-.11.9-.23,1.82-1.4,2.34-.54.24-1.21.27-1.81.22l-1.61.75c.32.08,1.14.26,2.04.26.6,0,1.23-.08,1.78-.32,1.68-.75,1.87-2.18,1.99-3.15.1-.8-.08-1.46-.54-1.97Z" style="fill:#34393d;"/></g></g></g></svg>