<?xml version="1.0" encoding="UTF-8"?><svg id="uuid-2a5b764c-fb5f-44de-aa25-c9540dfca3b5" xmlns="http://www.w3.org/2000/svg" viewBox="0 0 115.15 111.47"><g id="uuid-65f15bb1-ad75-41b1-ac6c-b32bd6e22047"><g><polygon points=".46 33.73 45.79 55.15 45.79 111.47 .46 90.04 .46 33.73" style="fill:#f0ddcd;"/><polygon points="114.93 78.65 45.79 111.47 45.79 55.15 114.93 22.34 114.93 78.65" style="fill:#e2c0a2;"/><g><path d="m45.79,55.49c-.11,0-.23-.03-.33-.08L.82,34.23c-.27-.13-.44-.4-.44-.7s.17-.57.44-.7L69.03.45c.1-.05.22-.08.33-.08s.23.03.33.08l44.64,21.18c.27.13.44.4.44.7s-.17.57-.44.7L46.12,55.41c-.1.05-.22.08-.33.08Z" style="fill:#f2e1d4;"/><path d="m69.36.75c.06,0,.12.01.17.04l44.63,21.18c.31.15.31.58,0,.73L45.96,55.07c-.05.03-.11.04-.17.04s-.12-.01-.17-.04L.98,33.89c-.31-.15-.31-.58,0-.73L69.19.79c.05-.03.11-.04.17-.04m0-.75c-.17,0-.34.04-.49.11L.66,32.48C.25,32.68,0,33.07,0,33.52,0,33.97.25,34.37.66,34.56l44.63,21.18c.15.07.32.11.49.11s.34-.04.49-.11L114.49,23.38c.41-.19.66-.59.66-1.04s-.25-.85-.66-1.04L69.85.11c-.15-.07-.32-.11-.49-.11h0Z" style="fill:#f2e1d4;"/></g></g></g></svg>