<?xml version="1.0" encoding="UTF-8"?><svg id="uuid-653b5f0b-09d5-4e4c-9f1a-424e883b6048" xmlns="http://www.w3.org/2000/svg" viewBox="0 0 626.39 287.13"><g id="uuid-2ebff162-ea10-44eb-9e60-3b59f11f1764"><g><polygon points="428.85 250.57 98.42 93.75 295.96 0 626.39 156.82 428.85 250.57" style="fill:#bcb8b7;"/><g><polygon points="271.94 23.98 152.4 80.72 173.54 90.75 293.09 34.01 271.94 23.98" style="fill:#c5c1c0;"/><polygon points="152.4 80.72 32.86 137.45 54 147.49 173.54 90.75 152.4 80.72" style="fill:#d0cdcc;"/><polygon points="239.09 59.64 119.54 116.38 140.69 126.41 260.23 69.68 239.09 59.64" style="fill:#b3afae;"/><polygon points="119.54 116.38 0 173.12 21.14 183.15 140.69 126.41 119.54 116.38" style="fill:#c5c1c0;"/><polygon points="295.22 53.07 175.67 109.81 196.82 119.85 316.36 63.11 295.22 53.07" style="fill:#c5c1c0;"/><polygon points="175.67 109.81 56.13 166.55 77.27 176.58 196.82 119.85 175.67 109.81" style="fill:#bdb9b8;"/><polygon points="262.36 88.74 142.82 145.47 163.96 155.51 283.51 98.77 262.36 88.74" style="fill:#b3afae;"/><polygon points="142.82 145.47 23.27 202.21 44.42 212.25 163.96 155.51 142.82 145.47" style="fill:#bdb9b8;"/><polygon points="364.1 60.52 244.56 117.26 265.7 127.3 385.25 70.56 364.1 60.52" style="fill:#b3afae;"/><polygon points="244.56 117.26 125.01 174 146.16 184.03 265.7 127.3 244.56 117.26" style="fill:#d0cdcc;"/><polygon points="331.25 96.19 211.7 152.92 232.85 162.96 352.39 106.22 331.25 96.19" style="fill:#cac7c6;"/><polygon points="161.68 196.74 232.85 162.96 211.7 152.92 140.53 186.7 161.68 196.74" style="fill:#bdb9b8;"/><polygon points="387.38 89.62 267.83 146.36 288.98 156.39 408.52 99.65 387.38 89.62" style="fill:#b3afae;"/><polygon points="267.83 146.36 148.29 203.09 169.43 213.13 288.98 156.39 267.83 146.36" style="fill:#d0cdcc;"/><polygon points="354.52 125.28 234.98 182.02 256.12 192.05 375.67 135.32 354.52 125.28" style="fill:#b3afae;"/><polygon points="234.98 182.02 178.09 209.02 199.24 219.05 256.12 192.05 234.98 182.02" style="fill:#bdb9b8;"/><polygon points="454.34 97.98 334.79 154.72 355.94 164.75 475.48 108.02 454.34 97.98" style="fill:#c5c1c0;"/><polygon points="334.79 154.72 215.25 211.45 236.39 221.49 355.94 164.75 334.79 154.72" style="fill:#d0cdcc;"/><polygon points="421.48 133.64 301.94 190.38 323.08 200.42 442.63 143.68 421.48 133.64" style="fill:#b3afae;"/><polygon points="301.94 190.38 182.39 247.12 203.54 257.15 323.08 200.42 301.94 190.38" style="fill:#c5c1c0;"/><polygon points="477.61 127.08 358.07 183.81 379.21 193.85 498.76 137.11 477.61 127.08" style="fill:#c5c1c0;"/><polygon points="358.07 183.81 238.52 240.55 259.67 250.58 379.21 193.85 358.07 183.81" style="fill:#bdb9b8;"/><polygon points="444.76 162.74 325.21 219.48 346.36 229.51 465.9 172.77 444.76 162.74" style="fill:#b3afae;"/><polygon points="546.5 134.52 426.95 191.26 448.1 201.3 567.64 144.56 546.5 134.52" style="fill:#c5c1c0;"/><polygon points="426.95 191.26 307.41 248 328.55 258.03 448.1 201.3 426.95 191.26" style="fill:#d0cdcc;"/><polygon points="513.64 170.19 394.1 226.93 415.24 236.96 534.79 180.22 513.64 170.19" style="fill:#cac7c6;"/><polygon points="363.04 261.73 415.24 236.96 394.1 226.93 341.9 251.7 363.04 261.73" style="fill:#bdb9b8;"/><polygon points="569.77 163.62 450.23 220.36 471.37 230.39 590.92 173.66 569.77 163.62" style="fill:#c5c1c0;"/><polygon points="450.23 220.36 330.68 277.09 351.83 287.13 471.37 230.39 450.23 220.36" style="fill:#d0cdcc;"/></g></g></g></svg>