<?xml version="1.0" encoding="UTF-8"?><svg id="uuid-cc7e2071-8f61-48c5-b5a5-edba81fa475c" xmlns="http://www.w3.org/2000/svg" viewBox="0 0 59.45 65.47"><g id="uuid-08ff02e1-798d-44ee-b734-6dac9d64da87"><g><path d="m8.22,55.32l-2.53-1.2c-.38-.18-.38-.72,0-.9l3-1.42c.14-.06.29-.06.43,0l2.53,1.2c.38.18.38.72,0,.9l-3,1.42c-.14.06-.29.06-.43,0Z" style="fill:#66737a; stroke:#66737a; stroke-miterlimit:10; stroke-width:.5px;"/><path d="m7.84,55.12c-.73.71-1.87,1.62-4.03,1.91s-3.44-.78-3.44-.78" style="fill:none; stroke:#66737a; stroke-linecap:round; stroke-miterlimit:10; stroke-width:.75px;"/><path d="m6.38,54.42c-.52.5-1.35.96-2.28,1.15s-2.25-.03-2.25-.03" style="fill:none; stroke:#66737a; stroke-linecap:round; stroke-miterlimit:10; stroke-width:.75px;"/><path d="m12.22,39.93c.43.92.26,7.67-.16,9.8s-1.49,2.74-1.49,2.74" style="fill:none; stroke:#66737a; stroke-linecap:round; stroke-miterlimit:10; stroke-width:.75px;"/><g><path d="m37.77,65.47c-.51,0-.98-.09-1.38-.27l-20.85-9.74c-1.43-.67-1.34-2.35.2-3.75,1.54-1.41,3.95-2.01,5.38-1.34l20.85,9.74c1.43.67,1.34,2.35-.2,3.75-1.11,1.02-2.68,1.61-4,1.61Z" style="fill:#24272a;"/><line x1="29.4" y1="40.94" x2="29.4" y2="58.6" style="fill:none; stroke:#24272a; stroke-miterlimit:10; stroke-width:5px;"/><g><path d="m5.79.17l52.68,24.9c.6.28.98.88.98,1.54v35.08c0,1.25-1.3,2.08-2.44,1.54L4.33,38.33c-.6-.28-.98-.88-.98-1.54V1.71c0-1.25,1.3-2.08,2.44-1.54Z" style="fill:#34393d;"/><path d="m6.59,3.05l48.37,22.86c.18.09.3.27.3.47v33.07c0,.38-.4.64-.75.47L6.15,37.06c-.18-.09-.3-.27-.3-.47V3.52c0-.38.4-.64.75-.47Z" style="fill:#66737a;"/></g></g><path d="m9.48,52.71c0-.29-.36-.52-.81-.52s-.81.23-.81.52v.16c0,.29.36.52.81.52s.81-.23.81-.52v-.16Z" style="fill:#465055;"/></g></g></svg>