<?xml version="1.0" encoding="UTF-8"?><svg id="uuid-63ee4b49-a513-4f7f-b0c5-e49b9724435a" xmlns="http://www.w3.org/2000/svg" viewBox="0 0 50.02 58.37"><g id="uuid-f0b2583d-04ff-42db-87e3-66ad09aee97e"><g><path d="m30.69,58.37c-.45,0-.87-.08-1.23-.24l-18.59-8.68c-1.27-.59-1.19-2.09.18-3.35,1.37-1.25,3.52-1.79,4.79-1.19l18.59,8.68c1.27.59,1.19,2.09-.18,3.35-.99.91-2.39,1.44-3.57,1.44Z" style="fill:#24272a;"/><line x1="23.22" y1="36.5" x2="23.22" y2="52.25" style="fill:none; stroke:#24272a; stroke-miterlimit:10; stroke-width:5px;"/><g><path d="m2.17.15l46.97,22.2c.53.25.87.79.87,1.38v31.28c0,1.12-1.16,1.85-2.17,1.38L.87,34.18C.34,33.92,0,33.39,0,32.8V1.52C0,.41,1.16-.33,2.17.15Z" style="fill:#34393d;"/><path d="m2.89,2.72l43.13,20.39c.16.08.27.24.27.42v29.48c0,.34-.36.57-.67.42L2.49,33.05c-.16-.08-.27-.24-.27-.42V3.14c0-.34.36-.57.67-.42Z" style="fill:#66737a;"/></g></g></g></svg>