<?xml version="1.0" encoding="UTF-8"?><svg id="uuid-ec579941-221b-411a-a316-e4d6babd1b63" xmlns="http://www.w3.org/2000/svg" viewBox="0 0 9.55 6.09"><g id="uuid-25b5d3c9-56ce-4cc9-a30b-74aa927ec9aa"><g><path d="m1.18,5.57l-.52-.29c-1.29-.71-.4-2.06.31-2.83S4.35.37,4.35.37c1.1-.52,2.39-.49,3.46.1l.85.47c1.24.68,1.18,2.47-.09,3.08l-3.51,1.67c-1.24.59-2.68.54-3.88-.11Z" style="fill:#24272a;"/><path d="m5.67,1h.9c.17,0,.31.14.31.31h0c0,.08-.07.15-.15.15h-1.22c-.08,0-.15-.07-.15-.15h0c0-.17.14-.31.31-.31Z" transform="translate(.06 2.74) rotate(-25.39)" style="fill:#8ca1ad;"/></g></g></svg>