<?xml version="1.0" encoding="UTF-8"?><svg id="uuid-3a490d5e-7049-4567-9f6e-22d8c0a01142" xmlns="http://www.w3.org/2000/svg" viewBox="0 0 22.26 44.43"><g id="uuid-0c0e3a96-63d3-4c75-802d-0901385c9347"><g><path d="m.63.04l21.37,10.1c.15.07.25.23.25.4v33.45c0,.32-.34.54-.63.4L.25,34.29c-.15-.07-.25-.23-.25-.4V.44C0,.12.34-.1.63.04Z" style="fill:#d7e4ef;"/><path d="m3.34,5.76l15.86,7.5c.11.05.19.17.19.3v24.82c0,.24-.25.4-.47.3l-15.86-7.5c-.11-.05-.19-.17-.19-.3V6.06c0-.24.25-.4.47-.3Z" style="fill:#deeaeb;"/><polygon points="2.36 7.99 8.8 11.03 8.8 17.74 2.36 14.7 2.36 7.99" style="fill:#c4c1c0;"/><polygon points="11.24 15.11 20.63 19.55 20.63 29.32 11.24 24.88 11.24 15.11" style="fill:#d6d3d3;"/><polygon points="6.06 21.16 12.5 24.21 12.5 30.92 6.06 27.87 6.06 21.16" style="fill:#b3c2c4;"/></g></g></svg>