<?xml version="1.0" encoding="UTF-8"?><svg id="uuid-7196713d-5eab-4cac-9115-4c5a08ba6535" xmlns="http://www.w3.org/2000/svg" viewBox="0 0 22.26 44.43"><g id="uuid-595e2104-7083-421d-b823-3ace1cf3714f"><g><path d="m.63.04l21.37,10.1c.15.07.25.23.25.4v33.45c0,.32-.34.54-.63.4L.25,34.29c-.15-.07-.25-.23-.25-.4V.44C0,.12.34-.1.63.04Z" style="fill:#f2f2f2;"/><g><line x1="12.89" y1="9.77" x2="18.55" y2="12.45" style="fill:none; stroke:#a39f9f; stroke-linecap:round; stroke-miterlimit:10; stroke-width:.5px;"/><line x1="12.89" y1="11.37" x2="18.55" y2="14.05" style="fill:none; stroke:#a39f9f; stroke-linecap:round; stroke-miterlimit:10; stroke-width:.5px;"/><line x1="12.89" y1="13.08" x2="18.55" y2="15.76" style="fill:none; stroke:#a39f9f; stroke-linecap:round; stroke-miterlimit:10; stroke-width:.5px;"/></g><g><line x1="12.89" y1="17.03" x2="18.55" y2="19.71" style="fill:none; stroke:#a39f9f; stroke-linecap:round; stroke-miterlimit:10; stroke-width:.5px;"/><line x1="12.89" y1="18.63" x2="18.55" y2="21.3" style="fill:none; stroke:#a39f9f; stroke-linecap:round; stroke-miterlimit:10; stroke-width:.5px;"/><line x1="12.89" y1="20.33" x2="18.55" y2="23.01" style="fill:none; stroke:#a39f9f; stroke-linecap:round; stroke-miterlimit:10; stroke-width:.5px;"/></g><g><line x1="12.89" y1="24.29" x2="18.55" y2="26.96" style="fill:none; stroke:#d8d5d5; stroke-linecap:round; stroke-miterlimit:10; stroke-width:.5px;"/><line x1="12.89" y1="25.88" x2="18.55" y2="28.56" style="fill:none; stroke:#d8d5d5; stroke-linecap:round; stroke-miterlimit:10; stroke-width:.5px;"/><line x1="12.89" y1="27.59" x2="18.55" y2="30.27" style="fill:none; stroke:#d8d5d5; stroke-linecap:round; stroke-miterlimit:10; stroke-width:.5px;"/></g><g><line x1="12.89" y1="31.54" x2="18.55" y2="34.22" style="fill:none; stroke:#a39f9f; stroke-linecap:round; stroke-miterlimit:10; stroke-width:.5px;"/><line x1="12.89" y1="33.14" x2="18.55" y2="35.82" style="fill:none; stroke:#a39f9f; stroke-linecap:round; stroke-miterlimit:10; stroke-width:.5px;"/><line x1="12.89" y1="34.85" x2="18.55" y2="37.53" style="fill:none; stroke:#a39f9f; stroke-linecap:round; stroke-miterlimit:10; stroke-width:.5px;"/></g><polygon points="2.83 5.53 9.28 8.57 9.28 15.28 2.83 12.23 2.83 5.53" style="fill:#cbc8c8;"/><polygon points="2.83 14.33 9.28 17.37 9.28 24.08 2.83 21.03 2.83 14.33" style="fill:#e0dddc;"/><polygon points="2.83 23.13 9.28 26.17 9.28 32.88 2.83 29.84 2.83 23.13" style="fill:#cbc8c8;"/></g></g></svg>