<?xml version="1.0" encoding="UTF-8"?><svg id="uuid-5510799a-1523-43b0-ab07-22bb83a881a4" xmlns="http://www.w3.org/2000/svg" viewBox="0 0 63.67 68.17"><g id="uuid-11c40a11-90b4-4199-a8f7-d85d21464e58"><g><path d="m61.21,52.39c1.1.89,1.78,1.74,1.99,5.13.21,3.39,0,5.32,0,5.32" style="fill:none; stroke:#66737a; stroke-miterlimit:10; stroke-width:.75px;"/><path d="m56.22,53.13c1.1.89,1.78,1.74,1.99,5.13.21,3.39-.05,6.12-.05,6.12" style="fill:none; stroke:#66737a; stroke-miterlimit:10; stroke-width:.75px;"/><g><path d="m32.71,68.02l-18.38-8.72c-1.17-.56-1.17-2.23,0-2.79l10.52-4.99c.42-.2.9-.2,1.32,0l18.38,8.72c1.17.56,1.17,2.23,0,2.79l-10.52,4.99c-.42.2-.9.2-1.32,0Z" style="fill:#24272a;"/><g><g><path d="m27.02.15l34.87,16.55c.55.26.9.81.9,1.42v28.72c0,1.16-1.2,1.92-2.25,1.42L25.67,31.72c-.55-.26-.9-.81-.9-1.42V1.58c0-1.16,1.2-1.92,2.25-1.42Z" style="fill:#24272a;"/><path d="m26.47,1.58l34.35,16.3c.15.07.25.23.25.4v28.03L25.84,29.59V1.97c0-.32.33-.53.62-.4Z" style="fill:#66737a;"/></g><path d="m36.21,61.37L.59,44.47c-.78-.37-.78-1.48,0-1.85l23.5-11.15c.28-.13.6-.13.88,0l35.63,16.91c.78.37.78,1.48,0,1.85l-23.5,11.15c-.28.13-.6.13-.88,0Z" style="fill:#a0a9ae;"/><polygon points="38.77 53.81 11.31 40.78 25.42 34.08 52.88 47.12 38.77 53.81" style="fill:#24272a;"/><path d="m22.82,53.66l-10.89-5.17c-.57-.27-.57-1.08,0-1.35l4.75-2.25c.2-.1.44-.1.64,0l10.89,5.17c.57.27.57,1.08,0,1.35l-4.75,2.25c-.2.1-.44.1-.64,0Z" style="fill:#afbabf;"/></g><line x1="5.29" y1="46.7" x2="8.62" y2="48.28" style="fill:none; stroke:#394146; stroke-linecap:round; stroke-miterlimit:10;"/><line x1="24.62" y1="55.87" x2="27.95" y2="57.45" style="fill:none; stroke:#394146; stroke-linecap:round; stroke-miterlimit:10;"/></g><g><path d="m49.17,47.17s-.03,0-.04,0l-.96-.46s-.06-.07-.04-.12c.02-.04.07-.06.12-.04l.96.46s.06.07.04.12c-.01.03-.05.05-.08.05Zm-1.92-.91s-.03,0-.04,0l-.96-.46s-.06-.07-.04-.12c.02-.04.07-.06.12-.04l.96.46s.06.07.04.12c-.01.03-.05.05-.08.05Zm-1.92-.91s-.03,0-.04,0l-.96-.46s-.06-.07-.04-.12c.02-.04.07-.06.12-.04l.96.46s.06.07.04.12c-.01.03-.05.05-.08.05Zm-1.92-.91s-.03,0-.04,0l-.96-.46s-.06-.07-.04-.12c.02-.04.07-.06.12-.04l.96.46s.06.07.04.12c-.01.03-.05.05-.08.05Zm-1.92-.91s-.03,0-.04,0l-.96-.46s-.06-.07-.04-.12c.02-.04.07-.06.12-.04l.96.46s.06.07.04.12c-.01.03-.05.05-.08.05Zm-1.92-.91s-.03,0-.04,0l-.96-.46s-.06-.07-.04-.12c.02-.04.07-.06.12-.04l.96.46s.06.07.04.12c-.01.03-.05.05-.08.05Zm-1.92-.91s-.03,0-.04,0l-.96-.46s-.06-.07-.04-.12c.02-.04.07-.06.12-.04l.96.46s.06.07.04.12c-.01.03-.05.05-.08.05Zm-1.92-.91s-.03,0-.04,0l-.96-.46s-.06-.07-.04-.12c.02-.04.07-.06.12-.04l.96.46s.06.07.04.12c-.01.03-.05.05-.08.05Zm-1.92-.91s-.03,0-.04,0l-.96-.46s-.06-.07-.04-.12c.02-.04.07-.06.12-.04l.96.46s.06.07.04.12c-.01.03-.05.05-.08.05Zm-1.92-.91s-.03,0-.04,0l-.96-.46s-.06-.07-.04-.12c.02-.04.07-.06.12-.04l.96.46s.06.07.04.12c-.01.03-.05.05-.08.05Zm-1.92-.91s-.03,0-.04,0l-.96-.46s-.06-.07-.04-.12c.02-.04.07-.06.12-.04l.96.46s.06.07.04.12c-.01.03-.05.05-.08.05Zm-1.92-.91s-.03,0-.04,0l-.96-.46s-.06-.07-.04-.12c.02-.04.07-.06.12-.04l.96.46s.06.07.04.12c-.01.03-.05.05-.08.05Zm-1.92-.91s-.03,0-.04,0l-.96-.46s-.06-.07-.04-.12c.02-.04.07-.06.12-.04l.96.46s.06.07.04.12c-.01.03-.05.05-.08.05Z" style="fill:#6b6868;"/><path d="m47.05,48.38s-.03,0-.04,0l-.96-.46s-.06-.07-.04-.12c.02-.04.07-.06.12-.04l.96.46s.06.07.04.12c-.01.03-.05.05-.08.05Zm-1.92-.91s-.03,0-.04,0l-.96-.46s-.06-.07-.04-.12c.02-.04.07-.06.12-.04l.96.46s.06.07.04.12c-.01.03-.05.05-.08.05Zm-1.92-.91s-.03,0-.04,0l-.96-.46s-.06-.07-.04-.12c.02-.04.07-.06.12-.04l.96.46s.06.07.04.12c-.01.03-.05.05-.08.05Zm-1.92-.91s-.03,0-.04,0l-.96-.46s-.06-.07-.04-.12c.02-.04.07-.06.12-.04l.96.46s.06.07.04.12c-.01.03-.05.05-.08.05Zm-1.92-.91s-.03,0-.04,0l-.96-.46s-.06-.07-.04-.12c.02-.04.07-.06.12-.04l.96.46s.06.07.04.12c-.01.03-.05.05-.08.05Zm-1.92-.91s-.03,0-.04,0l-.96-.46s-.06-.07-.04-.12c.02-.04.07-.06.12-.04l.96.46s.06.07.04.12c-.01.03-.05.05-.08.05Zm-1.92-.91s-.03,0-.04,0l-.96-.46s-.06-.07-.04-.12c.02-.04.07-.06.12-.04l.96.46s.06.07.04.12c-.01.03-.05.05-.08.05Zm-1.92-.91s-.03,0-.04,0l-.96-.46s-.06-.07-.04-.12.07-.06.12-.04l.96.46s.06.07.04.12c-.01.03-.05.05-.08.05Zm-1.92-.91s-.03,0-.04,0l-.96-.46s-.06-.07-.04-.12c.02-.04.07-.06.12-.04l.96.46s.06.07.04.12c-.01.03-.05.05-.08.05Zm-1.92-.91s-.03,0-.04,0l-.96-.46s-.06-.07-.04-.12c.02-.04.07-.06.12-.04l.96.46s.06.07.04.12c-.01.03-.05.05-.08.05Zm-1.92-.91s-.03,0-.04,0l-.96-.46s-.06-.07-.04-.12c.02-.04.07-.06.12-.04l.96.46s.06.07.04.12c-.01.03-.05.05-.08.05Zm-1.92-.91s-.03,0-.04,0l-.96-.46s-.06-.07-.04-.12c.02-.04.07-.06.12-.04l.96.46s.06.07.04.12c-.01.03-.05.05-.08.05Zm-1.92-.91s-.03,0-.04,0l-.96-.46s-.06-.07-.04-.12c.02-.04.07-.06.12-.04l.96.46s.06.07.04.12c-.01.03-.05.05-.08.05Z" style="fill:#6b6868;"/><path d="m41.35,48.1s-.03,0-.04,0l-.96-.46s-.06-.07-.04-.12c.02-.04.07-.06.12-.04l.96.46s.06.07.04.12c-.01.03-.05.05-.08.05Zm-1.92-.91s-.03,0-.04,0l-.96-.46s-.06-.07-.04-.12c.02-.04.07-.06.12-.04l.96.46s.06.07.04.12c-.01.03-.05.05-.08.05Zm-1.92-.91s-.03,0-.04,0l-.96-.46s-.06-.07-.04-.12c.02-.04.07-.06.12-.04l.96.46s.06.07.04.12c-.01.03-.05.05-.08.05Zm-1.92-.91s-.03,0-.04,0l-.96-.46s-.06-.07-.04-.12c.02-.04.07-.06.12-.04l.96.46s.06.07.04.12c-.01.03-.05.05-.08.05Zm-1.92-.91s-.03,0-.04,0l-.96-.46s-.06-.07-.04-.12c.02-.04.07-.06.12-.04l.96.46s.06.07.04.12c-.01.03-.05.05-.08.05Zm-1.92-.91s-.03,0-.04,0l-.96-.46s-.06-.07-.04-.12c.02-.04.07-.06.12-.04l.96.46s.06.07.04.12c-.01.03-.05.05-.08.05Zm-1.92-.91s-.03,0-.04,0l-.96-.46s-.06-.07-.04-.12c.02-.04.07-.06.12-.04l.96.46s.06.07.04.12c-.01.03-.05.05-.08.05Zm-1.92-.91s-.03,0-.04,0l-.96-.46s-.06-.07-.04-.12c.02-.04.07-.06.12-.04l.96.46s.06.07.04.12c-.01.03-.05.05-.08.05Zm-1.92-.91s-.03,0-.04,0l-.96-.46s-.06-.07-.04-.12c.02-.04.07-.06.12-.04l.96.46s.06.07.04.12c-.01.03-.05.05-.08.05Zm-1.92-.91s-.03,0-.04,0l-.96-.46s-.06-.07-.04-.12c.02-.04.07-.06.12-.04l.96.46s.06.07.04.12c-.01.03-.05.05-.08.05Z" style="fill:#6b6868;"/><path d="m39.57,49.75s-.03,0-.04,0l-.96-.46s-.06-.07-.04-.12c.02-.04.07-.06.12-.04l.96.46s.06.07.04.12c-.01.03-.05.05-.08.05Z" style="fill:#6b6868;"/><path d="m37.64,48.83s-.03,0-.04,0l-.96-.46s-.06-.07-.04-.12c.02-.04.07-.06.12-.04l.96.46s.06.07.04.12c-.01.03-.05.05-.08.05Z" style="fill:#6b6868;"/><path d="m35.72,47.92s-.03,0-.04,0l-.96-.46s-.06-.07-.04-.12c.02-.04.07-.06.12-.04l.96.46s.06.07.04.12c-.01.03-.05.05-.08.05Z" style="fill:#6b6868;"/><path d="m38.02,51.51s-.03,0-.04,0l-.96-.46s-.06-.07-.04-.12c.02-.04.07-.06.12-.04l.96.46s.06.07.04.12c-.01.03-.05.05-.08.05Z" style="fill:#6b6868;"/><path d="m36.09,50.6s-.03,0-.04,0l-.96-.46s-.06-.07-.04-.12c.02-.04.07-.06.12-.04l.96.46s.06.07.04.12c-.01.03-.05.05-.08.05Z" style="fill:#6b6868;"/><path d="m34.17,49.69s-.03,0-.04,0l-.96-.46s-.06-.07-.04-.12c.02-.04.07-.06.12-.04l.96.46s.06.07.04.12c-.01.03-.05.05-.08.05Z" style="fill:#6b6868;"/><path d="m33.79,47.01s-.03,0-.04,0l-.96-.46s-.06-.07-.04-.12c.02-.04.07-.06.12-.04l.96.46s.06.07.04.12c-.01.03-.05.05-.08.05Z" style="fill:#6b6868;"/><path d="m31.87,46.1s-.03,0-.04,0l-.96-.46s-.06-.07-.04-.12c.02-.04.07-.06.12-.04l.96.46s.06.07.04.12c-.01.03-.05.05-.08.05Z" style="fill:#6b6868;"/><path d="m29.94,45.18s-.03,0-.04,0l-.96-.46s-.06-.07-.04-.12c.02-.04.07-.06.12-.04l.96.46s.06.07.04.12c-.01.03-.05.05-.08.05Z" style="fill:#6b6868;"/><path d="m28.02,44.27s-.03,0-.04,0l-.96-.46s-.06-.07-.04-.12c.02-.04.07-.06.12-.04l.96.46s.06.07.04.12c-.01.03-.05.05-.08.05Z" style="fill:#6b6868;"/><path d="m26.09,43.36s-.03,0-.04,0l-.96-.46s-.06-.07-.04-.12c.02-.04.07-.06.12-.04l.96.46s.06.07.04.12c-.01.03-.05.05-.08.05Z" style="fill:#6b6868;"/><path d="m24.17,42.45s-.03,0-.04,0l-.96-.46s-.06-.07-.04-.12c.02-.04.07-.06.12-.04l.96.46s.06.07.04.12c-.01.03-.05.05-.08.05Z" style="fill:#6b6868;"/><path d="m22.24,41.53s-.03,0-.04,0l-.96-.46s-.06-.07-.04-.12c.02-.04.07-.06.12-.04l.96.46s.06.07.04.12c-.01.03-.05.05-.08.05Z" style="fill:#6b6868;"/><path d="m19.75,42.81s-.03,0-.04,0l-.96-.46s-.06-.07-.04-.12c.02-.04.07-.06.12-.04l.96.46s.06.07.04.12c-.01.03-.05.05-.08.05Z" style="fill:#6b6868;"/><path d="m17.82,41.9s-.03,0-.04,0l-.96-.46s-.06-.07-.04-.12c.02-.04.07-.06.12-.04l.96.46s.06.07.04.12c-.01.03-.05.05-.08.05Z" style="fill:#6b6868;"/><path d="m20.31,40.57s-.03,0-.04,0l-1.82-.86s-.06-.07-.04-.12c.02-.04.07-.06.12-.04l1.82.86s.06.07.04.12c-.01.03-.05.05-.08.05Z" style="fill:#6b6868;"/><path d="m21.92,38.93s-.03,0-.04,0l-1.82-.86s-.06-.07-.04-.12c.02-.04.07-.06.12-.04l1.82.86s.06.07.04.12c-.01.03-.05.05-.08.05Z" style="fill:#6b6868;"/><path d="m42.34,51.07s-.03,0-.04,0l-1.82-.86s-.06-.07-.04-.12c.02-.04.07-.06.12-.04l1.82.86s.06.07.04.12c-.01.03-.05.05-.08.05Z" style="fill:#6b6868;"/><path d="m44.46,49.66s-.03,0-.04,0l-1.82-.86s-.06-.07-.04-.12c.02-.04.07-.06.12-.04l1.82.86s.06.07.04.12c-.01.03-.05.05-.08.05Z" style="fill:#6b6868;"/><path d="m32.01,48.66s-.03,0-.04,0l-10.91-5.18s-.06-.07-.04-.12c.02-.04.07-.06.12-.04l10.91,5.18s.06.07.04.12c-.02.03-.05.05-.08.05Z" style="fill:#6b6868;"/></g><path d="m60.01,52.88l-4.13-1.96c-.22-.1-.22-.41,0-.51l1.8-.86c.08-.04.17-.04.24,0l4.13,1.96c.22.1.22.41,0,.51l-1.8.86c-.08.04-.17.04-.24,0Z" style="fill:#66737a; stroke:#66737a; stroke-miterlimit:10; stroke-width:.5px;"/><path d="m55.72,53.79l-3.13-1.49c-.16-.08-.16-.31,0-.39l1.36-.65c.06-.03.13-.03.18,0l3.13,1.49c.16.08.16.31,0,.39l-1.36.65c-.06.03-.13.03-.18,0Z" style="fill:#66737a;"/></g></g></svg>