<?xml version="1.0" encoding="UTF-8"?><svg id="uuid-a36e7b10-dc0d-471d-9666-42c44067bd10" xmlns="http://www.w3.org/2000/svg" viewBox="0 0 5.8 21.06"><g id="uuid-25107ac8-8ae6-4503-8c1f-4b5b43d8593e"><g><g><path d="m2.9,14.04c-1.6,0-2.9.71-2.9,1.58l.49,4.12c0,.73,1.08,1.32,2.41,1.32s2.41-.59,2.41-1.32l.49-4.12c0-.87-1.3-1.58-2.9-1.58Z" style="fill:#34393d;"/><ellipse cx="2.9" cy="15.53" rx="1.58" ry=".86" style="fill:#26292d;"/></g><g><path d="m2.84,16.27c-.43,0-.78-.14-.78-.57V1.21c0-.43.35-.78.78-.78s.78.35.78.78v14.49c0,.43-.35.57-.78.57Z" style="fill:#1e2022;"/><path d="m2.6,14.17c-.11,0-.19-.09-.19-.19v-2.21c0-.11.09-.19.19-.19s.19.09.19.19v2.21c0,.11-.09.19-.19.19Z" style="fill:#30353a;"/><path d="m2.84,1.14c-.26,0-.48-.04-.48-.31v-.36c0-.26.21-.48.48-.48s.48.21.48.48v.36c0,.26-.21.31-.48.31Z" style="fill:#30353a;"/></g></g></g></svg>