<?xml version="1.0" encoding="UTF-8"?><svg id="uuid-d281dd3b-88da-40d5-bd80-09909aee738f" xmlns="http://www.w3.org/2000/svg" viewBox="0 0 8.44 11.22"><g id="uuid-c1d9aebf-26c7-4b6e-838e-1f309b622736"><g><g><path d="m4.38,1.74C2.22,1.74.46,2.7.46,3.88l.66,5.56c0,.98,1.46,1.78,3.26,1.78s3.26-.8,3.26-1.78l.66-5.56c0-1.18-1.75-2.14-3.92-2.14Z" style="fill:#f6f4f3;"/><ellipse cx="4.38" cy="3.9" rx="3.23" ry="1.76" style="fill:#bcb8b7;"/></g><g><path d="m1.94,1.1c0,.05.1-.1.15-.19.05-.1-.04-.19-.22-.16-.19.04-.2.2-.15.24.04.04.22.05.23.11Z" style="fill:#32676c;"/><path d="m1.54,1.38s-.05.03-.06.07c-.07.19.09.27.16.25.07-.02.18-.17.24-.15.06.02-.04-.13-.11-.22,0,0-.01,0-.02,0,.05-.04.09-.07.12-.06.06.02-.04-.13-.1-.21-.07-.1-.22-.07-.29.11-.05.11,0,.18.06.22Z" style="fill:#32676c;"/><path d="m1.93,1.31c.05.1.12.3.13.24,0-.04.1-.09.17-.13-.03.1-.05.17-.04.21,0,.02.05.03.1.04,0,.03,0,.06.02.08.04.04.22.05.23.11,0,.05.1-.1.15-.19.04-.08-.02-.13-.12-.14,0-.04-.01-.08-.05-.12-.07-.08-.14-.1-.19-.08,0-.02,0-.05,0-.08,0,0,.01,0,.01,0,0-.05.17-.08.21-.12.04-.04.03-.19-.14-.23-.17-.04-.27.06-.22.16.02.04.04.08.07.11-.02-.02-.05-.03-.1-.04-.19-.03-.28.08-.23.18Z" style="fill:#32676c;"/><path d="m1.94,1.58c-.12-.04-.24.07-.19.25.05.19.24.17.29.11.05-.05.14-.23.11-.28-.03-.04-.1-.05-.21-.09Z" style="fill:#32676c;"/><path d="m3.41.79c0,.05.1-.1.15-.19.05-.1-.04-.19-.22-.16-.19.04-.2.2-.15.24.04.04.22.05.23.11Z" style="fill:#32676c;"/><path d="m3.01,1.07s-.05.03-.06.07c-.07.19.09.27.16.25.07-.02.18-.17.24-.15.06.02-.04-.13-.11-.22,0,0-.01,0-.02,0,.05-.04.09-.07.12-.06.06.02-.04-.13-.1-.21-.07-.1-.22-.07-.29.11-.05.11,0,.18.06.22Z" style="fill:#32676c;"/><path d="m3.4,1c.05.1.12.3.13.24,0-.04.1-.09.17-.13-.03.1-.05.17-.04.21.02.05.21.07.27.05.06-.01.16-.15.05-.28-.07-.08-.14-.1-.19-.08,0-.02,0-.05,0-.08,0,0,.01,0,.01,0,0-.05.17-.08.21-.12.04-.04.03-.19-.14-.23-.17-.04-.27.06-.22.16.02.04.04.08.07.11-.02-.02-.05-.03-.1-.04-.19-.03-.28.08-.23.18Z" style="fill:#32676c;"/><path d="m4.64.36c0,.05.1-.1.15-.19.05-.1-.04-.19-.22-.16-.19.04-.2.2-.15.24s.22.05.23.11Z" style="fill:#32676c;"/><path d="m4.24.64s-.05.03-.06.07c-.07.19.09.27.16.25.07-.02.18-.17.24-.15.06.02-.04-.13-.11-.22,0,0-.01,0-.02,0,.05-.04.09-.07.12-.06.06.02-.04-.13-.1-.21-.07-.1-.22-.07-.29.11-.05.11,0,.18.06.22Z" style="fill:#32676c;"/><path d="m4.62.57c.05.1.12.3.13.24,0-.04.1-.09.17-.13-.03.1-.05.17-.04.21,0,0,0,0,0,0,0,.02-.01.05,0,.07.07.08.2.2.19.15,0-.05.16-.11.19-.16.02-.03,0-.09-.04-.13,0-.05,0-.1-.04-.16-.07-.08-.14-.1-.19-.08,0-.02,0-.05,0-.08,0,0,.01,0,.01,0,0-.05.17-.08.21-.12.04-.04.03-.19-.14-.23-.17-.04-.27.06-.22.16.02.04.04.08.07.11-.02-.02-.05-.03-.1-.04-.19-.03-.28.08-.23.18Z" style="fill:#32676c;"/><path d="m6.3,2.31c.05.19.24.17.29.11.05-.05.14-.23.11-.28-.03-.04-.1-.05-.21-.09-.12-.04-.24.07-.19.25Z" style="fill:#32676c;"/><path d="m7.53,2.45s-.01,0-.02,0c.05-.04.09-.07.12-.06.06.02-.04-.13-.1-.21,0,0,0,0,0,0,.02,0,.04,0,.06-.02.06.02.11.03.12.06,0,.05.1-.1.15-.19.05-.1-.04-.19-.21-.16-.05-.09-.13-.14-.21-.09-.1.06-.16.09-.18.14-.01.04.07.14.14.2-.06.02-.11.06-.15.15-.05.11,0,.18.06.22-.02.03-.05.03-.06.07-.07.19.09.27.16.25.07-.02.18-.17.24-.15.06.02-.04-.13-.11-.22Z" style="fill:#32676c;"/><path d="m7.49,2.95c.05.19.24.17.29.11.05-.05.14-.23.11-.28-.03-.04-.1-.05-.21-.09-.12-.04-.24.07-.19.25Z" style="fill:#32676c;"/><path d="m8.26,2.51c-.07-.08-.14-.1-.19-.08,0-.02,0-.05,0-.08,0,0,.01,0,.01,0,0-.05.17-.08.21-.12.04-.04.03-.19-.14-.23-.17-.04-.27.06-.22.16.02.04.04.08.07.11-.02-.02-.05-.03-.1-.04-.19-.03-.28.08-.23.18.05.1.12.3.13.24,0-.04.1-.09.17-.13-.03.1-.05.17-.04.21.02.05.21.07.27.05.06-.01.16-.15.05-.28Z" style="fill:#32676c;"/><path d="m3.14,1.63s.22.05.23.11c0,.03.04-.01.08-.08.02,0,.04-.02.05-.03.05-.05.14-.23.11-.28-.03-.04-.1-.05-.21-.09-.1-.03-.19.03-.2.16-.1.06-.1.17-.07.2Z" style="fill:#32676c;"/><path d="m3.89,2.32s.1-.08.1-.16c.01,0,.03.02.03.03.02.05.04-.16.07-.26.02-.09-.04-.15-.15-.15,0,0,.02-.01.03-.02,0-.01.02-.03.02-.05.02.02.04.02.04,0,0-.05.16-.11.19-.16.03-.05-.02-.2-.21-.19-.16,0-.21.09-.18.17-.13-.03-.19.03-.2.09-.03,0-.06,0-.1.01-.09.04-.11.11-.11.16-.07.03-.09.1-.06.16.05.1.12.3.13.24,0-.04.09-.08.16-.13-.04.02-.07.04-.1.09-.02.05-.02.09-.02.12-.02-.01-.05-.02-.08-.03-.04-.05-.08-.08-.13-.09-.02-.05-.07-.13-.11-.19,0,0-.01,0-.02,0,.05-.04.09-.07.12-.06.06.02-.04-.13-.1-.21-.04-.05-.1-.06-.17-.03-.01,0-.02-.01-.04-.02-.17-.04-.27.06-.22.16.02.04.04.08.07.11-.02-.02-.05-.03-.1-.04-.19-.03-.28.08-.23.18.02.04.05.1.07.15-.03,0-.05,0-.09,0-.01,0-.01.01-.02.02-.02-.05-.07-.11-.1-.16,0,0-.01,0-.02,0,.05-.04.09-.07.12-.06.06.02-.04-.13-.1-.21-.07-.1-.22-.07-.29.11-.05.11,0,.18.06.22-.02.03-.05.03-.06.07-.07.19.09.27.16.25.04-.01.11-.08.16-.12,0,0,0,.01,0,.02-.05.04-.09.12-.06.23.01.05.03.08.06.11-.04,0-.08.03-.09.07-.04.1-.1.27-.05.23.02-.02.07,0,.12.02,0,0,0,0-.01.01-.04.1-.1.27-.05.24.05-.03.2.08.27.08.07,0,.21-.12.09-.29-.02-.03-.04-.05-.07-.06,0,0,0,0,0,0,0,0,.01,0,.02,0,.06,0,.24-.07.25-.12,0-.05-.04-.1-.09-.2.08.02.18.05.2.09.02.05.04-.16.07-.26,0-.03,0-.05,0-.08,0,0,0,0,0,0,0,0,.02,0,.02-.01,0,.02,0,.04.02.03.01,0,.04,0,.07.01,0,.03.02.04.03.06-.04.1-.08.24-.03.21.05-.03.2.08.27.08.07,0,.21-.12.09-.29,0-.01-.02-.02-.03-.03.03-.06.05-.1.06-.15.03.04.07.06.1.06.05,0,.18-.05.23-.09,0,0,0,0,0,0Zm-1.07-.14s0,0,0,0c-.03.1-.05.16-.03.2,0,0,.01,0,.02.01,0,0,0,0,0,0-.03.01-.05.03-.06.05,0,0,0-.02,0-.02,0,0,0,0-.01,0,0-.03.02-.06.02-.09,0-.04-.02-.06-.04-.08.03-.02.07-.05.11-.07Zm-.14.43s0,.02.01.03c0,0-.01-.01-.02-.01,0,0,0,0,0-.01Z" style="fill:#32676c;"/><path d="m4.3,3.05c.06.02-.04-.13-.11-.22,0,0-.01,0-.02,0,.05-.04.09-.07.12-.06.05.02-.03-.11-.09-.2.03,0,.06,0,.09-.02.03.01.06.03.06.04,0,.05.1-.1.15-.19.04-.08-.03-.14-.15-.15-.05-.09-.13-.13-.2-.08-.1.06-.16.09-.18.14-.01.04.08.15.15.21-.08-.02-.17,0-.22.13-.05.11,0,.18.06.22-.02.03-.05.03-.06.07-.07.19.09.27.16.25.07-.02.18-.17.24-.15Z" style="fill:#32676c;"/><path d="m6.18,3.05s-.01,0-.02,0c.05-.04.09-.07.12-.06.06.02-.04-.13-.1-.21-.07-.09-.21-.06-.28.1,0-.01,0-.02-.01-.03-.02-.03-.04-.05-.07-.06.03-.04.04-.08.02-.14.06.03.19.04.24.03,0,0,.01,0,.02-.01,0,.03,0,.05.02.06.04.04.22.05.23.11,0,.05.1-.1.15-.19.05-.1-.04-.19-.22-.16-.04,0-.07.03-.1.04,0-.04,0-.09-.05-.14-.07-.08-.14-.1-.19-.08,0-.02,0-.05,0-.08,0,0,.01,0,.01,0,0-.04.08-.06.14-.08.04.04.1.06.14.05.07-.02.18-.17.24-.15.06.02-.04-.13-.11-.22,0,0-.01,0-.02,0,.05-.04.09-.07.12-.06.04.01,0-.06-.04-.13.02-.02.02-.06.03-.09.04.01.08.03.08.05,0,.05.1-.1.15-.19.03-.05,0-.1-.04-.13.02-.05.03-.11-.03-.19-.02-.03-.04-.05-.07-.06.04-.05.06-.13,0-.22-.11-.15-.27-.14-.31-.03-.04.1-.1.27-.05.23.02-.02.07,0,.12.02,0,0,0,0-.01.01-.04.1-.1.27-.05.24.02-.01.06,0,.09.02,0,0,0,.01-.01.02-.04-.01-.08-.03-.12,0-.1.06-.16.09-.18.14,0,.03.04.09.09.15-.01.02-.03.02-.04.04-.05.11,0,.18.06.22-.01.01-.02.02-.03.04-.02-.01-.04-.02-.07-.03-.17-.04-.27.06-.22.16.02.04.04.08.07.11-.02-.02-.05-.03-.1-.04-.19-.03-.28.08-.23.18.02.04.05.1.07.16-.04,0-.08.02-.1.06,0,0,0-.02-.01-.02.02-.01.03-.02.04-.03.03-.04,0-.15-.13-.18.03-.02.06-.04.08-.03.06.02-.04-.13-.1-.21-.07-.1-.22-.07-.29.11-.04.11,0,.18.05.21,0,0,0,.01,0,.02-.02.02-.04.03-.05.06-.07.18.08.27.16.25-.03,0-.06,0-.1.02-.04.02-.06.04-.08.06.01-.04.03-.09.03-.13.02-.08-.05-.11-.13-.11-.01-.05-.06-.11-.15-.13-.17-.04-.27.06-.22.16.02.04.04.08.07.11-.02-.02-.05-.03-.1-.04-.19-.03-.28.08-.23.18.05.1.12.3.13.24,0-.04.1-.09.17-.13-.03.1-.05.17-.04.21,0,0,.02.02.04.02-.02,0-.04-.01-.07,0-.02,0-.02.01-.03.01-.03-.03-.1-.05-.2-.08-.12-.04-.24.07-.19.25,0,.04.03.06.04.08-.03,0-.06,0-.1.01-.16.08-.12.23-.08.26.05.03.21.01.23.06,0,0,0,0,.01,0,0,.04,0,.07.02.09-.06,0-.13.02-.17.11-.08.16.06.27.12.26.06,0,.24-.07.25-.12,0-.05-.04-.1-.09-.2.08.02.18.05.2.09.02.05.04-.16.07-.26.03-.12-.09-.19-.27-.12-.04.02-.06.04-.08.06.01-.04.03-.09.03-.13,0-.02-.02-.03-.02-.04.05,0,.1-.01.12-.03,0,0,.01-.02.02-.03.07.07.14.13.13.08,0-.05.16-.11.19-.16.02-.04,0-.12-.08-.16.05,0,.1.01.14.01.02.08.09.13.13.13.06,0,.24-.07.25-.12,0-.05-.04-.1-.09-.19.08.02.18.05.2.09.02.04.03-.08.05-.19.03.04.07.06.11.06-.02.06-.02.1,0,.08.05-.03.2.08.27.08.03,0,.08-.03.11-.07.01.02.03.04.05.05-.02.03-.05.03-.06.07-.07.19.09.27.16.25.07-.02.18-.17.24-.15.06.02-.04-.13-.11-.22Zm-.34-.65c-.02.07-.03.12-.04.16-.03-.04-.06-.06-.09-.08.04-.03.08-.05.12-.08Zm-.87.57s-.01-.04-.03-.06c-.07-.08-.14-.1-.19-.08,0-.02,0-.05,0-.08,0,0,0,0,0,0,0,.02.02.04.03.05.05.03.21.01.23.06,0,0,0,0,.01,0,0,.04,0,.07.02.09-.03,0-.05,0-.08.03Zm.29-.29c.07-.03.18-.16.24-.15,0,0,0,.02,0,.02-.07,0-.13.05-.14.14-.02,0-.05-.02-.08-.01Z" style="fill:#32676c;"/><path d="m6.14,3.55c.05.19.24.17.29.11.05-.05.14-.23.11-.28-.03-.04-.1-.05-.21-.09-.12-.04-.24.07-.19.25Z" style="fill:#32676c;"/><path d="m6.72,3.04s0-.05,0-.08c0,0,.01,0,.01,0,0-.05.17-.08.21-.12.04-.04.03-.19-.14-.23-.17-.04-.27.06-.22.16.02.04.04.08.07.11-.02-.02-.05-.03-.1-.04-.19-.03-.28.08-.23.18.05.1.12.3.13.24,0-.04.1-.09.17-.13-.03.1-.05.17-.04.21.02.05.21.07.27.05.06-.01.16-.15.05-.28-.07-.08-.14-.1-.19-.08Z" style="fill:#32676c;"/><path d="m7.29,1.31c0-.05.16-.11.19-.16.03-.05-.02-.2-.21-.19-.19.01-.25.13-.17.21.07.08.2.2.19.15Z" style="fill:#32676c;"/><path d="m7.39,1.46s.07,0,.12.02c0,0,0,0-.01.01-.04.1-.1.27-.05.24.05-.03.2.08.27.08.07,0,.21-.12.09-.29-.02-.03-.04-.05-.07-.06.04-.05.06-.13,0-.22-.11-.15-.27-.14-.31-.03-.04.1-.1.27-.05.23Z" style="fill:#32676c;"/><path d="m7.29,1.78c.02.05.04-.16.07-.26.03-.12-.09-.19-.27-.12-.01,0-.02.01-.03.02,0,0-.02-.01-.04-.02,0-.02.01-.05.02-.07.02-.11-.09-.18-.25-.1-.16.08-.12.23-.08.26,0,0,.02,0,.03,0,0,.01-.01.02,0,.04.02.04.04.08.07.11-.02-.02-.05-.03-.1-.04-.19-.03-.28.08-.23.18.05.1.12.3.13.24,0-.04.1-.09.17-.13-.03.1-.05.17-.04.21.02.05.21.07.27.05.05,0,.12-.1.08-.21.04-.02.07-.04.07-.06,0-.05-.04-.1-.09-.19.08.02.18.05.2.09Z" style="fill:#32676c;"/><path d="m5.2,1.26s.07,0,.12.02c0,0,0,0-.01.01-.04.1-.1.27-.05.24.05-.03.2.08.27.08.04,0,.09-.03.12-.08,0,0,.02,0,.03,0,.06,0,.24-.07.25-.12,0-.05-.04-.1-.09-.19.08.02.18.05.2.09.02.05.04-.16.07-.26.03-.12-.09-.19-.27-.12-.04.02-.06.04-.08.06.01-.04.03-.09.03-.13.02-.11-.09-.18-.25-.1-.11.05-.12.14-.11.2-.08-.04-.16-.01-.19.06-.04.1-.1.27-.05.23Zm.51-.18s0,0,.01,0c0,.04,0,.07.02.09-.06,0-.12.02-.17.11,0,0,0,0,0,0,.04-.05.06-.13,0-.22,0-.01-.02-.02-.03-.03.07.01.16.01.18.05Z" style="fill:#32676c;"/><path d="m5.17,1.32c.03-.12-.09-.19-.27-.12-.04.02-.06.04-.08.06.01-.04.03-.09.03-.13,0-.04-.02-.06-.04-.09.02-.05.04-.1.03-.12-.03-.04-.1-.05-.21-.09-.12-.04-.24.07-.19.25.01.04.03.07.05.09,0,.05.02.09.04.11.05.03.21.01.23.06,0,0,0,0,.01,0,0,.04,0,.07.02.09-.06,0-.13.02-.17.11-.08.16.06.27.12.26.06,0,.24-.07.25-.12,0-.05-.04-.1-.09-.19.08.02.18.05.2.09.02.05.04-.16.07-.26Z" style="fill:#32676c;"/><path d="m5.23,1.95s.05.01.09,0c.05.04.22.05.23.11,0,.05.1-.1.15-.19.05-.1-.04-.19-.22-.16,0,0,0,0,0,0-.03-.15-.14-.22-.23-.15-.1.06-.16.09-.18.14-.02.05.12.2.18.24Z" style="fill:#32676c;"/><path d="m4.19,2.14c.05-.03.2.08.27.08.07,0,.21-.12.09-.29-.02-.03-.04-.05-.07-.06.04-.05.06-.13,0-.22-.11-.15-.27-.14-.31-.03-.04.1-.1.27-.05.23.02-.02.07,0,.12.02,0,0,0,0-.01.01-.04.1-.1.27-.05.24Z" style="fill:#32676c;"/><path d="m3.13,2.77c-.1.06-.16.09-.18.14-.01.03.06.13.12.19,0,.03-.02.07,0,.1.07.08.2.2.19.15,0-.05.16-.11.19-.16.02-.04,0-.14-.1-.17,0-.02.01-.02.01-.04,0-.19-.14-.27-.25-.19Z" style="fill:#32676c;"/><path d="m1.42,2.11c0-.05.16-.11.19-.16.03-.05-.02-.2-.21-.19-.19.01-.25.13-.17.21.07.08.2.2.19.15Z" style="fill:#32676c;"/><path d="m1.42,2.58c.02.05.04-.16.07-.26.03-.12-.09-.19-.27-.12-.04.02-.06.04-.08.06.01-.04.03-.09.03-.13.02-.11-.09-.18-.25-.1-.16.08-.12.23-.08.26.05.03.21.01.23.06,0,0,0,0,.01,0,0,.04,0,.07.02.09-.06,0-.13.02-.17.11-.08.16.06.27.12.26.06,0,.24-.07.25-.12,0-.05-.04-.1-.09-.19.08.02.18.05.2.09Z" style="fill:#32676c;"/><path d="m1.59,2.54c.05-.03.2.08.27.08.07,0,.21-.12.09-.29-.02-.03-.04-.05-.07-.06.04-.05.06-.13,0-.22-.11-.15-.27-.14-.31-.03-.04.1-.1.27-.05.23.02-.02.07,0,.12.02,0,0,0,0-.01.01-.04.1-.1.27-.05.24Z" style="fill:#32676c;"/><path d="m6.05.84c0-.05.16-.11.19-.16.03-.05-.02-.2-.21-.19-.19.01-.25.13-.17.21.07.08.2.2.19.15Z" style="fill:#32676c;"/><path d="m5.47,3.07c-.1.06-.16.09-.18.14-.02.05.12.2.18.24.06.04.25.01.25-.19,0-.19-.14-.27-.25-.19Z" style="fill:#32676c;"/><path d="m5.07,3.66c.04-.05.06-.13,0-.22-.11-.15-.27-.14-.31-.03-.04.1-.1.27-.05.23.02-.02.07,0,.12.02,0,0,0,0-.01.01-.04.1-.1.27-.05.24.05-.03.2.08.27.08.07,0,.21-.12.09-.29-.02-.03-.04-.05-.07-.06Z" style="fill:#32676c;"/><path d="m4.73,3.96c-.1.06-.16.09-.18.14-.02.05.12.2.18.24.06.04.25.01.25-.19,0-.19-.14-.27-.25-.19Z" style="fill:#32676c;"/><path d="m3.27,3.82c.02.05.04-.16.07-.26.03-.12-.09-.19-.27-.12-.04.02-.06.04-.08.06.01-.04.03-.09.03-.13.02-.11-.09-.18-.25-.1-.16.08-.12.23-.08.26.05.03.21.01.23.06,0,0,0,0,.01,0,0,.04,0,.07.02.09-.06,0-.13.02-.17.11-.08.16.06.27.12.26.06,0,.24-.07.25-.12,0-.05-.04-.1-.09-.19.08.02.18.05.2.09Z" style="fill:#32676c;"/><path d="m3.74,3.51c.04-.05.06-.13,0-.22-.11-.15-.27-.14-.31-.03-.04.1-.1.27-.05.23.02-.02.07,0,.12.02,0,0,0,0-.01.01-.04.1-.1.27-.05.24.05-.03.2.08.27.08.07,0,.21-.12.09-.29-.02-.03-.04-.05-.07-.06Z" style="fill:#32676c;"/><path d="m3.4,3.81c-.1.06-.16.09-.18.14-.02.05.12.2.18.24.06.04.25.01.25-.19,0-.19-.14-.27-.25-.19Z" style="fill:#32676c;"/><path d="m2.15,2.85c0-.05.16-.11.19-.16.03-.05-.02-.2-.21-.19-.19.01-.25.13-.17.21.07.08.2.2.19.15Z" style="fill:#32676c;"/><path d="m2.16,3.32c.02.05.04-.16.07-.26.03-.12-.09-.19-.27-.12-.04.02-.06.04-.08.06.01-.04.03-.09.03-.13.02-.07-.04-.11-.11-.12,0-.18-.14-.25-.25-.18-.1.06-.16.09-.18.14-.02.05.12.2.18.24,0,0,0,0,0,0,0,.03.02.06.03.08.05.03.21.01.23.06,0,0,0,0,.01,0,0,.04,0,.07.02.09-.06,0-.13.02-.17.11-.08.16.06.27.12.26.06,0,.24-.07.25-.12,0-.05-.04-.1-.09-.2.08.02.18.05.2.09Z" style="fill:#32676c;"/><path d="m2.28,3.32c-.1.06-.16.09-.18.14-.02.05.12.2.18.24.06.04.25.01.25-.19,0-.19-.14-.27-.25-.19Z" style="fill:#32676c;"/></g><path d="m.45,3.4c.03-.13-.11-.22-.31-.14s-.16.27-.1.31.3.07.33.14.04-.18.07-.3Z" style="fill:#4e999f;"/><path d="m2.73,4.97c.13-.04.13-.21-.05-.33s-.31.01-.31.08.1.3.06.35.18-.06.3-.1Z" style="fill:#4e999f;"/><path d="m4.73,5.01c.13-.04.13-.21-.05-.33s-.31.01-.31.08.1.3.06.35.18-.06.3-.1Z" style="fill:#4e999f;"/><path d="m7.58,3.63c.13-.04.13-.21-.05-.33s-.31.01-.31.08.1.3.06.35.18-.06.3-.1Z" style="fill:#4e999f;"/><path d="m3.07,4.94c.13-.04.13-.21-.05-.33s-.31.01-.31.08.1.3.06.35.18-.06.3-.1Z" style="fill:#4e999f;"/><g><path d="m2.04,2.54c.2.31.43.74.57,1.28.15.58.14,1.08.1,1.44" style="fill:none; stroke:#3f7f85; stroke-linecap:round; stroke-miterlimit:10; stroke-width:.25px;"/><path d="m2.73,2.6c.16.32.33.77.39,1.31.07.59,0,1.08-.1,1.44" style="fill:none; stroke:#3f7f85; stroke-linecap:round; stroke-miterlimit:10; stroke-width:.25px;"/><path d="m2.28,2.68c.31.31.67.74.88,1.28.23.58.22,1.08.15,1.44" style="fill:none; stroke:#3f7f85; stroke-linecap:round; stroke-miterlimit:10; stroke-width:.25px;"/><path d="m3.26,2.47c.2.31.39,1.11.53,1.64.15.58-.08,1-.13,1.36" style="fill:none; stroke:#3f7f85; stroke-linecap:round; stroke-miterlimit:10; stroke-width:.25px;"/><path d="m3.91,2.29c.17.32.28.96.23,1.61s-.09,1.25-.17,1.61" style="fill:none; stroke:#3f7f85; stroke-linecap:round; stroke-miterlimit:10; stroke-width:.25px;"/><path d="m4.11,2.79c.15.32.31.77.37,1.31.06.59-.02,1.08-.12,1.44" style="fill:none; stroke:#3f7f85; stroke-linecap:round; stroke-miterlimit:10; stroke-width:.25px;"/><path d="m6.67,2.58c-.2.31-.43.74-.57,1.28-.15.58-.14,1.08-.1,1.44" style="fill:none; stroke:#3f7f85; stroke-linecap:round; stroke-miterlimit:10; stroke-width:.25px;"/><path d="m6.09,2.59c-.16.32-.33.77-.39,1.31-.07.59,0,1.08.1,1.44" style="fill:none; stroke:#3f7f85; stroke-linecap:round; stroke-miterlimit:10; stroke-width:.25px;"/><path d="m6.1,2.43c-.31.31-.22.96-.44,1.5-.23.58-.22,1.08-.15,1.44" style="fill:none; stroke:#3f7f85; stroke-linecap:round; stroke-miterlimit:10; stroke-width:.25px;"/><path d="m5.42,2.49c-.2.31-.39,1.11-.53,1.64-.15.58.08,1,.13,1.36" style="fill:none; stroke:#3f7f85; stroke-linecap:round; stroke-miterlimit:10; stroke-width:.25px;"/><path d="m5.16,2.59c-.38.32-.1.72-.04,1.33s.08,1.18.21,1.52" style="fill:none; stroke:#3f7f85; stroke-linecap:round; stroke-miterlimit:10; stroke-width:.25px;"/><path d="m4.4,2.47c-.14.33.22,1.11.17,1.66-.05.59.05,1.08.16,1.44" style="fill:none; stroke:#3f7f85; stroke-linecap:round; stroke-miterlimit:10; stroke-width:.25px;"/></g><g><g><path d="m1.11,2.27c.06-.12-.04-.22-.26-.18s-.23.23-.18.28.25.06.26.12.12-.11.17-.22Z" style="fill:#3f7f85;"/><path d="m.75,2.44c-.08-.11-.26-.08-.34.12s.11.3.18.28.21-.18.27-.16-.05-.15-.12-.25Z" style="fill:#3f7f85;"/><path d="m.93,2.74c-.07-.12.05-.24.26-.21s.22.22.17.27-.27.15-.28.22-.09-.16-.15-.27Z" style="fill:#4e999f;"/><path d="m.76,2.76c-.08-.11-.26-.07-.34.14s.11.31.19.29.21-.19.28-.17-.05-.15-.12-.25Z" style="fill:#4e999f;"/><path d="m1.22,2.44c-.06-.12.05-.23.25-.19s.2.22.16.26-.23.07-.24.14-.11-.11-.17-.21Z" style="fill:#3f7f85;"/><path d="m.94,3.04c-.14-.05-.28.08-.22.29s.28.19.34.13.16-.27.13-.32-.12-.06-.24-.1Z" style="fill:#4e999f;"/><path d="m1.28,2.85c.03-.14.19-.17.33-.01s.01.31-.06.33-.29-.01-.31-.06.01-.13.04-.25Z" style="fill:#4e999f;"/></g><g><path d="m2.89,1.93c.06-.12-.04-.22-.26-.18s-.23.23-.18.28.25.06.26.12.12-.11.17-.22Z" style="fill:#3f7f85;"/><path d="m2.52,2.1c-.08-.11-.26-.08-.34.12s.11.3.18.28.21-.18.27-.16-.05-.15-.12-.25Z" style="fill:#3f7f85;"/><path d="m2.7,2.4c-.07-.12.05-.24.26-.21s.22.22.17.27-.27.15-.28.22-.09-.16-.15-.27Z" style="fill:#4e999f;"/><path d="m2.53,2.42c-.08-.11-.26-.07-.34.14s.11.31.19.29.21-.19.28-.17-.05-.15-.12-.25Z" style="fill:#4e999f;"/><path d="m2.99,2.1c-.06-.12.05-.23.25-.19s.2.22.16.26-.23.07-.24.14-.11-.11-.17-.21Z" style="fill:#3f7f85;"/><path d="m2.71,2.7c-.14-.05-.28.08-.22.29s.28.19.34.13.16-.27.13-.32-.12-.06-.24-.1Z" style="fill:#4e999f;"/><path d="m3.05,2.51c.03-.14.19-.17.33-.01s.01.31-.06.33-.29-.01-.31-.06.01-.13.04-.25Z" style="fill:#4e999f;"/></g><g><path d="m4.78,1.85c.06-.12-.04-.22-.26-.18s-.23.23-.18.28.25.06.26.12.12-.11.17-.22Z" style="fill:#3f7f85;"/><path d="m4.41,2.02c-.08-.11-.26-.08-.34.12s.11.3.18.28.21-.18.27-.16-.05-.15-.12-.25Z" style="fill:#3f7f85;"/><path d="m4.59,2.32c-.07-.12.05-.24.26-.21s.22.22.17.27-.27.15-.28.22-.09-.16-.15-.27Z" style="fill:#4e999f;"/><path d="m4.42,2.34c-.08-.11-.26-.07-.34.14s.11.31.19.29.21-.19.28-.17-.05-.15-.12-.25Z" style="fill:#4e999f;"/><path d="m4.88,2.02c-.06-.12.05-.23.25-.19s.2.22.16.26-.23.07-.24.14-.11-.11-.17-.21Z" style="fill:#3f7f85;"/><path d="m4.6,2.63c-.14-.05-.28.08-.22.29s.28.19.34.13.16-.27.13-.32-.12-.06-.24-.1Z" style="fill:#4e999f;"/><path d="m4.94,2.43c.03-.14.19-.17.33-.01s.01.31-.06.33-.29-.01-.31-.06.01-.13.04-.25Z" style="fill:#4e999f;"/></g><g><path d="m6.53,2c.06-.12-.04-.22-.26-.18s-.23.23-.18.28.25.06.26.12.12-.11.17-.22Z" style="fill:#3f7f85;"/><path d="m6.16,2.17c-.08-.11-.26-.08-.34.12s.11.3.18.28.21-.18.27-.16-.05-.15-.12-.25Z" style="fill:#3f7f85;"/><path d="m6.34,2.47c-.07-.12.05-.24.26-.21s.22.22.17.27-.27.15-.28.22-.09-.16-.15-.27Z" style="fill:#4e999f;"/><path d="m6.17,2.49c-.08-.11-.26-.07-.34.14s.11.31.19.29.21-.19.28-.17-.05-.15-.12-.25Z" style="fill:#4e999f;"/><path d="m6.64,2.17c-.06-.12.05-.23.25-.19s.2.22.16.26-.23.07-.24.14-.11-.11-.17-.21Z" style="fill:#3f7f85;"/><path d="m6.35,2.77c-.14-.05-.28.08-.22.29s.28.19.34.13.16-.27.13-.32-.12-.06-.24-.1Z" style="fill:#4e999f;"/><path d="m6.69,2.58c.03-.14.19-.17.33-.01s.01.31-.06.33-.29-.01-.31-.06.01-.13.04-.25Z" style="fill:#4e999f;"/></g><g><path d="m7.93,3.94c.1-.09.04-.23-.18-.26s-.29.13-.26.2.22.15.2.21.15-.07.24-.15Z" style="fill:#3f7f85;"/><path d="m7.53,3.97c-.04-.13-.21-.16-.36,0s0,.32.07.33.26-.1.31-.05,0-.15-.03-.27Z" style="fill:#3f7f85;"/><path d="m7.59,4.32c-.02-.14.13-.21.32-.11s.13.28.07.31-.31.04-.34.1-.03-.19-.05-.31Z" style="fill:#4e999f;"/><path d="m7.43,4.27c-.04-.14-.22-.16-.37,0s0,.33.08.34.27-.11.32-.07,0-.16-.03-.28Z" style="fill:#4e999f;"/><path d="m7.97,4.14c-.02-.13.12-.2.3-.09s.12.27.06.3-.24-.01-.27.04-.07-.14-.08-.26Z" style="fill:#3f7f85;"/><path d="m7.49,4.6c-.12-.1-.29-.03-.31.19s.2.28.27.24.24-.2.23-.25-.09-.1-.19-.18Z" style="fill:#4e999f;"/><path d="m7.88,4.54c.08-.11.24-.09.31.1s-.1.3-.17.29-.27-.11-.27-.17.06-.12.13-.22Z" style="fill:#4e999f;"/></g><g><path d="m1.97,3.44c.06-.12-.04-.22-.26-.18s-.23.23-.18.28.25.06.26.12.12-.11.17-.22Z" style="fill:#3f7f85;"/><path d="m1.61,3.61c-.08-.11-.26-.08-.34.12s.11.3.18.28.21-.18.27-.16-.05-.15-.12-.25Z" style="fill:#3f7f85;"/><path d="m1.79,3.91c-.07-.12.05-.24.26-.21s.22.22.17.27-.27.15-.28.22-.09-.16-.15-.27Z" style="fill:#4e999f;"/><path d="m1.62,3.93c-.08-.11-.26-.07-.34.14s.11.31.19.29.21-.19.28-.17-.05-.15-.12-.25Z" style="fill:#4e999f;"/><path d="m2.08,3.61c-.06-.12.05-.23.25-.19s.2.22.16.26-.23.07-.24.14-.11-.11-.17-.21Z" style="fill:#3f7f85;"/><path d="m1.8,4.21c-.14-.05-.28.08-.22.29s.28.19.34.13.16-.27.13-.32-.12-.06-.24-.1Z" style="fill:#4e999f;"/><path d="m2.14,4.02c.03-.14.19-.17.33-.01s.01.31-.06.33-.29-.01-.31-.06.01-.13.04-.25Z" style="fill:#4e999f;"/></g><g><path d="m2.61,2.67c.06-.12-.04-.22-.26-.18s-.23.23-.18.28.25.06.26.12.12-.11.17-.22Z" style="fill:#3f7f85;"/><path d="m2.25,2.84c-.08-.11-.26-.08-.34.12s.11.3.18.28.21-.18.27-.16-.05-.15-.12-.25Z" style="fill:#3f7f85;"/><path d="m2.43,3.14c-.07-.12.05-.24.26-.21s.22.22.17.27-.27.15-.28.22-.09-.16-.15-.27Z" style="fill:#4e999f;"/><path d="m2.25,3.16c-.08-.11-.26-.07-.34.14s.11.31.19.29.21-.19.28-.17-.05-.15-.12-.25Z" style="fill:#4e999f;"/><path d="m2.72,2.84c-.06-.12.05-.23.25-.19s.2.22.16.26-.23.07-.24.14-.11-.11-.17-.21Z" style="fill:#3f7f85;"/><path d="m2.43,3.44c-.14-.05-.28.08-.22.29s.28.19.34.13.16-.27.13-.32-.12-.06-.24-.1Z" style="fill:#4e999f;"/><path d="m2.77,3.25c.03-.14.19-.17.33-.01s.01.31-.06.33-.29-.01-.31-.06.01-.13.04-.25Z" style="fill:#4e999f;"/></g><g><path d="m4.22,3.87c.06-.12-.04-.22-.26-.18s-.23.23-.18.28.25.06.26.12.12-.11.17-.22Z" style="fill:#3f7f85;"/><path d="m3.86,4.03c-.08-.11-.26-.08-.34.12s.11.3.18.28.21-.18.27-.16-.05-.15-.12-.25Z" style="fill:#3f7f85;"/><path d="m4.04,4.34c-.07-.12.05-.24.26-.21s.22.22.17.27-.27.15-.28.22-.09-.16-.15-.27Z" style="fill:#4e999f;"/><path d="m3.87,4.35c-.08-.11-.26-.07-.34.14s.11.31.19.29.21-.19.28-.17-.05-.15-.12-.25Z" style="fill:#4e999f;"/><path d="m4.33,4.04c-.06-.12.05-.23.25-.19s.2.22.16.26-.23.07-.24.14-.11-.11-.17-.21Z" style="fill:#3f7f85;"/><path d="m4.05,4.64c-.14-.05-.28.08-.22.29s.28.19.34.13.16-.27.13-.32-.12-.06-.24-.1Z" style="fill:#4e999f;"/><path d="m4.39,4.45c.03-.14.19-.17.33-.01s.01.31-.06.33-.29-.01-.31-.06.01-.13.04-.25Z" style="fill:#4e999f;"/></g><g><path d="m5.59,3.26c.06-.12-.04-.22-.26-.18s-.23.23-.18.28.25.06.26.12.12-.11.17-.22Z" style="fill:#3f7f85;"/><path d="m5.23,3.43c-.08-.11-.26-.08-.34.12s.11.3.18.28.21-.18.27-.16-.05-.15-.12-.25Z" style="fill:#3f7f85;"/><path d="m5.41,3.73c-.07-.12.05-.24.26-.21s.22.22.17.27-.27.15-.28.22-.09-.16-.15-.27Z" style="fill:#4e999f;"/><path d="m5.24,3.75c-.08-.11-.26-.07-.34.14s.11.31.19.29.21-.19.28-.17-.05-.15-.12-.25Z" style="fill:#4e999f;"/><path d="m5.7,3.43c-.06-.12.05-.23.25-.19s.2.22.16.26-.23.07-.24.14-.11-.11-.17-.21Z" style="fill:#3f7f85;"/><path d="m5.41,4.03c-.14-.05-.28.08-.22.29s.28.19.34.13.16-.27.13-.32-.12-.06-.24-.1Z" style="fill:#4e999f;"/><path d="m5.76,3.84c.03-.14.19-.17.33-.01s.01.31-.06.33-.29-.01-.31-.06.01-.13.04-.25Z" style="fill:#4e999f;"/></g><g><path d="m6.51,4.12c.06-.12-.04-.22-.26-.18s-.23.23-.18.28.25.06.26.12.12-.11.17-.22Z" style="fill:#3f7f85;"/><path d="m6.14,4.28c-.08-.11-.26-.08-.34.12s.11.3.18.28.21-.18.27-.16-.05-.15-.12-.25Z" style="fill:#3f7f85;"/><path d="m6.32,4.59c-.07-.12.05-.24.26-.21s.22.22.17.27-.27.15-.28.22-.09-.16-.15-.27Z" style="fill:#4e999f;"/><path d="m6.15,4.6c-.08-.11-.26-.07-.34.14s.11.31.19.29.21-.19.28-.17-.05-.15-.12-.25Z" style="fill:#4e999f;"/><path d="m6.61,4.29c-.06-.12.05-.23.25-.19s.2.22.16.26-.23.07-.24.14-.11-.11-.17-.21Z" style="fill:#3f7f85;"/><path d="m6.33,4.89c-.14-.05-.28.08-.22.29s.28.19.34.13.16-.27.13-.32-.12-.06-.24-.1Z" style="fill:#4e999f;"/><path d="m6.67,4.69c.03-.14.19-.17.33-.01s.01.31-.06.33-.29-.01-.31-.06.01-.13.04-.25Z" style="fill:#4e999f;"/></g><g><path d="m7.55,2.46c-.09-.1-.01-.23.2-.24s.28.16.24.22-.23.13-.22.19-.14-.08-.22-.17Z" style="fill:#3f7f85;"/><path d="m7.95,2.52c.05-.13.23-.14.36.03s-.03.32-.11.32-.25-.12-.31-.08,0-.15.05-.27Z" style="fill:#3f7f85;"/><path d="m7.85,2.86c.03-.13-.11-.22-.31-.14s-.16.27-.1.31.3.07.33.14.04-.18.07-.3Z" style="fill:#4e999f;"/><path d="m8.02,2.84c.05-.13.23-.14.37.04s-.02.33-.11.33-.26-.13-.31-.1,0-.16.05-.28Z" style="fill:#4e999f;"/><path d="m7.49,2.65c.03-.13-.1-.21-.29-.12s-.14.26-.09.29.24.01.27.07.08-.13.11-.25Z" style="fill:#3f7f85;"/><path d="m7.92,3.16c.13-.08.29,0,.29.22s-.22.26-.29.21-.22-.22-.21-.27.1-.09.21-.16Z" style="fill:#4e999f;"/><path d="m7.54,3.06c-.07-.12-.23-.11-.32.07s.07.31.14.3.28-.08.29-.14-.05-.12-.11-.23Z" style="fill:#4e999f;"/></g><g><path d="m4.71,2.72c-.09-.1-.01-.23.2-.24s.28.16.24.22-.23.13-.22.19-.14-.08-.22-.17Z" style="fill:#3f7f85;"/><path d="m5.1,2.79c.05-.13.23-.14.36.03s-.03.32-.11.32-.25-.12-.31-.08,0-.15.05-.27Z" style="fill:#3f7f85;"/><path d="m5.01,3.13c.03-.13-.11-.22-.31-.14s-.16.27-.1.31.3.07.33.14.04-.18.07-.3Z" style="fill:#4e999f;"/><path d="m5.18,3.1c.05-.13.23-.14.37.04s-.02.33-.11.33-.26-.13-.31-.1,0-.16.05-.28Z" style="fill:#4e999f;"/><path d="m4.65,2.91c.03-.13-.1-.21-.29-.12s-.14.26-.09.29.24.01.27.07.08-.13.11-.25Z" style="fill:#3f7f85;"/><path d="m5.08,3.42c.13-.08.29,0,.29.22s-.22.26-.29.21-.22-.22-.21-.27.1-.09.21-.16Z" style="fill:#4e999f;"/><path d="m4.7,3.32c-.07-.12-.23-.11-.32.07s.07.31.14.3.28-.08.29-.14-.05-.12-.11-.23Z" style="fill:#4e999f;"/></g><g><path d="m3.56,2.92c-.08-.11.02-.23.23-.21s.26.2.21.25-.24.1-.24.16-.13-.1-.2-.2Z" style="fill:#3f7f85;"/><path d="m3.95,3.04c.07-.12.25-.11.35.08s-.07.31-.15.3-.23-.15-.29-.12.03-.15.09-.26Z" style="fill:#3f7f85;"/><path d="m3.81,3.36c.05-.13-.08-.24-.28-.18s-.19.24-.14.29.29.11.31.18.07-.17.11-.29Z" style="fill:#4e999f;"/><path d="m3.98,3.35c.07-.12.25-.11.36.09s-.07.33-.15.31-.24-.17-.3-.14.03-.16.09-.27Z" style="fill:#4e999f;"/><path d="m3.48,3.1c.05-.12-.08-.22-.27-.15s-.18.24-.12.28.24.04.26.1.1-.12.14-.23Z" style="fill:#3f7f85;"/><path d="m3.84,3.66c.14-.07.28.04.26.26s-.25.23-.32.17-.19-.25-.17-.3.11-.08.23-.13Z" style="fill:#4e999f;"/><path d="m3.48,3.51c-.05-.13-.21-.14-.32.03s.03.31.1.32.29-.05.3-.1-.03-.13-.08-.24Z" style="fill:#4e999f;"/></g><g><path d="m2.72,3.66c-.09-.1-.01-.23.2-.24s.28.16.24.22-.23.13-.22.19-.14-.08-.22-.17Z" style="fill:#3f7f85;"/><path d="m3.12,3.73c.05-.13.23-.14.36.03s-.03.32-.11.32-.25-.12-.31-.08,0-.15.05-.27Z" style="fill:#3f7f85;"/><path d="m3.02,4.07c.03-.13-.11-.22-.31-.14s-.16.27-.1.31.3.07.33.14.04-.18.07-.3Z" style="fill:#4e999f;"/><path d="m3.19,4.04c.05-.13.23-.14.37.04s-.02.33-.11.33-.26-.13-.31-.1,0-.16.05-.28Z" style="fill:#4e999f;"/><path d="m2.66,3.86c.03-.13-.1-.21-.29-.12s-.14.26-.09.29.24.01.27.07.08-.13.11-.25Z" style="fill:#3f7f85;"/><path d="m3.09,4.36c.13-.08.29,0,.29.22s-.22.26-.29.21-.22-.22-.21-.27.1-.09.21-.16Z" style="fill:#4e999f;"/><path d="m2.71,4.27c-.07-.12-.23-.11-.32.07s.07.31.14.3.28-.08.29-.14-.05-.12-.11-.23Z" style="fill:#4e999f;"/></g><g><path d="m.5,3.52c-.09-.1-.01-.23.2-.24s.28.16.24.22-.23.13-.22.19-.14-.08-.22-.17Z" style="fill:#3f7f85;"/><path d="m.89,3.58c.05-.13.23-.14.36.03s-.03.32-.11.32-.25-.12-.31-.08,0-.15.05-.27Z" style="fill:#3f7f85;"/><path d="m.8,3.92c.03-.13-.11-.22-.31-.14s-.16.27-.1.31.3.07.33.14.04-.18.07-.3Z" style="fill:#4e999f;"/><path d="m.97,3.89c.05-.13.23-.14.37.04s-.02.33-.11.33-.26-.13-.31-.1,0-.16.05-.28Z" style="fill:#4e999f;"/><path d="m.44,3.71c.03-.13-.1-.21-.29-.12s-.14.26-.09.29.24.01.27.07.08-.13.11-.25Z" style="fill:#3f7f85;"/><path d="m.87,4.22c.13-.08.29,0,.29.22s-.22.26-.29.21-.22-.22-.21-.27.1-.09.21-.16Z" style="fill:#4e999f;"/><path d="m.49,4.12c-.07-.12-.23-.11-.32.07s.07.31.14.3.28-.08.29-.14-.05-.12-.11-.23Z" style="fill:#4e999f;"/></g><g><path d="m6.3,3.03c-.09-.1-.01-.23.2-.24s.28.16.24.22-.23.13-.22.19-.14-.08-.22-.17Z" style="fill:#3f7f85;"/><path d="m6.69,3.09c.05-.13.23-.14.36.03s-.03.32-.11.32-.25-.12-.31-.08,0-.15.05-.27Z" style="fill:#3f7f85;"/><path d="m6.6,3.43c.03-.13-.11-.22-.31-.14s-.16.27-.1.31.3.07.33.14.04-.18.07-.3Z" style="fill:#4e999f;"/><path d="m6.77,3.41c.05-.13.23-.14.37.04s-.02.33-.11.33-.26-.13-.31-.1,0-.16.05-.28Z" style="fill:#4e999f;"/><path d="m6.24,3.22c.03-.13-.1-.21-.29-.12s-.14.26-.09.29.24.01.27.07.08-.13.11-.25Z" style="fill:#3f7f85;"/><path d="m6.67,3.73c.13-.08.29,0,.29.22s-.22.26-.29.21-.22-.22-.21-.27.1-.09.21-.16Z" style="fill:#4e999f;"/><path d="m6.29,3.63c-.07-.12-.23-.11-.32.07s.07.31.14.3.28-.08.29-.14-.05-.12-.11-.23Z" style="fill:#4e999f;"/></g><g><path d="m5.34,3.97c-.09-.1-.01-.23.2-.24s.28.16.24.22-.23.13-.22.19-.14-.08-.22-.17Z" style="fill:#3f7f85;"/><path d="m5.73,4.04c.05-.13.23-.14.36.03s-.03.32-.11.32-.25-.12-.31-.08,0-.15.05-.27Z" style="fill:#3f7f85;"/><path d="m5.64,4.38c.03-.13-.11-.22-.31-.14s-.16.27-.1.31.3.07.33.14.04-.18.07-.3Z" style="fill:#4e999f;"/><path d="m5.81,4.35c.05-.13.23-.14.37.04s-.02.33-.11.33-.26-.13-.31-.1,0-.16.05-.28Z" style="fill:#4e999f;"/><path d="m5.28,4.16c.03-.13-.1-.21-.29-.12s-.14.26-.09.29.24.01.27.07.08-.13.11-.25Z" style="fill:#3f7f85;"/><path d="m5.71,4.67c.13-.08.29,0,.29.22s-.22.26-.29.21-.22-.22-.21-.27.1-.09.21-.16Z" style="fill:#4e999f;"/><path d="m5.33,4.57c-.07-.12-.23-.11-.32.07s.07.31.14.3.28-.08.29-.14-.05-.12-.11-.23Z" style="fill:#4e999f;"/></g><g><path d="m5.29,4.93c-.02-.13.11-.2.3-.1s.15.29.09.32-.26-.01-.29.04-.08-.14-.1-.26Z" style="fill:#3f7f85;"/><path d="m5.59,5.19c.11-.08.27,0,.29.22s-.19.26-.26.21-.15-.23-.21-.23.09-.13.19-.2Z" style="fill:#3f7f85;"/><path d="m5.33,5.43c.1-.1.03-.25-.19-.28s-.27.14-.24.21.22.22.21.29.13-.13.22-.22Z" style="fill:#4e999f;"/><path d="m5.49,5.5c.11-.08.27,0,.29.23s-.2.27-.27.22-.15-.25-.22-.25.09-.13.19-.21Z" style="fill:#4e999f;"/><path d="m5.14,5.06c.09-.09.02-.23-.18-.25s-.26.15-.23.2.2.14.19.2.14-.07.22-.15Z" style="fill:#3f7f85;"/><path d="m5.24,5.71c.15,0,.24.15.13.34s-.32.1-.36.03-.07-.31-.03-.34.13-.02.26-.03Z" style="fill:#4e999f;"/><path d="m4.97,5.43c0-.14-.14-.22-.31-.11s-.11.3-.04.33.28.08.32.03.03-.13.03-.25Z" style="fill:#4e999f;"/></g><g><path d="m3.77,4.9c-.07-.11.02-.23.24-.2s.25.21.2.26-.25.09-.25.15-.13-.1-.19-.2Z" style="fill:#3f7f85;"/><path d="m4.14,5.03c.07-.12.25-.1.35.09s-.08.31-.16.3-.22-.16-.29-.13.03-.15.1-.26Z" style="fill:#3f7f85;"/><path d="m3.99,5.35c.06-.13-.07-.24-.28-.19s-.2.24-.15.28.29.12.3.19.07-.17.12-.29Z" style="fill:#4e999f;"/><path d="m4.17,5.35c.07-.12.25-.1.36.11s-.08.32-.16.31-.23-.17-.29-.15.03-.16.1-.26Z" style="fill:#4e999f;"/><path d="m3.67,5.08c.05-.12-.07-.22-.26-.16s-.18.23-.13.28.24.05.25.11.1-.12.15-.23Z" style="fill:#3f7f85;"/><path d="m4.01,5.65c.14-.06.28.05.25.27s-.26.22-.32.16-.18-.25-.16-.3.11-.07.23-.13Z" style="fill:#4e999f;"/><path d="m3.66,5.49c-.05-.13-.21-.15-.32.02s.02.31.09.32.29-.04.31-.09-.02-.13-.07-.25Z" style="fill:#4e999f;"/></g><g><path d="m1.85,4.69c-.09-.1-.01-.23.2-.24s.28.16.24.22-.23.13-.22.19-.14-.08-.22-.17Z" style="fill:#3f7f85;"/><path d="m2.25,4.76c.05-.13.23-.14.36.03s-.03.32-.11.32-.25-.12-.31-.08,0-.15.05-.27Z" style="fill:#3f7f85;"/><path d="m2.15,5.1c.03-.13-.11-.22-.31-.14s-.16.27-.1.31.3.07.33.14.04-.18.07-.3Z" style="fill:#4e999f;"/><path d="m2.32,5.07c.05-.13.23-.14.37.04s-.02.33-.11.33-.26-.13-.31-.1,0-.16.05-.28Z" style="fill:#4e999f;"/><path d="m1.79,4.88c.03-.13-.1-.21-.29-.12s-.14.26-.09.29.24.01.27.07.08-.13.11-.25Z" style="fill:#3f7f85;"/><path d="m2.22,5.39c.13-.08.29,0,.29.22s-.22.26-.29.21-.22-.22-.21-.27.1-.09.21-.16Z" style="fill:#4e999f;"/><path d="m1.84,5.3c-.07-.12-.23-.11-.32.07s.07.31.14.3.28-.08.29-.14-.05-.12-.11-.23Z" style="fill:#4e999f;"/></g></g></g></g></svg>