<?xml version="1.0" encoding="UTF-8"?><svg id="uuid-a444ced4-6c35-4ac6-8b26-9e0c43947539" xmlns="http://www.w3.org/2000/svg" viewBox="0 0 9.63 11.95"><g id="uuid-84e7abd1-2a38-41e1-8ef1-ba8212e45f9d"><g><path d="m4.54,2.48c-2.16,0-3.92.96-3.92,2.14l.66,5.56c0,.98,1.46,1.78,3.26,1.78s3.26-.8,3.26-1.78l.66-5.56c0-1.18-1.75-2.14-3.92-2.14Z" style="fill:#f6f4f3;"/><ellipse cx="4.54" cy="4.64" rx="3.23" ry="1.76" style="fill:#bcb8b7;"/><g><path d="m3.89,6.31s-.03,0-.05,0c-.16-.03-.27-.18-.24-.34.05-.32,0-.76-.15-1.29-.25-.9-.7-1.74-.71-1.75-.08-.14-.02-.32.12-.4.14-.08.32-.02.4.12.02.04.48.91.75,1.87.17.62.23,1.13.16,1.54-.02.14-.15.25-.29.25Z" style="fill:#346a6f;"/><path d="m5.37,6.62c-.14,0-.26-.1-.29-.24-.07-.38-.01-.86.16-1.43.27-.88.74-1.68.76-1.72.08-.14.26-.19.4-.11.14.08.19.26.11.4,0,0-.45.78-.7,1.59-.15.47-.2.87-.15,1.15.03.16-.08.31-.24.34-.02,0-.03,0-.05,0Z" style="fill:#346a6f;"/><path d="m4.56,6.42c-.15,0-.28-.11-.29-.26-.05-.52,0-1.2.14-2.02.24-1.29.64-2.47.66-2.52.05-.15.22-.23.37-.18.15.05.23.22.18.37,0,.01-.41,1.19-.64,2.44-.14.76-.18,1.38-.14,1.85.02.16-.1.31-.26.32-.01,0-.02,0-.03,0Z" style="fill:#346a6f;"/></g><path d="m5.06,3.97c0,.84.98,1.38,2.03,1.52s1.97-.56,2.46-.94-1.33-2.1-2.46-2.1-2.03.68-2.03,1.52Z" style="fill:#346a6f;"/><path d="m4.17,2.47c0,.63-.98,1.04-2.03,1.15S.58,2.76.1,2.47s.91-1.15,2.03-1.15,2.03.51,2.03,1.15Z" style="fill:#346a6f;"/><path d="m3.77,1.03c-.09.71.95,1.31,2.12,1.58s1.87-.74,2.45-1S7.49.19,6.22.03s-2.36.29-2.45,1Z" style="fill:#346a6f;"/><path d="m4.05,4.28c.29.79-.44,1.63-1.39,2.13s-1.85-.54-2.44-.73.33-1.75,1.39-2.13,2.15-.06,2.44.73Z" style="fill:#3f7f85;"/><path d="m3.55,2.8c.3.62,1.21.68,2.04.41s1.26-1.11,1.49-1.56-1.73-1.09-2.56-.69-1.27,1.22-.97,1.85Z" style="fill:#3f7f85;"/><path d="m5.48,4.43c1.01-.13,1.74.45,2,1.14s-1.23,1.22-1.65,1.61-1.9-.38-2-1.14.64-1.48,1.65-1.61Z" style="fill:#3f7f85;"/></g></g></svg>