<?xml version="1.0" encoding="UTF-8"?><svg id="uuid-b0645e32-6ece-436e-a7a5-419dd55ad558" xmlns="http://www.w3.org/2000/svg" viewBox="0 0 8.36 10.94"><g id="uuid-a6b7c992-9378-4ea2-b9df-a21274d1a983"><g><path d="m4.08,1.47C1.91,1.47.16,2.43.16,3.61l.66,5.56c0,.98,1.46,1.78,3.26,1.78s3.26-.8,3.26-1.78l.66-5.56c0-1.18-1.75-2.14-3.92-2.14Z" style="fill:#fdf9f8;"/><ellipse cx="4.08" cy="3.63" rx="3.23" ry="1.76" style="fill:#bcb8b7;"/><g><path d="m0,2.2c.33-.24,2.19,1.61,3.17,1.44s.04,1.17-.68,1.18S.29,3.87,0,2.2Z" style="fill:#575b52;"/><path d="m1.13.47s1,2.22,1.84,2.51-.49.93-1.05.62S.54,1.94,1.13.47Z" style="fill:#575b52;"/><path d="m7.38.72s-1.67,1.77-2.55,1.78.16,1.04.79.92,1.84-1.12,1.76-2.7Z" style="fill:#575b52;"/><path d="m8.36,2.5c-1.05.68-2.36,1.35-3.32,1.07s-.17,1.16.54,1.25,2.73-.86,2.77-2.32Z" style="fill:#575b52;"/><g><path d="m4,.11s.16.65.48.72-.11.67-.38.42-.28-.79-.1-1.15Z" style="fill:#575b52;"/><path d="m5.46.38s-.37.55-.7.51-.13.67.21.53.54-.64.49-1.04Z" style="fill:#575b52;"/><path d="m4.89,0s-.63.53-.56.81.48.48.51.34.34-.71.06-1.15Z" style="fill:#575b52;"/></g><g><path d="m5.93.63s-.66.99-1.46,1.02-.03,1.11.73.79,1.02-1.18.73-1.81Z" style="fill:#575b52;"/><path d="m2.3.63s.66.99,1.46,1.02.03,1.11-.73.79-1.02-1.18-.73-1.81Z" style="fill:#575b52;"/><path d="m3.4.36s1.29,1.03,1.01,1.46-1.37.63-1.37.4-.5-1.23.36-1.86Z" style="fill:#575b52;"/></g></g><path d="m4.25,3.96h-.29c0-.09.01-2.29.36-2.96l.26.13c-.26.51-.32,2.21-.33,2.83Z" style="fill:#575b52;"/><path d="m3.05,1.62s-.72.42-.66.74.43.63.75.65.85-.29.95-.43-.95-.69-1.04-.97Z" style="fill:#73786c;"/><path d="m5.12,1.45s.72.42.66.74-.43.63-.75.65-.85-.29-.95-.43.95-.69,1.04-.97Z" style="fill:#73786c;"/><path d="m2.03,2.16s-.99.88-.8,1.32.89.79,1.39.7,1.24-.72,1.35-.96-1.72-.69-1.95-1.07Z" style="fill:#73786c;"/><path d="m6.15,2.28s1.08.71.93,1.11-.8.73-1.31.69-1.31-.56-1.44-.76,1.63-.7,1.82-1.04Z" style="fill:#73786c;"/><path d="m4.11,2.91s-1.87,1.07-1.95,1.44.67.87,1.42.9,2.26-.07,2.41-.33-.79-1.7-1.88-2.01Z" style="fill:#81877a;"/></g></g></svg>