<?xml version="1.0" encoding="UTF-8"?><svg id="uuid-340d077f-94ca-42fc-8da1-13c905442d2b" xmlns="http://www.w3.org/2000/svg" viewBox="0 0 13.36 19.18"><g id="uuid-2d48d564-c71b-4140-a41b-dbc7ee51b61e"><g><path d="m6.76,5.37c3.15,0,5.71,1.39,5.71,3.12l-.96,8.1c0,1.43-2.13,2.59-4.75,2.59s-4.75-1.16-4.75-2.59l-.96-8.1c0-1.72,2.55-3.12,5.71-3.12Z" style="fill:#597477;"/><ellipse cx="6.76" cy="8.52" rx="4.71" ry="2.57" style="fill:#bcb8b7;"/><path d="m8.6,7.5s-1.01-.43-1.54-1.52c-.44-.89-.37-2.24-.37-2.24,0,0,1.72,1.05,2.12,1.68s.21,1.55-.21,2.08Z" style="fill:#376f74;"/><path d="m4.34,7.93s.87-.67,1.12-1.85c.21-.97-1.3-2.34-1.3-2.34,0,0-.3,1.52-.54,2.23s.18,1.56.72,1.96Z" style="fill:#376f74;"/><path d="m9.51,7.37s-.54-.96-.31-2.14c.19-.97,2.1-1.14,2.1-1.14,0,0-.31,1.02-.37,1.76s-.78,1.36-1.43,1.53Z" style="fill:#376f74;"/><path d="m4.99,8.3s1.1-.06,1.97-.9c.71-.68,1.11-1.98,1.11-1.98,0,0-1.97.4-2.57.85s-.73,1.39-.51,2.03Z" style="fill:#376f74;"/><path d="m3.83,8.65s-1.06.29-2.15-.23c-.89-.42-1.68-1.52-1.68-1.52,0,0,2-.25,2.71,0s1.13,1.09,1.13,1.76Z" style="fill:#3f7f85;"/><path d="m4.55,9.73s.96-.54,1.37-1.67c.34-.93.13-2.26.13-2.26,0,0-1.6,1.23-1.93,1.89s-.04,1.57.43,2.04Z" style="fill:#3f7f85;"/><path d="m9.1,8.22s.76-.8.82-2c.05-.99-1.65-2.11-1.65-2.11,0,0-.06,1.55-.19,2.28s.42,1.51,1.01,1.83Z" style="fill:#3f7f85;"/><path d="m4.18,7.8s-1.02-.41-1.58-1.48c-.46-.88.93-2.2.93-2.2,0,0,.39.99.81,1.61s.24,1.55-.17,2.08Z" style="fill:#3f7f85;"/><path d="m9.22,9.16s1.07-.23,1.81-1.19c.6-.79.79-2.13.79-2.13,0,0-1.89.7-2.4,1.24s-.5,1.49-.19,2.08Z" style="fill:#3f7f85;"/><path d="m10.55,4.48c-.67.72-1.56,2.83-1.5,5.1" style="fill:none; stroke:#32676c; stroke-miterlimit:10; stroke-width:.25px;"/><path d="m8.58,3.17c-.17,1.16.76,3.84.09,6.44" style="fill:none; stroke:#32676c; stroke-miterlimit:10; stroke-width:.25px;"/><path d="m7.31,3.41c.28,1.14-.62,4.14-.56,6.41" style="fill:none; stroke:#e2c0a2; stroke-miterlimit:10; stroke-width:.25px;"/><path d="m6.75,4.6c-.17,1.16.3,2.65-.37,5.26" style="fill:none; stroke:#e2c0a2; stroke-miterlimit:10; stroke-width:.25px;"/><g><path d="m3.06,5.93c.75.58,1.64,2.34,1.5,3.96" style="fill:none; stroke:#32676c; stroke-miterlimit:10; stroke-width:.25px;"/><path d="m6.12,3.61c-1.11,1.73-1.96,4.65-1.45,6.5" style="fill:none; stroke:#32676c; stroke-miterlimit:10; stroke-width:.25px;"/><path d="m4.87,3.41c.09,1.55-1.18,4.53-.63,6.34" style="fill:none; stroke:#32676c; stroke-miterlimit:10; stroke-width:.25px;"/></g><path d="m4.59,11.85s.76-.8.82-2c.05-.99-1.03-.6-1.03-.6,0,0-.68.04-.81.78s.42,1.51,1.01,1.83Z" style="fill:#3f7f85;"/><path d="m8.34,5.62s-1.57,1.48-1.64,2.69c-.05.99.77.63,1.03.6s.86-.64.99-1.37-.27-1.12-.38-1.92Z" style="fill:#3f7f85;"/><path d="m10.8,10.97s-1.06-.3-1.73-1.3c-.55-.82.57-1.04.57-1.04,0,0,.61-.32,1.09.25s.41,1.51.07,2.09Z" style="fill:#3f7f85;"/><path d="m5.51,7.65s1.79.53,1.86,1.74c.05.99-1.03.6-1.03.6,0,0-.68-.04-.81-.78s-.13-.77-.02-1.57Z" style="fill:#468990;"/><path d="m7.78,3.31c.64,1.02,1.16,3.7.49,6.31" style="fill:none; stroke:#32676c; stroke-miterlimit:10; stroke-width:.25px;"/><path d="m7.52,12.59s1.97-.72,2.05-2.35c.07-1.33-1.39-.81-1.39-.81,0,0-.93.05-1.09,1.05s.37.93.43,2.12Z" style="fill:#468990;"/><g><path d="m8.56,3.15s1.18-2.54,1.67-2.13c1.01.84-1.67,2.13-1.67,2.13Z" style="fill:#f6e9df;"/><path d="m8.58,3.23s-.16-2.8.46-2.67c1.29.27-.46,2.67-.46,2.67Z" style="fill:#f6e9df;"/><path d="m8.69,3.66s2.8.17,2.67-.46c-.27-1.29-2.67.46-2.67.46Z" style="fill:#f6e9df;"/><path d="m8.58,3.63s.43-2.86-.34-2.67c-1.61.39.34,2.67.34,2.67Z" style="fill:#f6e9df;"/><path d="m9.01,3.62s2.49-1.08,2.02-1.51c-.98-.88-2.02,1.51-2.02,1.51Z" style="fill:#f6e9df;"/><path d="m8.42,3.43s.31-2.79.91-2.55c1.22.48-.91,2.55-.91,2.55Z" style="fill:#f6e9df;"/><path d="m8.4,3.59s1.94-.83,1.69-1.35c-.43-.89-1.69,1.35-1.69,1.35Z" style="fill:#f6e9df;"/><path d="m8.5,3.42s1.14-1.29.63-1.57c-.86-.48-.63,1.57-.63,1.57Z" style="fill:#f6e9df;"/><g><path d="m8.49,3.7s2.84,1.08,2.61.51c-.53-1.37-2.61-.51-2.61-.51Z" style="fill:#f6e9df;"/><path d="m8.56,3.75s-.72-1.98-1.21-1.99c-.85-.01,1.21,1.99,1.21,1.99Z" style="fill:#f6e9df;"/><path d="m8.49,3.7s2.72-.08,2.03-.66c-1.38-1.15-2.03.66-2.03.66Z" style="fill:#f6e9df;"/><path d="m8.51,3.68s-1.23-2.48-.63-2.33c1.48.37.63,2.33.63,2.33Z" style="fill:#f6e9df;"/></g><path d="m8.28,3.09c.07,0,.12.13.16.28,0-.14.03-.28.18-.29.23.1.21.28.13.43.11-.07.26-.1.47.07.09.07.02.12-.1.16.13.03.25.1.31.25.08.2-.91-.18-.91-.18,0,0-.52-.71-.23-.71Z" style="fill:#f6e9df;"/></g><g><path d="m5.33,2.62S5.72-.16,6.31.09c1.21.52-.98,2.53-.98,2.53Z" style="fill:#f6e9df;"/><path d="m5.37,2.69S4.41.06,5.04,0c1.31-.12.33,2.69.33,2.69Z" style="fill:#f6e9df;"/><path d="m5.61,3.07s2.73-.65,2.42-1.21c-.63-1.15-2.42,1.21-2.42,1.21Z" style="fill:#f6e9df;"/><path d="m5.49,3.07s-.42-2.86-1.11-2.46c-1.42.84,1.11,2.46,1.11,2.46Z" style="fill:#f6e9df;"/><path d="m5.9,2.94s2.07-1.76,1.49-2.03c-1.19-.55-1.49,2.03-1.49,2.03Z" style="fill:#f6e9df;"/><path d="m5.28,2.93s-.51-2.76.12-2.71c1.31.11-.12,2.71-.12,2.71Z" style="fill:#f6e9df;"/><path d="m5.31,3.09s1.62-1.36,1.22-1.79c-.67-.73-1.22,1.79-1.22,1.79Z" style="fill:#f6e9df;"/><path d="m5.35,2.89s.72-1.56.15-1.69c-.97-.21-.15,1.69-.15,1.69Z" style="fill:#f6e9df;"/><g><path d="m5.42,3.17s3.03.21,2.65-.27c-.9-1.16-2.65.27-2.65.27Z" style="fill:#f6e9df;"/><path d="m5.5,3.2s-1.26-1.69-1.74-1.55c-.81.23,1.74,1.55,1.74,1.55Z" style="fill:#f6e9df;"/><path d="m5.42,3.17s2.58-.87,1.76-1.22c-1.65-.7-1.76,1.22-1.76,1.22Z" style="fill:#f6e9df;"/><path d="m5.43,3.14s-1.89-2.02-1.28-2.05c1.52-.07,1.28,2.05,1.28,2.05Z" style="fill:#f6e9df;"/></g><path d="m5.04,2.64c.07-.02.15.09.23.22-.04-.14-.05-.27.09-.33.25.03.29.2.25.37.09-.1.22-.18.46-.07.1.04.05.11-.05.18.13-.01.26.02.37.15.13.17-.92.09-.92.09,0,0-.71-.53-.42-.61Z" style="fill:#f6e9df;"/></g><g><path d="m6.43,4.5s-.18-1.69.2-1.63c.79.13-.2,1.63-.2,1.63Z" style="fill:#f6e9df;"/><path d="m6.46,4.54s-.96-1.41-.59-1.53c.75-.26.59,1.53.59,1.53Z" style="fill:#f6e9df;"/><path d="m6.66,4.72s1.51-.79,1.25-1.07c-.54-.59-1.25,1.07-1.25,1.07Z" style="fill:#f6e9df;"/><path d="m6.59,4.74s-.67-1.62-1.01-1.28c-.71.71,1.01,1.28,1.01,1.28Z" style="fill:#f6e9df;"/><path d="m6.81,4.6s.96-1.34.58-1.41c-.78-.15-.58,1.41-.58,1.41Z" style="fill:#f6e9df;"/><path d="m6.44,4.69s-.71-1.55-.33-1.61c.79-.13.33,1.61.33,1.61Z" style="fill:#f6e9df;"/><path d="m6.48,4.78s.75-1.04.46-1.23c-.5-.33-.46,1.23-.46,1.23Z" style="fill:#f6e9df;"/><path d="m6.48,4.66s.19-1.03-.16-1.02c-.6.02.16,1.02.16,1.02Z" style="fill:#f6e9df;"/><g><path d="m6.56,4.81s1.81-.32,1.52-.55c-.7-.55-1.52.55-1.52.55Z" style="fill:#f6e9df;"/><path d="m6.61,4.81s-.99-.81-1.25-.65c-.44.26,1.25.65,1.25.65Z" style="fill:#f6e9df;"/><path d="m6.56,4.81s1.39-.89.85-.98c-1.08-.17-.85.98-.85.98Z" style="fill:#f6e9df;"/><path d="m6.56,4.79s-1.41-.91-1.05-1.02c.89-.27,1.05,1.02,1.05,1.02Z" style="fill:#f6e9df;"/></g><path d="m6.26,4.56s.1.03.17.1c-.04-.07-.07-.15,0-.21.15-.02.2.08.2.18.04-.07.1-.14.26-.11.07.01.05.06,0,.11.08-.03.16-.03.24.03.1.08-.53.19-.53.19,0,0-.49-.21-.34-.3Z" style="fill:#f6e9df;"/></g><g><path d="m3.05,5.01s-1.78-2.17-1.2-2.43c1.2-.54,1.2,2.43,1.2,2.43Z" style="fill:#f6e9df;"/><path d="m3.14,5.03S.54,3.96.93,3.46c.8-1.04,2.21,1.57,2.21,1.57Z" style="fill:#f6e9df;"/><path d="m3.57,5.11s1.36-2.45.74-2.61c-1.28-.32-.74,2.61-.74,2.61Z" style="fill:#f6e9df;"/><path d="m3.49,5.19s-2.39-1.63-2.56-.84c-.34,1.62,2.56.84,2.56.84Z" style="fill:#f6e9df;"/><path d="m3.67,4.8s.1-2.72-.49-2.47c-1.21.5.49,2.47.49,2.47Z" style="fill:#f6e9df;"/><path d="m3.24,5.26s-2.38-1.49-1.91-1.92c.96-.89,1.91,1.92,1.91,1.92Z" style="fill:#f6e9df;"/><path d="m3.38,5.34s.09-2.11-.49-2.11c-.99,0,.49,2.11.49,2.11Z" style="fill:#f6e9df;"/><path d="m3.27,5.18s-.67-1.59-1.14-1.25c-.81.57,1.14,1.25,1.14,1.25Z" style="fill:#f6e9df;"/><g><path d="m3.52,5.31s2.2-2.09,1.59-2.14c-1.46-.12-1.59,2.14-1.59,2.14Z" style="fill:#f6e9df;"/><path d="m3.59,5.27s-2.09-.21-2.31.24c-.38.76,2.31-.24,2.31-.24Z" style="fill:#f6e9df;"/><path d="m3.52,5.31s1.11-2.49.29-2.12c-1.64.74-.29,2.12-.29,2.12Z" style="fill:#f6e9df;"/><path d="m3.51,5.29s-2.77.03-2.37-.44c.97-1.17,2.37.44,2.37.44Z" style="fill:#f6e9df;"/></g><path d="m2.87,5.24c.03-.07.17-.05.32-.02-.13-.06-.23-.15-.19-.29.2-.17.34-.07.44.06-.02-.14.02-.28.26-.39.1-.05.12.04.1.16.08-.1.19-.18.36-.17.21.02-.55.74-.55.74,0,0-.87.16-.74-.1Z" style="fill:#f6e9df;"/></g><g><path d="m3.05,6s-2.03-1.3-2.2-.77c-.34,1.08,2.2.77,2.2.77Z" style="fill:#f6e9df;"/><path d="m3.07,6.07s-1.18-2.1-1.57-1.72c-.81.79,1.57,1.72,1.57,1.72Z" style="fill:#f6e9df;"/><path d="m3.19,6.43s-1.95,1.42-2.15.9c-.4-1.06,2.15-.9,2.15-.9Z" style="fill:#f6e9df;"/><path d="m3.25,6.36s-1.64-1.87-.98-2.09c1.34-.46.98,2.09.98,2.09Z" style="fill:#f6e9df;"/><path d="m2.94,6.55s-2.31.37-2.16-.16c.3-1.09,2.16.16,2.16.16Z" style="fill:#f0ddcd;"/><path d="m3.28,6.14s-1.52-1.88-1.84-1.43c-.66.91,1.84,1.43,1.84,1.43Z" style="fill:#f0ddcd;"/><path d="m3.37,6.25s-1.79.3-1.85-.2c-.1-.85,1.85.2,1.85.2Z" style="fill:#f2e1d4;"/><path d="m3.22,6.17s-1.42-.4-1.19-.85c.4-.75,1.19.85,1.19.85Z" style="fill:#f2e1d4;"/><g><path d="m3.35,6.37s-1.55,2.1-1.66,1.58c-.25-1.24,1.66-1.58,1.66-1.58Z" style="fill:#f0ddcd;"/><path d="m3.33,6.44s-.4-1.76-.04-2c.61-.4.04,2,.04,2Z" style="fill:#f0ddcd;"/><path d="m3.35,6.37s-2.01,1.2-1.78.46c.46-1.47,1.78-.46,1.78-.46Z" style="fill:#f2e1d4;"/><path d="m3.33,6.36s-.26-2.36-.62-1.98c-.9.95.62,1.98.62,1.98Z" style="fill:#f2e1d4;"/></g><path d="m3.23,5.83c-.05.03-.03.15.01.27-.07-.1-.15-.18-.26-.13-.12.18-.03.3.1.37-.12,0-.24.05-.31.26-.03.09.04.1.15.06-.08.08-.13.18-.11.32.04.18.58-.55.58-.55,0,0,.05-.76-.16-.62Z" style="fill:#fbf4f0;"/></g><g><path d="m5.25,6.67s1.42-2.42.8-2.59c-1.27-.35-.8,2.59-.8,2.59Z" style="fill:#f6e9df;"/><path d="m5.16,6.7s2.39-1.46,1.93-1.9c-.95-.9-1.93,1.9-1.93,1.9Z" style="fill:#f6e9df;"/><path d="m4.75,6.85s-1.73-2.21-1.15-2.46c1.21-.51,1.15,2.46,1.15,2.46Z" style="fill:#f6e9df;"/><path d="m4.84,6.92s2.1-1.99,2.39-1.24c.59,1.54-2.39,1.24-2.39,1.24Z" style="fill:#f6e9df;"/><path d="m4.6,6.57s-.53-2.67.09-2.52c1.28.31-.09,2.52-.09,2.52Z" style="fill:#f0ddcd;"/><path d="m5.1,6.94s2.11-1.84,1.58-2.2c-1.09-.73-1.58,2.2-1.58,2.2Z" style="fill:#f0ddcd;"/><path d="m4.97,7.05s-.42-2.07.15-2.16c.98-.15-.15,2.16-.15,2.16Z" style="fill:#f2e1d4;"/><path d="m5.06,6.87s.41-1.67.93-1.42c.89.44-.93,1.42-.93,1.42Z" style="fill:#f2e1d4;"/><g><path d="m4.83,7.04s-2.5-1.71-1.91-1.86c1.43-.35,1.91,1.86,1.91,1.86Z" style="fill:#f0ddcd;"/><path d="m4.75,7.02s2.03-.54,2.32-.13c.49.69-2.32.13-2.32.13Z" style="fill:#f0ddcd;"/><path d="m4.83,7.04s-1.49-2.28-.62-2.05c1.73.47.62,2.05.62,2.05Z" style="fill:#f2e1d4;"/><path d="m4.84,7.02s2.74-.4,2.27-.81c-1.15-1-2.27.81-2.27.81Z" style="fill:#f2e1d4;"/></g><path d="m5.46,6.87c-.04-.06-.18-.02-.32.03.12-.08.21-.18.14-.31-.22-.13-.35-.02-.43.13,0-.14-.06-.28-.32-.35-.11-.03-.11.06-.07.17-.1-.09-.22-.15-.38-.11-.21.05.66.65.66.65,0,0,.88.02.71-.21Z" style="fill:#fbf4f0;"/></g><g><path d="m8.02,3.02s-1.43-2.41-.82-2.58c1.27-.35.82,2.58.82,2.58Z" style="fill:#f6e9df;"/><path d="m8.1,3.05s-2.4-1.45-1.94-1.89c.95-.91,1.94,1.89,1.94,1.89Z" style="fill:#f6e9df;"/><path d="m8.51,3.19s1.72-2.22,1.13-2.46c-1.21-.51-1.13,2.46-1.13,2.46Z" style="fill:#f6e9df;"/><path d="m8.43,3.27s-2.12-1.97-2.4-1.22c-.58,1.55,2.4,1.22,2.4,1.22Z" style="fill:#f6e9df;"/><path d="m8.66,2.91s.51-2.67-.11-2.52c-1.28.31.11,2.52.11,2.52Z" style="fill:#f0ddcd;"/><path d="m8.17,3.29s-2.13-1.83-1.6-2.19c1.09-.74,1.6,2.19,1.6,2.19Z" style="fill:#f0ddcd;"/><path d="m8.29,3.4s.41-2.07-.17-2.16c-.98-.15.17,2.16.17,2.16Z" style="fill:#f2e1d4;"/><path d="m8.21,3.21s-.42-1.67-.94-1.41c-.89.44.94,1.41.94,1.41Z" style="fill:#f2e1d4;"/><g><path d="m8.43,3.38s2.49-1.73,1.9-1.87c-1.43-.34-1.9,1.87-1.9,1.87Z" style="fill:#f0ddcd;"/><path d="m8.51,3.36s-2.04-.52-2.32-.12c-.49.69,2.32.12,2.32.12Z" style="fill:#f0ddcd;"/><path d="m8.43,3.38s1.47-2.29.6-2.05c-1.73.49-.6,2.05-.6,2.05Z" style="fill:#f2e1d4;"/><path d="m8.43,3.36s-2.74-.39-2.28-.79c1.14-1.01,2.28.79,2.28.79Z" style="fill:#f2e1d4;"/></g><path d="m7.81,3.22c.04-.06.18-.03.32.03-.12-.08-.21-.18-.14-.31.22-.13.35-.02.43.13,0-.14.06-.28.32-.35.11-.03.11.05.07.17.1-.09.22-.15.38-.11.21.05-.66.65-.66.65,0,0-.88.03-.71-.21Z" style="fill:#fbf4f0;"/></g><g><path d="m4.81,3.24s-.21-2.65-.8-2.5c-1.26.33.8,2.5.8,2.5Z" style="fill:#f6e9df;"/><path d="m4.76,3.31s1.06-2.35.48-2.48c-1.26-.28-.48,2.48-.48,2.48Z" style="fill:#f6e9df;"/><path d="m4.51,3.65s-2.78-.89-2.4-1.42c.75-1.05,2.4,1.42,2.4,1.42Z" style="fill:#f6e9df;"/><path d="m4.62,3.66s.57-2.65,1.19-2.19c1.25.92-1.19,2.19-1.19,2.19Z" style="fill:#f6e9df;"/><path d="m4.23,3.5s-2-1.93-1.37-2.12c1.24-.38,1.37,2.12,1.37,2.12Z" style="fill:#f0ddcd;"/><path d="m4.84,3.54s.65-2.52.04-2.56c-1.29-.07-.04,2.56-.04,2.56Z" style="fill:#f0ddcd;"/><path d="m4.8,3.69s-1.53-1.46-1.09-1.83c.71-.61,1.09,1.83,1.09,1.83Z" style="fill:#f2e1d4;"/><path d="m4.77,3.5s-.61-1.56-.04-1.62c.93-.09.04,1.62.04,1.62Z" style="fill:#f2e1d4;"/><g><path d="m4.68,3.75s-3.17-.04-2.71-.49c1.05-1.05,2.71.49,2.71.49Z" style="fill:#f0ddcd;"/><path d="m4.6,3.78s1.3-1.48,1.73-1.3c.72.29-1.73,1.3-1.73,1.3Z" style="fill:#f0ddcd;"/><path d="m4.68,3.75s-2.59-1.09-1.69-1.35c1.71-.49,1.69,1.35,1.69,1.35Z" style="fill:#f2e1d4;"/><path d="m4.68,3.73s1.89-1.71,1.33-1.8c-1.44-.24-1.33,1.8-1.33,1.8Z" style="fill:#f2e1d4;"/></g><path d="m5.09,3.29c-.07-.03-.15.07-.24.19.05-.13.06-.26-.06-.32-.25,0-.29.17-.27.33-.08-.11-.21-.19-.46-.11-.11.03-.06.1.04.18-.13-.02-.27,0-.38.12-.15.15.92.17.92.17,0,0,.72-.45.45-.55Z" style="fill:#fbf4f0;"/></g><g><path d="m10.74,4.28s1.1-2.37,1.55-1.99c.94.79-1.55,1.99-1.55,1.99Z" style="fill:#f6e9df;"/><path d="m10.76,4.36s-.15-2.61.43-2.49c1.2.25-.43,2.49-.43,2.49Z" style="fill:#f6e9df;"/><path d="m10.87,4.76s2.61.15,2.49-.43c-.25-1.2-2.49.43-2.49.43Z" style="fill:#f6e9df;"/><path d="m10.77,4.73s.4-2.66-.32-2.48c-1.49.37.32,2.48.32,2.48Z" style="fill:#f6e9df;"/><path d="m11.17,4.72s2.32-1.01,1.88-1.4c-.91-.82-1.88,1.4-1.88,1.4Z" style="fill:#f0ddcd;"/><path d="m10.62,4.54s.29-2.6.84-2.38c1.14.45-.84,2.38-.84,2.38Z" style="fill:#f0ddcd;"/><path d="m10.6,4.7s1.81-.77,1.57-1.26c-.4-.83-1.57,1.26-1.57,1.26Z" style="fill:#f2e1d4;"/><path d="m10.69,4.53s1.06-1.2.59-1.46c-.81-.45-.59,1.46-.59,1.46Z" style="fill:#f2e1d4;"/><g><path d="m10.68,4.79s2.64,1.01,2.43.47c-.49-1.27-2.43-.47-2.43-.47Z" style="fill:#f0ddcd;"/><path d="m10.74,4.84s-.67-1.84-1.13-1.85c-.79,0,1.13,1.85,1.13,1.85Z" style="fill:#f0ddcd;"/><path d="m10.68,4.79s2.53-.08,1.89-.61c-1.28-1.07-1.89.61-1.89.61Z" style="fill:#f2e1d4;"/><path d="m10.7,4.78s-1.14-2.31-.59-2.17c1.38.34.59,2.17.59,2.17Z" style="fill:#f2e1d4;"/></g><path d="m10.48,4.23c.07,0,.11.12.15.26,0-.13.03-.26.17-.27.22.1.2.26.13.4.11-.07.24-.1.43.06.08.07.02.11-.1.14.12.03.23.09.29.23.07.19-.85-.16-.85-.16,0,0-.49-.66-.21-.66Z" style="fill:#fbf4f0;"/></g><g><path d="m9.08,5.71s.11-2.41.63-2.24c1.08.34-.63,2.24-.63,2.24Z" style="fill:#f6e9df;"/><path d="m9.12,5.77s-1.04-2.18-.5-2.28c1.11-.2.5,2.28.5,2.28Z" style="fill:#f6e9df;"/><path d="m9.35,6.07s2.28-.78,1.98-1.23c-.63-.94-1.98,1.23-1.98,1.23Z" style="fill:#f6e9df;"/><path d="m9.25,6.08s-.59-2.42-1.14-2.01c-1.15.83,1.14,2.01,1.14,2.01Z" style="fill:#f6e9df;"/><path d="m9.59,5.94s1.63-1.67,1.11-1.86c-1.06-.38-1.11,1.86-1.11,1.86Z" style="fill:#f0ddcd;"/><path d="m9.06,5.98s-.66-2.32-.11-2.33c1.13-.02.11,2.33.11,2.33Z" style="fill:#f0ddcd;"/><path d="m9.1,6.11s1.27-1.29.9-1.63c-.63-.57-.9,1.63-.9,1.63Z" style="fill:#f2e1d4;"/><path d="m9.12,5.94s.49-1.4,0-1.46c-.85-.1,0,1.46,0,1.46Z" style="fill:#f2e1d4;"/><g><path d="m9.2,6.17s2.61-.06,2.24-.45c-.87-.92-2.24.45-2.24.45Z" style="fill:#f0ddcd;"/><path d="m9.27,6.19s-1.21-1.34-1.61-1.18c-.68.27,1.61,1.18,1.61,1.18Z" style="fill:#f0ddcd;"/><path d="m9.2,6.17s2.14-.95,1.4-1.18c-1.47-.47-1.4,1.18-1.4,1.18Z" style="fill:#f2e1d4;"/><path d="m9.21,6.15s-1.78-1.57-1.26-1.65c1.3-.19,1.26,1.65,1.26,1.65Z" style="fill:#f2e1d4;"/></g><path d="m8.83,5.76c.06-.02.14.07.21.17-.05-.11-.06-.23.05-.29.22,0,.26.15.25.3.07-.1.18-.17.39-.1.09.03.05.09-.03.16.11-.02.23,0,.32.1.13.13-.78.15-.78.15,0,0-.65-.4-.41-.49Z" style="fill:#fbf4f0;"/></g></g></g></svg>