<?xml version="1.0" encoding="UTF-8"?><svg id="uuid-0d52e880-6daa-4bff-a88a-31c4bb60fae4" xmlns="http://www.w3.org/2000/svg" viewBox="0 0 8.38 19.94"><g id="uuid-54eeb1e8-aaf4-430d-83b4-94930e4a81ec"><g><path d="m3.92,10.47c-2.16,0-3.92.96-3.92,2.14l.66,5.56c0,.98,1.46,1.78,3.26,1.78s3.26-.8,3.26-1.78l.66-5.56c0-1.18-1.75-2.14-3.92-2.14Z" style="fill:#f6f4f3;"/><ellipse cx="3.92" cy="12.63" rx="3.23" ry="1.76" style="fill:#bcb8b7;"/><path d="m3.93,9.62s-.06,0-.08,0c-1.33-.26-2.36-2.79-2.55-3.3-.09-.23.03-.48.25-.57.23-.09.48.03.57.25.41,1.07,1.26,2.62,1.89,2.75.24.05.39.28.35.52-.04.21-.23.36-.43.36Z" style="fill:#4a4e46;"/><path d="m4.02,11c-.21,0-.39-.15-.43-.36-.05-.24.11-.47.35-.52.63-.12,1.49-1.68,1.89-2.75.09-.23.34-.34.57-.25.23.09.34.34.25.57-.19.51-1.22,3.04-2.55,3.3-.03,0-.06,0-.08,0Z" style="fill:#4a4e46;"/><g><path d="m6.57,7.17c-.19-.09-.3-.49-.32-.67-.02-.14-.16-.25-.29-.23-.14.02-.25.15-.23.29,0,.03.02.17.08.34-.05-.02-.1-.05-.15-.04-.14.02-.25.15-.23.29.01.09.12.85.63,1.09.04.02.07.02.11.02.1,0,.2-.06.24-.15.06-.13,0-.29-.13-.35-.13-.06-.21-.25-.27-.43.09.13.2.25.35.32.04.02.07.02.11.02.1,0,.2-.06.24-.15.06-.13,0-.29-.13-.35Z" style="fill:#4a4e46;"/><path d="m5.6,7.78c-.02-.14-.15-.24-.29-.23-.14.02-.25.15-.23.29.01.09.12.85.63,1.09.04.02.07.02.11.02.1,0,.2-.06.24-.15.06-.13,0-.29-.13-.35-.19-.09-.3-.49-.32-.67Z" style="fill:#4a4e46;"/><path d="m5.15,8.39c-.02-.14-.16-.24-.29-.23-.14.02-.25.15-.23.29.01.09.12.85.63,1.09.04.02.07.02.11.02.1,0,.2-.06.24-.15.06-.13,0-.29-.13-.35-.19-.09-.3-.49-.32-.67Z" style="fill:#4a4e46;"/><path d="m4.76,8.98c-.02-.14-.15-.24-.3-.23-.07,0-.12.05-.16.09-.02-.34-.04-.67-.05-1.01.06.03.12.05.18.05.08,0,.15-.02.22-.06,1.04-.62,1.33-2.41,1.36-2.62.03-.24-.13-.46-.37-.5-.24-.03-.46.13-.5.37-.06.41-.35,1.64-.93,1.98-.04-.79-.05-1.58-.01-2.37.02,0,.03,0,.05,0,.27,0,.5-.31.55-.38.05-.07.03-.16-.04-.2,0,0-.02,0-.03,0,.15-.1.27-.25.3-.29.05-.07.03-.16-.04-.2-.07-.05-.16-.03-.2.04-.05.07-.12.14-.18.19.01-.06-.02-.12-.08-.15.27-.01.49-.31.54-.37.05-.07.03-.16-.04-.2-.07-.05-.16-.03-.2.04-.03.04-.07.09-.11.13-.02-.03-.05-.05-.09-.06-.04-.01-.09-.07-.14-.15.01,0,.02.02.03.02.03,0,.06,0,.08,0,.27,0,.5-.31.55-.38.05-.07.03-.16-.04-.2-.02-.02-.05-.02-.08-.02.11-.09.19-.19.21-.23.05-.07.03-.16-.04-.2-.07-.04-.16-.03-.2.04-.03.04-.06.08-.1.12-.01,0-.02-.02-.03-.03-.01,0-.02-.02-.03-.02,0,0,0,0,0,0,.03,0,.05,0,.08-.02.26-.16.3-.64.31-.73,0-.08-.05-.15-.13-.16-.09-.01-.15.05-.16.13,0,.08-.03.2-.06.3-.07-.08-.15-.23-.19-.36-.02-.08-.1-.12-.18-.1-.08.02-.12.1-.1.18.01.04.05.16.12.28-.03-.01-.06-.02-.1-.01-.08.02-.12.1-.1.18.02.07.11.34.27.5-.02,0-.03.01-.05.03-.01-.03-.02-.06-.03-.09-.02-.08-.1-.12-.18-.1-.03,0-.05.03-.06.05,0,0,.01-.03.02-.03.03-.07,0-.16-.07-.19V.88c.01-.06-.07-.06-.08,0,0,.04,0,.08-.01.12,0,0,0,0,0,0-.03-.02-.07-.01-.1,0,.08-.11.14-.22.16-.26.03-.07,0-.16-.07-.19-.07-.03-.16,0-.19.07-.02.04-.04.07-.06.11,0,0,0-.01-.01-.02-.09-.08-.11-.36-.1-.53,0-.08-.06-.15-.14-.16-.07-.02-.15.06-.16.14,0,.09-.03.57.21.77,0,0,.02,0,.03.01-.02.02-.03.02-.05.03-.02-.04-.05-.07-.06-.11-.04-.07-.12-.1-.2-.06-.07.04-.1.12-.07.2.02.04.08.15.17.26-.03,0-.05,0-.08,0-.07.04-.1.12-.07.2.03.07.2.34.43.42-.05.06-.1.1-.13.1,0-.02-.02-.03-.03-.05-.04-.07-.12-.1-.2-.06-.07.04-.1.12-.07.2.03.06.18.32.4.41,0,0-.02.01-.03.01-.03,0-.06.02-.08.04-.02-.03-.04-.07-.06-.1-.04-.07-.12-.1-.2-.06-.07.04-.1.12-.07.2.03.05.12.21.26.33-.01,0-.02,0-.04,0-.07.04-.1.12-.07.2.03.06.15.26.32.38-.02.03-.03.06-.03.09,0,.03.02.06.04.08-.03.04-.04.08-.03.12,0,.02.02.06.03.1-.04.35-.07.69-.11,1.04-.02-.01-.03-.02-.05-.04.03-.08.06-.14.06-.17.04-.14-.04-.29-.18-.33-.05-.02-.09,0-.14.01.07-.15.12-.29.14-.34.04-.14-.04-.29-.18-.33-.07-.02-.14-.01-.2.02.09-.17.14-.33.16-.39.04-.14-.04-.29-.18-.33-.05-.01-.09,0-.13.01.1-.18.16-.37.18-.43.04-.14-.04-.29-.18-.33-.02,0-.04,0-.07,0,.07-.14.11-.27.13-.32.04-.14-.04-.29-.18-.33-.14-.04-.29.04-.33.18-.04.14-.11.29-.18.4-.02-.1-.04-.2-.05-.29-.01-.14-.12-.24-.28-.24-.15.01-.25.14-.24.28,0,.1.05.52.24.82-.06,0-.13,0-.18.04-.12.08-.15.25-.06.37.03.04.12.15.23.26,0,0-.02,0-.03,0-.12.08-.15.25-.06.37.04.06.19.25.39.39,0,.02.01.04.02.06-.07-.02-.15-.01-.22.03-.12.08-.15.25-.06.37.03.05.14.18.28.31-.05,0-.11,0-.16.03-.12.08-.15.25-.06.37.04.06.19.24.38.38-.09.09-.12.23-.04.33.07.1.41.55.83.55.04,0,.09,0,.13-.02.06-.01.1-.06.14-.1-.03.35-.06.7-.08,1.06-.04-.04-.08-.07-.14-.08-.15-.03-.28.08-.29.23-.01.09-.05.24-.11.39-.02-.03-.05-.05-.08-.07.25-.32.31-.77.32-.83.02-.14-.08-.28-.23-.29-.13,0-.28.08-.29.23,0,.06-.03.13-.05.21-.02-.04-.06-.06-.09-.08.16-.29.21-.62.22-.68.02-.14-.08-.28-.23-.29-.14-.02-.28.08-.29.23,0,.04-.02.1-.03.15-.02-.01-.03-.04-.05-.04.19-.31.25-.67.25-.73.02-.14-.08-.28-.23-.29-.06,0-.1.02-.15.04.05-.17.07-.3.08-.34.02-.14-.08-.28-.23-.29-.13-.01-.28.08-.29.23-.02.15-.1.44-.24.59-.09-.12-.16-.27-.2-.36-.05-.14-.2-.21-.34-.16-.14.05-.21.2-.16.34.02.07.21.54.57.79-.12-.07-.27-.04-.35.08-.08.12-.05.28.07.37.03.02.15.1.32.17-.02.02-.05.02-.07.05-.08.12-.05.28.07.37.06.04.47.3.89.3.1,0,.2-.02.3-.06-.03.04-.07.08-.11.1-.07.03-.11.09-.14.15-.11-.04-.22-.1-.28-.14-.12-.08-.28-.05-.37.07-.08.12-.05.28.07.37.04.03.25.15.5.23-.12-.05-.26-.03-.33.08-.08.12-.05.28.07.37.04.03.26.16.52.24-.07.12-.04.27.08.35.06.04.47.31.89.31.03,0,.07-.02.1-.02.04,1.53.21,3.01.64,4.36.24-1.19.29-2.38.27-3.57,0,0,.01,0,.02.01.04.02.07.02.11.02.1,0,.2-.06.24-.15.06-.13,0-.29-.13-.35-.12-.06-.21-.24-.26-.42,0-.1,0-.19-.01-.29.09.25.24.55.53.68.04.02.07.02.11.02.1,0,.2-.06.24-.15.06-.13,0-.29-.13-.35-.19-.09-.3-.49-.32-.67Zm.12-6.38s-.07.08-.1.11c-.02-.01-.05-.03-.07-.07,0,0,0,0,0,0,.06,0,.12-.02.17-.04Zm-.14-.66s-.03.03-.03.05c-.02-.05-.04-.09-.06-.14.03.04.06.07.1.09Zm-1.07-.53s-.02-.03-.03-.04c.02.01.04.01.06.02-.01.01-.02.01-.03.02Zm-.94,3.86s-.07-.07-.1-.1c.04.02.08.02.13.03-.02.02-.02.05-.02.07Zm.34,3.93s0,.04,0,.06c0,0,0,0,0,0-.04-.01-.07-.03-.11-.05.03,0,.07,0,.1-.02Zm.81-6.48s.05-.04.08-.06c0,.03,0,.06,0,.09-.02-.01-.04-.03-.07-.03Zm.55.7s-.06.04-.08.07c-.01-.02-.02-.05-.03-.07.02-.02.03-.04.04-.07.02.02.04.05.06.07Zm-.19.99s-.02,0-.03,0c0-.02,0-.04,0-.06.02,0,.03.02.05.03.01,0,.02,0,.03,0-.02,0-.04.03-.05.02Zm.07-.33s-.06-.06-.08-.1v-.18c.05.05.1.1.16.12-.04.02-.07.05-.08.09,0,.02,0,.04,0,.06Zm.23.11c-.04.05-.08.1-.13.14.01-.02.03-.03.04-.05,0-.03,0-.05-.01-.08.02,0,.04,0,.06,0,.02,0,.03,0,.05-.01Zm-.05-1.36s-.05.04-.06.08c-.02-.04-.03-.08-.04-.11,0-.02-.03-.03-.04-.05,0-.02.02-.04.02-.05,0-.02,0-.03,0-.05.03.06.07.12.11.18Zm-.22-.52s-.02.05,0,.08c0,.02.02.07.05.12,0,0,0,0,0,0-.02,0-.04,0-.06,0v-.15s.02-.03.03-.05Zm-.16-.94s-.01.1-.02.15c-.05,0-.1.02-.13.07,0,0,0,.02-.01.02-.01,0-.03-.01-.04-.01.08-.07.15-.16.2-.24Zm-.2-.24s0,.02-.01.03c0,0,0,0,0,0,0,0,.02-.02.02-.02Zm.13.89s0,.08-.01.12c-.02.03-.03.06-.05.09-.02,0-.04-.02-.07-.02-.02,0-.04,0-.06-.02.07-.05.13-.11.19-.18Zm-.64,4.12c.08-.04.15-.1.21-.17,0,.1-.01.2-.02.3-.04-.07-.11-.12-.19-.13Zm.08,2.09c0,.09,0,.18,0,.28-.05.16-.13.31-.23.38,0-.01,0-.03,0-.04-.02-.04-.06-.06-.09-.09.16-.15.26-.35.33-.53Zm-1.58-1.02s-.02,0-.03-.01c.02,0,.04-.01.06-.01-.01,0-.02.02-.03.03,0,0,0,0,0,0Zm-.12-.99s0-.03-.02-.05c.02-.03.04-.05.06-.08-.01.04-.03.09-.04.13Zm-.29.36s0,0,0,0c-.03-.01-.06-.02-.09-.04.03.01.06.03.09.03Zm1.03,1.99s.05-.01.08-.02c-.01.04,0,.09,0,.14-.15-.04-.31-.11-.41-.17.1.03.21.05.32.05Z" style="fill:#4a4e46;"/></g><path d="m3.99,10.58c-.11,0-.22-.04-.31-.13-.93-.93-.93-2.8-.93-2.88,0-.24.2-.44.44-.44h0c.24,0,.44.2.44.44,0,.44.12,1.7.68,2.26.17.17.17.45,0,.62-.09.09-.2.13-.31.13Z" style="fill:#4a4e46;"/><g><path d="m7.73,8.85c-.06.04-.16.09-.28.15.03-.07.06-.14.09-.2.53-.26.8-.97.83-1.06.05-.14-.02-.29-.16-.34-.13-.05-.29.02-.34.16-.03.09-.12.26-.24.42-.05-.06-.1-.11-.18-.14-.04-.01-.07-.02-.11-.02-.11-.21-.17-.46-.18-.57,0-.05-.04-.09-.07-.12.05-.1.08-.18.09-.21.05-.14-.02-.29-.16-.34-.13-.05-.29.02-.34.16-.06.17-.26.54-.46.58-.14.03-.23.17-.2.31.03.12.14.21.26.21.02,0,.04,0,.05,0,.04,0,.07-.02.1-.04-.18.09-.41.17-.55.1-.13-.06-.29,0-.35.13-.06.13,0,.29.13.35.1.04.2.06.3.06-.15.05-.3.09-.41.04-.13-.06-.29,0-.35.13-.06.13,0,.29.13.35.11.05.22.07.34.07.05,0,.09-.01.14-.02,0,.03.01.06.02.11-.17.1-.48.23-.65.15-.13-.06-.29,0-.35.13-.06.13,0,.29.13.35.09.04.18.05.27.06,0,.03.01.07.02.13-.12.03-.24.05-.32.02-.13-.06-.29,0-.35.13-.06.13,0,.29.13.35,0,0,.02,0,.02,0,0,.02-.02.04-.02.07,0,0,0,0,0,0-.14.05-.29.08-.39.03-.13-.06-.29,0-.35.13-.06.13,0,.29.13.35,0,0,.02,0,.02,0-.02.04-.04.08-.03.12,0,.07.07.48.27.84-.05.04-.1.06-.15.09.03-.12.04-.21.04-.23.02-.14-.08-.28-.23-.29-.14-.03-.28.08-.29.23-.02.16-.1.44-.22.66-.09-.08-.17-.14-.26-.23.29-.39.37-.93.38-1.01.02-.14-.08-.28-.23-.29-.15-.02-.28.08-.29.23-.02.13-.09.41-.21.64,0,0-.01-.02-.02-.02,0-.02,0-.03,0-.05-.02-.05-.07-.09-.12-.11-.02-.03-.04-.06-.06-.09.33-.39.42-.97.43-1.06,0-.04-.02-.07-.03-.1.13.13.28.25.45.27,0,0,.02,0,.03,0,.13,0,.25-.1.26-.23.01-.12-.07-.22-.18-.26.38-.09.64-.52.69-.62.07-.13.01-.29-.11-.35-.13-.07-.29-.02-.36.11-.08.15-.18.29-.27.34,0,0,0,0,0,0,0-.06-.02-.1-.04-.15.34-.13.56-.51.61-.6.07-.13.01-.29-.11-.36-.06-.03-.12-.03-.18-.02.11-.13.18-.26.21-.31.07-.13.01-.29-.11-.35-.13-.07-.29-.02-.36.11,0,0,0,.01-.01.02,0-.01,0-.03-.01-.04.2-.17.34-.4.38-.47.07-.13.01-.29-.11-.36-.06-.03-.12-.03-.17-.01.14-.15.23-.32.26-.38.07-.13.02-.29-.11-.36-.03-.02-.07,0-.1,0,.09-.12.16-.23.19-.28.07-.13.01-.29-.11-.35-.13-.07-.29-.02-.36.11-.06.12-.15.23-.23.3-.02-.13-.03-.27-.02-.38,0-.14-.1-.27-.25-.28-.13,0-.27.1-.28.25,0,.06-.02.45.09.79-.05,0-.11-.02-.16,0-.13.06-.19.22-.13.35.02.05.09.17.18.3,0,0,0,0,0,0-.13.06-.19.22-.13.35.03.07.15.29.32.48-.06-.02-.12-.02-.19,0-.13.06-.19.22-.13.35.02.05.1.19.2.34-.04,0-.08-.01-.12,0-.13.06-.19.22-.13.35.03.07.15.29.32.48-.09.07-.14.19-.09.31.03.05.11.21.22.37-.02,0-.03-.03-.06-.03-.14-.02-.28.08-.29.23-.02.13-.09.43-.22.66-.02-.03-.03-.05-.05-.08.07-.08.11-.18.06-.28-.03-.07-.08-.11-.15-.14.23-.37.29-.82.3-.89.02-.14-.08-.28-.23-.29-.13,0-.28.08-.29.23,0,.07-.04.19-.08.32-.05-.09-.14-.12-.24-.11.3-.39.38-.95.39-1.03.02-.14-.08-.28-.23-.29-.14-.02-.28.08-.29.23-.01.11-.06.34-.16.55-.04-.08-.07-.15-.1-.23.3-.39.38-.94.39-1.02.02-.14-.08-.28-.23-.29-.13,0-.28.08-.29.23-.01.11-.07.35-.18.57-.07-.05-.15-.08-.24-.08,0-.04-.01-.08-.02-.1-.01-.14-.13-.25-.28-.24-.15.01-.25.14-.24.28,0,.05.03.29.12.57,0,.03,0,.06.02.1.03.08.11.26.22.51-.12-.06-.26-.03-.33.08-.08.12-.05.28.07.37.05.03.3.19.61.29,0,0,0,0,0,0-.1-.02-.2,0-.26.09-.08.12-.05.28.07.37.05.03.29.18.59.28.06.1.11.2.18.3-.12-.07-.28-.05-.36.07-.08.12-.05.28.07.37.06.04.4.25.8.34.08.11.16.21.24.31-.18-.07-.35-.16-.43-.21-.12-.08-.29-.05-.37.07-.08.12-.05.28.07.37.06.04.4.25.79.34-.03.02-.07.03-.09.06-.08.12-.05.28.07.37.07.05.59.38,1.11.38.14,0,.28-.02.41-.08,0,0,0,0,0,0,.02,0,.04.02.07.03.04.01.09.02.13.02.19,0,.36-.12.42-.31.05-.16,0-.32-.1-.43.03-.01.07-.02.1-.04.01.01.02.03.04.04.13.06.27.08.41.08.52,0,1.04-.33,1.11-.38.12-.08.15-.24.07-.37-.02-.03-.06-.04-.09-.06.4-.09.74-.3.79-.34.12-.08.15-.24.07-.37-.08-.12-.24-.15-.37-.07-.12.08-.43.24-.71.28.09-.11.18-.23.26-.35.5-.02.99-.33,1.06-.37.12-.08.15-.24.07-.37-.08-.12-.24-.15-.37-.07-.06.04-.19.11-.33.17.08-.13.16-.27.24-.4.43-.08.81-.31.86-.35.12-.08.15-.24.07-.37-.06-.1-.18-.12-.28-.09.32-.1.59-.26.64-.3.12-.08.15-.24.07-.37-.08-.12-.24-.15-.37-.07Zm-4.04-.17s-.04.06-.06.09c0-.01,0-.02,0-.03.02-.01.04-.04.07-.05Zm-.52.41s-.03-.03-.04-.05c.02.01.04.01.06.02,0,0,0,.02-.02.03Zm.16-.81s-.02.02-.03.02c-.05,0-.09.02-.13.04-.04-.05-.07-.11-.1-.17.08.06.17.09.26.11Zm2.04,2.61s-.02-.06-.03-.1c0,0,.01,0,.02,0,.12-.08.14-.23.08-.35,0,0,0,0,0,0,.03.07.07.14.11.2-.06.09-.11.17-.17.25Zm1.36-3.21s-.07,0-.11.02c.03-.02.06-.04.09-.07,0,.02,0,.03.01.05Zm.09.51s.03-.02.04-.02c0,.02-.02.04-.03.06,0-.01,0-.03-.01-.04Zm-.36.6s.04.07.06.11c-.04.09-.08.18-.13.27-.03-.11-.06-.22-.06-.28,0-.01-.01-.02-.02-.03.05-.03.11-.05.15-.07Zm-.39.99s-.03.05-.04.07c0,0,0-.01,0-.02-.06-.09-.16-.11-.26-.09,0,0,0,0,0,0,.09-.03.17-.06.23-.1.02.05.05.1.07.15Zm-1.44,1.31s0-.01,0-.02c.08-.01.15-.03.23-.05.04.11.09.23.16.34-.07.09-.15.18-.22.26-.09-.21-.14-.43-.15-.53Zm-1.91,1.93s.07-.02.1-.02c.05.05.1.1.15.15-.1-.04-.19-.09-.25-.12Zm2.38-.48c.1-.08.19-.18.29-.27.09.03.18.05.27.06-.13.08-.35.17-.56.22Zm2-2.82s.03-.05.04-.07c.04,0,.09,0,.13-.02-.04.03-.11.06-.17.09Z" style="fill:#5f645a;"/><path d="m4.75,7.55c-.11.01-.2.07-.23.18-.03.14.05.28.19.32.05.01.09.02.13.02.41,0,.76-.45.83-.55.08-.11.05-.24-.04-.33.19-.14.34-.32.38-.38.08-.12.06-.28-.06-.37-.05-.03-.1-.04-.16-.03.14-.12.24-.26.28-.31.08-.12.06-.28-.06-.37-.12-.09-.28-.06-.37.06-.04.05-.08.1-.12.14-.03-.03-.06-.06-.1-.07-.02,0-.04-.03-.07-.05,0,0,.01,0,.02,0,.41,0,.76-.45.83-.55.08-.12.05-.28-.06-.37,0,0-.02,0-.03,0,.11-.11.2-.22.23-.26.08-.12.05-.28-.06-.37-.06-.04-.12-.05-.18-.04.18-.3.23-.72.24-.82.01-.15-.1-.27-.24-.28-.16-.02-.27.1-.28.24,0,.09-.03.19-.05.29-.07-.11-.14-.25-.18-.4-.04-.14-.18-.23-.33-.18-.14.04-.22.19-.18.33.01.05.06.18.13.32-.02,0-.04-.01-.07,0-.14.04-.22.19-.18.33.02.06.08.24.18.43-.04-.01-.09-.03-.13-.01-.14.04-.22.19-.18.33.02.06.07.22.16.39-.06-.03-.13-.04-.2-.02-.14.04-.22.19-.18.33.02.05.07.19.14.34-.05-.01-.09-.03-.14-.01-.14.04-.22.19-.18.33.01.05.06.16.11.29-.06-.03-.12-.04-.19-.02-.14.04-.22.19-.18.33.04.12.23.68.6.86Zm.76-.97s-.07.07-.1.1c0-.03,0-.05-.02-.07.04-.01.09-.01.12-.03Zm-.57.33s-.05.05-.06.08c-.05-.07-.11-.17-.16-.29.06.08.14.15.22.2Z" style="fill:#5f645a;"/></g><path d="m5.17,13.3c-.06-.04-.12-.04-.18-.04.15-.19.22-.37.22-.39.05-.14-.02-.29-.15-.34-.13-.05-.29.02-.34.15,0,0-.15.34-.4.45.02-.03.04-.06.04-.1,0-.04-.03-.06-.04-.1.35-.3.45-.83.46-.9.02-.14-.08-.28-.22-.3-.01,0-.02,0-.03,0,.09-.23.12-.44.13-.48.02-.14-.08-.26-.22-.29.02-.04.04-.08.05-.09.06-.13,0-.29-.12-.35-.13-.06-.29,0-.35.12-.05.1-.18.3-.34.44,0,0,0-.02,0-.02,0-.01,0-.03-.02-.04.51-.32.51-1.07.51-1.11,0-.14-.12-.26-.26-.26-.17,0-.26.12-.26.27,0,0-.01.23-.1.43.01-.18.04-.34.06-.42.03-.14-.05-.28-.19-.32-.14-.03-.28.05-.32.19-.02.09-.2.84.05,1.39-.08-.07-.16-.14-.22-.21-.1-.11-.27-.12-.37-.02-.11.1-.12.26-.02.37.03.03.17.18.36.33-.03.01-.07.01-.1.04-.11.1-.11.27-.01.37.02.02.13.12.26.23-.02.01-.05,0-.07.03-.1.1-.11.27,0,.37.02.02.13.12.27.23-.03.01-.07.01-.09.04-.1.1-.1.27,0,.37.01.01.06.06.12.11-.01,0-.03,0-.04.02-.1.11-.1.27,0,.37.05.05.53.49,1.02.49h.02c.08,0,.15-.05.2-.11.45-.1.76-.52.79-.57.08-.12.05-.28-.07-.36Zm-1.02-1.02s-.01,0-.02,0c0,0,.02-.01.03-.02,0,0,0,.02,0,.03Zm.32,1.37s.09-.04.14-.06c-.05.04-.1.08-.15.11,0-.02.02-.03.02-.05Zm-.42-2.2c-.02.06-.04.12-.07.17-.02-.02-.05-.03-.08-.05.06-.04.11-.08.16-.13Zm-.45.59s0,.03,0,.04c-.04-.02-.08-.04-.11-.07.04.01.07.02.11.03Zm.45,1.25s0,.02,0,.03c-.05-.02-.1-.04-.15-.06.05.01.1.03.16.03Z" style="fill:#757c6f;"/></g></g></svg>