<?xml version="1.0" encoding="UTF-8"?><svg id="uuid-dac20006-065a-49e0-b1f3-d12fb6605fb9" xmlns="http://www.w3.org/2000/svg" viewBox="0 0 11.07 14.57"><g id="uuid-574915ce-46e2-400c-bf4f-bc18773fae52"><g><path d="m7.16,4.28c-2.16,0-3.92.96-3.92,2.14l.66,5.56c0,.98,1.46,1.78,3.26,1.78s3.26-.8,3.26-1.78l.66-5.56c0-1.18-1.75-2.14-3.92-2.14Z" style="fill:#f6f4f3;"/><ellipse cx="7.16" cy="6.44" rx="3.23" ry="1.76" style="fill:#bcb8b7;"/><g><path d="m6.28,4.05c-.02.34.33.76,0,1.21-.3.41-1.69.27-2.33-.09-.73-.41-1.26-1.94-1.65-2.2-.43-.28,2.03-1.08,2.74-.98.63.09,1.45.45,1.66,1,.2.52-.4.72-.41,1.06Z" style="fill:#376f74;"/><path d="m8.79,4.74c-.34.02-.71.27-1.2.1-.44-.15-.49-1.02-.22-1.44.31-.48,1.74-.94,1.95-1.21.22-.29,1.35,1.16,1.35,1.61,0,.4-.25.94-.77,1.11-.49.17-.77-.19-1.11-.17Z" style="fill:#376f74;"/><path d="m7.6,2.13c-.25.11-.45.41-.87.42-.38.01-.66-.62-.58-1.02.09-.45,1.03-1.21,1.11-1.47.08-.28,1.35.48,1.47.81.11.3.08.77-.25,1.05-.32.26-.63.08-.88.2Z" style="fill:#376f74;"/><g><path d="m7.13,7.53s-.04,0-.06-.01c-.07-.03-.11-.12-.07-.19.49-1.09.34-4.62.21-5.14-.02-.08.03-.16.11-.18.08-.02.16.03.18.11.15.56.31,4.14-.23,5.33-.02.05-.08.09-.13.09Z" style="fill:#376f74;"/><path d="m7.6,7.08c-.07,0-.13-.05-.14-.13-.13-.86,1.04-2.4,1.33-2.58.07-.04.16-.02.2.05.04.07.02.16-.05.2-.24.15-1.3,1.6-1.2,2.29.01.08-.04.15-.12.17,0,0-.01,0-.02,0Z" style="fill:#376f74;"/><path d="m7.36,6.41s-.01,0-.02,0c-.08-.01-.14-.09-.12-.17.1-.69-.96-2.14-1.2-2.29-.07-.04-.09-.13-.05-.2.04-.07.13-.09.2-.05.3.19,1.46,1.72,1.33,2.58-.01.07-.07.13-.14.13Z" style="fill:#376f74;"/></g></g><path d="m3.69,12.13s-.06,0-.09-.03c-.07-.05-.08-.14-.03-.21.18-.25.12-.82.07-1.32-.05-.46-.09-.9.03-1.18.24-.57.52-1.27,1.88-1.34,1.14-.06,1.45-.6,1.63-1.17.02-.08.1-.12.18-.1.08.02.12.11.1.18-.18.61-.56,1.31-1.89,1.38-1.17.06-1.4.61-1.62,1.15-.09.22-.05.64,0,1.05.06.58.12,1.18-.13,1.52-.03.04-.07.06-.12.06Z" style="fill:#376f74;"/><path d="m5.62,9.78c-.05,0-.11-.03-.13-.08-.31-.66.43-1.71.9-2.13.4-.35.77-1,.83-1.33.01-.08.08-.14.17-.12.08.01.13.09.12.17-.07.38-.47,1.09-.92,1.5-.41.36-1.06,1.3-.83,1.78.03.07,0,.16-.07.2-.02,0-.04.01-.06.01Z" style="fill:#376f74;"/><path d="m4.41,9.4c-.62,0-1.16-.43-1.58-.77l-.05-.04c-.06-.05-.07-.14-.02-.21.05-.06.14-.07.21-.02l.05.04c.55.44,1.23.99,2,.53.34-.21.48-.53.65-.91.23-.51.48-1.09,1.29-1.46.07-.03.16,0,.19.07.03.07,0,.16-.07.19-.71.32-.93.83-1.15,1.31-.17.39-.35.79-.77,1.04-.26.16-.51.22-.75.22Z" style="fill:#376f74;"/><path d="m3.32,11.46c.39.26.98.02,1.47.69s-.71,2.05-1.36,2.33-2.09-.2-2.38-.08-.56-2.19-.34-2.85.84-1.49,1.55-1.4.68,1.05,1.07,1.31Z" style="fill:#3f7f85;"/><path d="m2.69,7.81c.4.14.98.05,1.68.43.92.49-.37,1.52-1.32,1.66-.94.14-2.6-.61-2.94-.56s.12-1.34.42-1.6c.27-.23.79-.48,1.29-.45.54.04.51.39.87.51Z" style="fill:#3f7f85;"/><path d="m5.4,9.6c-.18.26-.58.46-.85,1-.35.7.89.77,1.54.45.64-.32,1.34-1.51,1.57-1.62s-.66-.77-.95-.8c-.26-.03-.69.05-.99.28-.32.26-.15.46-.31.69Z" style="fill:#3f7f85;"/><path d="m8.77,5.89c-.37.13-.93-.14-1.38.4-.37.46.15,1.68.62,2.05s1.75.3,1.96.47.95-1.67.92-2.26-.35-1.41-.96-1.49-.79.71-1.17.84Z" style="fill:#3f7f85;"/><path d="m5.59,5.79c.32.11.76.03,1.14.37.35.31.06,1.13-.36,1.42-.47.32-1.97.19-2.27.35-.32.18-.79-1.59-.62-2,.16-.36.59-.76,1.14-.73.51.04.64.47.96.59Z" style="fill:#3f7f85;"/><path d="m7.2,3.71c.27-.09.52-.38.97-.35.4.03.64.73.51,1.15-.15.47-1.23,1.17-1.35,1.44-.12.29-1.38-.66-1.48-1.03-.09-.33,0-.83.39-1.09.37-.25.68-.02.96-.11Z" style="fill:#468990;"/></g></g></svg>