<?xml version="1.0" encoding="UTF-8"?><svg id="uuid-f1ff2b74-05e2-45aa-a42f-0b5e62653429" xmlns="http://www.w3.org/2000/svg" viewBox="0 0 13.16 16.28"><g id="uuid-2cfcd59f-0dc9-4c86-803f-a1d80c31ae70"><g><path d="m5.89,6.81c-2.16,0-3.92.96-3.92,2.14l.66,5.56c0,.98,1.46,1.78,3.26,1.78s3.26-.8,3.26-1.78l.66-5.56c0-1.18-1.75-2.14-3.92-2.14Z" style="fill:#f6f4f3;"/><ellipse cx="5.89" cy="8.97" rx="3.23" ry="1.76" style="fill:#bcb8b7;"/><path d="m6.6,0s-.33,8.04.78,9.22-1.91.31-1.91.31c0,0-.2-6.37,1.13-9.53Z" style="fill:#18434d;"/><path d="m13.16,2.53s-5.66,5.96-5.22,7.03c.38.93-2.08-.39-2.08-.39,0,0,3.63-4.78,7.3-6.64Z" style="fill:#18434d;"/><path d="m7.76,9.4c-.72-1.06,1.36-8.57,1.36-8.57-2,2.85-2.96,7.16-3.22,8.54-.12-.67-1.12-5.72-3.34-8.88,0,0,1.03,3.71,1.39,6.29C2.96,4.89,1.48,2.37,0,1.04c0,0,1.66,3.1,2.65,5.5.88,2.14.93,3.32,1.32,3.48s.48.33,1.74.33,1.91-.18,2.25-.34-.07-.49-.2-.61Z" style="fill:#1e505c;"/></g></g></svg>