<?xml version="1.0" encoding="UTF-8"?><svg id="uuid-39fb6bab-36a2-4847-8ad8-9be3773e672d" xmlns="http://www.w3.org/2000/svg" viewBox="0 0 10.91 13.94"><g id="uuid-62eccec1-52b5-4d13-a347-e1ce7badf4f0"><g><path d="m5.73,4.47c-2.16,0-3.92.96-3.92,2.14l.66,5.56c0,.98,1.46,1.78,3.26,1.78s3.26-.8,3.26-1.78l.66-5.56c0-1.18-1.75-2.14-3.92-2.14Z" style="fill:#f6f4f3;"/><ellipse cx="5.73" cy="6.63" rx="3.23" ry="1.76" style="fill:#bcb8b7;"/><g><path d="m6.21,1.97s-1.86.97-1.8,2.05c.08,1.5.94,2.55,2.16,1.52.96-.81-.23-2.76-.36-3.57Z" style="fill:#676d62;"/><path d="m0,4.91s2.61-.9,3.82.07,1.64,1.99.61,2.45S1.43,5.79,0,4.91Z" style="fill:#757c6f;"/><path d="m10.91,5.07s-2.68-.66-3.8.42-1.45,2.13-.38,2.5,2.84-1.91,4.18-2.92Z" style="fill:#757c6f;"/><path d="m5.52,8.34s-.08,0-.11-.02c-.15-.06-.22-.23-.16-.38.23-.56-.12-2.85-.39-4.16-.03-.16.07-.31.23-.35.15-.03.31.07.35.23.08.37.73,3.6.36,4.5-.05.11-.16.18-.27.18Z" style="fill:#757c6f;"/><path d="m5.3,4.43s-.02,0-.03,0c-.61-.08-1.52-1.78-1.53-1.8-.06-.12-.01-.26.1-.31.11-.06.26-.01.31.1.26.52.95,1.49,1.18,1.54.12.03.21.15.19.27-.02.11-.11.2-.22.2Z" style="fill:#757c6f;"/><path d="m5.72,7.84c-.06,0-.12-.02-.16-.06-.1-.09-.1-.24-.01-.33.01-.01,1.37-1.38,1.98-1.29.13.02.22.14.2.27-.02.13-.14.22-.27.2,0,0,0,0,0,0-.24,0-1.17.73-1.56,1.15-.05.05-.11.08-.17.08Z" style="fill:#757c6f;"/><path d="m5.51,7.73c-.06,0-.12-.03-.17-.07-.4-.42-1.32-1.18-1.57-1.15-.14.02-.25-.08-.26-.21s.06-.24.19-.26c.63-.09,1.97,1.28,1.98,1.29.09.09.08.24-.01.33-.05.04-.1.06-.16.06Z" style="fill:#757c6f;"/></g><path d="m5.69,3.46c-.07,0-.13-.03-.18-.08-.08-.1-.07-.25.03-.33.29-.25.58-1.46.62-1.88.01-.13.12-.22.25-.21.13.01.22.13.21.25-.02.21-.28,1.77-.78,2.2-.04.04-.1.06-.15.06Z" style="fill:#757c6f;"/><path d="m5.95,5.54c-.09,0-.17-.05-.21-.13-.06-.12,0-.26.11-.31.05-.03.13-.05.22-.08.52-.18,1.61-.56,2.15-2.35.04-.12.17-.19.29-.16.12.04.19.17.16.29-.61,2.02-1.9,2.47-2.45,2.66-.07.03-.13.05-.17.07-.03.02-.07.02-.1.02Z" style="fill:#757c6f;"/><path d="m5.94,6.22c-1.47,0-2.99-1.68-3.16-1.87-.09-.1-.08-.25.02-.33.1-.09.24-.08.33.02.54.62,1.87,1.78,2.89,1.71.14,0,.24.09.25.22,0,.13-.09.24-.22.25-.04,0-.08,0-.11,0Z" style="fill:#757c6f;"/><g><path d="m3.81.72c-.1-.1-.04-.25.17-.27s.28.16.25.22-.2.15-.19.21-.14-.07-.23-.16Z" style="fill:#d5cdc9;"/><path d="m4.19.76c.04-.14.19-.16.32.01s0,.32-.07.32-.23-.1-.28-.06,0-.16.02-.28Z" style="fill:#d5cdc9;"/><path d="m4.13,1.12c.02-.14-.12-.22-.3-.11s-.12.29-.06.33.29.04.32.1.02-.19.04-.31Z" style="fill:#d5cdc9;"/><path d="m4.28,1.07c.04-.14.19-.16.32.01s0,.32-.07.32-.23-.1-.28-.06,0-.16.02-.28Z" style="fill:#f9f0ea;"/><path d="m3.77.93c.01-.14-.13-.22-.3-.1s-.11.3-.05.33.25-.01.28.04.06-.14.07-.27Z" style="fill:#f9f0ea;"/><path d="m4.22,1.4c.1-.1.25-.03.26.18s-.17.27-.23.24-.22-.18-.2-.23.08-.1.17-.18Z" style="fill:#f9f0ea;"/><path d="m3.87,1.35c-.08-.12-.23-.09-.3.11s.1.3.17.28.25-.12.25-.18-.05-.11-.12-.22Z" style="fill:#f9f0ea;"/></g><g><path d="m2.74,1.9c-.06-.13-.22-.13-.31.06s.05.31.12.31.21-.13.26-.1-.02-.16-.07-.27Z" style="fill:#d5cdc9;"/><path d="m2.65,2.26c-.14-.02-.22.12-.11.3s.3.12.33.05-.01-.25.05-.28-.14-.06-.27-.08Z" style="fill:#d5cdc9;"/><path d="m3,2.34c-.14-.03-.16-.19,0-.32s.32,0,.33.06-.07.28-.03.33-.18-.04-.3-.07Z" style="fill:#d5cdc9;"/><path d="m2.9,2.46c-.14-.02-.22.12-.11.3s.3.12.33.05-.01-.25.05-.28-.14-.06-.27-.08Z" style="fill:#f9f0ea;"/><path d="m2.95,1.94c-.14-.04-.16-.2.01-.32s.32,0,.32.07-.1.23-.06.27-.16,0-.28-.03Z" style="fill:#f9f0ea;"/><path d="m3.23,2.52c-.13.06-.12.22.07.31s.31-.06.31-.13-.09-.27-.14-.27-.12.04-.23.09Z" style="fill:#f9f0ea;"/><path d="m3.31,2.17c-.08-.11,0-.25.21-.24s.24.2.2.26-.21.19-.26.17-.09-.09-.16-.19Z" style="fill:#f9f0ea;"/></g><g><path d="m4.64,1.79c.06-.11-.04-.21-.24-.17s-.22.22-.17.26.24.06.25.12.11-.11.16-.21Z" style="fill:#d5cdc9;"/><path d="m4.29,1.95c-.08-.1-.24-.07-.32.12s.1.28.17.26.2-.17.26-.15-.04-.14-.11-.23Z" style="fill:#d5cdc9;"/><path d="m4.46,2.23c-.06-.11.04-.23.24-.2s.21.2.16.25-.26.14-.27.2-.08-.15-.14-.26Z" style="fill:#d5cdc9;"/><path d="m4.3,2.25c-.08-.11-.25-.07-.32.13s.1.3.18.27.2-.18.26-.16-.04-.14-.12-.24Z" style="fill:#f9f0ea;"/><path d="m4.74,1.95c-.06-.11.04-.21.23-.18s.19.2.15.25-.22.07-.23.13-.1-.1-.16-.2Z" style="fill:#f9f0ea;"/><path d="m4.47,2.52c-.13-.05-.26.07-.21.27s.26.18.32.12.15-.25.12-.3-.11-.06-.23-.1Z" style="fill:#f9f0ea;"/><path d="m4.79,2.34c.03-.13.18-.16.31-.01s.01.3-.05.31-.27,0-.29-.06.01-.12.04-.24Z" style="fill:#f9f0ea;"/></g><g><path d="m6.37.42c-.1-.1-.04-.25.17-.27s.28.16.25.22-.2.15-.19.21-.14-.07-.23-.16Z" style="fill:#d5cdc9;"/><path d="m6.75.46c.04-.14.19-.16.32.01s0,.32-.07.32-.23-.1-.28-.06,0-.16.02-.28Z" style="fill:#d5cdc9;"/><path d="m6.69.82c.02-.14-.12-.22-.3-.11s-.12.29-.06.33.29.04.32.1.02-.19.04-.31Z" style="fill:#d5cdc9;"/><path d="m6.84.77c.04-.14.19-.16.32.01s0,.32-.07.32-.23-.1-.28-.06,0-.16.02-.28Z" style="fill:#d5cdc9;"/><path d="m6.33.63c.01-.14-.13-.22-.3-.1s-.11.3-.05.33.25-.01.28.04.06-.14.07-.27Z" style="fill:#d5cdc9;"/><path d="m6.78,1.1c.1-.1.25-.03.26.18s-.17.27-.23.24-.22-.18-.2-.23.08-.1.17-.18Z" style="fill:#d5cdc9;"/><path d="m6.42,1.05c-.08-.12-.23-.09-.3.11s.1.3.17.28.25-.12.25-.18-.05-.11-.12-.22Z" style="fill:#d5cdc9;"/></g><g><path d="m5.59,1.13c-.06-.13-.22-.13-.31.06s.05.31.12.31.21-.13.26-.1-.02-.16-.07-.27Z" style="fill:#d5cdc9;"/><path d="m5.49,1.5c-.14-.02-.22.12-.11.3s.3.12.33.05-.01-.25.05-.28-.14-.06-.27-.08Z" style="fill:#d5cdc9;"/><path d="m5.84,1.58c-.14-.03-.16-.19,0-.32s.32,0,.33.06-.07.28-.03.33-.18-.04-.3-.07Z" style="fill:#d5cdc9;"/><path d="m5.75,1.7c-.14-.02-.22.12-.11.3s.3.12.33.05-.01-.25.05-.28-.14-.06-.27-.08Z" style="fill:#f9f0ea;"/><path d="m5.8,1.17c-.14-.04-.16-.2.01-.32s.32,0,.32.07-.1.23-.06.27-.16,0-.28-.03Z" style="fill:#f9f0ea;"/><path d="m6.07,1.76c-.13.06-.12.22.07.31s.31-.06.31-.13-.09-.27-.14-.27-.12.04-.23.09Z" style="fill:#f9f0ea;"/><path d="m6.15,1.41c-.08-.11,0-.25.21-.24s.24.2.2.26-.21.19-.26.17-.09-.09-.16-.19Z" style="fill:#f9f0ea;"/></g><g><path d="m7.41,1.83c.11-.06.08-.2-.11-.27s-.3.07-.28.13.17.18.15.23.15-.03.25-.09Z" style="fill:#d5cdc9;"/><path d="m7.04,1.78c-.01-.13-.17-.19-.33-.07s-.07.29,0,.32.26-.04.3,0,.04-.14.03-.26Z" style="fill:#d5cdc9;"/><path d="m7.03,2.11c0-.13.16-.17.31-.04s.07.28,0,.3-.29-.02-.33.03.01-.18.02-.29Z" style="fill:#d5cdc9;"/><path d="m6.88,2.04c-.01-.13-.17-.19-.34-.06s-.07.3,0,.32.27-.05.31,0,.04-.14.03-.26Z" style="fill:#f9f0ea;"/><path d="m7.41,2.02c0-.12.15-.16.29-.03s.06.27,0,.29-.22-.06-.26-.01-.04-.14-.03-.25Z" style="fill:#f9f0ea;"/><path d="m6.88,2.36c-.09-.11-.26-.08-.32.12s.13.29.2.27.26-.14.26-.19-.06-.11-.14-.2Z" style="fill:#f9f0ea;"/><path d="m7.25,2.38c.1-.09.24-.04.27.15s-.15.26-.21.23-.23-.15-.22-.21.07-.1.16-.18Z" style="fill:#f9f0ea;"/></g><g><path d="m3.44,3.06c-.11-.11-.04-.28.19-.31s.31.18.28.25-.23.17-.21.24-.16-.08-.26-.18Z" style="fill:#d5cdc9;"/><path d="m3.87,3.11c.04-.15.22-.18.36.01s0,.36-.08.37-.26-.11-.31-.06,0-.18.03-.32Z" style="fill:#d5cdc9;"/><path d="m3.8,3.51c.02-.16-.13-.25-.34-.13s-.14.33-.07.37.33.04.36.11.03-.21.05-.35Z" style="fill:#d5cdc9;"/><path d="m3.97,3.46c.04-.15.22-.18.36.01s0,.36-.08.37-.26-.11-.31-.06,0-.18.03-.32Z" style="fill:#f9f0ea;"/><path d="m3.39,3.29c.02-.16-.14-.24-.34-.12s-.13.34-.06.37.28-.01.31.05.07-.16.08-.31Z" style="fill:#f9f0ea;"/><path d="m3.9,3.83c.12-.11.28-.04.3.2s-.19.31-.26.27-.25-.2-.23-.26.09-.11.19-.21Z" style="fill:#f9f0ea;"/><path d="m3.5,3.77c-.09-.13-.27-.1-.34.13s.12.34.19.32.28-.14.29-.2-.06-.13-.14-.25Z" style="fill:#f9f0ea;"/></g><g><path d="m5.11,3.75c-.11-.11-.04-.28.19-.31s.31.18.28.25-.23.17-.21.24-.16-.08-.26-.18Z" style="fill:#d5cdc9;"/><path d="m5.54,3.8c.04-.15.22-.18.36.01s0,.36-.08.37-.26-.11-.31-.06,0-.18.03-.32Z" style="fill:#d5cdc9;"/><path d="m5.48,4.2c.02-.16-.13-.25-.34-.13s-.14.33-.07.37.33.04.36.11.03-.21.05-.35Z" style="fill:#d5cdc9;"/><path d="m5.65,4.15c.04-.15.22-.18.36.01s0,.36-.08.37-.26-.11-.31-.06,0-.18.03-.32Z" style="fill:#f9f0ea;"/><path d="m5.07,3.99c.02-.16-.14-.24-.34-.12s-.13.34-.06.37.28-.01.31.05.07-.16.08-.31Z" style="fill:#f9f0ea;"/><path d="m5.58,4.53c.12-.11.28-.04.3.2s-.19.31-.26.27-.25-.2-.23-.26.09-.11.19-.21Z" style="fill:#f9f0ea;"/><path d="m5.18,4.47c-.09-.13-.27-.1-.34.13s.12.34.19.32.28-.14.29-.2-.06-.13-.14-.25Z" style="fill:#f9f0ea;"/></g><g><path d="m6.13,2.57c.09-.13-.02-.28-.25-.26s-.27.24-.22.31.26.11.26.19.14-.11.21-.23Z" style="fill:#d5cdc9;"/><path d="m5.72,2.71c-.07-.14-.25-.13-.35.09s.08.35.16.34.23-.16.29-.13-.03-.18-.1-.3Z" style="fill:#d5cdc9;"/><path d="m5.87,3.09c-.05-.15.08-.27.3-.2s.21.3.15.35-.31.11-.33.19-.07-.2-.12-.33Z" style="fill:#d5cdc9;"/><path d="m5.7,3.08c-.07-.14-.25-.13-.35.09s.08.35.16.34.23-.16.29-.13-.03-.18-.1-.3Z" style="fill:#f9f0ea;"/><path d="m6.23,2.79c-.05-.15.09-.27.31-.19s.2.3.14.35-.28.05-.3.12-.1-.14-.15-.28Z" style="fill:#f9f0ea;"/><path d="m5.84,3.42c-.14-.08-.28.03-.25.26s.25.26.31.21.2-.25.17-.31-.11-.09-.23-.16Z" style="fill:#f9f0ea;"/><path d="m6.23,3.28c.06-.15.24-.15.36.05s-.04.36-.12.36-.31-.07-.32-.14.03-.14.08-.27Z" style="fill:#f9f0ea;"/></g><g><path d="m5.17.17c.06-.09-.01-.18-.16-.17s-.17.16-.14.2.17.07.17.12.09-.07.14-.15Z" style="fill:#d5cdc9;"/><path d="m4.91.26c-.05-.09-.16-.08-.23.06s.05.23.1.22.15-.11.19-.08-.02-.11-.06-.2Z" style="fill:#d5cdc9;"/><path d="m5,.51c-.04-.1.05-.18.2-.13s.13.19.1.22-.2.07-.21.12-.05-.13-.08-.22Z" style="fill:#d5cdc9;"/><path d="m4.89.5c-.05-.09-.16-.08-.23.06s.05.23.1.22.15-.11.19-.08-.02-.11-.06-.2Z" style="fill:#d5cdc9;"/><path d="m5.23.31c-.03-.1.06-.18.2-.12s.13.2.09.23-.18.03-.19.08-.07-.09-.1-.18Z" style="fill:#d5cdc9;"/><path d="m4.98.73c-.09-.05-.18.02-.16.17s.16.17.2.14.13-.16.11-.2-.07-.06-.15-.11Z" style="fill:#d5cdc9;"/><path d="m5.23.63c.04-.1.15-.1.23.03s-.03.23-.08.23-.2-.05-.21-.09.02-.09.05-.18Z" style="fill:#d5cdc9;"/></g><g><path d="m2.18,4.34c.06.04-.02-.18-.08-.31-.06-.15-.24-.14-.36.07-.11.21.05.36.13.35s.24-.15.3-.11Z" style="fill:#f9f0ea;"/><path d="m2.28,4.67s-.01,0-.02,0c0-.06,0-.12.04-.14.07-.03-.16-.07-.3-.09-.16-.02-.25.14-.12.34.07.12.17.14.25.12,0,.03.02.06.04.1.13.2.34.13.37.06s-.01-.28.05-.31-.16-.07-.3-.09Z" style="fill:#f9f0ea;"/><path d="m2.92,4.64c-.06-.01-.14.04-.26.1-.14.07-.13.25.08.35s.35-.07.35-.14c0-.08-.1-.3-.16-.31Z" style="fill:#f9f0ea;"/><path d="m2.99,4.07c-.14,0-.22.04-.25.11-.02-.02-.05-.05-.08-.06,0,0,.02,0,0-.02-.05-.06.07-.23.07-.31,0-.08-.18-.22-.37-.08-.19.14-.17.32-.02.36.05.01.12.03.18.04-.04,0-.08.02-.12.05-.19.15-.16.32,0,.36.14.03.39.14.34.08-.03-.04,0-.16.02-.26.08.11.12.19.17.21.06.02.25-.13.29-.19.04-.06,0-.28-.23-.3Z" style="fill:#f9f0ea;"/></g><g><path d="m4.3,4.68c.07-.12-.05-.24-.27-.19s-.24.24-.19.29.27.07.28.13.12-.12.18-.23Z" style="fill:#d5cdc9;"/><path d="m3.91,4.86c-.09-.12-.27-.08-.36.13s.11.32.2.3.22-.19.29-.17-.05-.16-.13-.26Z" style="fill:#d5cdc9;"/><path d="m4.1,5.18c-.07-.13.05-.26.28-.23s.23.23.18.29-.29.16-.3.23-.1-.18-.16-.29Z" style="fill:#d5cdc9;"/><path d="m3.92,5.2c-.09-.12-.28-.08-.37.15s.12.33.2.31.23-.21.3-.18-.05-.16-.13-.27Z" style="fill:#d5cdc9;"/><path d="m4.41,4.86c-.07-.13.05-.24.26-.2s.22.23.17.28-.25.08-.26.14-.12-.11-.18-.23Z" style="fill:#d5cdc9;"/><path d="m4.11,5.51c-.15-.05-.3.08-.24.31s.3.2.36.14.17-.29.14-.34-.12-.06-.26-.11Z" style="fill:#d5cdc9;"/><path d="m4.47,5.3c.04-.14.21-.18.35-.01s.01.34-.06.35-.31-.01-.33-.07.01-.14.05-.27Z" style="fill:#d5cdc9;"/></g><g><path d="m3.43,3.96c.07-.12-.05-.24-.27-.19s-.24.24-.19.29.27.07.28.13.12-.12.18-.23Z" style="fill:#d5cdc9;"/><path d="m3.05,4.14c-.09-.12-.27-.08-.36.13s.11.32.2.3.22-.19.29-.17-.05-.16-.13-.26Z" style="fill:#d5cdc9;"/><path d="m3.24,4.46c-.07-.13.05-.26.28-.23s.23.23.18.29-.29.16-.3.23-.1-.18-.16-.29Z" style="fill:#d5cdc9;"/><path d="m3.05,4.48c-.09-.12-.28-.08-.37.15s.12.33.2.31.23-.21.3-.18-.05-.16-.13-.27Z" style="fill:#f9f0ea;"/><path d="m3.55,4.14c-.07-.13.05-.24.26-.2s.22.23.17.28-.25.08-.26.14-.12-.11-.18-.23Z" style="fill:#f9f0ea;"/><path d="m3.24,4.78c-.15-.05-.3.08-.24.31s.3.2.36.14.17-.29.14-.34-.12-.06-.26-.11Z" style="fill:#f9f0ea;"/><path d="m3.61,4.58c.04-.14.21-.18.35-.01s.01.34-.06.35-.31-.01-.33-.07.01-.14.05-.27Z" style="fill:#f9f0ea;"/></g><g><path d="m8.18,1.99c-.11-.11-.04-.28.19-.31s.31.18.28.25-.23.17-.21.24-.16-.08-.26-.18Z" style="fill:#d5cdc9;"/><path d="m8.61,2.04c.04-.15.22-.18.36.01s0,.36-.08.37-.26-.11-.31-.06,0-.18.03-.32Z" style="fill:#d5cdc9;"/><path d="m8.54,2.44c.02-.16-.13-.25-.34-.13s-.14.33-.07.37.33.04.36.11.03-.21.05-.35Z" style="fill:#d5cdc9;"/><path d="m8.71,2.39c.04-.15.22-.18.36.01s0,.36-.08.37-.26-.11-.31-.06,0-.18.03-.32Z" style="fill:#d5cdc9;"/><path d="m8.14,2.23c.02-.16-.14-.24-.34-.12s-.13.34-.06.37.28-.01.31.05.07-.16.08-.31Z" style="fill:#d5cdc9;"/><path d="m8.65,2.76c.12-.11.28-.04.3.2s-.19.31-.26.27-.25-.2-.23-.26.09-.11.19-.21Z" style="fill:#d5cdc9;"/><path d="m8.24,2.7c-.09-.13-.27-.1-.34.13s.12.34.19.32.28-.14.29-.2-.06-.13-.14-.25Z" style="fill:#d5cdc9;"/></g><g><path d="m6.75,3.48c-.06-.15-.24-.14-.36.07s.05.36.13.35.24-.15.3-.11-.02-.18-.08-.31Z" style="fill:#d5cdc9;"/><path d="m6.64,3.9c-.16-.02-.25.14-.12.34s.34.13.37.06-.01-.28.05-.31-.16-.07-.3-.09Z" style="fill:#d5cdc9;"/><path d="m7.04,3.99c-.15-.04-.18-.22,0-.36s.36,0,.37.07-.08.32-.03.38-.21-.05-.34-.08Z" style="fill:#d5cdc9;"/><path d="m6.93,4.13c-.16-.02-.25.14-.12.34s.34.13.37.06-.01-.28.05-.31-.16-.07-.3-.09Z" style="fill:#f9f0ea;"/><path d="m6.98,3.53c-.15-.04-.18-.22.02-.36s.36,0,.37.08-.11.26-.07.31-.18,0-.32-.03Z" style="fill:#f9f0ea;"/><path d="m7.3,4.2c-.14.07-.13.25.08.35s.35-.07.35-.14-.1-.3-.16-.31-.14.04-.26.1Z" style="fill:#f9f0ea;"/><path d="m7.39,3.8c-.09-.13,0-.28.24-.27s.28.23.23.3-.23.21-.29.19-.1-.1-.18-.22Z" style="fill:#f9f0ea;"/></g><g><path d="m8.8,3.29c.12-.07.09-.23-.13-.31-.22-.08-.34.08-.32.15.02.07.19.2.17.26-.03.06.17-.04.28-.1Z" style="fill:#f9f0ea;"/><path d="m8.17,3.82c.05.06.04-.16.03-.3,0,0,0-.01,0-.02.07,0,.13-.01.15.02.05.06.04-.16.03-.29-.01-.15-.19-.21-.38-.08-.11.08-.11.18-.09.25-.03.01-.07.03-.1.05-.2.15-.08.35,0,.37.08.02.3-.06.35,0Z" style="fill:#f9f0ea;"/><path d="m9.13,3.47c-.16-.15-.32-.11-.33.03,0,.05,0,.11,0,.16-.01-.03-.04-.07-.07-.1-.18-.15-.35-.1-.35.04,0,.13-.06.39-.02.33.03-.04.16-.03.27-.03-.09.09-.17.14-.18.2,0,.06.18.21.25.23.07.03.27-.05.24-.26-.02-.12-.08-.19-.15-.21.02-.02.03-.05.04-.09,0,0,0,.01.02,0,.04-.05.23.03.3.01.07-.02.16-.18,0-.33Z" style="fill:#f9f0ea;"/><path d="m7.84,4.02c-.07.23.15.33.23.31.08-.02.3-.15.3-.21,0-.06-.07-.12-.16-.23-.1-.12-.29-.09-.37.14Z" style="fill:#f9f0ea;"/></g><g><path d="m6.76,5.03c.02.09.16-.17.23-.33.08-.17-.08-.32-.38-.24-.31.08-.31.35-.24.41.08.06.37.07.39.16Z" style="fill:#f9f0ea;"/><path d="m6.51,5.43s-.02,0-.03-.02c.07-.06.14-.11.18-.1.1.03-.08-.21-.19-.35-.13-.15-.38-.09-.48.2-.06.18,0,.29.1.34-.03.04-.05.08-.07.14-.11.32.18.45.29.4.11-.04.29-.3.39-.27.1.02-.08-.22-.2-.36Z" style="fill:#f9f0ea;"/><path d="m6.79,5.83c-.21-.06-.39.13-.3.44.1.31.42.26.49.17.07-.09.21-.4.16-.47-.05-.07-.17-.08-.36-.13Z" style="fill:#f9f0ea;"/><path d="m7.74,5.48c-.11-.12-.23-.15-.33-.12,0-.04,0-.08-.02-.13,0,0,.02,0,.02,0,0-.09.28-.14.34-.21.06-.07.04-.32-.25-.37-.29-.04-.44.12-.34.29.03.06.08.13.12.18-.04-.03-.09-.05-.16-.05-.31-.03-.46.15-.36.32.09.15.23.48.24.38,0-.07.16-.16.27-.24-.04.17-.08.28-.04.35.04.07.36.09.46.07.1-.02.26-.26.06-.48Z" style="fill:#f9f0ea;"/></g><g><path d="m5.15,5.52c-.03.09.22-.07.36-.17.16-.11.09-.32-.21-.4-.31-.08-.44.15-.41.24.04.09.29.25.26.33Z" style="fill:#f9f0ea;"/><path d="m5.98,5.55c-.23-.18-.44-.11-.44.08,0,.07,0,.15.01.22-.02-.04-.06-.09-.11-.13-.26-.18-.48-.1-.47.1,0,.05,0,.1,0,.16-.06-.04-.13-.06-.2-.04,0-.07-.02-.15-.03-.21,0-.01-.01-.02-.01-.03.09-.02.17-.03.21,0,.07.07.04-.22,0-.4-.04-.2-.28-.26-.52-.06-.14.12-.13.25-.08.35-.04.02-.09.04-.13.08-.25.23-.06.48.06.5.07.01.21-.03.33-.05-.02.03-.04.06-.05.11-.07.32.23.43.34.39.06-.02.18-.1.27-.18,0,.01-.02.02-.02.04,0,.08.26.26.36.28.1.03.35-.1.28-.39-.04-.16-.13-.24-.23-.26.02-.03.04-.07.04-.12,0,0,.01.02.02,0,.05-.07.31.01.4-.02.09-.03.19-.26-.04-.44Zm-.78.67s.09,0,.14-.01c-.03.04-.06.07-.09.1,0-.03-.03-.06-.05-.09Z" style="fill:#f9f0ea;"/></g></g></g></svg>