<?xml version="1.0" encoding="UTF-8"?><svg id="uuid-7586b965-0011-41ed-88f2-5a914ccee98b" xmlns="http://www.w3.org/2000/svg" viewBox="0 0 13.36 19.18"><g id="uuid-1387d3b3-d6cc-4aba-9afb-3c2c91dbfe9b"><g><path d="m6.6,5.37c-3.15,0-5.71,1.39-5.71,3.12l.96,8.1c0,1.43,2.13,2.59,4.75,2.59s4.75-1.16,4.75-2.59l.96-8.1c0-1.72-2.55-3.12-5.71-3.12Z" style="fill:#16404a;"/><ellipse cx="6.6" cy="8.52" rx="4.71" ry="2.57" style="fill:#bcb8b7;"/><path d="m4.76,7.5s1.01-.43,1.54-1.52c.44-.89.37-2.24.37-2.24,0,0-1.72,1.05-2.12,1.68s-.21,1.55.21,2.08Z" style="fill:#376f74;"/><path d="m9.02,7.93s-.87-.67-1.12-1.85c-.21-.97,1.3-2.34,1.3-2.34,0,0,.3,1.52.54,2.23s-.18,1.56-.72,1.96Z" style="fill:#376f74;"/><path d="m3.85,7.37s.54-.96.31-2.14c-.19-.97-2.1-1.14-2.1-1.14,0,0,.31,1.02.37,1.76s.78,1.36,1.43,1.53Z" style="fill:#376f74;"/><path d="m8.37,8.3s-1.1-.06-1.97-.9c-.71-.68-1.11-1.98-1.11-1.98,0,0,1.97.4,2.57.85s.73,1.39.51,2.03Z" style="fill:#376f74;"/><path d="m9.53,8.65s1.06.29,2.15-.23c.89-.42,1.68-1.52,1.68-1.52,0,0-2-.25-2.71,0s-1.13,1.09-1.13,1.76Z" style="fill:#3f7f85;"/><path d="m8.8,9.73s-.96-.54-1.37-1.67c-.34-.93-.13-2.26-.13-2.26,0,0,1.6,1.23,1.93,1.89s.04,1.57-.43,2.04Z" style="fill:#3f7f85;"/><path d="m4.26,8.22s-.76-.8-.82-2c-.05-.99,1.65-2.11,1.65-2.11,0,0,.06,1.55.19,2.28s-.42,1.51-1.01,1.83Z" style="fill:#3f7f85;"/><path d="m9.18,7.8s1.02-.41,1.58-1.48c.46-.88-.93-2.2-.93-2.2,0,0-.39.99-.81,1.61s-.24,1.55.17,2.08Z" style="fill:#3f7f85;"/><path d="m4.14,9.16s-1.07-.23-1.81-1.19c-.6-.79-.79-2.13-.79-2.13,0,0,1.89.7,2.4,1.24s.5,1.49.19,2.08Z" style="fill:#3f7f85;"/><path d="m2.81,4.48c.67.72,1.56,2.83,1.5,5.1" style="fill:none; stroke:#e2c0a2; stroke-miterlimit:10; stroke-width:.25px;"/><path d="m4.78,3.17c.17,1.16-.76,3.84-.09,6.44" style="fill:none; stroke:#e2c0a2; stroke-miterlimit:10; stroke-width:.25px;"/><path d="m6.05,3.41c-.28,1.14.62,4.14.56,6.41" style="fill:none; stroke:#e2c0a2; stroke-miterlimit:10; stroke-width:.25px;"/><path d="m6.61,4.6c.17,1.16-.3,2.65.37,5.26" style="fill:none; stroke:#e2c0a2; stroke-miterlimit:10; stroke-width:.25px;"/><g><path d="m10.3,5.93c-.75.58-1.64,2.34-1.5,3.96" style="fill:none; stroke:#e2c0a2; stroke-miterlimit:10; stroke-width:.25px;"/><path d="m7.24,3.61c1.11,1.73,1.96,4.65,1.45,6.5" style="fill:none; stroke:#e2c0a2; stroke-miterlimit:10; stroke-width:.25px;"/><path d="m8.49,3.41c-.09,1.55,1.18,4.53.63,6.34" style="fill:none; stroke:#e2c0a2; stroke-miterlimit:10; stroke-width:.25px;"/></g><path d="m8.77,11.85s-.76-.8-.82-2c-.05-.99,1.03-.6,1.03-.6,0,0,.68.04.81.78s-.42,1.51-1.01,1.83Z" style="fill:#3f7f85;"/><path d="m5.02,5.62s1.57,1.48,1.64,2.69c.05.99-.77.63-1.03.6s-.86-.64-.99-1.37.27-1.12.38-1.92Z" style="fill:#3f7f85;"/><path d="m2.56,10.97s1.06-.3,1.73-1.3c.55-.82-.57-1.04-.57-1.04,0,0-.61-.32-1.09.25s-.41,1.51-.07,2.09Z" style="fill:#3f7f85;"/><path d="m7.85,7.65s-1.79.53-1.86,1.74c-.05.99,1.03.6,1.03.6,0,0,.68-.04.81-.78s.13-.77.02-1.57Z" style="fill:#468990;"/><path d="m5.58,3.31c-.64,1.02-1.16,3.7-.49,6.31" style="fill:none; stroke:#e2c0a2; stroke-miterlimit:10; stroke-width:.25px;"/><path d="m5.84,12.59s-1.97-.72-2.05-2.35c-.07-1.33,1.39-.81,1.39-.81,0,0,.93.05,1.09,1.05s-.37.93-.43,2.12Z" style="fill:#468990;"/><g><path d="m4.8,3.15S3.62.6,3.13,1.02c-1.01.84,1.67,2.13,1.67,2.13Z" style="fill:#438cbd;"/><path d="m4.78,3.23s.16-2.8-.46-2.67c-1.29.27.46,2.67.46,2.67Z" style="fill:#438cbd;"/><path d="m4.67,3.66s-2.8.17-2.67-.46c.27-1.29,2.67.46,2.67.46Z" style="fill:#438cbd;"/><path d="m4.78,3.63s-.43-2.86.34-2.67c1.61.39-.34,2.67-.34,2.67Z" style="fill:#438cbd;"/><path d="m4.35,3.62s-2.49-1.08-2.02-1.51c.98-.88,2.02,1.51,2.02,1.51Z" style="fill:#438cbd;"/><path d="m4.94,3.43s-.31-2.79-.91-2.55c-1.22.48.91,2.55.91,2.55Z" style="fill:#438cbd;"/><path d="m4.96,3.59s-1.94-.83-1.69-1.35c.43-.89,1.69,1.35,1.69,1.35Z" style="fill:#438cbd;"/><path d="m4.86,3.42s-1.14-1.29-.63-1.57c.86-.48.63,1.57.63,1.57Z" style="fill:#438cbd;"/><g><path d="m4.87,3.7s-2.84,1.08-2.61.51c.53-1.37,2.61-.51,2.61-.51Z" style="fill:#438cbd;"/><path d="m4.8,3.75s.72-1.98,1.21-1.99c.85-.01-1.21,1.99-1.21,1.99Z" style="fill:#438cbd;"/><path d="m4.87,3.7s-2.72-.08-2.03-.66c1.38-1.15,2.03.66,2.03.66Z" style="fill:#438cbd;"/><path d="m4.85,3.68s1.23-2.48.63-2.33c-1.48.37-.63,2.33-.63,2.33Z" style="fill:#438cbd;"/></g><path d="m5.08,3.09c-.07,0-.12.13-.16.28,0-.14-.03-.28-.18-.29-.23.1-.21.28-.13.43-.11-.07-.26-.1-.47.07-.09.07-.02.12.1.16-.13.03-.25.1-.31.25-.08.2.91-.18.91-.18,0,0,.52-.71.23-.71Z" style="fill:#438cbd;"/></g><g><path d="m8.03,2.62S7.64-.16,7.05.09c-1.21.52.98,2.53.98,2.53Z" style="fill:#438cbd;"/><path d="m7.99,2.69S8.95.06,8.32,0c-1.31-.12-.33,2.69-.33,2.69Z" style="fill:#438cbd;"/><path d="m7.75,3.07s-2.73-.65-2.42-1.21c.63-1.15,2.42,1.21,2.42,1.21Z" style="fill:#438cbd;"/><path d="m7.87,3.07s.42-2.86,1.11-2.46c1.42.84-1.11,2.46-1.11,2.46Z" style="fill:#438cbd;"/><path d="m7.46,2.94s-2.07-1.76-1.49-2.03c1.19-.55,1.49,2.03,1.49,2.03Z" style="fill:#438cbd;"/><path d="m8.08,2.93s.51-2.76-.12-2.71c-1.31.11.12,2.71.12,2.71Z" style="fill:#438cbd;"/><path d="m8.05,3.09s-1.62-1.36-1.22-1.79c.67-.73,1.22,1.79,1.22,1.79Z" style="fill:#438cbd;"/><path d="m8.01,2.89s-.72-1.56-.15-1.69c.97-.21.15,1.69.15,1.69Z" style="fill:#438cbd;"/><g><path d="m7.94,3.17s-3.03.21-2.65-.27c.9-1.16,2.65.27,2.65.27Z" style="fill:#438cbd;"/><path d="m7.86,3.2s1.26-1.69,1.74-1.55c.81.23-1.74,1.55-1.74,1.55Z" style="fill:#438cbd;"/><path d="m7.94,3.17s-2.58-.87-1.76-1.22c1.65-.7,1.76,1.22,1.76,1.22Z" style="fill:#438cbd;"/><path d="m7.93,3.14s1.89-2.02,1.28-2.05c-1.52-.07-1.28,2.05-1.28,2.05Z" style="fill:#438cbd;"/></g><path d="m8.32,2.64c-.07-.02-.15.09-.23.22.04-.14.05-.27-.09-.33-.25.03-.29.2-.25.37-.09-.1-.22-.18-.46-.07-.1.04-.05.11.05.18-.13-.01-.26.02-.37.15-.13.17.92.09.92.09,0,0,.71-.53.42-.61Z" style="fill:#438cbd;"/></g><g><path d="m6.93,4.5s.18-1.69-.2-1.63c-.79.13.2,1.63.2,1.63Z" style="fill:#438cbd;"/><path d="m6.9,4.54s.96-1.41.59-1.53c-.75-.26-.59,1.53-.59,1.53Z" style="fill:#438cbd;"/><path d="m6.7,4.72s-1.51-.79-1.25-1.07c.54-.59,1.25,1.07,1.25,1.07Z" style="fill:#438cbd;"/><path d="m6.77,4.74s.67-1.62,1.01-1.28c.71.71-1.01,1.28-1.01,1.28Z" style="fill:#438cbd;"/><path d="m6.55,4.6s-.96-1.34-.58-1.41c.78-.15.58,1.41.58,1.41Z" style="fill:#438cbd;"/><path d="m6.92,4.69s.71-1.55.33-1.61c-.79-.13-.33,1.61-.33,1.61Z" style="fill:#438cbd;"/><path d="m6.88,4.78s-.75-1.04-.46-1.23c.5-.33.46,1.23.46,1.23Z" style="fill:#438cbd;"/><path d="m6.88,4.66s-.19-1.03.16-1.02c.6.02-.16,1.02-.16,1.02Z" style="fill:#438cbd;"/><g><path d="m6.8,4.81s-1.81-.32-1.52-.55c.7-.55,1.52.55,1.52.55Z" style="fill:#438cbd;"/><path d="m6.75,4.81s.99-.81,1.25-.65c.44.26-1.25.65-1.25.65Z" style="fill:#438cbd;"/><path d="m6.8,4.81s-1.39-.89-.85-.98c1.08-.17.85.98.85.98Z" style="fill:#438cbd;"/><path d="m6.79,4.79s1.41-.91,1.05-1.02c-.89-.27-1.05,1.02-1.05,1.02Z" style="fill:#438cbd;"/></g><path d="m7.1,4.56s-.1.03-.17.1c.04-.07.07-.15,0-.21-.15-.02-.2.08-.2.18-.04-.07-.1-.14-.26-.11-.07.01-.05.06,0,.11-.08-.03-.16-.03-.24.03-.1.08.53.19.53.19,0,0,.49-.21.34-.3Z" style="fill:#438cbd;"/></g><g><path d="m10.31,5.01s1.78-2.17,1.2-2.43c-1.2-.54-1.2,2.43-1.2,2.43Z" style="fill:#438cbd;"/><path d="m10.22,5.03s2.6-1.07,2.21-1.57c-.8-1.04-2.21,1.57-2.21,1.57Z" style="fill:#438cbd;"/><path d="m9.79,5.11s-1.36-2.45-.74-2.61c1.28-.32.74,2.61.74,2.61Z" style="fill:#438cbd;"/><path d="m9.87,5.19s2.39-1.63,2.56-.84c.34,1.62-2.56.84-2.56.84Z" style="fill:#438cbd;"/><path d="m9.69,4.8s-.1-2.72.49-2.47c1.21.5-.49,2.47-.49,2.47Z" style="fill:#438cbd;"/><path d="m10.12,5.26s2.38-1.49,1.91-1.92c-.96-.89-1.91,1.92-1.91,1.92Z" style="fill:#438cbd;"/><path d="m9.98,5.34s-.09-2.11.49-2.11c.99,0-.49,2.11-.49,2.11Z" style="fill:#438cbd;"/><path d="m10.09,5.18s.67-1.59,1.14-1.25c.81.57-1.14,1.25-1.14,1.25Z" style="fill:#438cbd;"/><g><path d="m9.84,5.31s-2.2-2.09-1.59-2.14c1.46-.12,1.59,2.14,1.59,2.14Z" style="fill:#438cbd;"/><path d="m9.77,5.27s2.09-.21,2.31.24c.38.76-2.31-.24-2.31-.24Z" style="fill:#438cbd;"/><path d="m9.84,5.31s-1.11-2.49-.29-2.12c1.64.74.29,2.12.29,2.12Z" style="fill:#438cbd;"/><path d="m9.85,5.29s2.77.03,2.37-.44c-.97-1.17-2.37.44-2.37.44Z" style="fill:#438cbd;"/></g><path d="m10.48,5.24c-.03-.07-.17-.05-.32-.02.13-.06.23-.15.19-.29-.2-.17-.34-.07-.44.06.02-.14-.02-.28-.26-.39-.1-.05-.12.04-.1.16-.08-.1-.19-.18-.36-.17-.21.02.55.74.55.74,0,0,.87.16.74-.1Z" style="fill:#438cbd;"/></g><g><path d="m10.31,6s2.03-1.3,2.2-.77c.34,1.08-2.2.77-2.2.77Z" style="fill:#438cbd;"/><path d="m10.29,6.07s1.18-2.1,1.57-1.72c.81.79-1.57,1.72-1.57,1.72Z" style="fill:#438cbd;"/><path d="m10.17,6.43s1.95,1.42,2.15.9c.4-1.06-2.15-.9-2.15-.9Z" style="fill:#438cbd;"/><path d="m10.11,6.36s1.64-1.87.98-2.09c-1.34-.46-.98,2.09-.98,2.09Z" style="fill:#438cbd;"/><path d="m10.42,6.55s2.31.37,2.16-.16c-.3-1.09-2.16.16-2.16.16Z" style="fill:#66a0c8;"/><path d="m10.08,6.14s1.52-1.88,1.84-1.43c.66.91-1.84,1.43-1.84,1.43Z" style="fill:#66a0c8;"/><path d="m9.99,6.25s1.79.3,1.85-.2c.1-.85-1.85.2-1.85.2Z" style="fill:#8ab6d4;"/><path d="m10.14,6.17s1.42-.4,1.19-.85c-.4-.75-1.19.85-1.19.85Z" style="fill:#8ab6d4;"/><g><path d="m10.01,6.37s1.55,2.1,1.66,1.58c.25-1.24-1.66-1.58-1.66-1.58Z" style="fill:#66a0c8;"/><path d="m10.03,6.44s.4-1.76.04-2c-.61-.4-.04,2-.04,2Z" style="fill:#66a0c8;"/><path d="m10.01,6.37s2.01,1.2,1.78.46c-.46-1.47-1.78-.46-1.78-.46Z" style="fill:#8ab6d4;"/><path d="m10.02,6.36s.26-2.36.62-1.98c.9.95-.62,1.98-.62,1.98Z" style="fill:#8ab6d4;"/></g><path d="m10.13,5.83c.05.03.03.15-.01.27.07-.1.15-.18.26-.13.12.18.03.3-.1.37.12,0,.24.05.31.26.03.09-.04.1-.15.06.08.08.13.18.11.32-.04.18-.58-.55-.58-.55,0,0-.05-.76.16-.62Z" style="fill:#d7e4ef;"/></g><g><path d="m8.11,6.67s-1.42-2.42-.8-2.59c1.27-.35.8,2.59.8,2.59Z" style="fill:#438cbd;"/><path d="m8.2,6.7s-2.39-1.46-1.93-1.9c.95-.9,1.93,1.9,1.93,1.9Z" style="fill:#438cbd;"/><path d="m8.61,6.85s1.73-2.21,1.15-2.46c-1.21-.51-1.15,2.46-1.15,2.46Z" style="fill:#438cbd;"/><path d="m8.52,6.92s-2.1-1.99-2.39-1.24c-.59,1.54,2.39,1.24,2.39,1.24Z" style="fill:#438cbd;"/><path d="m8.76,6.57s.53-2.67-.09-2.52c-1.28.31.09,2.52.09,2.52Z" style="fill:#66a0c8;"/><path d="m8.26,6.94s-2.11-1.84-1.58-2.2c1.09-.73,1.58,2.2,1.58,2.2Z" style="fill:#66a0c8;"/><path d="m8.39,7.05s.42-2.07-.15-2.16c-.98-.15.15,2.16.15,2.16Z" style="fill:#8ab6d4;"/><path d="m8.3,6.87s-.41-1.67-.93-1.42c-.89.44.93,1.42.93,1.42Z" style="fill:#8ab6d4;"/><g><path d="m8.53,7.04s2.5-1.71,1.91-1.86c-1.43-.35-1.91,1.86-1.91,1.86Z" style="fill:#66a0c8;"/><path d="m8.61,7.02s-2.03-.54-2.32-.13c-.49.69,2.32.13,2.32.13Z" style="fill:#66a0c8;"/><path d="m8.53,7.04s1.49-2.28.62-2.05c-1.73.47-.62,2.05-.62,2.05Z" style="fill:#8ab6d4;"/><path d="m8.52,7.02s-2.74-.4-2.27-.81c1.15-1,2.27.81,2.27.81Z" style="fill:#8ab6d4;"/></g><path d="m7.9,6.87c.04-.06.18-.02.32.03-.12-.08-.21-.18-.14-.31.22-.13.35-.02.43.13,0-.14.06-.28.32-.35.11-.03.11.06.07.17.1-.09.22-.15.38-.11.21.05-.66.65-.66.65,0,0-.88.02-.71-.21Z" style="fill:#d7e4ef;"/></g><g><path d="m5.34,3.02s1.43-2.41.82-2.58c-1.27-.35-.82,2.58-.82,2.58Z" style="fill:#438cbd;"/><path d="m5.26,3.05s2.4-1.45,1.94-1.89c-.95-.91-1.94,1.89-1.94,1.89Z" style="fill:#438cbd;"/><path d="m4.85,3.19S3.13.97,3.72.73c1.21-.51,1.13,2.46,1.13,2.46Z" style="fill:#438cbd;"/><path d="m4.93,3.27s2.12-1.97,2.4-1.22c.58,1.55-2.4,1.22-2.4,1.22Z" style="fill:#438cbd;"/><path d="m4.7,2.91s-.51-2.67.11-2.52c1.28.31-.11,2.52-.11,2.52Z" style="fill:#66a0c8;"/><path d="m5.19,3.29s2.13-1.83,1.6-2.19c-1.09-.74-1.6,2.19-1.6,2.19Z" style="fill:#66a0c8;"/><path d="m5.06,3.4s-.41-2.07.17-2.16c.98-.15-.17,2.16-.17,2.16Z" style="fill:#8ab6d4;"/><path d="m5.15,3.21s.42-1.67.94-1.41c.89.44-.94,1.41-.94,1.41Z" style="fill:#8ab6d4;"/><g><path d="m4.93,3.38s-2.49-1.73-1.9-1.87c1.43-.34,1.9,1.87,1.9,1.87Z" style="fill:#66a0c8;"/><path d="m4.85,3.36s2.04-.52,2.32-.12c.49.69-2.32.12-2.32.12Z" style="fill:#66a0c8;"/><path d="m4.93,3.38s-1.47-2.29-.6-2.05c1.73.49.6,2.05.6,2.05Z" style="fill:#8ab6d4;"/><path d="m4.93,3.36s2.74-.39,2.28-.79c-1.14-1.01-2.28.79-2.28.79Z" style="fill:#8ab6d4;"/></g><path d="m5.55,3.22c-.04-.06-.18-.03-.32.03.12-.08.21-.18.14-.31-.22-.13-.35-.02-.43.13,0-.14-.06-.28-.32-.35-.11-.03-.11.05-.07.17-.1-.09-.22-.15-.38-.11-.21.05.66.65.66.65,0,0,.88.03.71-.21Z" style="fill:#d7e4ef;"/></g><g><path d="m8.55,3.24s.21-2.65.8-2.5c1.26.33-.8,2.5-.8,2.5Z" style="fill:#438cbd;"/><path d="m8.6,3.31s-1.06-2.35-.48-2.48c1.26-.28.48,2.48.48,2.48Z" style="fill:#438cbd;"/><path d="m8.85,3.65s2.78-.89,2.4-1.42c-.75-1.05-2.4,1.42-2.4,1.42Z" style="fill:#438cbd;"/><path d="m8.74,3.66s-.57-2.65-1.19-2.19c-1.25.92,1.19,2.19,1.19,2.19Z" style="fill:#438cbd;"/><path d="m9.13,3.5s2-1.93,1.37-2.12c-1.24-.38-1.37,2.12-1.37,2.12Z" style="fill:#66a0c8;"/><path d="m8.52,3.54s-.65-2.52-.04-2.56c1.29-.07.04,2.56.04,2.56Z" style="fill:#66a0c8;"/><path d="m8.56,3.69s1.53-1.46,1.09-1.83c-.71-.61-1.09,1.83-1.09,1.83Z" style="fill:#8ab6d4;"/><path d="m8.59,3.5s.61-1.56.04-1.62c-.93-.09-.04,1.62-.04,1.62Z" style="fill:#8ab6d4;"/><g><path d="m8.68,3.75s3.17-.04,2.71-.49c-1.05-1.05-2.71.49-2.71.49Z" style="fill:#66a0c8;"/><path d="m8.76,3.78s-1.3-1.48-1.73-1.3c-.72.29,1.73,1.3,1.73,1.3Z" style="fill:#66a0c8;"/><path d="m8.68,3.75s2.59-1.09,1.69-1.35c-1.71-.49-1.69,1.35-1.69,1.35Z" style="fill:#8ab6d4;"/><path d="m8.68,3.73s-1.89-1.71-1.33-1.8c1.44-.24,1.33,1.8,1.33,1.8Z" style="fill:#8ab6d4;"/></g><path d="m8.27,3.29c.07-.03.15.07.24.19-.05-.13-.06-.26.06-.32.25,0,.29.17.27.33.08-.11.21-.19.46-.11.11.03.06.1-.04.18.13-.02.27,0,.38.12.15.15-.92.17-.92.17,0,0-.72-.45-.45-.55Z" style="fill:#d7e4ef;"/></g><g><path d="m2.62,4.28s-1.1-2.37-1.55-1.99c-.94.79,1.55,1.99,1.55,1.99Z" style="fill:#438cbd;"/><path d="m2.6,4.36s.15-2.61-.43-2.49c-1.2.25.43,2.49.43,2.49Z" style="fill:#438cbd;"/><path d="m2.49,4.76S-.12,4.91,0,4.33c.25-1.2,2.49.43,2.49.43Z" style="fill:#438cbd;"/><path d="m2.59,4.73s-.4-2.66.32-2.48c1.49.37-.32,2.48-.32,2.48Z" style="fill:#438cbd;"/><path d="m2.19,4.72S-.13,3.71.32,3.32c.91-.82,1.88,1.4,1.88,1.4Z" style="fill:#66a0c8;"/><path d="m2.74,4.54s-.29-2.6-.84-2.38c-1.14.45.84,2.38.84,2.38Z" style="fill:#66a0c8;"/><path d="m2.76,4.7s-1.81-.77-1.57-1.26c.4-.83,1.57,1.26,1.57,1.26Z" style="fill:#8ab6d4;"/><path d="m2.67,4.53s-1.06-1.2-.59-1.46c.81-.45.59,1.46.59,1.46Z" style="fill:#8ab6d4;"/><g><path d="m2.68,4.79S.04,5.8.25,5.27c.49-1.27,2.43-.47,2.43-.47Z" style="fill:#66a0c8;"/><path d="m2.62,4.84s.67-1.84,1.13-1.85c.79,0-1.13,1.85-1.13,1.85Z" style="fill:#66a0c8;"/><path d="m2.68,4.79s-2.53-.08-1.89-.61c1.28-1.07,1.89.61,1.89.61Z" style="fill:#8ab6d4;"/><path d="m2.66,4.78s1.14-2.31.59-2.17c-1.38.34-.59,2.17-.59,2.17Z" style="fill:#8ab6d4;"/></g><path d="m2.88,4.23c-.07,0-.11.12-.15.26,0-.13-.03-.26-.17-.27-.22.1-.2.26-.13.4-.11-.07-.24-.1-.43.06-.08.07-.02.11.1.14-.12.03-.23.09-.29.23-.07.19.85-.16.85-.16,0,0,.49-.66.21-.66Z" style="fill:#d7e4ef;"/></g><g><path d="m4.28,5.71s-.11-2.41-.63-2.24c-1.08.34.63,2.24.63,2.24Z" style="fill:#438cbd;"/><path d="m4.24,5.77s1.04-2.18.5-2.28c-1.11-.2-.5,2.28-.5,2.28Z" style="fill:#438cbd;"/><path d="m4.01,6.07s-2.28-.78-1.98-1.23c.63-.94,1.98,1.23,1.98,1.23Z" style="fill:#438cbd;"/><path d="m4.11,6.08s.59-2.42,1.14-2.01c1.15.83-1.14,2.01-1.14,2.01Z" style="fill:#438cbd;"/><path d="m3.77,5.94s-1.63-1.67-1.11-1.86c1.06-.38,1.11,1.86,1.11,1.86Z" style="fill:#66a0c8;"/><path d="m4.3,5.98s.66-2.32.11-2.33c-1.13-.02-.11,2.33-.11,2.33Z" style="fill:#66a0c8;"/><path d="m4.26,6.11s-1.27-1.29-.9-1.63c.63-.57.9,1.63.9,1.63Z" style="fill:#8ab6d4;"/><path d="m4.24,5.94s-.49-1.4,0-1.46c.85-.1,0,1.46,0,1.46Z" style="fill:#8ab6d4;"/><g><path d="m4.16,6.17s-2.61-.06-2.24-.45c.87-.92,2.24.45,2.24.45Z" style="fill:#66a0c8;"/><path d="m4.09,6.19s1.21-1.34,1.61-1.18c.68.27-1.61,1.18-1.61,1.18Z" style="fill:#66a0c8;"/><path d="m4.16,6.17s-2.14-.95-1.4-1.18c1.47-.47,1.4,1.18,1.4,1.18Z" style="fill:#8ab6d4;"/><path d="m4.15,6.15s1.78-1.57,1.26-1.65c-1.3-.19-1.26,1.65-1.26,1.65Z" style="fill:#8ab6d4;"/></g><path d="m4.53,5.76c-.06-.02-.14.07-.21.17.05-.11.06-.23-.05-.29-.22,0-.26.15-.25.3-.07-.1-.18-.17-.39-.1-.09.03-.05.09.03.16-.11-.02-.23,0-.32.1-.13.13.78.15.78.15,0,0,.65-.4.41-.49Z" style="fill:#d7e4ef;"/></g></g></g></svg>