<?xml version="1.0" encoding="UTF-8"?><svg id="uuid-8e452b24-530b-446e-ac32-04ae7d25f5b6" xmlns="http://www.w3.org/2000/svg" viewBox="0 0 71.88 50.02"><g id="uuid-bd90d38b-6262-4622-a72d-e94fbf3bc0fe"><g><polygon points="71.88 20.38 43.42 33.84 43.42 50.02 71.88 36.57 71.88 20.38" style="fill:#24272a;"/><polygon points="0 29.41 43.42 50.02 43.42 33.84 0 13.23 0 29.41" style="fill:#2a2f32;"/><path d="m43.42,33.84l28.03-13.3c.19-.09.19-.37,0-.46L29.71.27c-.76-.36-1.64-.36-2.4,0L.37,13.05c-.19.09-.19.37,0,.46l42.83,20.33c.07.03.15.03.22,0Z" style="fill:#34393d;"/><path d="m50.76,26.56l13.64-6.48L30.85,4.16c-.41-.19-.88-.19-1.29,0l-13,6.17,34.2,16.23Z" style="fill:#2a2f32;"/><path d="m30.89,26.56l5.02-2.38-12.34-5.85c-.15-.07-.32-.07-.47,0l-4.78,2.27,12.57,5.97Z" style="fill:#2a2f32;"/><path d="m2.64,16.96l38.4,18.22c.1.05.17.15.17.27v3.63c-.01.22-.24.36-.44.27L2.38,21.13c-.1-.05-.17-.15-.17-.27v-3.63c.01-.22.24-.36.44-.27Z" style="fill:#34393d;"/><line x1="2.51" y1="23.32" x2="40.91" y2="41.55" style="fill:none; stroke:#24272a; stroke-linecap:round; stroke-miterlimit:10;"/><line x1="29.91" y1="5.62" x2="61.03" y2="20.38" style="fill:none; stroke:#24272a; stroke-linecap:round; stroke-miterlimit:10;"/><path d="m15.68,16.05c-.18-.02-.35-.07-.49-.14l-4.86-2.34c-.53-.25-.56-.74-.08-1.09.48-.35,1.3-.42,1.83-.17l4.86,2.34c.53.25.56.74.08,1.09-.35.25-.87.36-1.34.3Z" style="fill:#24272a;"/><path d="m12.9,17.65c-.18-.02-.35-.07-.49-.14l-4.86-2.34c-.53-.25-.56-.74-.08-1.09.48-.35,1.3-.42,1.83-.17l4.86,2.34c.53.25.56.74.08,1.09-.35.25-.87.36-1.34.3Z" style="fill:#24272a;"/><line x1="16.75" y1="26.67" x2="23.03" y2="29.65" style="fill:none; stroke:#2a2f32; stroke-linecap:round; stroke-miterlimit:10; stroke-width:.75px;"/></g></g></svg>