<?xml version="1.0" encoding="UTF-8"?><svg id="uuid-657d6921-388c-405b-8aaa-21c2579d9bde" xmlns="http://www.w3.org/2000/svg" viewBox="0 0 104.27 107.41"><g id="uuid-60a05bf2-8d25-4b1a-84db-221d481fcafb"><g><g><polygon points="85.27 40.81 50.37 57.31 50.37 100.67 85.27 84.17 85.27 40.81" style="fill:#c2c3bd;"/><polygon points="14.42 83.61 50.37 100.67 50.37 57.31 14.42 40.25 14.42 83.61" style="fill:#d4d3cf;"/><path d="m86.15,41.03c-.05-.19-.18-.36-.39-.46l-35.88-17.03c-.2-.09-.43-.09-.63,0L14.46,40.06c-.34.16-.47.51-.4.83,0,.01,0,.02,0,.03v3.41c-.01.11.05.21.15.25l36.07,17.12c.18.09.64.09.82,0l35.1-16.66v-4.04h-.03Z" style="fill:#7f8889;"/><polygon points="23.44 54.18 39.84 61.93 39.84 67.87 23.44 60.12 23.44 54.18" style="fill:#c2c3bd;"/></g><g><line x1="5.01" y1="23.94" x2="5.01" y2="79.55" style="fill:none; stroke:#3e4749; stroke-linecap:round; stroke-miterlimit:10; stroke-width:6px;"/><line x1="57.39" y1="48.79" x2="57.39" y2="104.41" style="fill:none; stroke:#3e4749; stroke-linecap:round; stroke-miterlimit:10; stroke-width:6px;"/><line x1="99.32" y1="29.71" x2="99.32" y2="85.33" style="fill:none; stroke:#3e4749; stroke-linecap:round; stroke-miterlimit:10; stroke-width:6px;"/><path d="m104.22,28.06c-.09-.3-.29-.57-.62-.73L46.25.11c-.32-.15-.69-.15-1.01,0L.67,21.27c-.54.26-.75.82-.64,1.32,0,.02-.01.04-.01.06L0,28.1c0,.17.1.33.25.4l57.66,27.36c.3.14,1.02.14,1.31,0l45.05-21.38v-6.45l-.05.02Z" style="fill:#4d5b5d;"/></g></g></g></svg>