<?xml version="1.0" encoding="UTF-8"?><svg id="uuid-0903d89e-e50e-411d-8e65-ff24f94e3ed3" xmlns="http://www.w3.org/2000/svg" viewBox="0 0 62.46 45.8"><g id="uuid-48a8c7b6-bf0c-4b9c-bf57-40cd2c40f3e5"><g><polygon points="25.77 17.15 1.88 28.49 1.88 13.1 25.77 1.76 25.77 17.15" style="fill:none; stroke:#eeebea; stroke-linejoin:round; stroke-width:1.75px;"/><g><line x1="54.39" y1="32.78" x2="34.97" y2="41.73" style="fill:none; stroke:#41494e; stroke-linecap:round; stroke-miterlimit:10; stroke-width:1.5px;"/><line x1="6.7" y1="28.33" x2="34.87" y2="41.7" style="fill:none; stroke:#41494e; stroke-linecap:round; stroke-miterlimit:10; stroke-width:1.5px;"/><path d="m35.39,41.89L5.34,27.63c-.3-.14-.3-.57,0-.71l20.16-9.57c.11-.05.23-.05.34,0l28.95,13.74c.74.35.74,1.4,0,1.75l-19.07,9.05c-.11.05-.23.05-.34,0Z" style="fill:#34393d;"/><line x1="7.7" y1="25.62" x2="35.87" y2="38.99" style="fill:none; stroke:#41494e; stroke-linecap:round; stroke-miterlimit:10; stroke-width:1.5px;"/><path d="m36.39,39.18L6.34,24.92c-.3-.14-.3-.57,0-.71l20.16-9.57c.11-.05.23-.05.34,0l28.95,13.74c.74.35.74,1.4,0,1.75l-19.07,9.05c-.11.05-.23.05-.34,0Z" style="fill:#34393d;"/><line x1="8.7" y1="22.9" x2="36.87" y2="36.27" style="fill:none; stroke:#41494e; stroke-linecap:round; stroke-miterlimit:10; stroke-width:1.5px;"/><path d="m37.39,36.46L7.34,22.21c-.3-.14-.3-.57,0-.71l20.16-9.57c.11-.05.23-.05.34,0l28.95,13.74c.74.35.74,1.4,0,1.75l-19.07,9.05c-.11.05-.23.05-.34,0Z" style="fill:#34393d;"/></g><polygon points="60.97 33.59 37.08 44.93 37.08 29.53 60.97 18.19 60.97 33.59" style="fill:none; stroke:#eeebea; stroke-linejoin:round; stroke-width:1.75px;"/><path d="m37.04,30.28L.38,12.88c-.51-.24-.51-.96,0-1.2L24.85.06c.18-.09.39-.09.57,0l36.66,17.4c.51.24.51.96,0,1.2l-24.47,11.61c-.18.09-.39.09-.57,0Z" style="fill:#fdf9f8;"/></g></g></svg>