<?xml version="1.0" encoding="UTF-8"?><svg id="uuid-ac8cdbc6-36d9-4035-98ae-9054d6524592" xmlns="http://www.w3.org/2000/svg" viewBox="0 0 59.02 34.44"><g id="uuid-3fe527a1-d428-44b6-ae0d-a41896afe10c"><g><polygon points="56.79 25.46 41.02 32.94 41.02 27.89 56.79 20.4 56.79 25.46" style="fill:none; stroke:#34393d; stroke-linejoin:round; stroke-width:3px;"/><polygon points="18.99 7.48 3.23 14.96 3.23 9.9 18.99 2.42 18.99 7.48" style="fill:none; stroke:#34393d; stroke-linejoin:round; stroke-width:3px;"/><path d="m58.31,18.34L19.88.12c-.17-.08-.35-.12-.53-.12h0c-.18,0-.37.04-.53.12L.71,8.71C.27,8.92,0,9.35,0,9.84c0,.49.27.92.71,1.13l38.43,18.22c.17.08.35.12.53.12s.37-.04.53-.12l18.1-8.59c.44-.21.71-.64.71-1.13,0-.49-.27-.92-.71-1.13ZM19.61.69c-.08-.04-.17-.06-.26-.06h0c.09,0,.18.02.26.06Zm20.06,27.98c-.09,0-.18-.02-.26-.06.17.08.36.08.53,0-.08.04-.17.06-.26.06Z" style="fill:#354546;"/></g></g></svg>